<?xml version="1.0" standalone="no"?>
<!DOCTYPE svg PUBLIC "-//W3C//DTD SVG 1.1//EN" "http://www.w3.org/Graphics/SVG/1.1/DTD/svg11.dtd" >
<svg xmlns="http://www.w3.org/2000/svg">
<metadata>
This is a custom SVG webfont generated by Font Squirrel.
Copyright   : Copyright 1997 International Typeface Corporation All rights reserved
Designer    : Mark van Bronkhorst MvB Design
Foundry     : International Typeface Corporation
Foundry URL : httpwwwitcfontscom
</metadata>
<defs>
<font id="webfontsEEOFHrA" horiz-adv-x="1044" >
<font-face units-per-em="2048" ascent="1638" descent="-410" />
<missing-glyph horiz-adv-x="356" />
<glyph unicode=" "  horiz-adv-x="356" />
<glyph unicode="&#x09;" horiz-adv-x="356" />
<glyph unicode="&#xa0;" horiz-adv-x="356" />
<glyph unicode="!" horiz-adv-x="595" d="M369 750l-43 -349q-2 -18 -21 -18h-10q-16 0 -21 18l-45 347v520q0 20 21 20h98q20 0 21 -20v-518zM401 70q0 -43 -29.5 -72t-72.5 -29q-41 0 -70.5 30t-29.5 71t29.5 70.5t70.5 29.5q43 0 72.5 -28.5t29.5 -71.5z" />
<glyph unicode="&#x22;" horiz-adv-x="577" d="M494 1276l-39 -309q-4 -18 -21 -19h-28q-16 0 -21 19l-43 309q0 23 20 22h111q21 1 21 -22zM238 1276l-39 -309q-2 -18 -21 -19h-31q-16 0 -20 19l-43 309q0 23 20 22h113q21 1 21 -22z" />
<glyph unicode="#" horiz-adv-x="1153" d="M1063 893l-23 -84q-6 -20 -26 -21h-121q-18 0 -21 -12l-71 -258q0 -18 22 -18h127q16 0 17 -13l-23 -84q-6 -20 -26 -20h-142q-18 0 -20 -12l-101 -357q-2 -14 -20 -14h-68q-23 0 -22 18l98 349q0 16 -22 16h-250q-18 0 -21 -12l-102 -357q-2 -14 -21 -14h-67 q-23 0 -23 18l96 349q0 16 -22 16h-105q-16 0 -16 12l23 84q6 20 26 21h117q16 0 20 16l74 256q0 16 -22 16h-123q-16 0 -17 13l23 84q6 20 27 20h135q16 0 20 17l103 354q2 14 20 14h68q23 0 22 -18l-98 -348q0 -18 22 -19h250q16 0 21 17l102 354q2 14 21 14h67 q23 0 23 -18l-99 -348q0 -18 23 -19h109q16 0 16 -12zM758 772q0 16 -23 16h-250q-18 0 -20 -12l-72 -258q0 -18 23 -18h250q16 0 20 16z" />
<glyph unicode="$" d="M915 315q0 -135 -85 -224t-232 -109q-16 -2 -16 -21v-67q0 -20 -21 -21h-55q-20 0 -21 21v65q0 20 -18 21q-180 0 -274 110q-41 49 -41 68q0 12 12 18l78 39q2 0 8 3t8 3q10 0 16 -10q76 -115 193 -115q18 0 18 21v467q0 12 -12 18q-72 33 -117 60.5t-93 71.5 t-71.5 103.5t-23.5 137.5q0 133 79 221t222 113q16 4 16 20v68q0 20 21 20h55q20 0 21 -20v-66q0 -18 16 -20q150 -18 233 -113q43 -47 43 -63q0 -12 -14 -19l-78 -39q-8 -6 -18 -6q-8 0 -14 8q-45 61 -105 90q-29 16 -47 17q-16 0 -16 -23v-430q0 -12 12 -18 q74 -33 122 -61.5t98 -76t75.5 -113t25.5 -149.5zM485 799v360q0 23 -18 23q-10 0 -51 -21q-111 -61 -111 -186q0 -94 109 -170q45 -29 55 -29q16 0 16 23zM776 315q0 111 -119 191q-49 33 -59 33q-16 0 -16 -23v-389q0 -23 14 -23q23 0 55 19q57 27 91 79t34 113z" />
<glyph unicode="%" horiz-adv-x="1003" d="M457 911q0 -78 -50.5 -126t-134.5 -48t-134 48.5t-50 125.5v205q0 78 50 126t134 48t134.5 -48t50.5 -126v-205zM817 1274l-538 -1262q-6 -12 -19 -12h-49q-23 0 -23 16l539 1262q6 12 18 12h50q22 0 22 -16zM918 174q0 -78 -50.5 -126t-134.5 -48t-134 48t-50 126v205 q0 78 50 126t134 48t134.5 -48t50.5 -126v-205zM354 911v205q0 33 -24.5 57.5t-57 24.5t-57.5 -24.5t-25 -57.5v-205q0 -33 25 -57.5t57.5 -24.5t57 24.5t24.5 57.5zM815 174v205q0 33 -24.5 57.5t-57.5 24.5t-57.5 -24.5t-24.5 -57.5v-205q0 -33 24.5 -57.5t57.5 -24.5 t57.5 24.5t24.5 57.5z" />
<glyph unicode="&#x26;" horiz-adv-x="1280" d="M1233 2q0 -20 -19 -20h-4q-170 25 -313 163q-6 6 -14.5 6.5t-14.5 -10.5q-106 -162 -313 -161h-63q-164 0 -260.5 95t-96.5 257v53q0 66 44 138.5t118 105.5q14 6 14 16t-10 19q-88 72 -128 136t-40 150q0 166 96.5 263.5t262.5 97.5q164 0 260 -96.5t96 -260.5v-43 q0 -68 -53.5 -141.5t-161.5 -112.5q-16 -6 -17 -18q0 -10 11 -18q74 -51 194 -179q10 -10 19 -10q10 0 16 19q78 262 342 262h14q20 0 21 -21v-96q0 -20 -21 -21h-30q-158 0 -219 -217l-11 -36q-6 -14 9 -29q133 -133 258 -170q14 -2 14 -21v-100zM711 934v41 q0 92 -64.5 154.5t-154.5 62.5q-92 0 -155 -62.5t-63 -154.5q0 -131 187 -258q10 -8 24 -8q68 0 147 63.5t79 161.5zM778 264q0 6 -28 41q-104 127 -172 178q-27 20 -119 78q-37 23 -43 23q-10 0 -49 -29q-92 -70 -93 -176v-64q0 -90 62.5 -154.5t155.5 -64.5h63 q53 0 106.5 31t90.5 84q26 35 26 53z" />
<glyph unicode="'" horiz-adv-x="321" d="M238 1276l-39 -309q-2 -18 -21 -19h-31q-16 0 -20 19l-43 309q0 23 20 22h113q21 1 21 -22z" />
<glyph unicode="(" horiz-adv-x="792" d="M596 -360q0 -20 -18 -21q-49 0 -127 37q-184 94 -185 319v1172q0 227 189 317q76 35 123 35q18 0 18 -20v-80q0 -16 -16 -21q-80 -16 -127 -74.5t-47 -136.5v-1214q0 -78 47 -136.5t127 -76.5q16 -4 16 -21v-79z" />
<glyph unicode=")" horiz-adv-x="792" d="M528 -25q0 -225 -184 -319q-78 -37 -127 -37q-18 0 -18 21v79q0 16 16 21q80 18 127 76.5t47 136.5v1214q0 78 -47 136.5t-127 74.5q-16 4 -16 21v80q0 20 18 20q47 0 123 -35q188 -90 188 -317v-1172z" />
<glyph unicode="*" horiz-adv-x="786" d="M725 954q0 -4 -4 -12l-39 -65q-6 -12 -16 -13q-8 0 -15 6l-192 134q-8 6 -17 6q-16 0 -16 -21l29 -241q0 -18 -21 -19h-80q-20 0 -20 19l28 241q0 20 -16 21q-6 0 -16 -6l-187 -134q-8 -6 -14 -6q-10 0 -16 13l-39 67q-4 8 -4 12q0 10 14 17l211 90q16 6 16 18.5 t-16 18.5l-211 96q-14 6 -14 16q0 4 4 13l39 65q6 12 16 13q6 0 14 -7l183 -137q10 -6 16 -6q16 0 16 21l-24 237q0 18 20 19h78q20 0 21 -19l-27 -237q0 -20 16 -21q8 0 17 6l192 137q6 6 15 7q10 0 16 -13l39 -65q4 -8 4 -13q0 -10 -14 -16l-219 -96q-14 -6 -14.5 -18.5 t14.5 -18.5l219 -92q14 -7 14 -17z" />
<glyph unicode="+" d="M954 457q0 -20 -20 -21h-342q-20 0 -21 -20v-342q0 -20 -20 -21h-53q-20 0 -21 21v342q0 20 -20 20h-344q-20 0 -21 21v55q0 20 21 20h344q20 0 20 21v342q0 20 21 20h53q20 0 20 -20v-342q0 -20 21 -21h342q20 0 20 -20v-55z" />
<glyph unicode="," horiz-adv-x="428" d="M315 51q0 -199 -129 -299q-35 -29 -49 -28q-10 0 -16 10l-21 33q-4 8 -4 14t6 12q82 68 82 211q0 20 -20 21h-29q-20 0 -20 20v121q0 20 20 20h160q20 0 20 -20v-115z" />
<glyph unicode="-" horiz-adv-x="534" d="M434 403q0 -20 -20 -20h-291q-20 0 -21 20v99q0 20 21 20h291q20 0 20 -20v-99z" />
<glyph unicode="." horiz-adv-x="428" d="M315 70q0 -43 -29.5 -72t-72.5 -29q-39 0 -68.5 30t-29.5 71t29.5 70.5t68.5 29.5q43 0 72.5 -28.5t29.5 -71.5z" />
<glyph unicode="/" horiz-adv-x="624" d="M635 1274q0 -6 -41 -105l-496 -1157q-6 -12 -18 -12h-70q-23 0 -22 16q0 2 39 93l499 1169q6 12 19 12h69q21 0 21 -16z" />
<glyph unicode="0" d="M911 315q0 -150 -98 -242.5t-260 -92.5h-64q-162 0 -259 93t-97 242v660q0 150 97.5 243t258.5 93h64q162 0 260 -93.5t98 -242.5v-660zM772 315v660q0 92 -64.5 154.5t-154.5 62.5h-64q-92 0 -154.5 -62.5t-62.5 -154.5v-660q0 -90 62.5 -154.5t154.5 -64.5h64 q90 0 154.5 64.5t64.5 154.5z" />
<glyph unicode="1" d="M887 20q0 -20 -21 -20h-608q-20 0 -20 20v76q0 20 20 21h215q20 0 21 20v867q0 23 -17 22q-10 0 -18 -8l-135 -135q-8 -8 -15 -9q-8 0 -14 9l-51 57q-6 6 -6 14.5t6 14.5l313 313q6 6 14 6h39q20 0 21 -20v-1131q0 -20 20 -20h215q20 0 21 -21v-76z" />
<glyph unicode="2" d="M899 975q0 -80 -24.5 -144.5t-75.5 -113.5t-94 -80t-111 -72q-16 -10 -25 -14q-129 -78 -195.5 -148.5t-66.5 -181.5v-84q0 -20 21 -20h532q20 0 21 -21v-76q0 -20 -21 -20h-672q-20 0 -20 20v201q0 86 24.5 155.5t73.5 123t93 87.5t114 77q168 104 215 151q72 74 72 160 q0 92 -64.5 154.5t-154.5 62.5h-82q-115 0 -191 -111q-6 -10 -16 -10q-8 0 -21 8l-73 37q-12 6 -13 19q0 18 39 65q90 111 275 111h82q162 0 260 -93t98 -243z" />
<glyph unicode="3" d="M881 332q0 -162 -97.5 -257t-261.5 -95h-63q-180 0 -273 108q-43 51 -43 70q0 12 13 18l77 39q8 6 17 6q10 0 16 -10q76 -115 193 -115h63q88 0 153.5 64.5t65.5 154.5v74q0 88 -64.5 152.5t-154.5 64.5h-143q-20 0 -21 21v75q0 20 21 21h143q92 0 155.5 64.5t63.5 156.5 v31q0 92 -64.5 154.5t-154.5 62.5h-63q-117 0 -193 -113q-6 -10 -16 -10q-8 0 -19 6l-77 41q-12 6 -13 17q0 23 43 69q92 109 275 109h63q164 0 261.5 -97.5t97.5 -259.5v-32q0 -90 -60.5 -161t-134.5 -91v-8q66 -20 130.5 -95t64.5 -172v-63z" />
<glyph unicode="4" d="M977 330q0 -20 -21 -21h-151q-20 0 -21 -20v-269q0 -20 -20 -20h-96q-20 0 -21 20v269q0 20 -20 20h-535q-20 0 -20 19l4 118l549 834q8 8 16 8h123q20 0 20 -20v-822q0 -20 21 -20h151q20 0 21 -20v-76zM647 446v605q0 25 -18 24q-10 0 -19 -12l-401 -604q-6 -8 -6 -17 q0 -16 22 -16h402q20 0 20 20z" />
<glyph unicode="5" d="M915 332q0 -162 -97 -257t-261 -95h-63q-170 0 -261 94q-57 61 -57 84q0 10 12 16l74 39q16 8 23 8q10 0 16 -10q76 -115 193 -115h63q90 0 154.5 64.5t64.5 154.5v74q0 88 -64.5 152.5t-154.5 64.5h-313q-20 0 -21 21v641q0 20 21 20h628q20 0 21 -20v-76q0 -20 -21 -21 h-491q-20 0 -21 -20v-408q0 -20 21 -20h176q164 0 261 -94t97 -256v-41z" />
<glyph unicode="6" d="M928 315q0 -150 -98.5 -242.5t-260.5 -92.5h-61q-162 0 -258 93t-96 242v660q0 150 96 243t258 93h61q176 0 271 -105q49 -57 49 -71q0 -12 -15 -19l-69 -35q-20 -10 -25 -10q-10 0 -16 10q-76 111 -195 111h-61q-90 0 -153.5 -62.5t-63.5 -154.5v-342q0 -23 18 -23 q10 0 19 11q92 115 202 114h62q141 0 238.5 -94t97.5 -240v-86zM788 315v86q0 88 -64.5 152.5t-154.5 64.5h-61q-90 0 -153.5 -63t-63.5 -154v-86q0 -90 64.5 -154.5t152.5 -64.5h61q90 0 154.5 64.5t64.5 154.5z" />
<glyph unicode="7" d="M887 1069q0 -76 -21.5 -140.5t-46 -106.5t-76 -89t-78.5 -66l-90 -61q-111 -74 -166 -137t-55 -154v-295q0 -20 -20 -20h-98q-20 0 -21 20v295q0 147 66.5 234.5t191.5 169.5q78 51 105.5 72.5t79 68.5t71 97.5t19.5 111.5v82q0 20 -21 20h-534q-20 0 -21 21v76 q0 20 21 20h673q20 0 21 -20v-199z" />
<glyph unicode="8" d="M913 332q0 -162 -97 -257t-261 -95h-63q-164 0 -260.5 95t-96.5 257v53q0 94 57.5 163.5t143.5 98.5v10q-70 18 -135.5 87t-65.5 167v43q0 164 96.5 260.5t260.5 96.5h63q164 0 261 -97.5t97 -259.5v-43q0 -90 -61 -160.5t-133 -91.5v-8q66 -20 130 -95t64 -171v-53z M774 934v41q0 92 -64.5 154.5t-154.5 62.5h-63q-92 0 -155 -62.5t-63 -154.5v-41q0 -92 62.5 -156.5t155.5 -64.5h63q92 0 155.5 64.5t63.5 156.5zM774 315v64q0 88 -64.5 152.5t-154.5 64.5h-63q-92 0 -155 -63.5t-63 -153.5v-64q0 -90 62.5 -154.5t155.5 -64.5h63 q88 0 153.5 64.5t65.5 154.5z" />
<glyph unicode="9" d="M891 315q0 -150 -98.5 -242.5t-260.5 -92.5h-61q-184 0 -276 112q-39 45 -39 66q0 12 12 18l78 39q8 6 18 6t17 -10q70 -115 190 -115h61q90 0 155 64.5t65 154.5v271q0 23 -19 22q-10 0 -18 -10q-92 -119 -203 -119h-61q-143 0 -238.5 95.5t-95.5 240.5v160 q0 150 96 243t258 93h61q162 0 260.5 -93.5t98.5 -242.5v-660zM752 815v160q0 92 -64.5 154.5t-155.5 62.5h-61q-90 0 -153.5 -62.5t-63.5 -154.5v-160q0 -90 64.5 -154.5t152.5 -64.5h61q90 0 155 64.5t65 154.5z" />
<glyph unicode=":" horiz-adv-x="428" d="M315 645q0 -41 -30.5 -71.5t-71.5 -30.5q-39 0 -68.5 30.5t-29.5 71.5t29.5 70.5t68.5 29.5q43 0 72.5 -28.5t29.5 -71.5zM315 70q0 -43 -29.5 -72t-72.5 -29q-39 0 -68.5 30t-29.5 71t29.5 70.5t68.5 29.5q43 0 72.5 -28.5t29.5 -71.5z" />
<glyph unicode=";" horiz-adv-x="428" d="M315 645q0 -41 -30.5 -71.5t-71.5 -30.5q-39 0 -68.5 30.5t-29.5 71.5t29.5 70.5t68.5 29.5q43 0 72.5 -28.5t29.5 -71.5zM315 51q0 -199 -129 -299q-35 -29 -49 -28q-10 0 -16 10l-21 33q-4 8 -4 14t6 12q82 68 82 211q0 20 -20 21h-29q-20 0 -20 20v121q0 20 20 20h160 q20 0 20 -20v-115z" />
<glyph unicode="&#x3c;" d="M848 866q0 -10 -12 -16l-590 -340q-14 -10 -14.5 -18.5t14.5 -18.5l590 -342q10 -4 10 -16q0 -10 -4 -15l-29 -43q-6 -10 -16 -10q-2 0 -11 4l-639 367q-10 6 -10 18v105q0 12 10 18l641 371q8 4 13 4q10 0 16 -12l27 -43q4 -9 4 -13z" />
<glyph unicode="=" d="M954 649q0 -20 -20 -20h-821q-20 0 -21 20v53q0 20 21 21h821q20 0 20 -21v-53zM954 266q0 -20 -20 -20h-821q-20 0 -21 20v53q0 20 21 21h821q20 0 20 -21v-53z" />
<glyph unicode="&#x3e;" d="M909 438q0 -12 -10 -18l-639 -369q-8 -4 -12 -4q-10 0 -17 12l-26 43q-4 8 -4 13q0 10 12 16l588 342q14 10 14 18.5t-14 18.5l-588 340q-12 6 -12 16q0 4 4 13l26 43q6 12 17 12q4 0 12 -4l639 -373q10 -6 10 -18v-101z" />
<glyph unicode="?" d="M903 975q0 -76 -18.5 -132.5t-56 -91t-69.5 -54t-79 -42.5q-12 -6 -18 -8q-86 -41 -127 -82t-41 -119q0 -8 1 -23t1 -22q0 -18 -21 -18h-98q-20 0 -21 18q-2 35 -2 76q0 33 7.5 61.5t14.5 49t26 42.5l29 32q9 10 39 28.5t37 22.5t43 21l40 20q86 43 131 90t45 131 q0 92 -64.5 154.5t-154.5 62.5h-82q-117 0 -193 -113q-6 -10 -16 -10q-6 0 -14 4l-82 43q-12 6 -13 17q0 18 46 71q92 106 272 107h82q162 0 259 -93t97 -243zM561 70q0 -43 -29.5 -72t-72.5 -29q-41 0 -71 30t-30 71t30 70.5t71 29.5q43 0 72.5 -28.5t29.5 -71.5z" />
<glyph unicode="@" horiz-adv-x="1441" d="M1282 504q0 -80 -52 -130t-138 -50h-25q-94 0 -149 61q-14 18 -35 2q-31 -27 -77 -45t-79 -18q-117 0 -187.5 67.5t-70.5 175.5v168q0 109 70.5 174.5t187.5 65.5q55 0 123 -41q31 -18 31 14v8q0 18 20 19h64q20 0 20 -21v-440q0 -37 23.5 -60.5t60.5 -23.5h23 q35 0 59.5 24.5t24.5 59.5v424q0 111 -72 178.5t-193 67.5h-364q-121 0 -193.5 -67.5t-72.5 -178.5v-586q0 -111 72.5 -178.5t193.5 -67.5h532q20 0 21 -20v-66q0 -20 -21 -20h-532q-170 0 -271.5 98.5t-101.5 253.5v586q0 156 101.5 254t271.5 98h364q168 0 269.5 -97 t101.5 -255v-434zM881 582v137q0 63 -45 106t-109 43q-61 0 -106.5 -44t-45.5 -105v-137q0 -63 44.5 -107.5t107.5 -44.5q61 0 107.5 45.5t46.5 106.5z" />
<glyph unicode="A" horiz-adv-x="917" d="M899 16q0 -16 -22 -16h-105q-18 0 -20 14l-80 283q-2 12 -21 12h-385q-18 0 -20 -12l-80 -283q-2 -14 -21 -14h-104q-23 0 -23 16q0 8 15 52l366 1206q2 14 21 14h78q18 0 20 -14l363 -1194q18 -56 18 -64zM627 444l-140 535q-2 6 -11 39t-11 41h-8q-12 -49 -23 -80 l-147 -535q0 -18 22 -18h295q23 0 23 18z" />
<glyph unicode="B" horiz-adv-x="1067" d="M944 354q0 -162 -97 -258t-261 -96h-398q-20 0 -20 20v1248q0 20 20 20h398q164 0 261 -96t97 -258v-23q0 -61 -44 -133.5t-107 -103.5q-16 -10 -16.5 -20.5t11.5 -16.5q61 -31 108.5 -99.5t47.5 -152.5v-31zM807 934v20q0 90 -64.5 153.5t-156.5 63.5h-260 q-20 0 -21 -20v-418q0 -20 21 -20h260q92 0 156.5 64.5t64.5 156.5zM807 336v43q0 90 -64.5 153.5t-156.5 63.5h-260q-20 0 -21 -21v-438q0 -20 21 -20h260q92 0 156.5 63.5t64.5 155.5z" />
<glyph unicode="C" horiz-adv-x="950" d="M874 158q0 -18 -47 -70q-94 -109 -272 -108h-63q-162 0 -259.5 93t-97.5 242v660q0 150 97.5 243t259.5 93h63q176 0 274 -109q45 -49 45 -67q0 -12 -14 -19l-78 -39q-8 -6 -18 -6q-8 0 -14 8q-82 113 -195 113h-63q-92 0 -155 -62.5t-63 -154.5v-660q0 -90 62.5 -154.5 t155.5 -64.5h63q115 0 195 117q6 8 14 8q10 0 18 -6l78 -39q14 -8 14 -18z" />
<glyph unicode="D" horiz-adv-x="1077" d="M944 358q0 -164 -97 -261t-261 -97h-398q-20 0 -20 20v1248q0 20 20 20h398q164 0 261 -96t97 -258v-576zM807 336v618q0 90 -64.5 153.5t-156.5 63.5h-260q-20 0 -21 -20v-1014q0 -20 21 -20h260q92 0 156.5 63.5t64.5 155.5z" />
<glyph unicode="E" horiz-adv-x="980" d="M881 20q0 -20 -21 -20h-672q-20 0 -20 20v1248q0 20 20 20h672q20 0 21 -20v-76q0 -20 -21 -21h-534q-20 0 -21 -20v-418q0 -20 21 -20h438q20 0 20 -21v-76q0 -20 -20 -20h-438q-20 0 -21 -21v-438q0 -20 21 -20h534q20 0 21 -21v-76z" />
<glyph unicode="F" horiz-adv-x="927" d="M881 1192q0 -20 -21 -21h-534q-20 0 -21 -20v-418q0 -20 21 -20h438q20 0 20 -21v-76q0 -20 -20 -20h-438q-20 0 -21 -21v-555q0 -20 -20 -20h-97q-20 0 -20 20v1248q0 20 20 20h672q20 0 21 -20v-76z" />
<glyph unicode="G" d="M913 315q0 -150 -98 -242.5t-260 -92.5h-63q-162 0 -259.5 93t-97.5 242v660q0 150 97.5 243t259.5 93h102q180 0 274 -111q43 -51 43 -65q0 -12 -14 -19l-74 -37q-16 -8 -22 -8q-8 0 -15 8q-76 113 -192 113h-102q-92 0 -155 -62.5t-63 -154.5v-660q0 -90 62.5 -154.5 t155.5 -64.5h63q88 0 153.5 64.5t65.5 154.5v164q0 20 -20 21h-215q-20 0 -21 20v78q0 20 21 20h354q20 0 20 -20v-283z" />
<glyph unicode="H" horiz-adv-x="1140" d="M977 20q0 -20 -21 -20h-98q-20 0 -20 20v555q0 20 -21 21h-491q-20 0 -21 -21v-555q0 -20 -20 -20h-97q-20 0 -20 20v1248q0 20 20 20h97q20 0 20 -20v-535q0 -20 21 -20h491q20 0 21 20v535q0 20 20 20h98q20 0 21 -20v-1248z" />
<glyph unicode="I" horiz-adv-x="471" d="M305 20q0 -20 -20 -20h-97q-20 0 -20 20v1248q0 20 20 20h97q20 0 20 -20v-1248z" />
<glyph unicode="J" horiz-adv-x="854" d="M721 336q0 -147 -104.5 -251.5t-254 -104.5t-274.5 124q-45 41 -45 58q0 10 14 16l74 37q16 8 21 8q10 0 16 -10q35 -53 88 -85t106 -32q88 0 154 64.5t66 154.5v953q0 20 20 20h98q20 0 21 -20v-932z" />
<glyph unicode="K" horiz-adv-x="1077" d="M1038 16q0 -16 -22 -16h-123q-12 0 -19 10l-374 613q-10 14 -19 14q-6 0 -16 -10l-160 -201v-406q0 -20 -20 -20h-97q-20 0 -20 20v1248q0 20 20 20h97q20 0 20 -20v-615q0 -25 19 -24q8 0 18 12l487 639q8 8 17 8h108q23 0 23 -16q0 -6 -6 -17l-379 -467 q-10 -10 -10 -18t10 -22l430 -697q16 -29 16 -35z" />
<glyph unicode="L" horiz-adv-x="927" d="M881 20q0 -20 -21 -20h-672q-20 0 -20 20v1248q0 20 20 20h97q20 0 20 -20v-1131q0 -20 21 -20h534q20 0 21 -21v-76z" />
<glyph unicode="M" horiz-adv-x="1335" d="M1169 20q0 -20 -20 -20h-96q-20 0 -21 20v488q0 254 19 475l-9 2q-2 -4 -14 -39l-23 -66q-11 -32 -16 -40l-282 -635q-6 -12 -19 -12h-41q-12 0 -18 12l-281 635q-4 8 -15 40l-24 66q-12 35 -14 39l-8 -2q18 -221 18 -475v-488q0 -20 -20 -20h-97q-20 0 -20 20v1248 q0 20 20 20h95q12 0 18 -12l336 -778q20 -45 29 -82h6q4 20 30 80l332 780q6 12 19 12h96q20 0 20 -20v-1248z" />
<glyph unicode="N" horiz-adv-x="1140" d="M977 20q0 -20 -21 -20h-96q-12 0 -18 10l-498 901q-27 47 -37 74l-8 -2q6 -74 6 -475v-488q0 -20 -20 -20h-97q-20 0 -20 20v1248q0 20 20 20h95q12 0 18 -10l498 -911q25 -41 37 -74l8 2q-6 74 -6 475v498q0 20 20 20h98q20 0 21 -20v-1248z" />
<glyph unicode="O" d="M913 315q0 -150 -98 -242.5t-260 -92.5h-63q-162 0 -259.5 93t-97.5 242v660q0 150 97.5 243t259.5 93h63q162 0 260 -93.5t98 -242.5v-660zM774 315v660q0 92 -64.5 154.5t-154.5 62.5h-63q-92 0 -155 -62.5t-63 -154.5v-660q0 -90 62.5 -154.5t155.5 -64.5h63 q88 0 153.5 64.5t65.5 154.5z" />
<glyph unicode="P" horiz-adv-x="991" d="M944 934q0 -145 -99.5 -241.5t-258.5 -96.5h-260q-20 0 -21 -21v-555q0 -20 -20 -20h-97q-20 0 -20 20v1248q0 20 20 20h398q164 0 261 -96t97 -258zM807 934v20q0 90 -64.5 153.5t-156.5 63.5h-260q-20 0 -21 -20v-418q0 -20 21 -20h260q92 0 156.5 64.5t64.5 156.5z " />
<glyph unicode="Q" d="M913 315q0 -131 -84 -222t-231 -111q-16 -2 -16 -21v-133q0 -20 -21 -21h-76q-20 0 -20 21v133q0 16 -21 21q-147 20 -228 110t-81 223v660q0 150 97.5 243t259.5 93h63q162 0 260 -93.5t98 -242.5v-660zM774 315v660q0 92 -64.5 154.5t-154.5 62.5h-63q-92 0 -155 -62.5 t-63 -154.5v-660q0 -119 105 -182q49 -31 70 -31q16 0 16 21v100q0 20 20 21h76q20 0 21 -21v-98q0 -18 14 -19q18 0 68 25q110 61 110 184z" />
<glyph unicode="R" d="M946 16q0 -16 -20 -16h-111q-14 0 -18 14l-197 570q-2 12 -16 12h-258q-20 0 -21 -21v-555q0 -20 -20 -20h-97q-20 0 -20 20v1248q0 20 20 20h398q164 0 261 -96t97 -258v-23q0 -78 -59.5 -158.5t-134.5 -111.5q-12 -6 -13 -14q0 -4 8 -25l185 -534q16 -42 16 -52z M807 934v20q0 90 -64.5 153.5t-156.5 63.5h-260q-20 0 -21 -20v-418q0 -20 21 -20h260q92 0 156.5 64.5t64.5 156.5z" />
<glyph unicode="S" horiz-adv-x="946" d="M856 315q0 -150 -97 -242.5t-261 -92.5h-88q-182 0 -277 110q-41 49 -41 68q0 10 12 16l78 41l19 6q10 0 16 -10q76 -115 193 -115h88q92 0 156.5 63.5t64.5 155.5q0 51 -20.5 93.5t-65.5 76t-84 54t-107 51.5l-97 46q-32 15 -86 52t-80.5 72t-48 91t-21.5 124 q0 150 97 243t259 93h33q180 0 274 -109q45 -53 45 -67q0 -12 -14 -19l-70 -35q-20 -10 -26 -10q-8 0 -15 8q-76 113 -194 113h-33q-90 0 -153.5 -62.5t-63.5 -154.5q0 -47 20.5 -84t70.5 -71t87 -52l113 -53q55 -25 92 -45.5t84 -56t74.5 -74.5t47 -96.5t19.5 -127.5z" />
<glyph unicode="T" horiz-adv-x="811" d="M764 1192q0 -20 -21 -21h-247q-20 0 -21 -20v-1131q0 -20 -20 -20h-97q-20 0 -20 20v1131q0 20 -21 20h-247q-20 0 -21 21v76q0 20 21 20h673q20 0 21 -20v-76z" />
<glyph unicode="U" d="M913 315q0 -150 -98 -242.5t-260 -92.5h-63q-162 0 -259.5 93t-97.5 242v953q0 20 21 20h98q20 0 20 -20v-953q0 -90 62.5 -154.5t155.5 -64.5h63q88 0 153.5 64.5t65.5 154.5v953q0 20 21 20h98q20 0 20 -20v-953z" />
<glyph unicode="V" horiz-adv-x="917" d="M899 1272q0 -8 -18 -64l-365 -1194q-2 -14 -20 -14h-74q-18 0 -21 14l-368 1207q-2 8 -6 20l-6.5 19.5t-2.5 11.5q0 16 23 16h104q18 0 21 -14l272 -961l21 -82h10l20 82l263 961q2 14 20 14h105q22 0 22 -16z" />
<glyph unicode="W" horiz-adv-x="1380" d="M1346 1272q0 -12 -15 -74l-258 -1182q-4 -16 -20 -16h-74q-18 0 -21 14l-241 826q-2 6 -10.5 46t-10.5 44h-8l-22 -90l-246 -826q-2 -14 -21 -14h-73q-16 0 -21 16l-262 1209q-8 29 -8 47q0 16 20 16h107q16 0 20 -16l172 -877q4 -25 21 -92h10l23 90l249 885q2 14 21 14 h29q18 0 20 -14l244 -887l12 -49q10 -41 10 -43h11q2 10 11 50t9 44l174 879q4 16 21 16h106q21 0 21 -16z" />
<glyph unicode="X" horiz-adv-x="935" d="M874 16q0 -16 -22 -16h-115q-12 0 -18 12l-225 488q-6 16 -18.5 16t-18.5 -16l-240 -488q-8 -12 -18 -12h-115q-23 0 -23 16q0 10 27 60l277 545q10 20 10 24q0 6 -10 27l-281 553q-20 37 -21 47q0 16 23 16h113q10 0 18 -12l240 -490q6 -16 18 -16t19 16l225 490 q6 12 18 12h113q23 0 22 -16q0 -4 -24 -53l-275 -545l-10 -27q0 -12 10 -26l279 -555q22 -46 22 -50z" />
<glyph unicode="Y" horiz-adv-x="917" d="M885 1272q0 -8 -41 -84l-316 -592v-576q0 -20 -20 -20h-100q-20 0 -21 20v576l-317 600q-37 66 -37 76q0 16 22 16h117q10 0 18 -12l252 -516q6 -16 18.5 -16.5t18.5 16.5l248 516q8 12 18 12h117q23 0 23 -16z" />
<glyph unicode="Z" horiz-adv-x="897" d="M807 20q0 -20 -21 -20h-692q-20 0 -20 16q0 6 26 68l453 1018q20 51 20 53q0 16 -20 16h-440q-20 0 -21 21v76q0 20 21 20h645q20 0 20 -16q0 -6 -20 -53l-453 -1010q-31 -66 -31 -76q0 -16 21 -16h491q20 0 21 -21v-76z" />
<glyph unicode="[" horiz-adv-x="792" d="M596 -362q0 -20 -21 -21h-288q-20 0 -21 21v1843q0 20 21 20h288q20 0 21 -20v-76q0 -20 -21 -21h-149q-20 0 -20 -20v-1610q0 -20 20 -20h149q20 0 21 -21v-75z" />
<glyph unicode="\" horiz-adv-x="624" d="M637 16q0 -16 -23 -16h-69q-12 0 -19 12l-495 1157q-41 98 -41 105q0 16 20 16h70q12 0 18 -12l500 -1169q39 -91 39 -93z" />
<glyph unicode="]" horiz-adv-x="792" d="M528 -362q0 -20 -20 -21h-289q-20 0 -20 21v75q0 20 20 21h152q20 0 20 20v1610q0 20 -20 20h-152q-20 0 -20 21v76q0 20 20 20h289q20 0 20 -20v-1843z" />
<glyph unicode="^" d="M930 639h-113l-293 537h-4l-293 -537h-112l383 672h49z" />
<glyph unicode="_" horiz-adv-x="409" d="M440 -440q0 -20 -20 -21h-430q-20 0 -21 21v51q0 20 21 20h430q20 0 20 -20v-51z" />
<glyph unicode="`" horiz-adv-x="1024" d="M596 1034q0 -16 -23 -16h-41q-12 0 -22 10l-234 209q-8 8 -8 16q0 18 23 19h135q14 0 23 -12l141 -209q6 -11 6 -17z" />
<glyph unicode="a" horiz-adv-x="946" d="M803 20q0 -20 -21 -20h-75q-20 0 -21 20v89q0 25 -18 24q-8 0 -19 -10q-47 -53 -101 -88t-93 -35h-82q-111 0 -184.5 66.5t-73.5 173.5v12q0 106 73.5 171.5t184.5 65.5h270q20 0 21 19v84q0 90 -63.5 151.5t-156.5 61.5q-117 0 -192 -113q-6 -10 -16 -10q-6 0 -23 8 l-74 39q-12 6 -12 16q0 12 39 62q94 115 278 115q162 0 260.5 -90.5t98.5 -239.5v-572zM664 295v78q0 20 -21 20h-270q-51 0 -86 -34.5t-35 -86.5v-32q0 -49 36 -86t85 -37h82q66 0 124 53t85 125z" />
<glyph unicode="b" horiz-adv-x="970" d="M860 336q0 -150 -98 -243t-260 -93q-111 0 -203 117q-8 10 -18 10q-18 0 -19 -23v-84q0 -20 -20 -20h-76q-20 0 -21 20v1248q0 20 21 20h98q20 0 21 -20v-463q0 -23 16 -23q8 0 18 11q92 113 203 112q143 0 240.5 -94t97.5 -240v-235zM721 336v235q0 88 -64.5 152.5 t-154.5 64.5t-153.5 -63t-63.5 -154v-235q0 -90 64.5 -154.5t152.5 -64.5t153.5 64.5t65.5 154.5z" />
<glyph unicode="c" horiz-adv-x="870" d="M788 158q0 -12 -45 -68q-94 -111 -274 -110q-162 0 -258 93t-96 242v277q0 150 96 242t258 92q182 0 274 -107q45 -53 45 -67q0 -10 -14 -19l-74 -37q-16 -8 -22 -8q-8 0 -14 8q-80 113 -195 113q-90 0 -153.5 -63.5t-63.5 -153.5v-277q0 -90 64.5 -154.5t152.5 -64.5 q115 0 195 117q6 8 14 8q6 0 27 -10l69 -35q14 -8 14 -18z" />
<glyph unicode="d" horiz-adv-x="970" d="M827 20q0 -20 -20 -20h-76q-20 0 -20 20v89q0 23 -19 22q-10 0 -18 -10q-94 -121 -205 -121q-162 0 -258 93t-96 243v235q0 145 95 239.5t239 94.5q113 0 202 -117q8 -10 19 -10q18 0 18 23v467q0 20 21 20h98q20 0 20 -20v-1248zM688 336v235q0 88 -64.5 152.5 t-154.5 64.5t-153.5 -63t-63.5 -154v-235q0 -90 64.5 -154.5t152.5 -64.5t153.5 64.5t65.5 154.5z" />
<glyph unicode="e" horiz-adv-x="937" d="M827 467q0 -20 -20 -21h-535q-20 0 -20 -20v-111q0 -90 64.5 -154.5t152.5 -64.5q115 0 195 117q6 8 14 8q2 0 22 -8l74 -37q14 -8 14 -18q0 -14 -45 -68q-94 -111 -274 -110q-162 0 -258 93t-96 242v277q0 127 99 230.5t255 103.5t257 -103.5t101 -230.5v-125zM688 563 v29q0 88 -64.5 152.5t-154.5 64.5t-153.5 -63.5t-63.5 -153.5v-29q0 -20 20 -20h396q20 0 20 20z" />
<glyph unicode="f" horiz-adv-x="565" d="M614 1286l-26 -82q-4 -14 -19 -14q-4 0 -16 1t-21 1q-90 0 -153.5 -62.5t-63.5 -154.5v-146q0 -20 21 -20h151q20 0 21 -21v-75q0 -20 -21 -21h-151q-20 0 -21 -20v-652q0 -20 -20 -20h-96q-20 0 -21 20v652q0 20 -20 20h-56q-20 0 -20 21v75q0 20 20 21h56q20 0 20 20 v125q0 150 103.5 253.5t250.5 103.5q27 0 64 -4q18 -3 18 -21z" />
<glyph unicode="g" horiz-adv-x="937" d="M924 -223q0 -109 -76 -173.5t-186 -64.5h-289q-111 0 -184.5 64.5t-73.5 173.5v12q0 102 127 191q10 4 10 16q0 8 -14 33q-27 47 -27 92q0 51 31 104q20 35 20 37q0 8 -29 33q-119 100 -118 256v20q0 145 101 239.5t253 94.5q111 0 205 -119q8 -10 18 -10q18 0 19 23v86 q0 20 20 20h76q20 0 20 -20v-334q0 -145 -103 -240.5t-255 -95.5q-29 0 -66 4q-76 -33 -75 -98q0 -33 21.5 -61.5t51.5 -36.5h261q113 0 187.5 -63.5t74.5 -170.5v-12zM688 551v20q0 88 -64.5 152.5t-154.5 64.5t-153.5 -63t-63.5 -154v-20q0 -90 64.5 -154.5t152.5 -64.5 t153.5 65.5t65.5 153.5zM784 -223v12q0 49 -36.5 82t-85.5 33h-289q-51 0 -86 -33t-35 -82v-12q0 -53 33.5 -87t87.5 -34h289q53 0 87.5 34t34.5 87z" />
<glyph unicode="h" horiz-adv-x="991" d="M860 20q0 -20 -20 -20h-99q-20 0 -20 20v551q0 88 -64.5 152.5t-154.5 64.5t-153.5 -63t-63.5 -154v-551q0 -20 -21 -20h-98q-20 0 -21 20v1248q0 20 21 20h98q20 0 21 -20v-463q0 -23 16 -23q8 0 18 11q92 113 203 112q143 0 240.5 -94t97.5 -240v-551z" />
<glyph unicode="i" horiz-adv-x="428" d="M305 1221q0 -37 -27.5 -65t-64.5 -28q-39 0 -63.5 27t-24.5 66q0 35 26.5 62.5t61.5 27.5q39 0 65.5 -25.5t26.5 -64.5zM285 20q0 -20 -21 -20h-98q-20 0 -21 20v865q0 20 21 20h98q20 0 21 -20v-865z" />
<glyph unicode="j" horiz-adv-x="428" d="M305 1221q0 -37 -27.5 -65t-64.5 -28q-39 0 -63.5 27t-24.5 66q0 35 26.5 62.5t61.5 27.5q39 0 65.5 -25.5t26.5 -64.5zM285 -127q0 -109 -59.5 -197t-159.5 -131q-57 -27 -93 -26q-18 0 -18 20v78q0 16 16 21q80 18 127 76.5t47 135.5v1035q0 20 21 20h98q20 0 21 -20 v-1012z" />
<glyph unicode="k" horiz-adv-x="915" d="M870 16q0 -16 -22 -16h-117q-12 0 -18 10l-283 467q-6 12 -16 12q-8 0 -17 -8l-112 -114v-347q0 -20 -21 -20h-98q-20 0 -21 20v1248q0 20 21 20h98q20 0 21 -20v-709q0 -23 18 -22q8 0 16 8l318 350q6 10 20 10h103q23 0 22 -16q0 -10 -8 -19l-239 -241q-18 -23 -19 -27 q0 -8 14 -31l320 -514q20 -33 20 -41z" />
<glyph unicode="l" horiz-adv-x="428" d="M285 20q0 -20 -21 -20h-98q-20 0 -21 20v1248q0 20 21 20h98q20 0 21 -20v-1248z" />
<glyph unicode="m" horiz-adv-x="1492" d="M1350 20q0 -20 -21 -20h-98q-20 0 -21 20v551q0 88 -63.5 152.5t-134.5 64.5q-68 0 -131.5 -65.5t-63.5 -151.5v-551q0 -20 -20 -20h-99q-20 0 -20 20v551q0 88 -63.5 152.5t-135.5 64.5q-70 0 -132 -65.5t-62 -151.5v-551q0 -20 -21 -20h-98q-20 0 -21 20v865 q0 20 21 20h76q20 0 20 -20v-82q0 -25 17 -25q8 0 18 10q51 61 108.5 89t96.5 28q143 0 229 -121q6 -10 17 -10q6 0 16 10q92 121 248 121q145 0 241.5 -94t96.5 -240v-551z" />
<glyph unicode="n" horiz-adv-x="1003" d="M860 20q0 -20 -20 -20h-99q-20 0 -20 20v551q0 88 -64.5 152.5t-154.5 64.5t-153.5 -63t-63.5 -154v-551q0 -20 -21 -20h-98q-20 0 -21 20v865q0 20 21 20h76q20 0 20 -20v-82q0 -23 19 -23q10 0 18 11q92 115 203 114q162 0 260 -93t98 -241v-551z" />
<glyph unicode="o" horiz-adv-x="937" d="M827 315q0 -150 -98 -242.5t-260 -92.5t-258 93t-96 242v277q0 150 96 242t258 92t260 -92.5t98 -241.5v-277zM688 315v277q0 88 -64.5 152.5t-154.5 64.5t-153.5 -63.5t-63.5 -153.5v-277q0 -90 64.5 -154.5t152.5 -64.5t153.5 64.5t65.5 154.5z" />
<glyph unicode="p" horiz-adv-x="970" d="M860 336q0 -145 -97 -240.5t-241 -95.5q-104 0 -203 117q-10 10 -18 10q-16 0 -16 -25v-542q0 -20 -21 -21h-98q-20 0 -21 21v1325q0 20 21 20h76q20 0 20 -20v-82q0 -23 19 -23q10 0 18 11q92 115 203 114q162 0 260 -93t98 -241v-235zM721 336v235q0 88 -64.5 152.5 t-154.5 64.5t-153.5 -63t-63.5 -154v-235q0 -90 64.5 -154.5t152.5 -64.5t153.5 64.5t65.5 154.5z" />
<glyph unicode="q" horiz-adv-x="970" d="M827 -440q0 -20 -20 -21h-98q-20 0 -21 21v546q0 23 -18 23q-10 0 -19 -10q-92 -119 -202 -119q-143 0 -238.5 95t-95.5 241v235q0 150 96 242t258 92q111 0 205 -119q8 -10 18 -10q18 0 19 23v86q0 20 20 20h76q20 0 20 -20v-1325zM688 336v235q0 88 -64.5 152.5 t-154.5 64.5t-153.5 -63t-63.5 -154v-235q0 -90 64.5 -154.5t152.5 -64.5t153.5 64.5t65.5 154.5z" />
<glyph unicode="r" horiz-adv-x="610" d="M557 784q0 -20 -25 -20h-30q-92 0 -154.5 -61.5t-62.5 -151.5v-531q0 -20 -21 -20h-98q-20 0 -21 20v865q0 20 21 20h76q20 0 20 -20v-103q0 -23 19 -22q10 0 18 10q51 66 106.5 100.5t96.5 34.5h35q20 0 20 -20v-101z" />
<glyph unicode="s" horiz-adv-x="897" d="M799 274q0 -127 -86 -210.5t-240 -83.5h-63q-176 0 -275 112q-41 49 -41 64q0 10 15 16l71 35q8 6 19 6q10 0 16 -10q70 -115 195 -115h63q90 0 139.5 46t49.5 112q0 29 -16.5 52.5t-41 38.5t-67.5 28.5t-78 21.5t-90 19q-49 10 -81 18t-73 25.5t-63.5 41t-40 61.5 t-17.5 89q0 131 90 208t226 77h63q172 0 268 -105q45 -49 45 -65q0 -10 -14 -19l-61 -30q-4 -2 -9.5 -4.5t-9.5 -4.5t-6 -2q-10 0 -16 11q-76 111 -197 110h-63q-182 0 -183 -141q0 -27 9.5 -47.5t34 -37t44 -27.5t62.5 -22.5t64.5 -16.5t74.5 -15q61 -12 102 -24.5 t87.5 -38t70 -69t23.5 -104.5z" />
<glyph unicode="t" horiz-adv-x="630" d="M518 2q0 -20 -18 -20q-29 0 -84 18q-109 35 -168.5 118t-59.5 197v453q0 20 -20 20h-119q-20 0 -20 21v39l223 235q14 14 24 15h31q20 0 21 -21v-151q0 -20 20 -21h150q20 0 20 -20v-76q0 -20 -20 -21h-150q-20 0 -20 -20v-453q0 -78 47 -136t127 -77q16 -4 16 -20v-80z " />
<glyph unicode="u" horiz-adv-x="980" d="M838 20q0 -20 -21 -20h-76q-20 0 -20 20v89q0 23 -19 22q-10 0 -18 -10q-94 -121 -205 -121q-162 0 -258 93t-96 243v549q0 20 20 20h97q20 0 20 -20v-549q0 -90 64.5 -154.5t152.5 -64.5q92 0 156.5 63.5t64.5 155.5v549q0 20 21 20h96q20 0 21 -20v-865z" />
<glyph unicode="v" horiz-adv-x="874" d="M850 889q0 -2 -19 -53l-333 -824q-6 -12 -19 -12h-82q-12 0 -18 12l-334 824q-18 47 -18 53q0 16 20 16h100q12 0 19 -12l246 -621q18 -47 22 -79h8q4 33 23 79l244 621q6 12 18 12h102q21 0 21 -16z" />
<glyph unicode="w" horiz-adv-x="1251" d="M1212 889q0 -8 -16 -58l-250 -817q-2 -14 -20 -14h-74q-18 0 -21 14l-180 611q-10 35 -20 80h-8q-10 -45 -21 -80l-182 -611q-2 -14 -21 -14h-73q-18 0 -21 14l-252 824q-2 6 -5 18t-6 20.5t-3 12.5q0 16 22 16h107q18 0 20 -14l150 -580q2 -10 9 -37l11 -43h9l11 43 q7 27 9 37l162 580q2 14 20 14h115q18 0 21 -14l159 -580q14 -47 21 -80h8l11 43q7 27 9 37l150 580q2 14 20 14h107q22 0 22 -16z" />
<glyph unicode="x" horiz-adv-x="827" d="M786 16q0 -16 -20 -16h-113q-12 0 -18 10l-205 332q-4 10 -16.5 10t-16.5 -10l-207 -332q-6 -10 -16 -10h-115q-20 0 -20 16q0 8 22 43l244 375q10 14 10 25q0 8 -10 22l-242 369q-20 33 -20 39q0 16 20 16h111q10 0 16 -10l207 -330q4 -10 19 -10q10 0 16 10l205 330 q6 10 16 10h111q20 0 20 -16q0 -8 -30 -55l-232 -355q-10 -16 -10 -22t10 -23l242 -375q22 -37 22 -43z" />
<glyph unicode="y" horiz-adv-x="980" d="M838 -123q0 -162 -93.5 -260t-265.5 -98q-176 0 -270 108q-47 57 -47 69.5t14 18.5l74 37q16 8 20 8q10 0 17 -10q76 -115 192 -115q92 0 156.5 63.5t64.5 156.5v243q0 23 -18 23q-10 0 -18 -10q-84 -111 -185 -111q-162 0 -258 93t-96 243v549q0 20 20 20h97 q20 0 20 -20v-549q0 -90 64.5 -154.5t152.5 -64.5q104 0 162.5 69.5t58.5 149.5v549q0 20 21 20h96q20 0 21 -20v-1008z" />
<glyph unicode="z" horiz-adv-x="874" d="M793 20q0 -20 -21 -20h-659q-23 0 -23 16q0 12 19 39l405 701q4 6 4 14q0 16 -22 16h-394q-20 0 -20 21v76q0 20 20 20h621q23 0 22 -16q0 -6 -18 -39l-410 -701q-4 -6 -4 -14q0 -16 23 -16h436q20 0 21 -21v-76z" />
<glyph unicode="{" horiz-adv-x="901" d="M705 -360q0 -20 -19 -21q-55 0 -133 41q-178 94 -178 315v308q0 78 -47 135t-127 76q-16 4 -17 20v90q0 16 17 21q80 18 127 76.5t47 136.5v309q0 113 52 198t148 125q66 29 111 29q18 0 19 -20v-80q0 -16 -17 -21q-80 -16 -127 -74.5t-47 -136.5v-352q0 -66 -49 -142.5 t-119 -105.5v-8q68 -27 118 -115t50 -155v-336q0 -78 47 -136.5t127 -76.5q16 -4 17 -21v-79z" />
<glyph unicode="|" horiz-adv-x="491" d="M199 -512v2048h94v-2048h-94z" />
<glyph unicode="}" horiz-adv-x="901" d="M717 514q0 -16 -17 -20q-80 -18 -127 -76t-47 -135v-308q0 -221 -178 -315q-78 -41 -133 -41q-18 0 -18 21v79q0 16 16 21q80 18 127 76.5t47 136.5v336q0 68 50 155.5t118 114.5v8q-70 29 -119 106t-49 142v352q0 78 -47 136.5t-127 74.5q-16 4 -16 21v80q0 20 18 20 q45 0 111 -29q96 -41 148 -125.5t52 -197.5v-309q0 -78 47.5 -136.5t126.5 -76.5q16 -4 17 -21v-90z" />
<glyph unicode="~" d="M932 528q-96 -154 -230 -153q-98 0 -196 63.5t-166 63.5q-96 0 -168 -127l-61 65q96 154 231 154q98 0 195 -64q98 -63 163 -63q98 0 170 127z" />
<glyph unicode="&#xa0;" />
<glyph unicode="&#xa1;" horiz-adv-x="591" d="M399 838q0 -41 -30.5 -72t-71.5 -31q-43 0 -71.5 30t-28.5 73q0 39 29.5 68.5t70.5 29.5t71.5 -29.5t30.5 -68.5zM367 -362q0 -20 -21 -21h-100q-20 0 -21 21v526l43 340q2 18 21 18h12q18 0 21 -18l45 -338v-528z" />
<glyph unicode="&#xa2;" d="M848 197q0 -20 -53 -78q-76 -80 -205 -99q-14 -2 -15 -20v-133q0 -20 -20 -21h-51q-20 0 -21 21v135q0 16 -16 21q-141 27 -217 113.5t-76 217.5v277q0 129 76 217t217 115q16 4 16 20v133q0 20 21 21h51q20 0 20 -21v-133q0 -18 15 -20q143 -23 221 -117 q37 -47 37 -57.5t-12 -16.5l-72 -39q-20 -10 -23 -10q-10 0 -16 10q-31 45 -76 76q-35 25 -57 25q-16 0 -17 -25v-641q0 -18 15 -18q18 0 49 20q45 27 84 82q6 10 16 10q6 0 23 -10l74 -39q12 -6 12 -16zM483 168v645q0 20 -18 21q-23 0 -66 -31q-86 -61 -86 -172v-277 q0 -115 101 -182q35 -25 53 -25q16 1 16 21z" />
<glyph unicode="&#xa3;" d="M969 1135q0 -12 -15 -19l-73 -37q-16 -8 -23 -8q-8 0 -14 8q-76 113 -193 113q-92 0 -154.5 -62.5t-62.5 -154.5v-242q0 -20 21 -20h149q20 0 21 -21v-76q0 -20 -21 -20h-149q-20 0 -21 -21v-260q0 -51 -36 -113.5t-36 -66.5q0 -18 23 -18h508q20 0 20 -21v-76 q0 -20 -20 -20h-864q-20 0 -21 20v76q0 20 21 21h75q82 14 136.5 75.5t54.5 143.5v239q0 20 -21 21h-55q-20 0 -20 20v76q0 20 20 21h55q20 0 21 20v221q0 150 103.5 253.5t252.5 103.5q180 0 275 -111q43 -51 43 -65z" />
<glyph unicode="&#xa4;" horiz-adv-x="1261" d="M1075 356l-74 -77l-137 137q-102 -84 -239 -84q-139 0 -240 84l-137 -137l-74 77l137 131q-80 111 -80 238q0 141 80 238l-137 133q49 53 74 78l137 -138q109 82 240 82q141 0 237 -82l139 138l74 -78l-137 -133q80 -104 80 -238q0 -129 -80 -238zM913 727q0 123 -88 205 t-198 82q-123 0 -207 -85t-84 -202t85 -203t203.5 -86t203.5 85t85 204z" />
<glyph unicode="&#xa5;" d="M954 213q0 -20 -20 -20h-320q-20 0 -20 -21v-152q0 -20 -21 -20h-98q-20 0 -20 20v152q0 20 -21 21h-321q-20 0 -21 20v74q0 20 21 20h321q20 0 21 21v184q0 20 -21 20h-321q-20 0 -21 21v76q0 20 21 20h276q23 0 23 17q0 6 -11 26l-286 539q-18 37 -19 41q0 16 23 16 h117q10 0 18 -12l252 -516q6 -16 18.5 -16.5t18.5 16.5l248 516q8 12 18 12h117q23 0 22 -16q0 -12 -26 -58l-279 -522q-10 -20 -10 -26q0 -16 22 -17h279q20 0 20 -20v-76q0 -20 -20 -21h-320q-20 0 -20 -20v-184q0 -20 20 -21h320q20 0 20 -20v-74z" />
<glyph unicode="&#xa6;" horiz-adv-x="491" d="M293 748h-94v753h94v-753zM293 -383h-94v754h94v-754z" />
<glyph unicode="&#xa7;" d="M915 -143q0 -150 -98 -243t-260 -93h-90q-182 0 -277 114q-41 49 -40 64q0 10 14 18l69 35q20 10 25 10q10 0 16 -10q76 -115 193 -114h90q90 0 154.5 64.5t64.5 154.5q0 70 -45 122t-112.5 81.5t-146.5 69.5t-146.5 82t-112.5 121t-45 185q0 113 55 195l21 35q0 4 -4 11 t-11.5 15t-9.5 12q-51 78 -51 189q0 150 96 243t258 93h35q178 0 274 -111q45 -55 46 -65q0 -12 -15 -19l-74 -37q-12 -8 -22 -8q-8 0 -14 8q-82 113 -195 113h-35q-90 0 -153.5 -62.5t-63.5 -154.5q0 -53 34 -94t87 -70t118.5 -56.5t131 -63.5t119 -82t87 -121.5 t33.5 -172.5q0 -98 -47 -174q-2 -2 -9 -12t-12 -18.5t-5 -14.5q0 -4 24 -45q49 -88 49 -194zM776 315q0 35 -9 65t-31.5 55.5t-41 44t-59.5 40.5l-64 35l-76 38l-77 36q-49 27 -56 26q-10 0 -16 -10q-41 -61 -41 -127q0 -43 18.5 -77.5t60.5 -66.5t77 -51.5t106.5 -53 t108.5 -54.5q39 -23 49 -22q12 0 18 12q33 59 33 110z" />
<glyph unicode="&#xa8;" horiz-adv-x="1024" d="M768 1145q0 -37 -27.5 -64.5t-64.5 -27.5q-39 0 -63.5 26.5t-24.5 65.5t24.5 63.5t63.5 24.5t65.5 -24.5t26.5 -63.5zM434 1145q0 -39 -25.5 -65.5t-64.5 -26.5t-64.5 26.5t-25.5 65.5t25.5 63.5t64.5 24.5t64.5 -24.5t25.5 -63.5z" />
<glyph unicode="&#xa9;" horiz-adv-x="1433" d="M1270 195q0 -156 -100.5 -252.5t-268.5 -96.5h-369q-168 0 -268 96.5t-100 252.5v593q0 156 100.5 252.5t267.5 96.5h369q168 0 268.5 -96.5t100.5 -252.5v-593zM1178 195v593q0 115 -76 185.5t-201 70.5h-369q-125 0 -200.5 -70.5t-75.5 -185.5v-593q0 -115 76 -185.5 t200 -70.5h369q125 0 201 70.5t76 185.5zM948 289q0 -16 -30 -51q-70 -80 -203 -80q-117 0 -188.5 67.5t-71.5 177.5v203q0 109 70.5 175.5t189.5 66.5q125 0 190 -70q39 -43 39 -59q0 -10 -10 -14l-47 -25q-16 -8 -23 -8q-10 0 -16 8q-55 76 -133 76q-63 0 -107.5 -43 t-44.5 -107v-203q0 -61 45 -106t107 -45q78 0 133 80q6 10 16 10q2 0 23 -10l49 -27q12 -6 12 -16z" />
<glyph unicode="&#xaa;" horiz-adv-x="651" d="M561 670q0 -25 -24 -25h-54q-25 0 -24 25v53q0 14 -8.5 14t-14.5 -10q-68 -82 -129 -82h-57q-82 0 -136.5 49t-54.5 129v8q0 80 54.5 128.5t136.5 48.5h178q14 0 14 16v45q0 59 -41 99t-100 40q-84 0 -129 -71q-10 -14 -18 -15q-4 0 -21 8l-51 27q-14 6 -14 21 q0 18 32 55q72 78 199 78q119 0 190.5 -66.5t71.5 -175.5v-399zM442 864v41q0 14 -14 15h-178q-31 0 -53.5 -21.5t-22.5 -52.5v-23q0 -31 22.5 -53t53.5 -22h57q43 0 81 35.5t54 80.5z" />
<glyph unicode="&#xab;" horiz-adv-x="1138" d="M1004 233q0 -23 -17 -22q-8 0 -16 6l-391 279q-8 8 -9 16v113q0 8 9 16l391 277q8 6 16 6q16 0 17 -23v-86q0 -8 -9 -16l-297 -213q-10 -10 -10 -16.5t10 -16.5l297 -215q8 -8 9 -16v-89zM543 236q0 -23 -17 -23q-6 0 -16 6l-387 277q-8 8 -8 16v113q0 8 8 16l387 277 q10 6 16 6q16 0 17 -23v-86q0 -8 -8 -16l-297 -213q-10 -10 -10.5 -16.5t10.5 -16.5l297 -215q8 -8 8 -16v-86z" />
<glyph unicode="&#xac;" d="M954 266q0 -20 -20 -20h-62q-20 0 -20 20v342q0 20 -21 21h-718q-20 0 -21 20v53q0 20 21 21h821q20 0 20 -21v-436z" />
<glyph unicode="&#xad;" horiz-adv-x="534" d="M434 403q0 -20 -20 -20h-291q-20 0 -21 20v99q0 20 21 20h291q20 0 20 -20v-99z" />
<glyph unicode="&#xae;" horiz-adv-x="860" d="M803 901q0 -156 -100.5 -252t-268.5 -96h-8q-168 0 -268.5 96t-100.5 252v41q0 156 100.5 252t268.5 96h8q168 0 268.5 -96t100.5 -252v-41zM741 901v41q0 129 -84 208t-223 79h-8q-139 0 -223 -79t-84 -208v-41q0 -129 84 -208t223 -79h8q139 0 223 79t84 208zM582 985 q0 -51 -54 -92q-8 -6 -8 -14l6 -19l43 -86q8 -12 9 -20q0 -16 -23 -17h-33q-12 0 -18 13l-47 108q-6 12 -19 12h-51q-20 0 -20 -20v-92q0 -20 -21 -21h-22q-20 0 -21 21v344q0 20 21 20h129q59 0 94 -34.5t35 -94.5v-8zM516 993v6q0 29 -18.5 47.5t-44.5 18.5h-66 q-20 0 -20 -21v-96q0 -20 20 -20h66q27 0 45 18t18 47z" />
<glyph unicode="&#xaf;" horiz-adv-x="1024" d="M729 1116q0 -20 -20 -20h-398q-20 0 -20 20v76q0 20 20 20h398q20 0 20 -20v-76z" />
<glyph unicode="&#xb0;" horiz-adv-x="544" d="M457 932q0 -78 -50.5 -126t-134.5 -48t-134 48t-50 126v205q0 78 50 126t134 48t134.5 -48.5t50.5 -125.5v-205zM354 932v205q0 33 -24.5 57.5t-57 24.5t-57.5 -25t-25 -57v-205q0 -33 25 -57.5t57.5 -24.5t57 24.5t24.5 57.5z" />
<glyph unicode="&#xb1;" d="M954 596q0 -20 -20 -21h-342q-20 0 -21 -20v-342q0 -20 -20 -20h-53q-20 0 -21 20v342q0 20 -20 20h-344q-20 0 -21 21v55q0 20 21 21h344q20 0 20 20v342q0 20 21 21h53q20 0 20 -21v-342q0 -20 21 -20h342q20 0 20 -21v-55zM954 20q0 -20 -20 -20h-821q-20 0 -21 20v56 q0 20 21 20h821q20 0 20 -20v-56z" />
<glyph unicode="&#xb2;" horiz-adv-x="690" d="M590 956q0 -35 -11.5 -62.5t-22.5 -43.5t-42 -33.5t-43 -23t-55 -20.5l-49 -17q-109 -43 -129 -68q-20 -20 -21 -51v-14q0 -10 14 -11h340q12 0 13 -10v-78q0 -10 -13 -10h-458q-12 0 -13 10v84q0 55 17.5 95t52.5 67t63.5 40t75.5 30q14 6 41 14t38 12t29.5 12.5 t27 15.5t17.5 16.5t12 21.5t3 29q0 49 -31.5 79.5t-93.5 30.5h-53q-72 0 -119 -74q-10 -10 -16 -4l-78 35q-14 8 -8 19q76 125 221 124h53q113 0 175.5 -59.5t62.5 -155.5z" />
<glyph unicode="&#xb3;" horiz-adv-x="690" d="M594 670q0 -109 -65.5 -172.5t-176.5 -63.5h-41q-152 0 -219 121q-6 14 6 20l78 37q8 6 17 -6q47 -76 120 -76h39q51 0 89 38t38 91v46q0 51 -36.5 87.5t-90.5 36.5h-104q-12 0 -12 15v71q0 12 12 13h104q55 0 91 36.5t36 90.5v20q0 53 -36.5 90t-90.5 37h-39 q-76 0 -120 -74q-6 -14 -19 -6l-76 37q-12 8 -6 21q68 121 219 120h41q111 0 176.5 -64.5t65.5 -172.5v-23q0 -53 -35 -97t-78 -58v-6q39 -16 76 -63.5t37 -106.5v-39z" />
<glyph unicode="&#xb4;" horiz-adv-x="1024" d="M762 1253q0 -8 -8 -16l-234 -209q-10 -10 -22 -10h-41q-23 0 -23 16q0 6 6 17l142 209q8 12 22 12h135q23 -1 23 -19z" />
<glyph unicode="&#xb5;" horiz-adv-x="980" d="M838 20q0 -20 -21 -20h-76q-20 0 -20 20v89q0 23 -19 22q-10 0 -18 -10q-94 -121 -205 -121q-109 0 -192 45q-10 6 -17.5 2t-7.5 -14v-340q0 -20 -20 -21h-97q-20 0 -20 21v1192q0 20 20 20h97q20 0 20 -20v-549q0 -90 64.5 -154.5t152.5 -64.5q92 0 156.5 63.5 t64.5 155.5v549q0 20 21 20h96q20 0 21 -20v-865z" />
<glyph unicode="&#xb6;" horiz-adv-x="1269" d="M1104 -440q0 -20 -21 -21h-96q-20 0 -20 21v1591q0 20 -21 20h-205q-20 0 -20 -20v-1591q0 -20 -21 -21h-98q-20 0 -20 21v612q0 20 -21 21h-69q-160 0 -258.5 94t-98.5 241v406q0 162 97.5 258t259.5 96h591q20 0 21 -20v-1708z" />
<glyph unicode="&#xb7;" d="M623 485q0 -41 -31 -71.5t-72 -30.5q-39 0 -68.5 30.5t-29.5 71.5t29.5 71t68.5 30q43 0 73 -29t30 -72z" />
<glyph unicode="&#xb8;" horiz-adv-x="1024" d="M639 -307q0 -76 -55.5 -124t-134.5 -48h-74q-20 0 -21 20v33q0 20 21 20h74q41 0 69.5 29t28.5 70v18q0 70 -105 99q-14 2 -14 16q0 8 12 33l82 174q6 12 19 12l45 -8q18 -4 18 -17q0 -4 -2 -8l-5 -10l-5 -10l-47 -98q-10 -16 -10 -26.5t12 -17.5q92 -43 92 -129v-28z " />
<glyph unicode="&#xb9;" horiz-adv-x="690" d="M592 526q0 -12 -12 -12h-418q-12 0 -12 12v74q0 12 12 12h137q16 0 16 15v325q0 10 -7 13.5t-15 -4.5l-76 -74q-10 -8 -18 0l-52 51q-8 8 0 18l215 211q8 4 11 4h43q12 0 12 -14v-530q0 -14 14 -15h138q12 0 12 -12v-74z" />
<glyph unicode="&#xba;" horiz-adv-x="657" d="M590 874q0 -109 -72 -177t-190 -68q-117 0 -187.5 67.5t-70.5 177.5v193q0 111 70.5 177.5t187.5 66.5q119 0 190.5 -67.5t71.5 -176.5v-193zM471 874v193q0 57 -42 99t-101.5 42t-100.5 -41t-41 -100v-193q0 -57 42 -100t99.5 -43t100.5 42t43 101z" />
<glyph unicode="&#xbb;" horiz-adv-x="1138" d="M1026 512q0 -8 -8 -16l-387 -277q-8 -6 -17 -6q-16 0 -16 23v86q0 8 8 16l297 215q10 10 10 16t-10 17l-297 213q-8 8 -8 16v86q0 23 16 23q8 0 17 -6l387 -277q8 -8 8 -16v-113zM569 512q0 -8 -8 -16l-391 -277q-10 -6 -16 -6q-16 0 -17 23v86q0 8 8 16l297 215 q10 10 10.5 16t-10.5 17l-297 213q-8 8 -8 16v86q0 23 17 23q6 0 16 -6l391 -277q8 -8 8 -16v-113z" />
<glyph unicode="&#xbc;" horiz-adv-x="1912" d="M1266 1262l-535 -1250q-6 -12 -18 -12h-49q-31 0 -19 29l535 1249q6 12 18 12h49q31 1 19 -28zM1622 20q0 -12 -14 -12h-97q-12 0 -12 -14v-178q0 -12 -14 -13h-88q-12 0 -13 13v178q0 14 -14 14h-342q-14 0 -14 12v91l362 524q4 6 13 6h96q14 0 14 -12v-510 q0 -14 12 -15h97q14 0 14 -12v-72zM678 526q0 -12 -12 -12h-416q-14 0 -14 12v74q0 12 14 12h137q14 0 14 15v325q0 10 -6 13.5t-14 -4.5l-78 -74q-10 -8 -18 0l-52 51q-8 10 0 18l216 211q2 0 6 2l4 2h43q12 0 12 -14v-530q0 -14 14 -15h138q12 0 12 -12v-74zM1386 119v348 q0 8 -8 11t-12 -3l-233 -350q-14 -20 10 -21h229q14 1 14 15z" />
<glyph unicode="&#xbd;" horiz-adv-x="1912" d="M1608 442q0 -35 -11.5 -62.5t-22.5 -44t-42 -33.5t-43 -22.5t-55 -20.5t-50 -17q-109 -43 -129 -68q-20 -20 -20 -51v-14q0 -10 16 -11h338q12 0 13 -10v-78q0 -10 -13 -10h-456q-14 0 -15 10v84q0 55 16.5 95t53.5 66t63.5 39t77.5 32l36 12l33 11q9 3 27.5 10.5 t25.5 12.5l17.5 13t15.5 16.5t8 19.5t3 25q0 49 -31.5 80t-91.5 31h-55q-72 0 -119 -74q-6 -12 -16 -4l-78 35q-10 8 -6 18q72 125 219 125h55q111 0 173.5 -59.5t62.5 -155.5zM1266 1262l-535 -1250q-6 -12 -18 -12h-49q-31 0 -19 29l535 1249q6 12 18 12h49q31 1 19 -28z M678 526q0 -12 -12 -12h-416q-14 0 -14 12v74q0 12 14 12h137q14 0 14 15v325q0 10 -6 13.5t-14 -4.5l-78 -74q-10 -8 -18 0l-52 51q-8 10 0 18l216 211q2 0 6 2l4 2h43q12 0 12 -14v-530q0 -14 14 -15h138q12 0 12 -12v-74z" />
<glyph unicode="&#xbe;" horiz-adv-x="1912" d="M1266 1262l-535 -1250q-6 -12 -18 -12h-49q-31 0 -19 29l535 1249q6 12 18 12h49q31 1 19 -28zM1622 20q0 -12 -14 -12h-97q-12 0 -12 -14v-178q0 -12 -14 -13h-88q-12 0 -13 13v178q0 14 -14 14h-342q-14 0 -14 12v91l362 524q4 6 13 6h96q14 0 14 -12v-510 q0 -14 12 -15h97q14 0 14 -12v-72zM733 670q0 -109 -66.5 -172.5t-177.5 -63.5h-38q-152 0 -220 121q-8 14 7 20l75 37q12 6 17 -6q51 -76 123 -76h36q53 0 91 38t38 91v46q0 51 -37.5 87.5t-91.5 36.5h-102q-12 0 -12 15v71q0 12 12 13h102q55 0 92 36.5t37 90.5v20 q0 53 -37.5 90t-91.5 37h-36q-74 0 -123 -74q-4 -14 -17 -6l-75 37q-12 8 -7 21q68 121 220 120h38q111 0 177.5 -64.5t66.5 -172.5v-23q0 -53 -34.5 -97t-77.5 -58q-2 -2 -2.5 -4t2.5 -2q39 -16 75.5 -63.5t36.5 -106.5v-39zM1386 119v348q0 8 -8 11t-12 -3l-233 -350 q-14 -20 10 -21h229q14 1 14 15z" />
<glyph unicode="&#xbf;" d="M688 836q0 -41 -30.5 -71t-69.5 -30q-43 0 -73 29t-30 72t30 71.5t73 28.5q39 0 69.5 -29.5t30.5 -70.5zM899 -227q0 -18 -45 -72q-92 -106 -272 -107h-82q-162 0 -259.5 93.5t-97.5 242.5q0 76 18.5 132.5t56.5 91t69.5 54t79.5 42.5q12 6 18 8q86 41 127 82t41 119 q0 8 -1 23.5t-1 21.5q0 18 20 18h99q20 0 20 -18q2 -35 2 -76q0 -33 -7 -61.5t-14 -49t-27 -42.5l-29 -31q-9 -10 -38.5 -28.5l-37 -23t-42.5 -21.5l-40 -19q-86 -43 -131 -90.5t-45 -131.5q0 -92 64.5 -154.5t154.5 -62.5h82q117 0 192 113q6 10 17 10q6 0 14 -4l82 -43 q12 -6 12 -16z" />
<glyph unicode="&#xc0;" horiz-adv-x="917" d="M541 1417q0 -10 -15 -10h-55q-14 0 -29 10l-235 172q-8 6 -8 13q0 14 16 14h162q16 0 26 -12l134 -177q4 -8 4 -10zM899 16q0 -16 -22 -16h-105q-18 0 -20 14l-80 283q-2 12 -21 12h-385q-18 0 -20 -12l-80 -283q-2 -14 -21 -14h-104q-23 0 -23 16q0 8 15 52l366 1206 q2 14 21 14h78q18 0 20 -14l363 -1194q18 -56 18 -64zM627 444l-140 535q-2 6 -11 39t-11 41h-8q-12 -49 -23 -80l-147 -535q0 -18 22 -18h295q23 0 23 18z" />
<glyph unicode="&#xc1;" horiz-adv-x="917" d="M727 1602q0 -6 -8 -13l-236 -172q-14 -10 -28 -10h-56q-14 0 -14 10q0 2 4 10l133 177q10 12 27 12h162q16 0 16 -14zM899 16q0 -16 -22 -16h-105q-18 0 -20 14l-80 283q-2 12 -21 12h-385q-18 0 -20 -12l-80 -283q-2 -14 -21 -14h-104q-23 0 -23 16q0 8 15 52l366 1206 q2 14 21 14h78q18 0 20 -14l363 -1194q18 -56 18 -64zM627 444l-140 535q-2 6 -11 39t-11 41h-8q-12 -49 -23 -80l-147 -535q0 -18 22 -18h295q23 0 23 18z" />
<glyph unicode="&#xc2;" horiz-adv-x="917" d="M672 1413q0 -10 -15 -10h-88q-12 0 -20 12l-74 113q-6 8 -12 8q-4 0 -12 -8l-74 -113q-8 -12 -23 -12h-86q-14 0 -14 10l4 8l133 185q8 10 23 10h98q14 0 23 -10l133 -185zM899 16q0 -16 -22 -16h-105q-18 0 -20 14l-80 283q-2 12 -21 12h-385q-18 0 -20 -12l-80 -283 q-2 -14 -21 -14h-104q-23 0 -23 16q0 8 15 52l366 1206q2 14 21 14h78q18 0 20 -14l363 -1194q18 -56 18 -64zM627 444l-140 535q-2 6 -11 39t-11 41h-8q-12 -49 -23 -80l-147 -535q0 -18 22 -18h295q23 0 23 18z" />
<glyph unicode="&#xc3;" horiz-adv-x="917" d="M717 1546q0 -4 -27 -41q-63 -86 -133 -86q-45 0 -106.5 38t-94.5 38q-41 0 -90 -49q-8 -8 -16 -8q-4 0 -17 8l-22 18q-12 10 -12 16.5t28 43.5q59 76 125 75q45 0 106.5 -35.5t94.5 -35.5q47 0 98 57q8 8 14.5 8t16.5 -10l25 -20q10 -11 10 -17zM899 16q0 -16 -22 -16 h-105q-18 0 -20 14l-80 283q-2 12 -21 12h-385q-18 0 -20 -12l-80 -283q-2 -14 -21 -14h-104q-23 0 -23 16q0 8 15 52l366 1206q2 14 21 14h78q18 0 20 -14l363 -1194q18 -56 18 -64zM627 444l-140 535q-2 6 -11 39t-11 41h-8q-12 -49 -23 -80l-147 -535q0 -18 22 -18h295 q23 0 23 18z" />
<glyph unicode="&#xc4;" horiz-adv-x="917" d="M700 1511.5q0 -34.5 -25.5 -61.5t-60.5 -27q-37 0 -58 26t-21 62q0 33 23.5 58.5t55.5 25.5q37 0 61.5 -24.5t24.5 -59zM391 1511.5q0 -34.5 -25.5 -61.5t-60.5 -27q-37 0 -58.5 26t-21.5 62q0 35 22.5 59.5t57.5 24.5q37 0 61.5 -24.5t24.5 -59zM899 16q0 -16 -22 -16 h-105q-18 0 -20 14l-80 283q-2 12 -21 12h-385q-18 0 -20 -12l-80 -283q-2 -14 -21 -14h-104q-23 0 -23 16q0 8 15 52l366 1206q2 14 21 14h78q18 0 20 -14l363 -1194q18 -56 18 -64zM627 444l-140 535q-2 6 -11 39t-11 41h-8q-12 -49 -23 -80l-147 -535q0 -18 22 -18h295 q23 0 23 18z" />
<glyph unicode="&#xc5;" horiz-adv-x="917" d="M899 16q0 -16 -22 -16h-105q-18 0 -20 14l-80 283q-2 12 -21 12h-385q-18 0 -20 -12l-80 -283q-2 -14 -21 -14h-104q-23 0 -23 16q0 8 15 52l338 1112q10 31 10 34q0 6 -12 17q-72 43 -72 133v63q0 70 44 112t120 42q74 0 120 -42t46 -112v-63q0 -90 -76 -133 q-14 -8 -14 -19q0 -2 10 -32l334 -1100q18 -56 18 -64zM565 1364v63q0 43 -28.5 68t-75.5 25t-75 -25t-28 -68v-63q0 -43 28 -68.5t75 -25.5t75.5 25.5t28.5 68.5zM627 444l-140 535q-2 6 -11 39t-11 41h-8q-12 -49 -23 -80l-147 -535q0 -18 22 -18h295q23 0 23 18z" />
<glyph unicode="&#xc6;" horiz-adv-x="1445" d="M1346 20q0 -20 -21 -20h-674q-20 0 -20 20v269q0 20 -21 20h-393q-16 0 -27 -18l-155 -281q-6 -10 -19 -10h-94q-23 0 -22 16q0 8 4 15l737 1247q6 10 18 10h666q20 0 21 -20v-76q0 -20 -21 -21h-534q-20 0 -21 -20v-418q0 -20 21 -20h438q20 0 20 -21v-76q0 -20 -20 -20 h-438q-20 0 -21 -21v-438q0 -20 21 -20h534q20 0 21 -21v-76zM637 1057l-8 2q-2 -8 -10.5 -23.5l-17.5 -31t-9 -17.5l-303 -530q-4 -12 -4 -15q0 -16 22 -16h303q20 0 21 20v136q0 401 6 475z" />
<glyph unicode="&#xc7;" horiz-adv-x="950" d="M874 158q0 -18 -47 -70q-94 -109 -272 -108q-25 0 -35 -21l-31 -65q-10 -25 -10 -27q0 -10 13 -17q92 -43 92 -129v-28q0 -76 -55.5 -124t-135.5 -48h-74q-20 0 -20 20v33q0 20 20 20h74q41 0 70 29t29 70v18q0 70 -105 99q-14 2 -14 16q0 8 12 33l35 73q10 20 10 35 t-16 19q-129 20 -204 109t-75 220v660q0 150 97.5 243t259.5 93h63q176 0 274 -109q45 -49 45 -67q0 -12 -14 -19l-78 -39q-8 -6 -18 -6q-8 0 -14 8q-82 113 -195 113h-63q-92 0 -155 -62.5t-63 -154.5v-660q0 -90 62.5 -154.5t155.5 -64.5h63q115 0 195 117q6 8 14 8 q10 0 18 -6l78 -39q14 -8 14 -18z" />
<glyph unicode="&#xc8;" horiz-adv-x="980" d="M606 1417q0 -10 -14 -10h-55q-14 0 -29 10l-236 172q-8 6 -8 13q0 14 17 14h161q16 0 27 -12l133 -177q4 -8 4 -10zM881 20q0 -20 -21 -20h-672q-20 0 -20 20v1248q0 20 20 20h672q20 0 21 -20v-76q0 -20 -21 -21h-534q-20 0 -21 -20v-418q0 -20 21 -20h438q20 0 20 -21 v-76q0 -20 -20 -20h-438q-20 0 -21 -21v-438q0 -20 21 -20h534q20 0 21 -21v-76z" />
<glyph unicode="&#xc9;" horiz-adv-x="980" d="M793 1602q0 -6 -9 -13l-235 -172q-14 -10 -29 -10h-55q-14 0 -14 10q0 2 4 10l133 177q10 12 26 12h162q17 0 17 -14zM881 20q0 -20 -21 -20h-672q-20 0 -20 20v1248q0 20 20 20h672q20 0 21 -20v-76q0 -20 -21 -21h-534q-20 0 -21 -20v-418q0 -20 21 -20h438 q20 0 20 -21v-76q0 -20 -20 -20h-438q-20 0 -21 -21v-438q0 -20 21 -20h534q20 0 21 -21v-76z" />
<glyph unicode="&#xca;" horiz-adv-x="980" d="M737 1413q0 -10 -14 -10h-88q-12 0 -21 12l-73 113q-6 8 -13 8q-4 0 -12 -8l-74 -113q-8 -12 -22 -12h-86q-14 0 -15 10l5 8l133 185q8 10 22 10h99q14 0 22 -10l133 -185zM881 20q0 -20 -21 -20h-672q-20 0 -20 20v1248q0 20 20 20h672q20 0 21 -20v-76q0 -20 -21 -21 h-534q-20 0 -21 -20v-418q0 -20 21 -20h438q20 0 20 -21v-76q0 -20 -20 -20h-438q-20 0 -21 -21v-438q0 -20 21 -20h534q20 0 21 -21v-76z" />
<glyph unicode="&#xcb;" horiz-adv-x="980" d="M766 1511.5q0 -34.5 -25.5 -61.5t-60.5 -27q-37 0 -58.5 26t-21.5 62q0 33 23.5 58.5t56.5 25.5q37 0 61.5 -24.5t24.5 -59zM457 1511.5q0 -34.5 -25.5 -61.5t-60.5 -27q-37 0 -58.5 26t-21.5 62q0 35 22.5 59.5t57.5 24.5q37 0 61.5 -24.5t24.5 -59zM881 20 q0 -20 -21 -20h-672q-20 0 -20 20v1248q0 20 20 20h672q20 0 21 -20v-76q0 -20 -21 -21h-534q-20 0 -21 -20v-418q0 -20 21 -20h438q20 0 20 -21v-76q0 -20 -20 -20h-438q-20 0 -21 -21v-438q0 -20 21 -20h534q20 0 21 -21v-76z" />
<glyph unicode="&#xcc;" horiz-adv-x="471" d="M315 1417q0 -10 -14 -10h-55q-14 0 -29 10l-235 172q-8 6 -9 13q0 14 17 14h162q16 0 26 -12l133 -177q4 -8 4 -10zM305 20q0 -20 -20 -20h-97q-20 0 -20 20v1248q0 20 20 20h97q20 0 20 -20v-1248z" />
<glyph unicode="&#xcd;" horiz-adv-x="471" d="M502 1602q0 -6 -8 -13l-236 -172q-14 -10 -29 -10h-55q-14 0 -14 10q0 2 4 10l133 177q10 12 27 12h161q17 0 17 -14zM305 20q0 -20 -20 -20h-97q-20 0 -20 20v1248q0 20 20 20h97q20 0 20 -20v-1248z" />
<glyph unicode="&#xce;" horiz-adv-x="471" d="M446 1413q0 -10 -14 -10h-88q-12 0 -20 12l-74 113q-6 8 -12 8q-4 0 -13 -8l-73 -113q-8 -12 -23 -12h-86q-14 0 -14 10l4 8l133 185q8 10 22 10h99q14 0 22 -10l133 -185zM305 20q0 -20 -20 -20h-97q-20 0 -20 20v1248q0 20 20 20h97q20 0 20 -20v-1248z" />
<glyph unicode="&#xcf;" horiz-adv-x="471" d="M475 1511.5q0 -34.5 -25.5 -61.5t-60.5 -27q-37 0 -58.5 26t-21.5 62q0 33 23.5 58.5t56.5 25.5q37 0 61.5 -24.5t24.5 -59zM166 1511.5q0 -34.5 -25.5 -61.5t-60.5 -27q-37 0 -58.5 26t-21.5 62q0 35 22.5 59.5t57.5 24.5q37 0 61.5 -24.5t24.5 -59zM305 20 q0 -20 -20 -20h-97q-20 0 -20 20v1248q0 20 20 20h97q20 0 20 -20v-1248z" />
<glyph unicode="&#xd0;" horiz-adv-x="1077" d="M944 358q0 -164 -97 -261t-261 -97h-398q-20 0 -20 20v545q0 18 -16 19h-89q-20 0 -20 20v78q0 20 20 20h87q18 0 18 19v547q0 20 20 20h398q164 0 261 -96t97 -258v-576zM807 336v618q0 90 -64.5 153.5t-156.5 63.5h-260q-20 0 -21 -20v-430q0 -18 19 -19h159 q20 0 21 -20v-78q0 -20 -21 -20h-161q-16 0 -17 -17v-430q0 -20 21 -20h260q92 0 156.5 63.5t64.5 155.5z" />
<glyph unicode="&#xd1;" horiz-adv-x="1140" d="M829 1546q0 -4 -26 -41q-63 -86 -133 -86q-45 0 -106.5 38t-94.5 38q-41 0 -90 -49q-8 -8 -17 -8q-4 0 -16 8l-22 18q-12 10 -12.5 16.5t28.5 43.5q59 76 125 75q45 0 106.5 -35.5t94.5 -35.5q47 0 98 57q8 8 14 8t17 -10l24 -20q10 -11 10 -17zM977 20q0 -20 -21 -20 h-96q-12 0 -18 10l-498 901q-27 47 -37 74l-8 -2q6 -74 6 -475v-488q0 -20 -20 -20h-97q-20 0 -20 20v1248q0 20 20 20h95q12 0 18 -10l498 -911q25 -41 37 -74l8 2q-6 74 -6 475v498q0 20 20 20h98q20 0 21 -20v-1248z" />
<glyph unicode="&#xd2;" d="M600 1417q0 -10 -14 -10h-56q-14 0 -28 10l-236 172q-8 6 -8 13q0 14 16 14h162q18 0 27 -12l133 -177q4 -8 4 -10zM913 315q0 -150 -98 -242.5t-260 -92.5h-63q-162 0 -259.5 93t-97.5 242v660q0 150 97.5 243t259.5 93h63q162 0 260 -93.5t98 -242.5v-660zM774 315v660 q0 92 -64.5 154.5t-154.5 62.5h-63q-92 0 -155 -62.5t-63 -154.5v-660q0 -90 62.5 -154.5t155.5 -64.5h63q88 0 153.5 64.5t65.5 154.5z" />
<glyph unicode="&#xd3;" d="M786 1602q0 -6 -8 -13l-235 -172q-14 -10 -29 -10h-55q-14 0 -15 10q0 2 5 10l133 177q8 12 26 12h162q16 0 16 -14zM913 315q0 -150 -98 -242.5t-260 -92.5h-63q-162 0 -259.5 93t-97.5 242v660q0 150 97.5 243t259.5 93h63q162 0 260 -93.5t98 -242.5v-660zM774 315 v660q0 92 -64.5 154.5t-154.5 62.5h-63q-92 0 -155 -62.5t-63 -154.5v-660q0 -90 62.5 -154.5t155.5 -64.5h63q88 0 153.5 64.5t65.5 154.5z" />
<glyph unicode="&#xd4;" d="M731 1413q0 -10 -14 -10h-88q-10 0 -21 12l-73 113q-6 8 -13 8q-4 0 -12 -8l-74 -113q-10 -12 -22 -12h-86q-14 0 -15 10l4 8l134 185q8 10 22 10h98q14 0 23 -10l133 -185zM913 315q0 -150 -98 -242.5t-260 -92.5h-63q-162 0 -259.5 93t-97.5 242v660q0 150 97.5 243 t259.5 93h63q162 0 260 -93.5t98 -242.5v-660zM774 315v660q0 92 -64.5 154.5t-154.5 62.5h-63q-92 0 -155 -62.5t-63 -154.5v-660q0 -90 62.5 -154.5t155.5 -64.5h63q88 0 153.5 64.5t65.5 154.5z" />
<glyph unicode="&#xd5;" d="M776 1546q0 -4 -26 -41q-63 -86 -134 -86q-45 0 -106 38t-94 38q-41 0 -90 -49q-8 -8 -17 -8q-4 0 -16 8l-23 18q-12 10 -12 16.5t29 43.5q59 76 125 75q45 0 106.5 -35.5t93.5 -35.5q47 0 99 57q8 8 14 8t16 -10l25 -20q10 -11 10 -17zM913 315q0 -150 -98 -242.5 t-260 -92.5h-63q-162 0 -259.5 93t-97.5 242v660q0 150 97.5 243t259.5 93h63q162 0 260 -93.5t98 -242.5v-660zM774 315v660q0 92 -64.5 154.5t-154.5 62.5h-63q-92 0 -155 -62.5t-63 -154.5v-660q0 -90 62.5 -154.5t155.5 -64.5h63q88 0 153.5 64.5t65.5 154.5z" />
<glyph unicode="&#xd6;" d="M760 1511.5q0 -34.5 -25.5 -61.5t-60.5 -27q-37 0 -58.5 26t-21.5 62q0 33 23.5 58.5t56.5 25.5q37 0 61.5 -24.5t24.5 -59zM451 1511.5q0 -34.5 -26 -61.5t-60 -27q-37 0 -58.5 26t-21.5 62q0 35 22.5 59.5t57.5 24.5q37 0 61.5 -24.5t24.5 -59zM913 315 q0 -150 -98 -242.5t-260 -92.5h-63q-162 0 -259.5 93t-97.5 242v660q0 150 97.5 243t259.5 93h63q162 0 260 -93.5t98 -242.5v-660zM774 315v660q0 92 -64.5 154.5t-154.5 62.5h-63q-92 0 -155 -62.5t-63 -154.5v-660q0 -90 62.5 -154.5t155.5 -64.5h63q88 0 153.5 64.5 t65.5 154.5z" />
<glyph unicode="&#xd7;" d="M877 170l-39 -39q-14 -14 -29 0l-270 270q-14 16 -31 0l-270 -270q-14 -14 -29 0l-39 39q-14 14 0 29l270 270q14 14 0 31l-270 270q-14 14 0 29l39 39q14 14 29 0l270 -271q16 -14 31 0l270 271q14 14 29 0l39 -39q14 -14 0 -29l-271 -270q-16 -16 0 -31l271 -270 q14 -15 0 -29z" />
<glyph unicode="&#xd8;" d="M913 315q0 -150 -98 -242.5t-260 -92.5h-63q-162 0 -259.5 93t-97.5 242v660q0 150 97.5 243t259.5 93h63q162 0 260 -93.5t98 -242.5v-660zM686 1141q0 10 -10 16q-51 35 -121 35h-63q-92 0 -155 -62.5t-63 -154.5v-660q0 -25 2 -32q6 -20 21 -21q12 0 18 17l369 854 q2 2 2 8zM774 315v660q0 16 -4 45q-4 20 -18.5 20t-20.5 -16l-371 -862q-2 -4 -2 -10q0 -8 7 -15q55 -41 127 -41h63q88 0 153.5 64.5t65.5 154.5z" />
<glyph unicode="&#xd9;" d="M573 1417q0 -10 -14 -10h-55q-14 0 -29 10l-235 172q-8 6 -9 13q0 14 17 14h162q16 0 26 -12l133 -177q4 -8 4 -10zM913 315q0 -150 -98 -242.5t-260 -92.5h-63q-162 0 -259.5 93t-97.5 242v953q0 20 21 20h98q20 0 20 -20v-953q0 -90 62.5 -154.5t155.5 -64.5h63 q88 0 153.5 64.5t65.5 154.5v953q0 20 21 20h98q20 0 20 -20v-953z" />
<glyph unicode="&#xda;" d="M760 1602q0 -6 -8 -13l-236 -172q-14 -10 -29 -10h-55q-14 0 -14 10q0 2 4 10l133 177q10 12 27 12h161q17 0 17 -14zM913 315q0 -150 -98 -242.5t-260 -92.5h-63q-162 0 -259.5 93t-97.5 242v953q0 20 21 20h98q20 0 20 -20v-953q0 -90 62.5 -154.5t155.5 -64.5h63 q88 0 153.5 64.5t65.5 154.5v953q0 20 21 20h98q20 0 20 -20v-953z" />
<glyph unicode="&#xdb;" d="M705 1413q0 -10 -15 -10h-88q-12 0 -20 12l-74 113q-6 8 -12 8q-4 0 -13 -8l-73 -113q-8 -12 -23 -12h-86q-14 0 -14 10l4 8l133 185q8 10 22 10h99q14 0 22 -10l133 -185zM913 315q0 -150 -98 -242.5t-260 -92.5h-63q-162 0 -259.5 93t-97.5 242v953q0 20 21 20h98 q20 0 20 -20v-953q0 -90 62.5 -154.5t155.5 -64.5h63q88 0 153.5 64.5t65.5 154.5v953q0 20 21 20h98q20 0 20 -20v-953z" />
<glyph unicode="&#xdc;" d="M733 1511.5q0 -34.5 -25.5 -61.5t-60.5 -27q-37 0 -58.5 26t-21.5 62q0 33 23.5 58.5t56.5 25.5q37 0 61.5 -24.5t24.5 -59zM424 1511.5q0 -34.5 -25.5 -61.5t-60.5 -27q-37 0 -58.5 26t-21.5 62q0 35 22.5 59.5t57.5 24.5q37 0 61.5 -24.5t24.5 -59zM913 315 q0 -150 -98 -242.5t-260 -92.5h-63q-162 0 -259.5 93t-97.5 242v953q0 20 21 20h98q20 0 20 -20v-953q0 -90 62.5 -154.5t155.5 -64.5h63q88 0 153.5 64.5t65.5 154.5v953q0 20 21 20h98q20 0 20 -20v-953z" />
<glyph unicode="&#xdd;" horiz-adv-x="917" d="M723 1602q0 -6 -8 -13l-236 -172q-14 -10 -28 -10h-56q-14 0 -14 10q0 2 4 10l133 177q10 12 27 12h162q16 0 16 -14zM885 1272q0 -8 -41 -84l-316 -592v-576q0 -20 -20 -20h-100q-20 0 -21 20v576l-317 600q-37 66 -37 76q0 16 22 16h117q10 0 18 -12l252 -516 q6 -16 18.5 -16.5t18.5 16.5l248 516q8 12 18 12h117q23 0 23 -16z" />
<glyph unicode="&#xde;" horiz-adv-x="991" d="M944 688q0 -145 -99.5 -241.5t-258.5 -96.5h-260q-20 0 -21 -20v-310q0 -20 -20 -20h-97q-20 0 -20 20v1248q0 20 20 20h97q20 0 20 -20v-205q0 -20 23 -21h258q164 0 261 -96t97 -258zM807 688v21q0 90 -64.5 153.5t-156.5 63.5h-260q-20 0 -21 -21v-418q0 -20 21 -20 h260q92 0 156.5 64.5t64.5 156.5z" />
<glyph unicode="&#xdf;" horiz-adv-x="997" d="M893 332q0 -119 -55.5 -203t-157.5 -123q-66 -25 -100 -24q-18 0 -19 20v80q0 16 17 20q80 18 128 77t48 136v64q0 78 -48.5 135t-127.5 76q-16 4 -17 20v88q0 16 17 21q82 20 129 78.5t47 136.5v41q0 92 -64.5 154.5t-154.5 62.5q-96 0 -157 -61.5t-61 -155.5v-955 q0 -20 -20 -20h-98q-20 0 -21 20v652q0 20 -20 20h-56q-20 0 -20 21v75q0 20 20 21h56q20 0 20 20v125q0 150 103.5 253.5t253.5 103.5q164 0 261 -97.5t97 -259.5v-43q0 -70 -45 -137t-111 -100q-16 -6 -16 -19q0 -8 16 -18q68 -33 112 -105.5t44 -146.5v-53z" />
<glyph unicode="&#xe0;" horiz-adv-x="946" d="M528 1034q0 -16 -22 -16h-41q-12 0 -23 10l-233 209q-8 8 -8 16q0 18 22 19h135q14 0 23 -12l141 -209q6 -11 6 -17zM803 20q0 -20 -21 -20h-75q-20 0 -21 20v89q0 25 -18 24q-8 0 -19 -10q-47 -53 -101 -88t-93 -35h-82q-111 0 -184.5 66.5t-73.5 173.5v12 q0 106 73.5 171.5t184.5 65.5h270q20 0 21 19v84q0 90 -63.5 151.5t-156.5 61.5q-117 0 -192 -113q-6 -10 -16 -10q-6 0 -23 8l-74 39q-12 6 -12 16q0 12 39 62q94 115 278 115q162 0 260.5 -90.5t98.5 -239.5v-572zM664 295v78q0 20 -21 20h-270q-51 0 -86 -34.5t-35 -86.5 v-32q0 -49 36 -86t85 -37h82q66 0 124 53t85 125z" />
<glyph unicode="&#xe1;" horiz-adv-x="946" d="M735 1253q0 -8 -8 -16l-233 -209q-10 -10 -23 -10h-41q-23 0 -22 16q0 6 6 17l141 209q8 12 23 12h135q22 -1 22 -19zM803 20q0 -20 -21 -20h-75q-20 0 -21 20v89q0 25 -18 24q-8 0 -19 -10q-47 -53 -101 -88t-93 -35h-82q-111 0 -184.5 66.5t-73.5 173.5v12 q0 106 73.5 171.5t184.5 65.5h270q20 0 21 19v84q0 90 -63.5 151.5t-156.5 61.5q-117 0 -192 -113q-6 -10 -16 -10q-6 0 -23 8l-74 39q-12 6 -12 16q0 12 39 62q94 115 278 115q162 0 260.5 -90.5t98.5 -239.5v-572zM664 295v78q0 20 -21 20h-270q-51 0 -86 -34.5t-35 -86.5 v-32q0 -49 36 -86t85 -37h82q66 0 124 53t85 125z" />
<glyph unicode="&#xe2;" horiz-adv-x="946" d="M686 1034q0 -16 -22 -16h-72q-8 0 -17 8l-90 127q-6 10 -16 10q-6 0 -16 -10l-97 -127q-8 -8 -16 -8h-70q-23 0 -22 16q0 6 6 17l164 215q8 8 16 8h64q8 0 16 -8l166 -215q6 -11 6 -17zM803 20q0 -20 -21 -20h-75q-20 0 -21 20v89q0 25 -18 24q-8 0 -19 -10 q-47 -53 -101 -88t-93 -35h-82q-111 0 -184.5 66.5t-73.5 173.5v12q0 106 73.5 171.5t184.5 65.5h270q20 0 21 19v84q0 90 -63.5 151.5t-156.5 61.5q-117 0 -192 -113q-6 -10 -16 -10q-6 0 -23 8l-74 39q-12 6 -12 16q0 12 39 62q94 115 278 115q162 0 260.5 -90.5 t98.5 -239.5v-572zM664 295v78q0 20 -21 20h-270q-51 0 -86 -34.5t-35 -86.5v-32q0 -49 36 -86t85 -37h82q66 0 124 53t85 125z" />
<glyph unicode="&#xe3;" horiz-adv-x="946" d="M756 1169q0 -6 -37 -57q-61 -76 -129 -76q-45 0 -127 54l-41 26q-47 31 -86 31q-53 0 -107 -53q-6 -6 -14 -6.5t-12 4.5l-21 14q-10 6 -10 16q0 8 29 49q59 82 135 82q59 0 121 -47l43 -32q37 -31 90 -31q55 0 110 55q8 8 14.5 8t12.5 -6l18 -14q11 -7 11 -17zM803 20 q0 -20 -21 -20h-75q-20 0 -21 20v89q0 25 -18 24q-8 0 -19 -10q-47 -53 -101 -88t-93 -35h-82q-111 0 -184.5 66.5t-73.5 173.5v12q0 106 73.5 171.5t184.5 65.5h270q20 0 21 19v84q0 90 -63.5 151.5t-156.5 61.5q-117 0 -192 -113q-6 -10 -16 -10q-6 0 -23 8l-74 39 q-12 6 -12 16q0 12 39 62q94 115 278 115q162 0 260.5 -90.5t98.5 -239.5v-572zM664 295v78q0 20 -21 20h-270q-51 0 -86 -34.5t-35 -86.5v-32q0 -49 36 -86t85 -37h82q66 0 124 53t85 125z" />
<glyph unicode="&#xe4;" horiz-adv-x="946" d="M725 1145q0 -37 -27.5 -64.5t-64.5 -27.5q-39 0 -63.5 26.5t-24.5 65.5t24.5 63.5t63.5 24.5t65.5 -24.5t26.5 -63.5zM391 1145q0 -39 -25.5 -65.5t-64.5 -26.5t-64.5 26.5t-25.5 65.5t25.5 63.5t64.5 24.5t64.5 -24.5t25.5 -63.5zM803 20q0 -20 -21 -20h-75 q-20 0 -21 20v89q0 25 -18 24q-8 0 -19 -10q-47 -53 -101 -88t-93 -35h-82q-111 0 -184.5 66.5t-73.5 173.5v12q0 106 73.5 171.5t184.5 65.5h270q20 0 21 19v84q0 90 -63.5 151.5t-156.5 61.5q-117 0 -192 -113q-6 -10 -16 -10q-6 0 -23 8l-74 39q-12 6 -12 16q0 12 39 62 q94 115 278 115q162 0 260.5 -90.5t98.5 -239.5v-572zM664 295v78q0 20 -21 20h-270q-51 0 -86 -34.5t-35 -86.5v-32q0 -49 36 -86t85 -37h82q66 0 124 53t85 125z" />
<glyph unicode="&#xe5;" horiz-adv-x="946" d="M633 1174q0 -70 -46 -113t-120 -43t-119 43t-45 113v63q0 70 44 112t120 42q74 0 120 -42t46 -112v-63zM803 20q0 -20 -21 -20h-75q-20 0 -21 20v89q0 25 -18 24q-8 0 -19 -10q-47 -53 -101 -88t-93 -35h-82q-111 0 -184.5 66.5t-73.5 173.5v12q0 106 73.5 171.5 t184.5 65.5h270q20 0 21 19v84q0 90 -63.5 151.5t-156.5 61.5q-117 0 -192 -113q-6 -10 -16 -10q-6 0 -23 8l-74 39q-12 6 -12 16q0 12 39 62q94 115 278 115q162 0 260.5 -90.5t98.5 -239.5v-572zM571 1174v63q0 43 -28.5 67.5t-75.5 24.5t-74.5 -24.5t-27.5 -67.5v-63 q0 -43 27.5 -69t74.5 -26t75.5 26t28.5 69zM664 295v78q0 20 -21 20h-270q-51 0 -86 -34.5t-35 -86.5v-32q0 -49 36 -86t85 -37h82q66 0 124 53t85 125z" />
<glyph unicode="&#xe6;" horiz-adv-x="1513" d="M1403 467q0 -20 -21 -21h-534q-20 0 -21 -20v-111q0 -90 64.5 -154.5t152.5 -64.5q115 0 195 117q6 8 14 8l19 -6l78 -39q14 -8 14 -18q0 -16 -43 -66q-94 -113 -277 -112q-190 0 -301 149q-8 10 -16 10q-12 0 -18 -12q-43 -72 -110 -109.5t-120 -37.5h-106 q-111 0 -184.5 66.5t-73.5 172.5v64q0 104 72.5 160.5t185.5 56.5h295q20 0 20 20v68q0 88 -64.5 152.5t-154.5 64.5q-117 0 -193 -113q-6 -10 -16 -10q-6 0 -27 10l-69 37q-12 6 -12 16q0 14 34 58q94 119 283 119q170 0 283 -111q12 -8 14 -8q8 0 14 8q111 115 264 115 q156 0 257.5 -103.5t101.5 -230.5v-125zM1264 563v29q0 88 -64.5 152.5t-155 64.5t-154 -63.5t-63.5 -153.5v-29q0 -20 21 -20h395q21 0 21 20zM688 276v107q0 20 -20 20h-295q-51 0 -86 -34.5t-35 -85.5v-64q0 -49 36 -86t85 -37h106q66 0 124 54t85 126z" />
<glyph unicode="&#xe7;" horiz-adv-x="870" d="M788 158q0 -12 -45 -68q-94 -109 -235 -108q-20 0 -29 -19l-33 -69q-10 -25 -10 -27q0 -10 13 -17q92 -43 92 -129v-28q0 -76 -55.5 -124t-135.5 -48h-74q-20 0 -20 20v33q0 20 20 20h74q41 0 70 29t29 70v18q0 70 -105 99q-14 2 -14 16q0 8 12 33l39 82q10 20 10 30 q0 14 -18 19q-121 27 -189.5 113.5t-68.5 211.5v277q0 150 96 242t258 92q182 0 274 -107q45 -53 45 -67q0 -10 -14 -19l-74 -37q-16 -8 -22 -8q-8 0 -14 8q-80 113 -195 113q-90 0 -153.5 -63.5t-63.5 -153.5v-277q0 -90 64.5 -154.5t152.5 -64.5q115 0 195 117q6 8 14 8 q6 0 27 -10l69 -35q14 -8 14 -18z" />
<glyph unicode="&#xe8;" horiz-adv-x="937" d="M528 1034q0 -16 -22 -16h-41q-12 0 -23 10l-233 209q-8 8 -8 16q0 18 22 19h135q14 0 23 -12l141 -209q6 -11 6 -17zM827 467q0 -20 -20 -21h-535q-20 0 -20 -20v-111q0 -90 64.5 -154.5t152.5 -64.5q115 0 195 117q6 8 14 8q2 0 22 -8l74 -37q14 -8 14 -18 q0 -14 -45 -68q-94 -111 -274 -110q-162 0 -258 93t-96 242v277q0 127 99 230.5t255 103.5t257 -103.5t101 -230.5v-125zM688 563v29q0 88 -64.5 152.5t-154.5 64.5t-153.5 -63.5t-63.5 -153.5v-29q0 -20 20 -20h396q20 0 20 20z" />
<glyph unicode="&#xe9;" horiz-adv-x="937" d="M735 1253q0 -8 -8 -16l-233 -209q-10 -10 -23 -10h-41q-23 0 -22 16q0 6 6 17l141 209q8 12 23 12h135q22 -1 22 -19zM827 467q0 -20 -20 -21h-535q-20 0 -20 -20v-111q0 -90 64.5 -154.5t152.5 -64.5q115 0 195 117q6 8 14 8q2 0 22 -8l74 -37q14 -8 14 -18 q0 -14 -45 -68q-94 -111 -274 -110q-162 0 -258 93t-96 242v277q0 127 99 230.5t255 103.5t257 -103.5t101 -230.5v-125zM688 563v29q0 88 -64.5 152.5t-154.5 64.5t-153.5 -63.5t-63.5 -153.5v-29q0 -20 20 -20h396q20 0 20 20z" />
<glyph unicode="&#xea;" horiz-adv-x="937" d="M686 1034q0 -16 -22 -16h-72q-8 0 -17 8l-90 127q-6 10 -16 10q-6 0 -16 -10l-97 -127q-8 -8 -16 -8h-70q-23 0 -22 16q0 6 6 17l164 215q8 8 16 8h64q8 0 16 -8l166 -215q6 -11 6 -17zM827 467q0 -20 -20 -21h-535q-20 0 -20 -20v-111q0 -90 64.5 -154.5t152.5 -64.5 q115 0 195 117q6 8 14 8q2 0 22 -8l74 -37q14 -8 14 -18q0 -14 -45 -68q-94 -111 -274 -110q-162 0 -258 93t-96 242v277q0 127 99 230.5t255 103.5t257 -103.5t101 -230.5v-125zM688 563v29q0 88 -64.5 152.5t-154.5 64.5t-153.5 -63.5t-63.5 -153.5v-29q0 -20 20 -20h396 q20 0 20 20z" />
<glyph unicode="&#xeb;" horiz-adv-x="937" d="M725 1145q0 -37 -27.5 -64.5t-64.5 -27.5q-39 0 -63.5 26.5t-24.5 65.5t24.5 63.5t63.5 24.5t65.5 -24.5t26.5 -63.5zM391 1145q0 -39 -25.5 -65.5t-64.5 -26.5t-64.5 26.5t-25.5 65.5t25.5 63.5t64.5 24.5t64.5 -24.5t25.5 -63.5zM827 467q0 -20 -20 -21h-535 q-20 0 -20 -20v-111q0 -90 64.5 -154.5t152.5 -64.5q115 0 195 117q6 8 14 8q2 0 22 -8l74 -37q14 -8 14 -18q0 -14 -45 -68q-94 -111 -274 -110q-162 0 -258 93t-96 242v277q0 127 99 230.5t255 103.5t257 -103.5t101 -230.5v-125zM688 563v29q0 88 -64.5 152.5 t-154.5 64.5t-153.5 -63.5t-63.5 -153.5v-29q0 -20 20 -20h396q20 0 20 20z" />
<glyph unicode="&#xec;" horiz-adv-x="428" d="M274 1034q0 -16 -22 -16h-41q-12 0 -23 10l-233 209q-8 8 -8 16q0 18 22 19h135q14 0 23 -12l141 -209q6 -11 6 -17zM285 20q0 -20 -21 -20h-98q-20 0 -21 20v865q0 20 21 20h98q20 0 21 -20v-865z" />
<glyph unicode="&#xed;" horiz-adv-x="428" d="M481 1253q0 -8 -8 -16l-233 -209q-10 -10 -23 -10h-41q-23 0 -22 16q0 6 6 17l141 209q8 12 23 12h135q22 -1 22 -19zM285 20q0 -20 -21 -20h-98q-20 0 -21 20v865q0 20 21 20h98q20 0 21 -20v-865z" />
<glyph unicode="&#xee;" horiz-adv-x="428" d="M432 1034q0 -16 -22 -16h-72q-8 0 -16 8l-91 127q-6 10 -16 10q-6 0 -16 -10l-97 -127q-8 -8 -16 -8h-70q-23 0 -22 16q0 6 6 17l164 215q8 8 16 8h64q8 0 16 -8l166 -215q6 -11 6 -17zM285 20q0 -20 -21 -20h-98q-20 0 -21 20v865q0 20 21 20h98q20 0 21 -20v-865z" />
<glyph unicode="&#xef;" horiz-adv-x="428" d="M471 1145q0 -37 -27.5 -64.5t-64.5 -27.5q-39 0 -63.5 26.5t-24.5 65.5t24.5 63.5t63.5 24.5t65.5 -24.5t26.5 -63.5zM137 1145q0 -39 -25.5 -65.5t-64.5 -26.5t-64.5 26.5t-25.5 65.5t25.5 63.5t64.5 24.5t64.5 -24.5t25.5 -63.5zM285 20q0 -20 -21 -20h-98 q-20 0 -21 20v865q0 20 21 20h98q20 0 21 -20v-865z" />
<glyph unicode="&#xf0;" horiz-adv-x="937" d="M827 315q0 -150 -98 -242.5t-260 -92.5t-258 93t-96 242v277q0 150 96 242t258 92h2l-117 116l-188 -84q-10 -4 -19.5 -0.5t-9.5 11.5v39q0 29 13 32l143 64l-158 158q-10 10 -2 18t23 8h106q6 0 21 -14l120 -121l207 92q8 4 18.5 0t10.5 -12v-45q0 -20 -16 -27l-158 -69 l299 -297q63 -82 63 -203v-277zM688 315v277q0 88 -64.5 152.5t-154.5 64.5t-153.5 -63.5t-63.5 -153.5v-277q0 -90 64.5 -154.5t152.5 -64.5t153.5 64.5t65.5 154.5z" />
<glyph unicode="&#xf1;" horiz-adv-x="1003" d="M786 1169q0 -6 -36 -57q-61 -76 -129 -76q-45 0 -127 54l-41 26q-47 31 -86 31q-53 0 -107 -53q-6 -6 -14 -6.5t-13 4.5l-20 14q-10 6 -10 16q0 8 28 49q59 82 136 82q59 0 120 -47l43 -32q37 -31 91 -31q55 0 110 55q8 8 14.5 8t12.5 -6l18 -14q10 -7 10 -17zM860 20 q0 -20 -20 -20h-99q-20 0 -20 20v551q0 88 -64.5 152.5t-154.5 64.5t-153.5 -63t-63.5 -154v-551q0 -20 -21 -20h-98q-20 0 -21 20v865q0 20 21 20h76q20 0 20 -20v-82q0 -23 19 -23q10 0 18 11q92 115 203 114q162 0 260 -93t98 -241v-551z" />
<glyph unicode="&#xf2;" horiz-adv-x="937" d="M528 1034q0 -16 -22 -16h-41q-12 0 -23 10l-233 209q-8 8 -8 16q0 18 22 19h135q14 0 23 -12l141 -209q6 -11 6 -17zM827 315q0 -150 -98 -242.5t-260 -92.5t-258 93t-96 242v277q0 150 96 242t258 92t260 -92.5t98 -241.5v-277zM688 315v277q0 88 -64.5 152.5 t-154.5 64.5t-153.5 -63.5t-63.5 -153.5v-277q0 -90 64.5 -154.5t152.5 -64.5t153.5 64.5t65.5 154.5z" />
<glyph unicode="&#xf3;" horiz-adv-x="937" d="M735 1253q0 -8 -8 -16l-233 -209q-10 -10 -23 -10h-41q-23 0 -22 16q0 6 6 17l141 209q8 12 23 12h135q22 -1 22 -19zM827 315q0 -150 -98 -242.5t-260 -92.5t-258 93t-96 242v277q0 150 96 242t258 92t260 -92.5t98 -241.5v-277zM688 315v277q0 88 -64.5 152.5 t-154.5 64.5t-153.5 -63.5t-63.5 -153.5v-277q0 -90 64.5 -154.5t152.5 -64.5t153.5 64.5t65.5 154.5z" />
<glyph unicode="&#xf4;" horiz-adv-x="937" d="M686 1034q0 -16 -22 -16h-72q-8 0 -17 8l-90 127q-6 10 -16 10q-6 0 -16 -10l-97 -127q-8 -8 -16 -8h-70q-23 0 -22 16q0 6 6 17l164 215q8 8 16 8h64q8 0 16 -8l166 -215q6 -11 6 -17zM827 315q0 -150 -98 -242.5t-260 -92.5t-258 93t-96 242v277q0 150 96 242t258 92 t260 -92.5t98 -241.5v-277zM688 315v277q0 88 -64.5 152.5t-154.5 64.5t-153.5 -63.5t-63.5 -153.5v-277q0 -90 64.5 -154.5t152.5 -64.5t153.5 64.5t65.5 154.5z" />
<glyph unicode="&#xf5;" horiz-adv-x="937" d="M756 1169q0 -6 -37 -57q-61 -76 -129 -76q-45 0 -127 54l-41 26q-47 31 -86 31q-53 0 -107 -53q-6 -6 -14 -6.5t-12 4.5l-21 14q-10 6 -10 16q0 8 29 49q59 82 135 82q59 0 121 -47l43 -32q37 -31 90 -31q55 0 110 55q8 8 14.5 8t12.5 -6l18 -14q11 -7 11 -17zM827 315 q0 -150 -98 -242.5t-260 -92.5t-258 93t-96 242v277q0 150 96 242t258 92t260 -92.5t98 -241.5v-277zM688 315v277q0 88 -64.5 152.5t-154.5 64.5t-153.5 -63.5t-63.5 -153.5v-277q0 -90 64.5 -154.5t152.5 -64.5t153.5 64.5t65.5 154.5z" />
<glyph unicode="&#xf6;" horiz-adv-x="937" d="M725 1145q0 -37 -27.5 -64.5t-64.5 -27.5q-39 0 -63.5 26.5t-24.5 65.5t24.5 63.5t63.5 24.5t65.5 -24.5t26.5 -63.5zM391 1145q0 -39 -25.5 -65.5t-64.5 -26.5t-64.5 26.5t-25.5 65.5t25.5 63.5t64.5 24.5t64.5 -24.5t25.5 -63.5zM827 315q0 -150 -98 -242.5t-260 -92.5 t-258 93t-96 242v277q0 150 96 242t258 92t260 -92.5t98 -241.5v-277zM688 315v277q0 88 -64.5 152.5t-154.5 64.5t-153.5 -63.5t-63.5 -153.5v-277q0 -90 64.5 -154.5t152.5 -64.5t153.5 64.5t65.5 154.5z" />
<glyph unicode="&#xf7;" d="M625 815q0 -41 -31 -71.5t-72 -30.5q-39 0 -68.5 30.5t-29.5 71.5t29.5 70.5t68.5 29.5q43 0 73 -28.5t30 -71.5zM954 457q0 -20 -20 -21h-821q-20 0 -21 21v55q0 20 21 20h821q20 0 20 -20v-55zM625 156q0 -41 -31 -72t-72 -31q-39 0 -68.5 31t-29.5 72t29.5 70.5 t68.5 29.5q43 0 73 -28.5t30 -71.5z" />
<glyph unicode="&#xf8;" horiz-adv-x="937" d="M827 315q0 -150 -98 -242.5t-260 -92.5t-258 93t-96 242v277q0 150 96 242t258 92t260 -92.5t98 -241.5v-277zM688 315v277q0 55 -35 117q-6 14 -18 14t-19 -16l-227 -537q-14 -29 -14 -37q0 -10 14 -18q39 -18 80 -19q88 0 153.5 64.5t65.5 154.5zM547 782q0 14 -17 19 q-33 8 -61 8q-90 0 -153.5 -63.5t-63.5 -153.5v-277q0 -45 20 -90q6 -14 18.5 -14t18.5 14l223 518z" />
<glyph unicode="&#xf9;" horiz-adv-x="980" d="M543 1034q0 -16 -23 -16h-41q-12 0 -22 10l-234 209q-8 8 -8 16q0 18 23 19h135q14 0 22 -12l142 -209q6 -11 6 -17zM838 20q0 -20 -21 -20h-76q-20 0 -20 20v89q0 23 -19 22q-10 0 -18 -10q-94 -121 -205 -121q-162 0 -258 93t-96 243v549q0 20 20 20h97q20 0 20 -20 v-549q0 -90 64.5 -154.5t152.5 -64.5q92 0 156.5 63.5t64.5 155.5v549q0 20 21 20h96q20 0 21 -20v-865z" />
<glyph unicode="&#xfa;" horiz-adv-x="980" d="M750 1253q0 -8 -9 -16l-233 -209q-10 -10 -23 -10h-41q-23 0 -22 16q0 6 6 17l141 209q8 12 23 12h135q23 -1 23 -19zM838 20q0 -20 -21 -20h-76q-20 0 -20 20v89q0 23 -19 22q-10 0 -18 -10q-94 -121 -205 -121q-162 0 -258 93t-96 243v549q0 20 20 20h97q20 0 20 -20 v-549q0 -90 64.5 -154.5t152.5 -64.5q92 0 156.5 63.5t64.5 155.5v549q0 20 21 20h96q20 0 21 -20v-865z" />
<glyph unicode="&#xfb;" horiz-adv-x="980" d="M700 1034q0 -16 -22 -16h-72q-8 0 -16 8l-90 127q-6 10 -17 10q-6 0 -16 -10l-96 -127q-8 -8 -17 -8h-69q-23 0 -23 16q0 6 6 17l164 215q8 8 17 8h63q8 0 16 -8l166 -215q6 -11 6 -17zM838 20q0 -20 -21 -20h-76q-20 0 -20 20v89q0 23 -19 22q-10 0 -18 -10 q-94 -121 -205 -121q-162 0 -258 93t-96 243v549q0 20 20 20h97q20 0 20 -20v-549q0 -90 64.5 -154.5t152.5 -64.5q92 0 156.5 63.5t64.5 155.5v549q0 20 21 20h96q20 0 21 -20v-865z" />
<glyph unicode="&#xfc;" horiz-adv-x="980" d="M739 1145q0 -37 -27.5 -64.5t-64.5 -27.5q-39 0 -63.5 26.5t-24.5 65.5t24.5 63.5t63.5 24.5t65.5 -24.5t26.5 -63.5zM406 1145q0 -39 -26 -65.5t-65 -26.5t-64.5 26.5t-25.5 65.5t25.5 63.5t64.5 24.5t65 -24.5t26 -63.5zM838 20q0 -20 -21 -20h-76q-20 0 -20 20v89 q0 23 -19 22q-10 0 -18 -10q-94 -121 -205 -121q-162 0 -258 93t-96 243v549q0 20 20 20h97q20 0 20 -20v-549q0 -90 64.5 -154.5t152.5 -64.5q92 0 156.5 63.5t64.5 155.5v549q0 20 21 20h96q20 0 21 -20v-865z" />
<glyph unicode="&#xfd;" horiz-adv-x="980" d="M750 1253q0 -8 -9 -16l-233 -209q-10 -10 -23 -10h-41q-23 0 -22 16q0 6 6 17l141 209q8 12 23 12h135q23 -1 23 -19zM838 -123q0 -162 -93.5 -260t-265.5 -98q-176 0 -270 108q-47 57 -47 69.5t14 18.5l74 37q16 8 20 8q10 0 17 -10q76 -115 192 -115q92 0 156.5 63.5 t64.5 156.5v243q0 23 -18 23q-10 0 -18 -10q-84 -111 -185 -111q-162 0 -258 93t-96 243v549q0 20 20 20h97q20 0 20 -20v-549q0 -90 64.5 -154.5t152.5 -64.5q104 0 162.5 69.5t58.5 149.5v549q0 20 21 20h96q20 0 21 -20v-1008z" />
<glyph unicode="&#xfe;" horiz-adv-x="970" d="M860 336q0 -145 -97 -240.5t-241 -95.5q-104 0 -203 117q-10 10 -18 10q-16 0 -16 -25v-542q0 -20 -21 -21h-98q-20 0 -21 21v1708q0 20 21 20h76q20 0 20 -20v-465q0 -23 19 -23q10 0 18 11q92 115 203 114q162 0 260 -93t98 -241v-235zM721 336v235q0 88 -64.5 152.5 t-154.5 64.5t-153.5 -63t-63.5 -154v-235q0 -90 64.5 -154.5t152.5 -64.5t153.5 64.5t65.5 154.5z" />
<glyph unicode="&#xff;" horiz-adv-x="980" d="M739 1145q0 -37 -27.5 -64.5t-64.5 -27.5q-39 0 -63.5 26.5t-24.5 65.5t24.5 63.5t63.5 24.5t65.5 -24.5t26.5 -63.5zM406 1145q0 -39 -26 -65.5t-65 -26.5t-64.5 26.5t-25.5 65.5t25.5 63.5t64.5 24.5t65 -24.5t26 -63.5zM838 -123q0 -162 -93.5 -260t-265.5 -98 q-176 0 -270 108q-47 57 -47 69.5t14 18.5l74 37q16 8 20 8q10 0 17 -10q76 -115 192 -115q92 0 156.5 63.5t64.5 156.5v243q0 23 -18 23q-10 0 -18 -10q-84 -111 -185 -111q-162 0 -258 93t-96 243v549q0 20 20 20h97q20 0 20 -20v-549q0 -90 64.5 -154.5t152.5 -64.5 q104 0 162.5 69.5t58.5 149.5v549q0 20 21 20h96q20 0 21 -20v-1008z" />
<glyph unicode="&#x152;" horiz-adv-x="1587" d="M1487 20q0 -20 -21 -20h-780q-61 -20 -131 -20h-63q-162 0 -259.5 93t-97.5 242v660q0 150 97.5 243t259.5 93h63q66 0 137 -23h774q20 0 21 -20v-76q0 -20 -21 -21h-577q-20 0 -21 -16q0 -8 11 -33q35 -78 34 -147v-242q0 -20 21 -20h438q20 0 21 -21v-76q0 -20 -21 -20 h-438q-20 0 -21 -21v-260q0 -61 -24 -125q-20 -47 -21 -57q0 -16 21 -16h577q20 0 21 -21v-76zM774 315v660q0 92 -64.5 154.5t-154.5 62.5h-63q-92 0 -155 -62.5t-63 -154.5v-660q0 -90 62.5 -154.5t155.5 -64.5h63q88 0 153.5 64.5t65.5 154.5z" />
<glyph unicode="&#x153;" horiz-adv-x="1513" d="M1403 467q0 -20 -21 -21h-534q-20 0 -21 -20v-111q0 -29 -2 -43q31 -72 88.5 -124t130.5 -52q115 0 195 117q6 8 14 8q2 0 23 -8l74 -37q14 -8 14 -18q0 -14 -45 -68q-94 -111 -275 -110q-162 0 -272 108q-12 8 -14 8t-15 -8q-111 -109 -274 -108q-162 0 -258 93t-96 242 v277q0 150 96 242t258 92q168 0 283 -109q12 -8 16 -8q8 0 14 6q115 111 262 111q156 0 257.5 -103.5t101.5 -230.5v-125zM1264 563v29q0 88 -64.5 152.5t-155.5 64.5q-82 0 -137 -52t-82 -122q2 -10 2 -43v-29q0 -20 21 -20h395q21 0 21 20zM688 315v277q0 88 -64.5 152.5 t-154.5 64.5t-153.5 -63.5t-63.5 -153.5v-277q0 -90 64.5 -154.5t152.5 -64.5t153.5 64.5t65.5 154.5z" />
<glyph unicode="&#x178;" horiz-adv-x="917" d="M696 1511.5q0 -34.5 -25.5 -61.5t-60.5 -27q-37 0 -58.5 26t-21.5 62q0 33 24 58.5t56 25.5q37 0 61.5 -24.5t24.5 -59zM387 1511.5q0 -34.5 -25.5 -61.5t-60.5 -27q-37 0 -58.5 26t-21.5 62q0 35 22.5 59.5t57.5 24.5q37 0 61.5 -24.5t24.5 -59zM885 1272q0 -2 -4 -15 l-353 -661v-576q0 -20 -20 -20h-100q-20 0 -21 20v576l-350 661q-4 12 -4 15q0 16 22 16h117q10 0 18 -12l252 -516q6 -16 18.5 -16.5t18.5 16.5l248 516q8 12 18 12h117q23 0 23 -16z" />
<glyph unicode="&#x2c6;" horiz-adv-x="1024" d="M733 1034q0 -16 -22 -16h-72q-8 0 -16 8l-91 127q-6 10 -16 10q-6 0 -16 -10l-97 -127q-8 -8 -16 -8h-70q-23 0 -22 16q0 6 6 17l164 215q8 8 16 8h64q8 0 16 -8l166 -215q6 -11 6 -17z" />
<glyph unicode="&#x2dc;" horiz-adv-x="1024" d="M805 1169q0 -6 -37 -57q-61 -76 -129 -76q-45 0 -127 54l-41 26q-47 31 -86 31q-53 0 -106 -53q-6 -6 -14.5 -6.5t-12.5 4.5l-21 14q-10 6 -10 16q0 8 29 49q59 82 135 82q59 0 121 -47l43 -32q37 -31 90 -31q55 0 111 55q8 8 14 8t12 -6l19 -14q10 -7 10 -17z" />
<glyph unicode="&#x2000;" horiz-adv-x="806" />
<glyph unicode="&#x2001;" horiz-adv-x="1615" />
<glyph unicode="&#x2002;" horiz-adv-x="806" />
<glyph unicode="&#x2003;" horiz-adv-x="1615" />
<glyph unicode="&#x2004;" horiz-adv-x="538" />
<glyph unicode="&#x2005;" horiz-adv-x="403" />
<glyph unicode="&#x2006;" horiz-adv-x="268" />
<glyph unicode="&#x2007;" horiz-adv-x="268" />
<glyph unicode="&#x2008;" horiz-adv-x="200" />
<glyph unicode="&#x2009;" horiz-adv-x="321" />
<glyph unicode="&#x200a;" horiz-adv-x="88" />
<glyph unicode="&#x2010;" horiz-adv-x="534" d="M434 403q0 -20 -20 -20h-291q-20 0 -21 20v99q0 20 21 20h291q20 0 20 -20v-99z" />
<glyph unicode="&#x2011;" horiz-adv-x="534" d="M434 403q0 -20 -20 -20h-291q-20 0 -21 20v99q0 20 21 20h291q20 0 20 -20v-99z" />
<glyph unicode="&#x2012;" horiz-adv-x="534" d="M434 403q0 -20 -20 -20h-291q-20 0 -21 20v99q0 20 21 20h291q20 0 20 -20v-99z" />
<glyph unicode="&#x2013;" horiz-adv-x="1173" d="M1071 457q0 -20 -20 -21h-928q-20 0 -21 21v55q0 20 21 20h928q20 0 20 -20v-55z" />
<glyph unicode="&#x2014;" horiz-adv-x="1748" d="M1647 457q0 -20 -21 -21h-1503q-20 0 -21 21v55q0 20 21 20h1503q20 0 21 -20v-55z" />
<glyph unicode="&#x2018;" horiz-adv-x="335" d="M270 1329q0 -8 -8 -14q-76 -59 -76 -203q0 -20 21 -20h24q20 0 21 -21v-110q0 -20 -21 -21h-129q-20 0 -20 21v108q0 182 90 268q45 45 66 45q10 0 16 -12l12 -27q4 -8 4 -14z" />
<glyph unicode="&#x2019;" horiz-adv-x="335" d="M256 1169q0 -182 -90 -268q-45 -45 -66 -45q-10 0 -16 12l-12 27q-4 8 -4 14q0 8 8 15q76 59 76 202q0 20 -21 21h-25q-20 0 -20 20v111q0 20 20 20h130q20 0 20 -20v-109z" />
<glyph unicode="&#x201a;" horiz-adv-x="335" d="M256 61q0 -182 -90 -268q-45 -45 -66 -45q-10 0 -16 12l-12 27q-4 8 -4 14q0 8 8 15q76 59 76 202q0 20 -21 21h-25q-20 0 -20 20v111q0 20 20 20h130q20 0 20 -20v-109z" />
<glyph unicode="&#x201c;" horiz-adv-x="600" d="M535 1329q0 -8 -9 -14q-76 -59 -75 -203q0 -20 20 -20h25q20 0 20 -21v-110q0 -20 -20 -21h-129q-20 0 -21 21v108q0 182 90 268q45 45 66 45q10 0 16 -12l12 -27q5 -8 5 -14zM270 1329q0 -8 -8 -14q-76 -59 -76 -203q0 -20 21 -20h24q20 0 21 -21v-110q0 -20 -21 -21 h-129q-20 0 -20 21v108q0 182 90 268q45 45 66 45q10 0 16 -12l12 -27q4 -8 4 -14z" />
<glyph unicode="&#x201d;" horiz-adv-x="600" d="M520 1169q0 -182 -90 -268q-45 -45 -65 -45q-10 0 -17 12l-12 27q-4 8 -4 14q0 8 8 15q76 59 76 202q0 20 -21 21h-24q-20 0 -21 20v111q0 20 21 20h129q20 0 20 -20v-109zM256 1169q0 -182 -90 -268q-45 -45 -66 -45q-10 0 -16 12l-12 27q-4 8 -4 14q0 8 8 15 q76 59 76 202q0 20 -21 21h-25q-20 0 -20 20v111q0 20 20 20h130q20 0 20 -20v-109z" />
<glyph unicode="&#x201e;" horiz-adv-x="600" d="M520 61q0 -182 -90 -268q-45 -45 -65 -45q-10 0 -17 12l-12 27q-4 8 -4 14q0 8 8 15q76 59 76 202q0 20 -21 21h-24q-20 0 -21 20v111q0 20 21 20h129q20 0 20 -20v-109zM256 61q0 -182 -90 -268q-45 -45 -66 -45q-10 0 -16 12l-12 27q-4 8 -4 14q0 8 8 15q76 59 76 202 q0 20 -21 21h-25q-20 0 -20 20v111q0 20 20 20h130q20 0 20 -20v-109z" />
<glyph unicode="&#x2022;" horiz-adv-x="1024" d="M809 625q0 -121 -81 -197t-212 -76h-8q-133 0 -213 75t-80 198v43q0 121 80 195.5t213 74.5h8q131 0 212 -75t81 -195v-43z" />
<glyph unicode="&#x2026;" horiz-adv-x="2048" d="M1745 70q0 -43 -29.5 -72t-73.5 -29q-39 0 -68.5 30t-29.5 71t30 70.5t68 29.5q43 0 73 -28.5t30 -71.5zM1122 70q0 -43 -29.5 -72t-72.5 -29q-39 0 -68.5 30t-29.5 71t29.5 70.5t68.5 29.5q43 0 72.5 -28.5t29.5 -71.5zM500 70q0 -43 -30 -72t-73 -29q-39 0 -68.5 30 t-29.5 71t29.5 70.5t68.5 29.5q43 0 73 -28.5t30 -71.5z" />
<glyph unicode="&#x202f;" horiz-adv-x="321" />
<glyph unicode="&#x2039;" horiz-adv-x="665" d="M543 236q0 -23 -17 -23q-6 0 -16 6l-387 277q-8 8 -8 16v113q0 8 8 16l387 277q10 6 16 6q16 0 17 -23v-86q0 -8 -8 -16l-297 -213q-10 -10 -10.5 -16.5t10.5 -16.5l297 -215q8 -8 8 -16v-86z" />
<glyph unicode="&#x203a;" horiz-adv-x="665" d="M569 512q0 -8 -8 -16l-391 -277q-10 -6 -16 -6q-16 0 -17 23v86q0 8 8 16l297 215q10 10 10.5 16t-10.5 17l-297 213q-8 8 -8 16v86q0 23 17 23q6 0 16 -6l391 -277q8 -8 8 -16v-113z" />
<glyph unicode="&#x205f;" horiz-adv-x="403" />
<glyph unicode="&#x20ac;" d="M956 147q-35 -57 -73 -90q-92 -78 -242 -77h-63q-162 0 -259.5 93t-97.5 242v82q0 20 -20 21h-127q-20 0 -21 20v74q0 20 21 20h127q20 0 20 21v184q0 20 -20 21h-127q-20 0 -21 20v76q0 20 21 20h127q20 0 20 21v80q0 150 97.5 243t259.5 93h63q143 0 236 -72 q47 -39 79 -94q12 -18 -10 -29l-86 -43q-16 -6 -24 6q-82 113 -195 113h-63q-92 0 -155 -62.5t-63 -154.5v-80q0 -20 21 -21h324q20 0 20 -20v-76q0 -20 -20 -20h-324q-20 0 -21 -21v-184q0 -20 21 -21h324q20 0 20 -20v-74q0 -20 -20 -20h-324q-20 0 -21 -21v-82 q0 -90 62.5 -154.5t155.5 -64.5h63q115 0 195 117q8 12 24 6l86 -43q22 -11 10 -29z" />
<glyph unicode="&#x2122;" horiz-adv-x="794" d="M733 758q0 -20 -20 -21h-25q-20 0 -20 21v147q0 25 -19 25q-10 0 -20 -15l-51 -84q-6 -10 -19 -10h-8q-10 0 -16 10l-56 84q-10 14 -20 15q-16 0 -17 -25v-147q0 -20 -20 -21h-25q-20 0 -20 21v344q0 20 20 20h25q12 0 18 -10l97 -166q10 -14 18 -14t18 14l97 166 q6 10 18 10h25q20 0 20 -20v-344zM299 1079q0 -20 -20 -20h-56q-20 0 -20 -21v-280q0 -20 -21 -21h-24q-20 0 -21 21v280q0 20 -20 21h-56q-20 0 -20 20v23q0 20 20 20h218q20 0 20 -20v-23z" />
<glyph unicode="&#xe000;" horiz-adv-x="905" d="M0 905h905v-905h-905v905z" />
<glyph unicode="&#xfb01;" horiz-adv-x="993" d="M870 1221q0 -37 -27.5 -65t-64.5 -28q-39 0 -63.5 27t-24.5 66q0 35 26.5 62.5t61.5 27.5q39 0 65.5 -25.5t26.5 -64.5zM850 20q0 -20 -21 -20h-98q-20 0 -20 20v865q0 20 20 20h98q20 0 21 -20v-865zM508 713q0 -20 -21 -21h-151q-20 0 -21 -20v-652q0 -20 -20 -20h-96 q-20 0 -21 20v652q0 20 -20 20h-56q-20 0 -20 21v75q0 20 20 21h56q20 0 20 20v125q0 104 54.5 189.5t148.5 130.5q72 33 108 33q18 0 19 -21v-78q0 -16 -16 -20q-80 -18 -128.5 -76.5t-48.5 -136.5v-146q0 -20 21 -20h151q20 0 21 -21v-75z" />
<glyph unicode="&#xfb02;" horiz-adv-x="999" d="M856 20q0 -20 -20 -20h-99q-20 0 -20 20v1131q0 20 -21 20h-164q-90 0 -153.5 -63.5t-63.5 -153.5v-125q0 -20 21 -20h151q20 0 21 -21v-75q0 -20 -21 -21h-151q-20 0 -21 -20v-652q0 -20 -20 -20h-96q-20 0 -21 20v652q0 20 -20 20h-56q-20 0 -20 21v75q0 20 20 21h56 q20 0 20 20v105q0 147 103.5 250.5t250.5 103.5h304q20 0 20 -20v-1248z" />
<glyph unicode="&#xfb03;" horiz-adv-x="1517" d="M1411 1221q0 -37 -27.5 -65t-64.5 -28q-39 0 -64.5 27t-25.5 66t25.5 64.5t64.5 25.5t65.5 -25.5t26.5 -64.5zM1389 20q0 -20 -21 -20h-96q-20 0 -21 20v865q0 20 21 20h96q20 0 21 -20v-865zM1047 713q0 -20 -21 -21h-149q-20 0 -21 -20v-652q0 -20 -20 -20h-99 q-20 0 -20 20v652q0 20 -21 20h-360q-20 0 -21 -20v-652q0 -20 -20 -20h-96q-20 0 -21 20v652q0 20 -20 20h-56q-20 0 -20 21v75q0 20 20 21h56q20 0 20 20v125q0 150 103.5 253.5t250.5 103.5q139 0 228 -78q39 -35 43 -35q6 0 13 6t16.5 15.5t15.5 13.5q39 29 98.5 51.5 t83.5 22.5q16 0 17 -21v-80q0 -16 -17 -20q-80 -16 -127 -74.5t-47 -136.5v-146q0 -20 21 -20h149q20 0 21 -21v-75zM733 1057q0 16 -33 53q-70 82 -168 82q-90 0 -153.5 -62.5t-63.5 -154.5v-146q0 -20 21 -20h360q20 0 21 20v125q0 29 4 52.5t8 35t4 15.5z" />
<glyph unicode="&#xfb04;" horiz-adv-x="1538" d="M1395 20q0 -20 -21 -20h-96q-20 0 -21 20v1131q0 20 -20 20h-164q-90 0 -153.5 -63.5t-63.5 -153.5v-125q0 -20 21 -20h149q20 0 21 -21v-75q0 -20 -21 -21h-149q-20 0 -21 -20v-652q0 -20 -20 -20h-99q-20 0 -20 20v652q0 20 -21 20h-360q-20 0 -21 -20v-652 q0 -20 -20 -20h-96q-20 0 -21 20v652q0 20 -20 20h-56q-20 0 -20 21v75q0 20 20 21h56q20 0 20 20v125q0 150 103.5 253.5t250.5 103.5q98 0 154.5 -29t114.5 -88q8 -8 12 -8q2 0 14 8q106 94 246 94h301q20 0 21 -20v-1248zM733 1057q0 16 -33 53q-70 82 -168 82 q-90 0 -153.5 -62.5t-63.5 -154.5v-146q0 -20 21 -20h360q20 0 21 20v125q0 29 4 52.5t8 35t4 15.5z" />
</font>
</defs>
</svg>
