<?xml version="1.0" standalone="no"?>
<!DOCTYPE svg PUBLIC "-//W3C//DTD SVG 1.1//EN" "http://www.w3.org/Graphics/SVG/1.1/DTD/svg11.dtd" >
<svg xmlns="http://www.w3.org/2000/svg">
<metadata>
This is a custom SVG webfont generated by Font Squirrel.
Copyright   : Copyright 1997 International Typeface Corporation All rights reserved
Designer    : Mark van Bronkhorst MvB Design
Foundry     : International Typeface Corporation
Foundry URL : httpwwwitcfontscom
</metadata>
<defs>
<font id="webfont4C1nJC9o" horiz-adv-x="1044" >
<font-face units-per-em="2048" ascent="1638" descent="-410" />
<missing-glyph horiz-adv-x="360" />
<glyph unicode=" "  horiz-adv-x="360" />
<glyph unicode="&#x09;" horiz-adv-x="360" />
<glyph unicode="&#xa0;" horiz-adv-x="360" />
<glyph unicode="!" horiz-adv-x="614" d="M399 741l-43 -354q-4 -18 -20 -18h-55q-18 0 -21 18l-45 354v529q0 20 21 20h143q20 0 20 -20v-529zM420 92q0 -47 -33 -79.5t-80 -32.5t-79.5 32.5t-32.5 79.5t32.5 80t79.5 33t80 -33t33 -80z" />
<glyph unicode="&#x22;" horiz-adv-x="634" d="M551 1272q0 -6 -3 -24.5t-3 -28.5l-35 -279q-2 -18 -21 -18h-55q-16 0 -20 18l-37 281q0 12 -3 29.5t-3 21.5q0 18 20 18h139q21 0 21 -18zM264 1272q0 -6 -3 -24.5t-3 -28.5l-35 -279q-2 -18 -20 -18h-56q-16 0 -20 18l-37 281q0 12 -3 29.5t-3 21.5q0 18 20 18h140 q20 0 20 -18z" />
<glyph unicode="#" horiz-adv-x="1148" d="M1075 909q0 -4 -2 -9t-4 -13t-4 -15l-25 -94q-6 -20 -26 -20h-140q-18 0 -20 -13l-45 -155q-10 -31 -10 -39q0 -18 22 -19h144q16 0 16 -12q0 -2 -2 -7t-4 -13l-4 -17l-25 -94q-6 -20 -26 -20h-156q-18 0 -21 -13l-98 -342q-2 -14 -20 -14h-68q-23 0 -22 18q0 4 2 9.5 t4 14.5t4 15l71 258q10 31 11 37q0 16 -23 17h-231q-18 0 -21 -13l-96 -342q-2 -14 -20 -14h-68q-23 0 -23 18q0 8 11 39l73 258q2 6 4.5 14.5t4.5 13.5t2 9q0 16 -23 17h-127q-16 0 -16 12q0 4 10 39l25 92q6 20 26 20h139q16 0 21 17l45 156q2 6 4 14t4 13t2 9 q0 16 -22 17h-144q-16 0 -16 12q0 4 10 39l25 92q6 20 26 21h158q16 0 21 16l96 338q2 14 20 14h68q23 0 22 -18q0 -6 -10 -37l-72 -256l-4 -16q-2 -8 -4 -14.5t-2 -8.5q0 -18 23 -18h229q16 0 21 16l98 338q2 14 20 14h68q23 0 23 -18q0 -2 -2.5 -8.5t-4.5 -14.5t-4 -14 l-71 -256q-2 -8 -6.5 -21.5t-4.5 -17.5q0 -18 23 -18h125q16 -1 16 -13zM737 741q0 16 -22 17h-230q-18 0 -20 -13l-45 -155q-10 -37 -10 -39q0 -18 22 -19h232q16 0 20 17l43 156q2 6 4 14t4 14t2 8z" />
<glyph unicode="$" d="M924 328q0 -145 -90.5 -239.5t-241.5 -106.5q-16 -2 -17 -21v-63q0 -20 -20 -21h-51q-20 0 -21 21v61q0 20 -14 21q-195 0 -293 126q-47 61 -47 84q0 8 12 15l117 59q20 8 23 8q12 0 18 -12q27 -55 73 -86t93 -31q18 0 18 21v397q0 12 -12 19q-72 33 -117 58.5t-97 70.5 t-77.5 108.5t-25.5 145.5q0 141 84 235t225 109q20 4 20 20v66q0 20 21 20h51q20 0 20 -20v-64q0 -20 17 -20q168 -14 256 -123q49 -59 49 -82q0 -10 -12 -17l-109 -55q-6 -2 -13 -6t-11 -6t-9 -2q-10 0 -16 12q-25 49 -63 78q-45 35 -72 35q-16 0 -17 -23v-360 q0 -12 13 -19q76 -35 123 -61.5t102 -75.5t83 -117.5t28 -158.5zM483 825v289q0 20 -16 21q-27 0 -61 -29q-68 -53 -68 -143q0 -72 63 -121q43 -39 66 -39q16 -1 16 22zM739 328q0 86 -77 147q-53 41 -70 41t-17 -22v-326q0 -20 17 -21q47 0 97 54.5t50 126.5z" />
<glyph unicode="%" d="M471 905q0 -82 -52 -133t-143 -51q-88 0 -141 51t-53 133v199q0 82 53 134t141.5 52t141.5 -51t53 -133v-201zM850 1274q0 -8 -25 -66l-512 -1196q-6 -12 -18 -12h-80q-20 0 -20 16q0 8 16 45l520 1217q6 12 19 12h79q21 0 21 -16zM963 184q0 -82 -53.5 -133t-141.5 -51 t-141.5 51t-53.5 133v201q0 82 53.5 133t141.5 51t141.5 -51t53.5 -133v-201zM336 905v201q0 23 -18.5 41t-41.5 18q-25 0 -41 -17.5t-16 -41.5v-201q0 -25 16.5 -41t40.5 -16q23 0 41.5 17t18.5 40zM825 184v201q0 25 -16 42t-41 17t-41 -17t-16 -42v-201q0 -25 16 -41 t41 -16t41 16t16 41z" />
<glyph unicode="&#x26;" horiz-adv-x="1269" d="M1229 2q0 -20 -21 -20q-68 0 -154.5 34.5t-152.5 94.5q-18 18 -29 18q-6 0 -20 -18q-98 -131 -299 -131h-61q-170 0 -269.5 98t-99.5 266v51q0 61 40 136t89 110q12 10 12 18q0 6 -10 17q-131 115 -131 268q0 166 99.5 266.5t269.5 100.5q168 0 268 -100.5t100 -268.5 v-41q0 -70 -48 -147.5t-124 -108.5q-14 -4 -14 -20q0 -12 12 -21q23 -14 109 -102q10 -10 18 -10q10 0 16 18q35 109 124 168t218 59h37q20 0 21 -20v-144q0 -20 -21 -20h-53q-72 0 -119 -52t-65 -132l-6 -27q-2 -18 12 -33q125 -121 235 -143q16 -4 17 -21v-143zM676 922 v41q0 76 -54.5 130t-130 54t-130 -54.5t-54.5 -129.5q0 -106 156 -215q20 -14 35 -15q20 0 39 8q66 23 102.5 73.5t36.5 107.5zM737 274q0 6 -20 31q-94 113 -158 164q-43 33 -115 76q-29 14 -30 14q-8 0 -29 -16q-78 -57 -78 -154v-61q0 -76 54.5 -130.5t130.5 -54.5h61 q96 0 164 90q20 29 20 41z" />
<glyph unicode="'" horiz-adv-x="348" d="M264 1272q0 -6 -3 -24.5t-3 -28.5l-35 -279q-2 -18 -20 -18h-56q-16 0 -20 18l-37 281q0 12 -3 29.5t-3 21.5q0 18 20 18h140q20 0 20 -18z" />
<glyph unicode="(" horiz-adv-x="782" d="M614 -346q0 -20 -20 -21q-100 0 -188 54q-160 96 -160 313v1126q0 242 190 330q82 37 158 37q20 0 20 -20v-123q0 -16 -16 -21q-76 -12 -122 -63.5t-46 -118.5v-1167q0 -68 46 -119t122 -64q16 -4 16 -20v-123z" />
<glyph unicode=")" horiz-adv-x="782" d="M537 0q0 -217 -160 -313q-88 -53 -189 -54q-20 0 -20 21v123q0 16 16 20q76 12 122 63.5t46 119.5v1167q0 68 -46 119t-122 63q-16 4 -16 21v123q0 20 20 20q76 0 158 -37q190 -88 191 -330v-1126z" />
<glyph unicode="*" horiz-adv-x="794" d="M737 948q0 -6 -10 -22l-47 -80q-4 -10 -16 -10q-10 0 -15 4l-170 116q-8 6 -16 7q-16 0 -17 -21q0 -2 5 -39l14 -119q0 -6 3 -27.5t3 -27.5q0 -18 -20 -18h-107q-20 0 -20 18q0 6 3 27.5t3 27.5l14 121l4 37q0 20 -16 21q-8 0 -17 -7l-163 -116q-8 -6 -15 -6 q-10 0 -16 12l-47 82q-10 16 -11 22q0 10 15 17l188 80q16 6 16.5 18t-16.5 18l-188 84q-14 6 -15 17q0 2 11 22l47 80q6 12 16 12q6 0 15 -6l161 -121q10 -6 17 -6q16 0 16 21q0 8 -4 41l-12 110q0 12 -3 33t-3 27q0 18 20 18h107q20 0 20 -18q0 -6 -3 -28.5t-3 -33.5 l-12 -108q-4 -37 -4 -41q0 -20 16 -21q6 0 16 6l168 121q6 6 15 6q10 0 16 -12l47 -80q10 -14 10 -22q0 -10 -14 -17l-193 -84q-14 -6 -14 -18t14 -18l193 -82q14 -7 14 -17z" />
<glyph unicode="+" d="M952 451q0 -20 -20 -21h-328q-20 0 -20 -20v-328q0 -20 -21 -21h-82q-20 0 -20 21v328q0 20 -21 20h-327q-20 0 -21 21v81q0 20 21 21h327q20 0 21 20v328q0 20 20 21h82q20 0 21 -21v-328q0 -20 20 -20h328q20 0 20 -21v-81z" />
<glyph unicode="," horiz-adv-x="450" d="M338 74q0 -184 -107 -281q-63 -59 -92 -59q-8 0 -16 14l-23 45q-8 16 -8 24.5t8 14.5q80 53 80 182q0 18 -20 19h-27q-20 0 -20 20v148q0 20 20 20h184q20 0 21 -20v-127z" />
<glyph unicode="-" horiz-adv-x="552" d="M461 389q0 -20 -21 -20h-327q-20 0 -21 20v143q0 20 21 21h327q20 0 21 -21v-143z" />
<glyph unicode="." horiz-adv-x="450" d="M354 92q0 -47 -32.5 -79.5t-79.5 -32.5t-80 32.5t-33 79.5t33 80t80 33t79.5 -33t32.5 -80z" />
<glyph unicode="/" horiz-adv-x="665" d="M655 1274q0 -4 -12 -37l-524 -1225q-6 -12 -19 -12h-69q-20 0 -21 16q0 8 27 70l510 1192q6 12 18 12h70q20 0 20 -16z" />
<glyph unicode="0" d="M922 328q0 -156 -100.5 -252t-268.5 -96h-61q-168 0 -268.5 96t-100.5 252v635q0 156 100.5 252t268.5 96h61q168 0 268.5 -96.5t100.5 -251.5v-635zM737 328v635q0 76 -54 130t-130 54h-61q-76 0 -130.5 -54.5t-54.5 -129.5v-635q0 -76 54.5 -130.5t130.5 -54.5h61 q76 0 130 54.5t54 130.5z" />
<glyph unicode="1" d="M897 20q0 -20 -20 -20h-635q-20 0 -21 20v123q0 20 21 21h204q20 0 21 20v740q0 23 -16 22q-10 0 -19 -8l-94 -96q-8 -12 -19 -13l-16 11l-88 86q-8 6 -8 14q0 6 8 14l324 324q12 12 24 12h68q20 0 20 -20v-1086q0 -20 21 -20h205q20 0 20 -21v-123z" />
<glyph unicode="2" d="M907 963q0 -70 -22.5 -130.5t-46 -97.5t-80 -82t-84 -63.5t-96.5 -59.5q-59 -35 -93 -58t-73 -60t-56.5 -80t-17.5 -94v-54q0 -20 20 -20h512q20 0 21 -21v-123q0 -20 -21 -20h-696q-20 0 -20 20v218q0 113 49 203.5t106.5 139t149.5 105.5q12 6 44 25.5t44 27.5l40 26 q28 17 39 28l30 27q19 17 28.5 31.5t20 33t14.5 38t4 40.5q0 76 -54.5 130t-129.5 54h-78q-115 0 -170 -115q-6 -12 -19 -12q-10 0 -26 10l-113 57q-12 6 -12 17q0 12 29 55q102 152 311 152h78q168 0 268 -96t100 -252z" />
<glyph unicode="3" d="M891 344q0 -168 -99.5 -266t-269.5 -98h-61q-186 0 -281 112q-59 66 -59 98q0 8 12 15l113 57q20 12 28 12q10 0 17 -14q25 -55 72 -86t98 -31h61q76 0 130.5 54.5t54.5 130.5v71q0 76 -54.5 130.5t-130.5 54.5h-164q-20 0 -20 20v123q0 20 20 21h164q76 0 130.5 54 t54.5 130v31q0 76 -54.5 130t-130.5 54h-61q-115 0 -170 -115q-6 -12 -19 -12q-6 0 -30 12l-109 55q-12 6 -12 17q0 14 33 61q100 145 307 146h61q170 0 269.5 -100.5t99.5 -268.5v-31q0 -59 -39 -127.5t-90 -103.5q-10 -4 -10 -16q0 -6 10 -17q51 -37 90 -109.5t39 -131.5 v-62z" />
<glyph unicode="4" d="M983 317q0 -20 -20 -20h-144q-20 0 -20 -21v-256q0 -20 -21 -20h-143q-20 0 -21 20v256q0 20 -20 21h-512q-20 0 -21 18q0 6 1 24.5t2.5 53.5t1.5 68l542 821q8 8 17 8h153q20 0 21 -20v-789q0 -20 20 -20h144q20 0 20 -21v-123zM614 481v465q0 25 -18 25q-10 0 -18 -13 l-293 -440q-23 -33 -23 -41q0 -16 23 -16h309q20 0 20 20z" />
<glyph unicode="5" d="M907 344q0 -168 -99 -266t-269 -98h-62q-195 0 -291 124q-49 61 -49 86q0 8 13 15l108 55q29 14 33 14q10 0 16 -14q25 -55 72 -86t98 -31h62q76 0 130 54.5t54 130.5v71q0 76 -54.5 130.5t-129.5 54.5h-328q-20 0 -21 20v666q0 20 21 20h655q20 0 21 -20v-123 q0 -20 -21 -21h-471q-20 0 -20 -20v-338q0 -20 20 -20h144q170 0 269 -98.5t99 -266.5v-39z" />
<glyph unicode="6" d="M938 328q0 -156 -100.5 -252t-268.5 -96h-61q-168 0 -268.5 96t-100.5 252v635q0 156 100.5 252t268.5 96h61q199 0 303 -137q39 -53 39 -70q0 -10 -12 -17l-108 -55q-29 -14 -33 -14q-10 0 -17 14q-53 115 -172 115h-61q-76 0 -130 -54.5t-54 -129.5v-250q0 -25 16 -25 q4 0 16 8q74 61 172 62h62q147 0 247.5 -98.5t100.5 -249.5v-82zM754 328v82q0 76 -54.5 130t-130.5 54h-61q-76 0 -130 -54.5t-54 -129.5v-82q0 -76 54 -130.5t130 -54.5h61q76 0 130.5 54.5t54.5 130.5z" />
<glyph unicode="7" d="M895 1053q0 -92 -24.5 -166t-79 -132.5t-91 -87t-110.5 -79.5q-70 -47 -105.5 -76t-68.5 -79t-33 -105v-308q0 -20 -21 -20h-143q-20 0 -20 20v308q0 80 20.5 143.5t64.5 113.5t80.5 80.5t98.5 71.5q72 49 95.5 66.5t70.5 60.5t64.5 88t17.5 101v53q0 20 -21 20h-512 q-20 0 -20 21v123q0 20 20 20h696q20 0 21 -20v-217z" />
<glyph unicode="8" d="M922 344q0 -168 -99.5 -266t-269.5 -98h-61q-170 0 -269.5 98t-99.5 266v51q0 59 39 132t90 110q10 10 10 16q0 10 -10 17q-51 35 -90 103.5t-39 127.5v41q0 168 100.5 268.5t268.5 100.5h61q168 0 268.5 -100.5t100.5 -268.5v-41q0 -59 -39 -127.5t-90 -103.5 q-10 -6 -11 -17q0 -6 11 -16q51 -37 90 -109.5t39 -132.5v-51zM737 922v41q0 76 -54 130t-130 54h-61q-76 0 -130.5 -54.5t-54.5 -129.5v-41q0 -76 54.5 -130.5t130.5 -54.5h61q76 0 130 54.5t54 130.5zM737 328v61q0 76 -54 130t-130 54h-61q-76 0 -130.5 -54t-54.5 -130 v-61q0 -76 54.5 -130.5t130.5 -54.5h61q76 0 130 54.5t54 130.5z" />
<glyph unicode="9" d="M905 328q0 -156 -100 -252t-268 -96h-62q-199 0 -303 137q-39 53 -39 69q0 10 12 17l109 55q29 14 33 14q10 0 16 -14q53 -115 172 -115h62q76 0 130 54.5t54 130.5v178q0 25 -19 24q-4 0 -16 -8q-74 -61 -170 -61h-61q-147 0 -248 98t-101 250v154q0 156 100.5 252 t268.5 96h62q168 0 268 -96.5t100 -251.5v-635zM721 809v154q0 76 -54.5 130t-129.5 54h-62q-76 0 -130 -54.5t-54 -129.5v-154q0 -76 54 -130t130 -54h62q76 0 130 54t54 130z" />
<glyph unicode=":" horiz-adv-x="450" d="M338 645q0 -47 -33 -80t-80 -33t-79.5 33t-32.5 80t32.5 80t79.5 33t80 -33t33 -80zM338 92q0 -47 -33 -79.5t-80 -32.5t-79.5 32.5t-32.5 79.5t32.5 80t79.5 33t80 -33t33 -80z" />
<glyph unicode=";" horiz-adv-x="450" d="M338 645q0 -47 -33 -80t-80 -33t-79.5 33t-32.5 80t32.5 80t79.5 33t80 -33t33 -80zM338 74q0 -184 -107 -281q-63 -59 -92 -59q-8 0 -16 14l-23 45q-8 16 -8 24.5t8 14.5q80 53 80 182q0 18 -20 19h-27q-20 0 -20 20v148q0 20 20 20h184q20 0 21 -20v-127z" />
<glyph unicode="&#x3c;" d="M856 141q0 -2 -10 -22l-37 -60q-6 -12 -16 -12l-37 19l-611 352q-10 6 -10 18v117q0 12 10 18l617 359q29 14 31 14q10 0 16 -12l33 -55q12 -20 12 -27q0 -10 -12 -16l-551 -320q-14 -10 -14.5 -18.5t14.5 -18.5l553 -319q12 -7 12 -17z" />
<glyph unicode="=" d="M952 635q0 -20 -20 -21h-819q-20 0 -21 21v82q0 20 21 20h819q20 0 20 -20v-82zM952 266q0 -20 -20 -20h-819q-20 0 -21 20v82q0 20 21 21h819q20 0 20 -21v-82z" />
<glyph unicode="&#x3e;" d="M909 436q0 -12 -10 -18l-610 -352l-37 -19q-10 0 -16 12l-37 60l-11 22q0 10 13 17l553 319q14 10 14 18.5t-14 18.5l-551 320q-12 6 -13 16q0 6 13 27l33 55q6 12 16 12q2 0 31 -14l616 -359q10 -6 10 -18v-117z" />
<glyph unicode="?" d="M913 963q0 -63 -15 -114.5t-32.5 -81.5t-57.5 -60.5t-58.5 -41t-67.5 -32.5q-10 -6 -16 -8q-49 -23 -76 -40.5t-49.5 -51t-22.5 -78.5q0 -12 3 -38t3 -30q0 -18 -20 -18h-142q-18 0 -20 16q-8 55 -8 98q0 33 7 64t13 51t29 44t30 34t40 30l37 22q5 3 47 24l38 20 q49 25 78 44.5t52.5 58t23.5 88.5q0 76 -54 130t-130 54h-78q-115 0 -170 -115q-6 -12 -18 -12q-6 0 -31 12l-109 55q-12 6 -12 17q0 20 47 80q102 127 293 127h78q168 0 268 -96t100 -252zM573 92q0 -47 -32.5 -79.5t-79.5 -32.5t-80 32.5t-33 79.5t33 80t80 33t79.5 -33 t32.5 -80z" />
<glyph unicode="@" horiz-adv-x="1445" d="M1282 506q0 -84 -54 -136.5t-147 -52.5h-24q-86 0 -146 54q-16 16 -39 -2q-63 -51 -147 -52q-121 0 -193.5 69t-72.5 183v164q0 113 72.5 180.5t193.5 67.5q57 0 111 -29q25 -14 24 13q0 16 19 16h92q20 0 20 -20v-445q0 -29 19.5 -48t48.5 -19h22q29 0 48.5 20t19.5 47 v416q0 100 -66.5 162.5t-177.5 62.5h-356q-111 0 -178.5 -62.5t-67.5 -162.5v-574q0 -100 67.5 -162.5t178.5 -62.5h534q20 0 21 -20v-93q0 -20 -21 -20h-534q-172 0 -275.5 99.5t-103.5 258.5v574q0 160 103.5 259t275.5 99h356q170 0 273.5 -99t103.5 -259v-426zM860 584 v133q0 55 -40 93t-95 38t-94 -38t-39 -93v-133q0 -55 39 -95t94 -40q53 0 94 40t41 95z" />
<glyph unicode="A" horiz-adv-x="921" d="M920 16q0 -16 -23 -16h-154q-18 0 -20 14l-76 271q-2 12 -20 12h-332q-18 0 -21 -12l-75 -271q-2 -14 -21 -14h-153q-23 0 -23 16q0 8 21 70l362 1190q2 14 21 14h110q18 0 21 -14l364 -1196q19 -56 19 -64zM590 479q0 2 -12 47l-89 346q-2 8 -12 45t-12 46h-8 q-12 -49 -25 -93l-88 -335q-2 -10 -6 -22.5t-6 -21t-2 -12.5q0 -18 22 -18h215q23 0 23 18z" />
<glyph unicode="B" horiz-adv-x="1064" d="M952 365q0 -168 -99 -266.5t-269 -98.5h-410q-20 0 -20 20v1250q0 20 20 20h410q170 0 269 -100t99 -268v-21q0 -59 -39 -127.5t-90 -103.5q-10 -6 -10 -17q0 -6 10 -16q51 -37 90 -109.5t39 -132.5v-30zM768 922v20q0 76 -54.5 130t-129.5 54h-226q-20 0 -20 -20v-348 q0 -20 20 -21h226q76 0 130 54.5t54 130.5zM768 348v41q0 76 -54.5 130t-129.5 54h-226q-20 0 -20 -20v-369q0 -20 20 -20h226q76 0 130 54t54 130z" />
<glyph unicode="C" horiz-adv-x="952" d="M895 190q0 -20 -45 -79q-102 -131 -297 -131h-61q-168 0 -268.5 96t-100.5 252v635q0 156 100.5 252t268.5 96h61q190 0 291 -123q49 -63 49 -82q0 -12 -12 -19l-107 -53q-29 -14 -35 -14q-10 0 -16 12q-57 115 -170 115h-61q-76 0 -130.5 -54.5t-54.5 -129.5v-635 q0 -76 54.5 -130.5t130.5 -54.5h61q113 0 172 119q6 12 16 12q4 0 8.5 -2t11.5 -6t13 -6l109 -55q12 -7 12 -15z" />
<glyph unicode="D" horiz-adv-x="1075" d="M952 369q0 -170 -99 -269.5t-269 -99.5h-410q-20 0 -20 20v1250q0 20 20 20h410q170 0 269 -100t99 -268v-553zM768 348v594q0 76 -54.5 130t-129.5 54h-226q-20 0 -20 -20v-922q0 -20 20 -20h226q76 0 130 54t54 130z" />
<glyph unicode="E" horiz-adv-x="983" d="M891 20q0 -20 -21 -20h-696q-20 0 -20 20v1250q0 20 20 20h696q20 0 21 -20v-123q0 -20 -21 -21h-512q-20 0 -20 -20v-348q0 -20 20 -21h420q20 0 21 -20v-123q0 -20 -21 -21h-420q-20 0 -20 -20v-369q0 -20 20 -20h512q20 0 21 -21v-123z" />
<glyph unicode="F" horiz-adv-x="931" d="M891 1147q0 -20 -21 -21h-512q-20 0 -20 -20v-348q0 -20 20 -21h420q20 0 21 -20v-123q0 -20 -21 -21h-420q-20 0 -20 -20v-533q0 -20 -21 -20h-143q-20 0 -20 20v1250q0 20 20 20h696q20 0 21 -20v-123z" />
<glyph unicode="G" d="M930 1106q0 -12 -12 -19l-107 -53q-29 -14 -35 -14q-10 0 -16 12q-57 115 -170 115h-98q-76 0 -130.5 -54.5t-54.5 -129.5v-635q0 -76 54.5 -130.5t130.5 -54.5h61q76 0 130 54.5t54 130.5v133q0 20 -20 20h-205q-20 0 -20 21v123q0 20 20 20h389q20 0 21 -20v-297 q0 -156 -100.5 -252t-268.5 -96h-61q-168 0 -268.5 96t-100.5 252v635q0 156 100.5 252t268.5 96h98q190 0 291 -123q49 -64 49 -82z" />
<glyph unicode="H" horiz-adv-x="1136" d="M983 20q0 -20 -20 -20h-144q-20 0 -20 20v533q0 20 -21 20h-420q-20 0 -20 -20v-533q0 -20 -21 -20h-143q-20 0 -20 20v1250q0 20 20 20h143q20 0 21 -20v-512q0 -20 20 -21h420q20 0 21 21v512q0 20 20 20h144q20 0 20 -20v-1250z" />
<glyph unicode="I" horiz-adv-x="491" d="M338 20q0 -20 -21 -20h-143q-20 0 -20 20v1250q0 20 20 20h143q20 0 21 -20v-1250z" />
<glyph unicode="J" horiz-adv-x="860" d="M737 348q0 -154 -107.5 -261t-260.5 -107q-158 0 -287 133q-55 59 -55 77q0 10 14 17l104 51q25 14 35 14t17 -12q53 -117 172 -117q76 0 130 54.5t54 130.5v942q0 20 20 20h144q20 0 20 -20v-922z" />
<glyph unicode="K" horiz-adv-x="1075" d="M1065 16q0 -16 -21 -16h-176q-16 0 -26 16l-348 564q-8 14 -19 14q-6 0 -18 -14l-101 -127q-18 -20 -18 -52v-381q0 -20 -21 -20h-143q-20 0 -20 20v1250q0 20 20 20h143q20 0 21 -20v-539q0 -25 18 -24q8 0 19 12l430 563q8 8 16 8h170q23 0 23 -16q0 -8 -6 -17 l-379 -466q-16 -18 -17 -31q0 -8 11 -25l432 -694q10 -17 10 -25z" />
<glyph unicode="L" horiz-adv-x="931" d="M891 20q0 -20 -21 -20h-696q-20 0 -20 20v1250q0 20 20 20h143q20 0 21 -20v-1086q0 -20 20 -20h512q20 0 21 -21v-123z" />
<glyph unicode="M" horiz-adv-x="1323" d="M1169 20q0 -20 -20 -20h-143q-20 0 -21 20v357q0 254 19 475l-9 2q-20 -78 -49 -143l-231 -514q-6 -12 -19 -13h-69q-12 0 -19 13l-231 514q-27 57 -49 143l-9 -2q18 -221 19 -475v-357q0 -20 -21 -20h-143q-20 0 -20 20v1250q0 20 20 20h131q12 0 19 -12l309 -731 q16 -37 24 -82h7q6 33 26 82l309 731q6 12 19 12h131q20 0 20 -20v-1250z" />
<glyph unicode="N" horiz-adv-x="1136" d="M983 20q0 -20 -20 -20h-132q-12 0 -18 10l-436 793q-27 47 -37 74l-8 -3q6 -74 6 -475v-379q0 -20 -21 -20h-143q-20 0 -20 20v1250q0 20 20 20h131q12 0 19 -10l436 -795q25 -41 37 -73l8 2q-6 74 -6 475v381q0 20 20 20h144q20 0 20 -20v-1250z" />
<glyph unicode="O" d="M922 328q0 -156 -100.5 -252t-268.5 -96h-61q-168 0 -268.5 96t-100.5 252v635q0 156 100.5 252t268.5 96h61q168 0 268.5 -96.5t100.5 -251.5v-635zM737 328v635q0 76 -54 130t-130 54h-61q-76 0 -130.5 -54.5t-54.5 -129.5v-635q0 -76 54.5 -130.5t130.5 -54.5h61 q76 0 130 54.5t54 130.5z" />
<glyph unicode="P" horiz-adv-x="993" d="M952 922q0 -152 -101 -250.5t-267 -98.5h-226q-20 0 -20 -20v-533q0 -20 -21 -20h-143q-20 0 -20 20v1250q0 20 20 20h410q168 0 268 -100t100 -268zM768 922v20q0 76 -54.5 130t-129.5 54h-226q-20 0 -20 -20v-348q0 -20 20 -21h226q76 0 130 54.5t54 130.5z" />
<glyph unicode="Q" d="M922 328q0 -137 -82 -230.5t-219 -113.5q-16 -2 -17 -21v-127q0 -20 -20 -20h-123q-20 0 -21 20v127q0 16 -20 21q-137 20 -217 113t-80 231v635q0 156 100.5 252t268.5 96h61q168 0 268.5 -96.5t100.5 -251.5v-635zM737 328v635q0 76 -54 130t-130 54h-61 q-76 0 -130.5 -54.5t-54.5 -129.5v-635q0 -82 64 -140q35 -31 53 -30q16 0 16 22v84q0 20 21 21h123q20 0 20 -21v-84q0 -23 17 -22q14 0 51 28q65 56 65 142z" />
<glyph unicode="R" d="M965 16q0 -16 -21 -16h-158q-14 0 -18 14l-190 547q-4 12 -17 12h-203q-20 0 -20 -20v-533q0 -20 -21 -20h-143q-20 0 -20 20v1250q0 20 20 20h410q170 0 269 -100t99 -268v-21q0 -80 -57 -164t-121 -112q-12 -6 -12 -17q0 -4 16 -49l170 -491q17 -50 17 -52zM768 922v20 q0 76 -54.5 130t-129.5 54h-226q-20 0 -20 -20v-348q0 -20 20 -21h226q76 0 130 54.5t54 130.5z" />
<glyph unicode="S" horiz-adv-x="950" d="M868 328q0 -156 -100 -252t-268 -96h-86q-215 0 -310 149q-29 45 -28 59q0 12 10 17l104 53q27 16 37.5 16t16.5 -14q25 -55 71.5 -86t98.5 -31h86q76 0 130 54.5t54 130.5q0 37 -15.5 69.5t-34 53t-58 45t-63.5 37t-77 36.5q-63 29 -98 46.5t-88 53.5t-81 72.5t-49.5 94 t-21.5 127.5q0 156 100.5 252t268.5 96h33q211 0 311 -150q29 -43 29 -55t-13 -19l-110 -55q-25 -12 -31 -12q-10 0 -16 12q-57 115 -170 115h-33q-76 0 -130 -54.5t-54 -129.5q0 -18 4 -36t14 -34t19.5 -27.5t29 -26t31.5 -22.5t38.5 -21.5t40.5 -19.5l44 -20 q31 -14 45 -21q70 -31 117 -60.5t98 -76.5t77.5 -115.5t26.5 -154.5z" />
<glyph unicode="T" horiz-adv-x="819" d="M778 1147q0 -20 -20 -21h-236q-20 0 -20 -20v-1086q0 -20 -21 -20h-143q-20 0 -21 20v1086q0 20 -20 20h-236q-20 0 -20 21v123q0 20 20 20h697q20 0 20 -20v-123z" />
<glyph unicode="U" d="M922 328q0 -156 -100.5 -252t-268.5 -96h-61q-168 0 -268.5 96t-100.5 252v942q0 20 20 20h144q20 0 20 -20v-942q0 -76 54.5 -130.5t130.5 -54.5h61q76 0 130 54.5t54 130.5v942q0 20 21 20h143q20 0 21 -20v-942z" />
<glyph unicode="V" horiz-adv-x="921" d="M920 1274l-11 -37l-372 -1223q-2 -14 -21 -14h-110q-18 0 -21 14l-367 1203q-16 53 -16 57q0 16 23 16h153q18 0 21 -14l235 -854l11 -45q9 -37 10 -39h10l20 82l238 856q2 14 20 14h154q23 0 23 -16z" />
<glyph unicode="W" horiz-adv-x="1366" d="M1343 1274q0 -6 -4 -22.5t-4 -22.5l-262 -1213q-4 -16 -20 -16h-111q-18 0 -20 14l-213 725q-2 8 -10.5 46t-10.5 44h-8l-23 -90l-213 -725q-2 -14 -20 -14h-111q-16 0 -20 16l-262 1211q-8 37 -8 47q0 16 20 16h156q16 0 20 -16l148 -768q4 -29 20 -94h10l23 92l211 776 q2 14 20 14h64q18 0 20 -14l211 -776l23 -92h10q2 10 11 51t9 43l148 768q4 16 20 16h156q20 0 20 -16z" />
<glyph unicode="X" horiz-adv-x="940" d="M907 16q0 -16 -22 -16h-172q-12 0 -19 12l-200 432q-6 16 -18.5 16.5t-18.5 -16.5l-211 -432q-8 -12 -19 -12h-170q-23 0 -22 16q0 6 22 52l277 540q12 25 12 39q0 12 -12 37l-283 551q-16 33 -16 39q0 16 22 16h168q10 0 19 -12l213 -438q6 -16 18 -16.5t19 16.5 l202 438q6 12 19 12h170q23 0 22 -16q0 -4 -18 -41l-275 -545q-14 -29 -14 -41t12 -39l275 -547q20 -41 20 -45z" />
<glyph unicode="Y" horiz-adv-x="921" d="M913 1274q0 -4 -18 -41l-328 -612q-14 -29 -14 -64v-537q0 -20 -21 -20h-143q-20 0 -20 20v539q0 35 -15 62l-334 622q-12 25 -12 31q0 16 23 16h168q10 0 18 -12l225 -467q6 -16 18.5 -16t18.5 16l226 467q8 12 18 12h168q22 0 22 -16z" />
<glyph unicode="Z" horiz-adv-x="901" d="M819 20q0 -20 -20 -20h-729q-20 0 -21 16q0 4 19 50l450 1005q14 29 14 39q0 16 -20 16h-410q-20 0 -20 21v123q0 20 20 20h686q20 0 21 -16q0 -8 -18 -49l-451 -1000q-16 -39 -16 -45q0 -16 20 -16h455q20 0 20 -21v-123z" />
<glyph unicode="[" horiz-adv-x="782" d="M614 -348q0 -20 -20 -21h-328q-20 0 -20 21v1823q0 20 20 20h328q20 0 20 -20v-123q0 -20 -20 -21h-143q-20 0 -21 -20v-1495q0 -20 21 -21h143q20 0 20 -20v-123z" />
<glyph unicode="\" horiz-adv-x="665" d="M655 16q0 -16 -20 -16h-70q-12 0 -18 12l-524 1225q-12 33 -13 37q0 16 21 16h69q12 0 19 -12l510 -1192q26 -62 26 -70z" />
<glyph unicode="]" horiz-adv-x="782" d="M537 -348q0 -20 -21 -21h-328q-20 0 -20 21v123q0 20 20 20h144q20 0 20 21v1495q0 20 -20 20h-144q-20 0 -20 21v123q0 20 20 20h328q20 0 21 -20v-1823z" />
<glyph unicode="^" d="M954 608h-149l-285 541h-4l-280 -541h-148l389 703h84z" />
<glyph unicode="_" horiz-adv-x="450" d="M467 -440q0 -20 -21 -21h-430q-20 0 -20 21v51q0 20 20 20h430q20 0 21 -20v-51z" />
<glyph unicode="`" horiz-adv-x="1024" d="M614 1051q0 -16 -20 -17h-70q-23 0 -49 23l-235 231q-16 12 -17 27q0 16 23 16h153q37 0 54 -24l145 -224q16 -26 16 -32z" />
<glyph unicode="a" horiz-adv-x="972" d="M840 20q0 -20 -21 -20h-123q-20 0 -20 20v27q0 25 -19 25q-4 0 -16 -9q-78 -63 -162 -63h-80q-117 0 -194.5 71.5t-77.5 184.5v12q0 115 78 184.5t194 69.5h236q20 0 20 21v57q0 76 -54 128t-132 52q-104 0 -170 -114q-6 -12 -16 -13q-2 0 -35 17l-103 53q-12 6 -12 16 q0 16 41 70q98 133 295 133q168 0 269.5 -94t101.5 -248v-580zM655 313v45q0 20 -20 21h-236q-39 0 -64.5 -25.5t-25.5 -64.5v-33q0 -39 25.5 -65.5t64.5 -26.5h80q59 0 112.5 46t63.5 103z" />
<glyph unicode="b" horiz-adv-x="972" d="M870 348q0 -156 -100 -252t-268 -96q-98 0 -172 61q-12 8 -17 9q-16 0 -16 -25v-25q0 -20 -21 -20h-122q-20 0 -21 20v1250q0 20 21 20h143q20 0 20 -20v-393q0 -25 17 -25q4 0 16 8q74 61 172 62q147 0 247.5 -98.5t100.5 -250.5v-225zM686 348v225q0 76 -54 130.5 t-130 54.5t-130.5 -54.5t-54.5 -130.5v-225q0 -76 54.5 -130t130.5 -54t130 54t54 130z" />
<glyph unicode="c" horiz-adv-x="876" d="M813 188q0 -25 -59 -94q-100 -115 -283 -114q-168 0 -268.5 96t-100.5 252v266q0 156 100.5 252t268.5 96q190 0 291 -123q49 -61 49 -82q0 -12 -12 -18l-107 -53q-29 -14 -35 -15q-10 0 -16 13q-57 115 -170 114q-76 0 -130 -54t-54 -130v-266q0 -76 54 -130.5 t130 -54.5q113 0 172 119q6 12 16 12q4 0 25 -10l117 -59q12 -7 12 -17z" />
<glyph unicode="d" horiz-adv-x="972" d="M840 20q0 -20 -21 -20h-123q-20 0 -20 20v25q0 25 -19 25q-4 0 -16 -9q-74 -61 -170 -61q-168 0 -268.5 96.5t-100.5 251.5v225q0 152 100.5 250.5t248.5 98.5q96 0 170 -62q12 -8 16 -8q18 0 18 25v393q0 20 21 20h143q20 0 21 -20v-1250zM655 348v225q0 76 -54 130.5 t-130 54.5t-130 -54.5t-54 -130.5v-225q0 -76 54 -130t130 -54t130 54t54 130z" />
<glyph unicode="e" horiz-adv-x="942" d="M840 451q0 -20 -21 -21h-512q-20 0 -20 -20v-82q0 -76 54 -130.5t130 -54.5q113 0 172 119q6 12 16 12q4 0 25 -10l117 -59q12 -6 12 -17q0 -25 -59 -94q-100 -115 -283 -114q-168 0 -268.5 96t-100.5 252v266q0 131 104.5 239.5t264.5 108.5t264.5 -108.5t104.5 -239.5 v-143zM655 594q0 76 -54 130t-130 54t-130 -54t-54 -130q0 -20 20 -21h328q20 1 20 21z" />
<glyph unicode="f" horiz-adv-x="583" d="M645 1286q0 -8 -8 -29l-35 -100q-6 -14 -16 -14q-4 0 -23.5 2t-30.5 2q-76 0 -130 -54.5t-54 -129.5v-113q0 -20 21 -21h143q20 0 20 -20v-123q0 -20 -20 -20h-143q-20 0 -21 -21v-625q0 -20 -20 -20h-144q-20 0 -20 20v625q0 20 -21 21h-51q-20 0 -20 20v123q0 20 20 20 h51q20 0 21 21v92q0 154 107.5 261.5t260.5 107.5q49 0 97 -8q16 -5 16 -17z" />
<glyph unicode="g" horiz-adv-x="942" d="M932 -205q0 -113 -80 -184.5t-197 -71.5h-276q-117 0 -197 72t-80 184v21q0 117 113 196q10 10 10 17q0 2 -14 35.5t-14 76.5q0 35 10 65t19.5 46t9.5 20q0 10 -9 17q-125 100 -125 266v18q0 152 106.5 250.5t262.5 98.5q96 0 170 -62q12 -8 16 -8q18 0 19 25v24 q0 20 20 21h123q20 0 21 -21v-346q0 -152 -106.5 -250t-262.5 -98q-27 0 -59 4q-53 -27 -54 -70q0 -25 16.5 -45t39.5 -24h241q117 0 197 -72t80 -184v-21zM655 555v18q0 76 -54 130.5t-130 54.5t-130 -54.5t-54 -130.5v-18q0 -76 54 -130t130 -54t130 54t54 130zM748 -205 v21q0 37 -28 64.5t-65 27.5h-276q-37 0 -64.5 -27.5t-27.5 -64.5v-21q0 -37 27.5 -64.5t64.5 -27.5h276q37 0 65 27.5t28 64.5z" />
<glyph unicode="h" horiz-adv-x="993" d="M870 20q0 -20 -20 -20h-143q-20 0 -21 20v553q0 76 -54 130.5t-130 54.5t-130.5 -54.5t-54.5 -130.5v-553q0 -20 -20 -20h-143q-20 0 -21 20v1250q0 20 21 20h143q20 0 20 -20v-393q0 -25 17 -25q4 0 16 8q74 61 172 62q150 0 249 -98.5t99 -250.5v-553z" />
<glyph unicode="i" horiz-adv-x="450" d="M338 1198q0 -47 -33 -80t-80 -33t-79.5 33t-32.5 80t32.5 80t79.5 33t80 -33t33 -80zM317 20q0 -20 -20 -20h-143q-20 0 -21 20v881q0 20 21 21h143q20 0 20 -21v-881z" />
<glyph unicode="j" horiz-adv-x="450" d="M338 1198q0 -47 -33 -80t-80 -33t-79.5 33t-32.5 80t32.5 80t79.5 33t80 -33t33 -80zM317 -115q0 -115 -62 -205t-169 -133q-70 -29 -119 -28q-18 0 -18 20v123q0 16 16 21q76 12 122 63t46 119v1036q0 20 21 21h143q20 0 20 -21v-1016z" />
<glyph unicode="k" horiz-adv-x="919" d="M909 16q0 -16 -22 -16h-180q-12 0 -19 10l-260 426q-6 12 -16 13q-8 0 -17 -9l-78 -80v-340q0 -20 -20 -20h-143q-20 0 -21 20v1250q0 20 21 20h143q20 0 20 -20v-639q0 -23 19 -23q8 0 16 8l266 293q8 12 25 13h170q23 0 23 -17q0 -6 -21 -31l-246 -249q-12 -12 -12 -23 q0 -12 10 -27l328 -528q14 -23 14 -31z" />
<glyph unicode="l" horiz-adv-x="450" d="M317 20q0 -20 -20 -20h-143q-20 0 -21 20v1250q0 20 21 20h143q20 0 20 -20v-1250z" />
<glyph unicode="m" horiz-adv-x="1474" d="M1341 20q0 -20 -20 -20h-143q-20 0 -21 20v553q0 74 -51 129.5t-113 55.5q-57 0 -110.5 -55.5t-53.5 -129.5v-553q0 -20 -20 -20h-143q-20 0 -21 20v553q0 74 -51 129.5t-113 55.5q-59 0 -111.5 -55.5t-52.5 -129.5v-553q0 -20 -20 -20h-143q-20 0 -21 20v881q0 20 21 21 h122q20 0 21 -21v-27q0 -25 16 -24q4 0 17 8q80 63 172 64q61 0 122.5 -25t98.5 -68q6 -8 16.5 -8t16.5 8q76 92 237 93q150 0 249 -98.5t99 -250.5v-553z" />
<glyph unicode="n" horiz-adv-x="1003" d="M870 20q0 -20 -20 -20h-143q-20 0 -21 20v553q0 76 -54 130.5t-130 54.5t-130.5 -54.5t-54.5 -130.5v-553q0 -20 -20 -20h-143q-20 0 -21 20v881q0 20 21 21h122q20 0 21 -21v-24q0 -25 16 -25q4 0 17 8q74 61 172 62q168 0 268 -96.5t100 -252.5v-553z" />
<glyph unicode="o" horiz-adv-x="942" d="M840 328q0 -156 -100.5 -252t-268.5 -96t-268.5 96t-100.5 252v266q0 156 100.5 252t268.5 96t268.5 -96t100.5 -252v-266zM655 328v266q0 76 -54 130t-130 54t-130 -54t-54 -130v-266q0 -76 54 -130.5t130 -54.5t130 54.5t54 130.5z" />
<glyph unicode="p" horiz-adv-x="972" d="M870 348q0 -152 -100 -250t-248 -98q-98 0 -172 61q-12 8 -16 9q-16 0 -17 -25v-485q0 -20 -20 -21h-143q-20 0 -21 21v1341q0 20 21 21h122q20 0 21 -21v-24q0 -25 16 -25q4 0 17 8q74 61 172 62q168 0 268 -96.5t100 -252.5v-225zM686 348v225q0 76 -54 130.5 t-130 54.5t-130.5 -54.5t-54.5 -130.5v-225q0 -76 54.5 -130t130.5 -54t130 54t54 130z" />
<glyph unicode="q" horiz-adv-x="972" d="M840 -440q0 -20 -21 -21h-143q-20 0 -21 21v485q0 25 -18 25q-4 0 -16 -9q-74 -61 -170 -61q-147 0 -248 98.5t-101 249.5v225q0 156 100.5 252.5t268.5 96.5q96 0 170 -62q12 -8 16 -8q18 0 19 25v24q0 20 20 21h123q20 0 21 -21v-1341zM655 348v225q0 76 -54 130.5 t-130 54.5t-130 -54.5t-54 -130.5v-225q0 -76 54 -130t130 -54t130 54t54 130z" />
<glyph unicode="r" horiz-adv-x="610" d="M573 735q0 -18 -16 -18q-2 0 -21.5 5t-35.5 5q-82 0 -132.5 -44t-50.5 -130v-533q0 -20 -20 -20h-143q-20 0 -21 20v881q0 20 21 21h122q20 0 21 -21v-65q0 -25 18 -25q8 0 15 8q27 35 77 69t95 34q27 0 55 -4q16 -2 16 -21v-162z" />
<glyph unicode="s" horiz-adv-x="901" d="M815 289q0 -131 -89 -220t-249 -89h-61q-195 0 -291 124q-43 55 -43 80q0 10 12 17l107 53q20 10 24 10q8 0 15 -12q25 -49 73.5 -82t102.5 -33h61q74 0 115 36t41 87q0 14 -4 26.5t-14.5 22.5l-19.5 18.5t-27.5 15.5t-32 11t-36.5 10l-39 8l-44 9q-29 6 -43 8 q-63 12 -105.5 25.5t-88.5 41t-69.5 73.5t-23.5 112q0 139 95 220t235 81h61q203 0 299 -137q35 -51 35 -68q0 -10 -12 -16l-99 -49q-29 -14 -32 -15q-8 0 -15 13q-25 49 -74 81.5t-102 32.5h-61q-150 0 -150 -110q0 -16 4 -28.5t14.5 -24t19.5 -19.5t27.5 -15l31 -11.5 t37.5 -10.5l38 -9q12 -3 43 -9t43 -8q63 -12 106.5 -26.5t90.5 -41.5t70.5 -73t23.5 -109z" />
<glyph unicode="t" horiz-adv-x="645" d="M543 2q0 -20 -21 -20q-68 0 -141 30q-98 41 -152.5 123t-54.5 193v409q0 20 -20 21h-113q-20 0 -21 18q0 8 5 74l225 240q16 16 29 16h59q20 0 20 -21v-143q0 -20 21 -20h143q20 0 21 -21v-123q0 -20 -21 -20h-143q-20 0 -21 -21v-409q0 -68 46.5 -119t121.5 -64 q16 -4 17 -20v-123z" />
<glyph unicode="u" horiz-adv-x="983" d="M850 20q0 -20 -21 -20h-122q-20 0 -21 20v25q0 25 -18 25q-4 0 -17 -9q-74 -61 -170 -61q-168 0 -268 96.5t-100 251.5v553q0 20 20 21h143q20 0 21 -21v-553q0 -76 54.5 -130t130 -54t130 54t54.5 130v553q0 20 20 21h143q20 0 21 -21v-881z" />
<glyph unicode="v" horiz-adv-x="880" d="M874 905q0 -4 -14 -43l-344 -850q-6 -12 -18 -12h-115q-12 0 -18 12l-345 850q-14 35 -14 43q0 16 21 17h153q12 0 19 -13l215 -551q18 -35 22 -79h8q4 33 23 79l215 551q6 12 18 13h154q20 -1 20 -17z" />
<glyph unicode="w" horiz-adv-x="1243" d="M1221 905q0 -6 -9 -31l-262 -860q-2 -14 -20 -14h-111q-18 0 -20 14l-152 518q-10 29 -20 80h-9q-8 -35 -22 -80l-152 -518q-2 -14 -20 -14h-111q-18 0 -20 14l-260 854q-2 6 -4 14.5t-4 14.5t-2 8q0 16 22 17h154q18 0 20 -15l125 -487q2 -10 9 -37l12 -43h8l11 43 q7 27 9 37l135 487q2 14 21 15h145q18 0 21 -15l133 -485q18 -57 22 -80h9l11 42l11 40l123 483q2 14 20 15h154q23 -1 23 -17z" />
<glyph unicode="x" horiz-adv-x="835" d="M821 16q0 -16 -20 -16h-168q-12 0 -19 10l-180 291q-10 14 -18 14t-19 -14l-180 -291q-6 -10 -18 -10h-164q-20 0 -21 16q0 8 11 25l258 397q10 16 10 25q0 10 -10 24l-254 387q-14 25 -15 31q0 16 21 17h166q10 0 16 -11l182 -293q6 -12 15 -12q10 0 16 12l184 293 q6 10 17 11h170q20 0 20 -17q0 -10 -18 -37l-248 -376q-12 -18 -12 -29q0 -12 10 -27l256 -393q12 -21 12 -27z" />
<glyph unicode="y" horiz-adv-x="983" d="M850 -113q0 -166 -95.5 -267t-273.5 -101q-184 0 -284 114q-57 63 -58 93q0 10 13 16l106 53q29 14 33 15q12 0 18 -13q55 -115 172 -114q76 0 130.5 54t54.5 130v170q0 25 -19 24q-10 0 -18 -8q-59 -53 -148 -53q-168 0 -268 96.5t-100 251.5v553q0 20 20 21h143 q20 0 21 -21v-553q0 -76 54.5 -130t130 -54t130 54t54.5 130v553q0 20 20 21h143q20 0 21 -21v-1014z" />
<glyph unicode="z" horiz-adv-x="880" d="M807 20q0 -20 -21 -20h-714q-23 0 -23 16q0 6 25 50l383 639q16 27 16 34q0 16 -22 17h-359q-20 0 -20 20v123q0 20 20 21h678q23 0 23 -17q0 -8 -19 -39l-389 -645q-18 -33 -18 -39q0 -16 22 -16h397q20 0 21 -21v-123z" />
<glyph unicode="{" horiz-adv-x="839" d="M688 -346q0 -20 -20 -21q-86 0 -170 43q-178 92 -179 324v297q0 68 -46 119t-121 63q-16 4 -17 21v127q0 16 17 20q76 12 121.5 63.5t45.5 118.5v297q0 254 211 338q78 29 138 29q20 0 20 -20v-123q0 -16 -16 -21q-76 -12 -122 -63.5t-46 -118.5v-338q0 -59 -39 -128 t-90 -103q-10 -4 -10 -17q0 -6 10 -16q51 -37 90 -110t39 -132v-323q0 -68 46 -119t122 -64q16 -4 16 -20v-123z" />
<glyph unicode="|" horiz-adv-x="491" d="M184 -512v2048h123v-2048h-123z" />
<glyph unicode="}" horiz-adv-x="839" d="M705 500q0 -16 -17 -21q-76 -12 -122 -63t-46 -119v-297q0 -231 -178 -324q-84 -43 -170 -43q-20 0 -20 21v123q0 16 16 20q76 12 122 63.5t46 119.5v323q0 59 39 132t90 110q10 10 10 16q0 12 -10 17q-51 35 -90 103.5t-39 127.5v338q0 68 -46 119t-122 63q-16 4 -16 21 v123q0 20 20 20q59 0 137 -29q211 -84 211 -338v-297q0 -68 46 -119t122 -63q16 -4 17 -20v-127z" />
<glyph unicode="~" d="M950 530q-96 -162 -241 -161q-106 0 -203 63q-100 61 -168 62q-96 0 -166 -127l-80 88q104 162 246 161q100 0 197 -63q100 -63 170 -64q92 0 165 127z" />
<glyph unicode="&#xa0;" />
<glyph unicode="&#xa1;" horiz-adv-x="614" d="M420 829.5q0 -47.5 -33 -80t-80 -32.5t-79.5 32.5t-32.5 80t32.5 80t79.5 32.5t80 -32.5t33 -80zM399 -348q0 -20 -20 -21h-143q-20 0 -21 21v528l43 355q4 18 21 18h55q18 0 20 -18l45 -355v-528z" />
<glyph unicode="&#xa2;" d="M883 229q0 -18 -45 -77q-86 -111 -236 -127q-16 -2 -16 -21v-127q0 -20 -21 -20h-51q-20 0 -20 20v127q0 16 -21 21q-139 18 -220 111t-81 233v266q0 139 81 232.5t220 111.5q20 4 21 20v127q0 20 20 21h51q20 0 21 -21v-127q0 -18 16 -20q152 -16 238 -131 q43 -55 43 -72q0 -10 -13 -16l-100 -51q-33 -16 -39 -17q-12 0 -18 13q-20 43 -60 73q-35 25 -51 25t-16 -21v-561q0 -20 16 -20q23 0 55.5 28.5t55.5 71.5q6 12 18 12q6 0 35 -14l104 -53q13 -7 13 -17zM494 219v565q0 20 -17 21q-18 0 -49 -25q-72 -55 -72 -145v-266 q0 -82 64 -140q35 -31 57 -30q17 0 17 20z" />
<glyph unicode="&#xa3;" d="M985 1106q0 -12 -12 -19l-103 -51q-33 -16 -39 -16q-10 0 -16 12q-57 115 -170 115q-76 0 -130 -54.5t-54 -129.5v-205q0 -20 20 -21h144q20 0 20 -20v-123q0 -20 -20 -21h-144q-20 0 -20 -20v-225q0 -37 -11.5 -71t-22.5 -53.5t-11 -23.5q0 -16 22 -16h463q20 0 21 -21 v-123q0 -20 -21 -20h-881q-20 0 -20 20v123q0 20 20 21h95q70 10 115.5 62.5t45.5 121.5v205q0 20 -20 20h-51q-20 0 -21 21v123q0 20 21 20h51q20 0 20 21v184q0 154 108 261.5t261 107.5q193 0 295 -127q45 -60 45 -78z" />
<glyph unicode="&#xa4;" horiz-adv-x="1261" d="M1083 356l-90 -92l-137 137q-104 -80 -239.5 -79.5t-237.5 79.5l-139 -137l-90 92l139 133q-78 115 -78 236q0 135 78 236l-139 135l90 92l139 -137q111 78 237 77q139 0 238 -77l139 137l90 -92l-139 -135q78 -106 78 -236q0 -127 -78 -236zM895 727q0 117 -85 195.5 t-192 78.5q-119 0 -198.5 -80.5t-79.5 -193.5t82 -195.5t194 -82.5q115 0 197 81.5t82 196.5z" />
<glyph unicode="&#xa5;" d="M975 1274q0 -10 -17 -39l-266 -498q-20 -35 -20 -45q0 -16 22 -16h248q20 0 21 -21v-102q0 -20 -21 -21h-307q-20 0 -21 -20v-164q0 -20 21 -20h307q20 0 21 -21v-102q0 -20 -21 -21h-307q-20 0 -21 -20v-144q0 -20 -20 -20h-143q-20 0 -21 20v144q0 20 -20 20h-308 q-20 0 -20 21v102q0 20 20 21h308q20 0 20 20v164q0 20 -20 20h-308q-20 0 -20 21v102q0 20 20 21h248q23 0 23 16q0 4 -19 41l-270 508q-14 25 -14 33q0 16 22 16h168q10 0 19 -12l225 -467q6 -16 18.5 -16t18.5 16l225 467q8 12 18 12h168q23 0 23 -16z" />
<glyph unicode="&#xa6;" horiz-adv-x="491" d="M307 750h-123v745h123v-745zM307 -369h-123v746h123v-746z" />
<glyph unicode="&#xa7;" d="M924 -113q0 -156 -100.5 -252t-268.5 -96h-86q-205 0 -307 148q-33 49 -33 59t12 16l113 58q20 10 27 10q12 0 18 -12q55 -115 170 -115h86q76 0 130 54.5t54 129.5q0 78 -60.5 132.5t-146.5 91t-172 81t-146 127t-60 203.5q0 104 43 178q23 37 22.5 41t-22.5 41 q-43 76 -43 181q0 156 100 252t268 96h33q199 0 303 -137q37 -49 37 -68q0 -12 -12 -19l-111 -55q-25 -12 -31 -12q-10 0 -16 12q-57 115 -170 115h-33q-76 0 -130 -54.5t-54 -129.5q0 -70 60.5 -118t146.5 -85t172 -82t146.5 -134t60.5 -216q0 -96 -43 -172 q-2 -4 -8.5 -12.5t-9.5 -13.5t-3 -11l21 -41q43 -82 43 -191zM739 328q0 45 -16 80.5t-58 65.5t-71 46.5t-97 46.5l-96 43q-25 12 -28 13q-8 0 -19 -19q-16 -33 -16 -82q0 -39 17.5 -70.5t55.5 -57t70.5 -43t92 -44t92.5 -43.5q41 -20 43 -20q10 0 20 24q10 27 10 60z" />
<glyph unicode="&#xa8;" horiz-adv-x="1024" d="M776 1176q0 -41 -30.5 -72t-71.5 -31t-72 31t-31 72t31 71.5t72 30.5t71.5 -30.5t30.5 -71.5zM455 1176q0 -41 -31 -72t-72 -31t-71.5 31t-30.5 72t30.5 71.5t71.5 30.5t72 -30.5t31 -71.5z" />
<glyph unicode="&#xa9;" horiz-adv-x="1474" d="M1290 205q0 -156 -100 -252t-268 -96h-369q-168 0 -268.5 96t-100.5 252v594q0 156 100.5 252t268.5 96h369q168 0 268 -96.5t100 -251.5v-594zM1198 205v594q0 115 -75.5 185.5t-200.5 70.5h-369q-125 0 -201 -71t-76 -185v-594q0 -115 76 -185.5t201 -70.5h369 q125 0 200.5 70.5t75.5 185.5zM969 299q0 -16 -37 -57q-68 -74 -197 -74q-117 0 -188.5 67.5t-71.5 178.5v202q0 109 70.5 175.5t189.5 66.5q127 0 193 -72q37 -37 37 -57q0 -8 -11 -14l-43 -23q-25 -12 -26 -12q-10 0 -17 10q-55 76 -133 76q-63 0 -107 -43t-44 -107v-202 q0 -61 45 -106.5t106 -45.5q78 0 133 80q6 10 17 10q6 0 22 -10l49 -27q13 -6 13 -16z" />
<glyph unicode="&#xaa;" horiz-adv-x="679" d="M598 655q0 -25 -25 -24h-86q-25 0 -24 24v25q0 12 -10 12q-6 0 -17 -10q-57 -53 -108 -53h-49q-84 0 -142.5 53t-58.5 137v10q0 84 57.5 135.5t143.5 51.5h153q16 0 17 18v27q0 49 -35 83t-86 34q-68 0 -111 -76q-6 -12 -16 -12q-8 0 -25 8l-78 41q-14 8 -14 18 q0 12 25 49q72 104 219 105q123 0 196.5 -70t73.5 -182v-404zM449 860v21q0 14 -15 14h-155q-20 0 -36 -15.5t-16 -35.5v-25q0 -23 15.5 -38t36.5 -15h57q39 0 73 28.5t40 65.5z" />
<glyph unicode="&#xab;" horiz-adv-x="1134" d="M999 223q0 -23 -16 -22q-8 0 -16 6l-406 287q-8 8 -8 16v121q0 8 8 16l406 289q8 6 16 6q16 0 16 -22v-117q0 -8 -8 -17l-276 -198q-10 -10 -10 -16.5t10 -16.5l276 -199q8 -8 8 -16v-117zM557 223q0 -23 -16 -22q-8 0 -17 6l-403 287q-8 8 -8 16v121q0 8 8 16l403 289 q8 6 17 6q16 0 16 -22v-117q0 -8 -8 -17l-277 -198q-10 -10 -10 -16.5t10 -16.5l277 -199q8 -8 8 -16v-117z" />
<glyph unicode="&#xac;" d="M952 266q0 -20 -20 -20h-92q-20 0 -21 20v328q0 20 -20 20h-686q-20 0 -21 21v82q0 20 21 20h819q20 0 20 -20v-451z" />
<glyph unicode="&#xad;" horiz-adv-x="552" d="M461 389q0 -20 -21 -20h-327q-20 0 -21 20v143q0 20 21 21h327q20 0 21 -21v-143z" />
<glyph unicode="&#xae;" horiz-adv-x="901" d="M823 901q0 -156 -100 -252t-268 -96h-9q-168 0 -268 96t-100 252v41q0 156 100.5 252t267.5 96h9q168 0 268 -96t100 -252v-41zM762 901v41q0 129 -84 208t-223 79h-9q-139 0 -223 -79t-84 -208v-41q0 -129 84 -208t223 -79h9q139 0 223 79t84 208zM602 993 q0 -57 -53 -100q-8 -6 -8 -14q0 -6 8 -23l39 -78q10 -20 10 -26q0 -14 -23 -15h-32q-12 0 -19 13l-47 108q-6 12 -18 12h-51q-20 0 -21 -20v-92q0 -20 -20 -21h-23q-20 0 -20 21v344q0 20 20 20h129q59 0 94 -35t35 -94zM537 999q0 29 -18.5 47.5t-45.5 18.5h-65 q-20 0 -21 -21v-96q0 -20 21 -20h65q29 0 46.5 20t17.5 51z" />
<glyph unicode="&#xaf;" horiz-adv-x="1024" d="M748 1126q0 -20 -21 -20h-430q-20 0 -21 20v123q0 20 21 21h430q20 0 21 -21v-123z" />
<glyph unicode="&#xb0;" horiz-adv-x="552" d="M471 926q0 -82 -52 -133.5t-143 -51.5q-88 0 -141 51.5t-53 133.5v198q0 82 53 134.5t141.5 52.5t141.5 -51.5t53 -133.5v-200zM336 926v200q0 23 -18.5 41.5t-41.5 18.5q-25 0 -41 -17.5t-16 -42.5v-200q0 -25 16.5 -41.5t40.5 -16.5q23 0 41.5 17.5t18.5 40.5z" />
<glyph unicode="&#xb1;" d="M952 635q0 -20 -20 -21h-328q-20 0 -20 -20v-328q0 -20 -21 -20h-82q-20 0 -20 20v328q0 20 -21 20h-327q-20 0 -21 21v82q0 20 21 20h327q20 0 21 21v327q0 20 20 21h82q20 0 21 -21v-327q0 -20 20 -21h328q20 0 20 -20v-82zM952 20q0 -20 -20 -20h-819q-20 0 -21 20v82 q0 20 21 21h819q20 0 20 -21v-82z" />
<glyph unicode="&#xb2;" horiz-adv-x="690" d="M610 965q0 -37 -12 -66t-24.5 -46t-44 -34.5t-46 -22.5l-57.5 -19.5t-51 -16.5q-45 -14 -66.5 -23.5t-41 -28t-19.5 -42.5v-13q0 -12 14 -12h328q12 0 12 -10v-105q0 -12 -12 -12h-481q-12 0 -13 12v92q0 63 17.5 109.5t55.5 73t67.5 40t78.5 27.5q10 2 31 9.5t30 9.5 t24.5 8t22.5 10t17.5 11.5t14.5 14.5t7 17t3 23q0 41 -26.5 67.5t-78.5 26.5h-53q-57 0 -108 -74q-8 -12 -19 -8l-104 49q-12 6 -6 19q80 141 235 141h55q115 0 182.5 -62.5t67.5 -164.5z" />
<glyph unicode="&#xb3;" horiz-adv-x="690" d="M600 676q0 -113 -69.5 -178.5t-186.5 -65.5h-39q-162 0 -237 139q-8 12 4 23l104 47q10 6 19 -6q47 -76 114 -76h35q47 0 79 31t32 76v47q0 43 -32 72.5t-79 29.5h-115q-12 0 -12 14v101q0 12 12 12h115q49 0 80 31t31 76v20q0 45 -32 75t-79 30h-35q-68 0 -114 -74 q-8 -16 -19 -6l-104 49q-12 6 -4 20q76 139 237 140h39q117 0 186.5 -68t69.5 -178v-23q0 -47 -28.5 -88t-65.5 -57q-6 -6 0 -10q35 -20 64.5 -63.5t29.5 -98.5v-41z" />
<glyph unicode="&#xb4;" horiz-adv-x="1024" d="M801 1315q0 -10 -8 -19l-244 -239q-27 -23 -49 -23h-70q-20 0 -20 17q0 10 18 36l143 220q14 25 54 24h153q23 0 23 -16z" />
<glyph unicode="&#xb5;" horiz-adv-x="983" d="M850 20q0 -20 -21 -20h-122q-20 0 -21 20v25q0 25 -18 25q-4 0 -17 -9q-74 -61 -170 -61q-86 0 -164 31q-20 8 -20 -15v-323q0 -20 -21 -21h-143q-20 0 -20 21v1208q0 20 20 21h143q20 0 21 -21v-553q0 -76 54.5 -130t130 -54t130 54t54.5 130v553q0 20 20 21h143 q20 0 21 -21v-881z" />
<glyph unicode="&#xb6;" horiz-adv-x="1259" d="M1106 -440q0 -20 -21 -21h-143q-20 0 -20 21v1546q0 20 -21 20h-143q-20 0 -21 -20v-1546q0 -20 -20 -21h-144q-20 0 -20 21v604q0 20 -21 20h-40q-166 0 -267.5 98.5t-101.5 249.5v390q0 168 100.5 268t268.5 100h593q20 0 21 -20v-1710z" />
<glyph unicode="&#xb7;" d="M635 493.5q0 -47.5 -33 -80t-80 -32.5t-79.5 32.5t-32.5 80t32.5 80t79.5 32.5t80 -32.5t33 -80z" />
<glyph unicode="&#xb8;" horiz-adv-x="1024" d="M639 -270q0 -84 -59.5 -137.5t-147.5 -53.5h-98q-20 0 -21 21v82q0 20 21 20h98q29 0 48.5 19.5t19.5 48.5v16q0 66 -66 76l-37 6q-20 2 -20 16q0 10 18 47l72 150q6 12 18 12q6 0 35 -6l58 -12q18 -2 18 -17q0 -4 -10 -24l-29 -60q-10 -20 -10 -26q0 -12 8 -14 q84 -41 84 -148v-16z" />
<glyph unicode="&#xb9;" horiz-adv-x="690" d="M596 526q0 -12 -12 -12h-447q-12 0 -12 12v103q0 12 12 12h135q14 0 15 14v275q0 8 -5.5 11t-13.5 -3l-61 -57q-8 -6 -19 0l-73 69q-8 8 0 19l229 219l4 2q6 2 10 2h62q12 0 12 -14v-523q0 -14 17 -14h135q12 0 12 -12v-103z" />
<glyph unicode="&#xba;" horiz-adv-x="659" d="M598 870q0 -113 -73.5 -183.5t-194.5 -70.5t-195 71t-74 183v187q0 113 74 183.5t195 70.5t194.5 -71t73.5 -183v-187zM449 870v187q0 47 -36 83t-83 36t-83 -36t-36 -83v-187q0 -47 36 -82.5t83 -35.5t83 35.5t36 82.5z" />
<glyph unicode="&#xbb;" horiz-adv-x="1134" d="M1022 510q0 -8 -8 -16l-404 -287q-8 -6 -16 -6q-16 0 -16 22v117q0 8 8 16l276 199q10 10 10 16.5t-10 16.5l-276 198q-8 8 -8 17v117q0 23 16 22q8 0 16 -6l404 -289q8 -8 8 -16v-121zM582 510q0 -8 -9 -16l-405 -287q-8 -6 -16 -6q-16 0 -17 22v117q0 8 8 16l277 199 q10 10 10 16.5t-10 16.5l-277 198q-8 8 -8 17v117q0 23 17 22q8 0 16 -6l405 -289q8 -8 9 -16v-121z" />
<glyph unicode="&#xbc;" horiz-adv-x="1953" d="M1286 1262l-534 -1250q-6 -12 -19 -12h-49q-31 0 -18 29l534 1249q6 12 19 12h49q30 1 18 -28zM1663 29q0 -12 -14 -13h-95q-12 0 -12 -12v-168q0 -12 -14 -12h-121q-12 0 -12 12v168q0 12 -15 12h-336q-14 0 -14 13v108l367 518q4 6 14 7h117q14 0 14 -13v-489 q0 -14 12 -15h95q14 0 14 -12v-104zM717 526q0 -12 -12 -12h-445q-14 0 -14 12v103q0 12 14 12h133q16 0 17 14v275q0 8 -5.5 11t-13.5 -3l-63 -57q-8 -8 -19 0l-71 69q-8 8 0 19l229 219l4 2q6 2 10 2h62q12 0 12 -14v-523q0 -14 16 -14h134q12 0 12 -12v-103zM1395 152 v307q0 4 -7.5 7t-9.5 -1l-190 -305q-14 -20 8 -21h184q15 1 15 13z" />
<glyph unicode="&#xbd;" horiz-adv-x="1953" d="M1655 451q0 -31 -7.5 -56.5t-23.5 -45t-29.5 -32t-42 -24.5l-42 -17.5t-48.5 -16.5t-43 -13q-49 -16 -67.5 -24.5t-39 -27t-20.5 -42.5v-13q0 -12 15 -12h325q14 0 15 -10v-105q0 -12 -15 -12h-479q-12 0 -12 12v92q0 63 17.5 109.5t55 73t66.5 40t78 27.5q10 2 28.5 8.5 t26.5 8.5t22.5 7t21.5 8t17.5 9t15.5 12.5l10 13.5t7 16t2 20q0 41 -27.5 67.5t-78.5 26.5h-51q-59 0 -111 -74q-4 -14 -16 -8l-105 49q-6 2 -8 9.5t2 9.5q78 141 236 141h53q117 0 184.5 -62.5t67.5 -164.5zM1286 1262l-534 -1250q-6 -12 -19 -12h-49q-31 0 -18 29 l534 1249q6 12 19 12h49q30 1 18 -28zM717 526q0 -12 -12 -12h-445q-14 0 -14 12v103q0 12 14 12h133q16 0 17 14v275q0 8 -5.5 11t-13.5 -3l-63 -57q-8 -8 -19 0l-71 69q-8 8 0 19l229 219l4 2q6 2 10 2h62q12 0 12 -14v-523q0 -14 16 -14h134q12 0 12 -12v-103z" />
<glyph unicode="&#xbe;" horiz-adv-x="1953" d="M1286 1262l-534 -1250q-6 -12 -19 -12h-49q-31 0 -18 29l534 1249q6 12 19 12h49q30 1 18 -28zM1663 29q0 -12 -14 -13h-95q-12 0 -12 -12v-168q0 -12 -14 -12h-121q-12 0 -12 12v168q0 12 -15 12h-336q-14 0 -14 13v108l367 518q4 6 14 7h117q14 0 14 -13v-489 q0 -14 12 -15h95q14 0 14 -12v-104zM758 676q0 -113 -71 -178.5t-187 -65.5h-39q-162 0 -236 139q-10 14 4 23l103 47q12 6 20 -6q45 -76 113 -76h35q47 0 78.5 31t31.5 76v47q0 43 -30.5 72.5t-79.5 29.5h-115q-12 0 -12 14v101q0 12 12 12h115q49 0 79.5 31t30.5 76v20 q0 45 -31.5 75t-78.5 30h-35q-70 0 -113 -74q-8 -16 -20 -6l-103 49q-12 4 -4 20q74 139 236 140h39q117 0 187.5 -68t70.5 -178v-23q0 -47 -29 -88t-67 -57q-6 -6 0 -10q37 -20 66.5 -63.5t29.5 -98.5v-41zM1395 152v307q0 4 -7.5 7t-9.5 -1l-190 -305q-14 -20 8 -21h184 q15 1 15 13z" />
<glyph unicode="&#xbf;" d="M696 829.5q0 -47.5 -32.5 -80t-79.5 -32.5t-80 32.5t-33 80t33 80t80 32.5t79.5 -32.5t32.5 -80zM918 -182q0 -20 -48 -80q-102 -127 -292 -127h-78q-168 0 -268.5 96t-100.5 252q0 63 15.5 114.5t33 81t57 60.5t58 41t67.5 33q10 6 17 8q49 23 75.5 40t49 51t22.5 79 q0 12 -3 37.5t-3 30.5q0 18 21 18h141q18 0 20 -16q8 -55 9 -99q0 -33 -7.5 -63.5t-13.5 -51t-28.5 -44t-29.5 -33.5t-40 -30l-38 -22q-5 -3 -46 -24l-39 -20q-49 -25 -78 -44.5t-52.5 -58.5t-23.5 -88q0 -76 54.5 -130t130.5 -54h78q115 0 170 114q6 12 18 13q6 0 31 -13 l108 -55q13 -6 13 -16z" />
<glyph unicode="&#xc0;" horiz-adv-x="921" d="M555 1430q14 -23 -10 -23h-101q-18 0 -32 12l-260 207q-6 4 -7.5 10t4 10.5t11.5 4.5h211q14 0 26 -15zM920 16q0 -16 -23 -16h-154q-18 0 -20 14l-76 271q-2 12 -20 12h-332q-18 0 -21 -12l-75 -271q-2 -14 -21 -14h-153q-23 0 -23 16q0 8 21 70l362 1190q2 14 21 14 h110q18 0 21 -14l364 -1196q19 -56 19 -64zM590 479q0 2 -12 47l-89 346q-2 8 -12 45t-12 46h-8q-12 -49 -25 -93l-88 -335q-2 -10 -6 -22.5t-6 -21t-2 -12.5q0 -18 22 -18h215q23 0 23 18z" />
<glyph unicode="&#xc1;" horiz-adv-x="921" d="M772 1626l-260 -207q-16 -12 -33 -12h-100q-25 0 -10 23l157 206q12 14 27 15h211q10 0 13 -9.5t-5 -15.5zM920 16q0 -16 -23 -16h-154q-18 0 -20 14l-76 271q-2 12 -20 12h-332q-18 0 -21 -12l-75 -271q-2 -14 -21 -14h-153q-23 0 -23 16q0 8 21 70l362 1190q2 14 21 14 h110q18 0 21 -14l364 -1196q19 -56 19 -64zM590 479q0 2 -12 47l-89 346q-2 8 -12 45t-12 46h-8q-12 -49 -25 -93l-88 -335q-2 -10 -6 -22.5t-6 -21t-2 -12.5q0 -18 22 -18h215q23 0 23 18z" />
<glyph unicode="&#xc2;" horiz-adv-x="921" d="M692 1425q14 -23 -12 -22h-109q-10 0 -20 12l-74 111q-14 25 -28 0l-74 -111q-10 -12 -21 -12h-108q-27 0 -13 22l166 230q6 10 21 10h86q14 0 20 -10zM920 16q0 -16 -23 -16h-154q-18 0 -20 14l-76 271q-2 12 -20 12h-332q-18 0 -21 -12l-75 -271q-2 -14 -21 -14h-153 q-23 0 -23 16q0 8 21 70l362 1190q2 14 21 14h110q18 0 21 -14l364 -1196q19 -56 19 -64zM590 479q0 2 -12 47l-89 346q-2 8 -12 45t-12 46h-8q-12 -49 -25 -93l-88 -335q-2 -10 -6 -22.5t-6 -21t-2 -12.5q0 -18 22 -18h215q23 0 23 18z" />
<glyph unicode="&#xc3;" horiz-adv-x="921" d="M741 1559q-78 -127 -182 -127q-41 0 -102.5 34.5t-89.5 34.5q-49 0 -93 -53q-14 -16 -26 -6l-53 39q-12 10 -5 24q74 123 177 123q45 0 104 -32.5t88 -32.5q49 0 96 55q16 18 31 6l51 -39q14 -10 4 -26zM920 16q0 -16 -23 -16h-154q-18 0 -20 14l-76 271q-2 12 -20 12 h-332q-18 0 -21 -12l-75 -271q-2 -14 -21 -14h-153q-23 0 -23 16q0 8 21 70l362 1190q2 14 21 14h110q18 0 21 -14l364 -1196q19 -56 19 -64zM590 479q0 2 -12 47l-89 346q-2 8 -12 45t-12 46h-8q-12 -49 -25 -93l-88 -335q-2 -10 -6 -22.5t-6 -21t-2 -12.5q0 -18 22 -18 h215q23 0 23 18z" />
<glyph unicode="&#xc4;" horiz-adv-x="921" d="M715 1534q0 -41 -30 -71.5t-71 -30.5q-43 0 -70.5 29.5t-27.5 72.5q0 41 28.5 69.5t69.5 28.5q43 0 72 -28.5t29 -69.5zM408 1534q0 -41 -29 -71.5t-70 -30.5q-43 0 -70.5 29.5t-27.5 72.5q0 41 27.5 69.5t70.5 28.5t71 -28.5t28 -69.5zM920 16q0 -16 -23 -16h-154 q-18 0 -20 14l-76 271q-2 12 -20 12h-332q-18 0 -21 -12l-75 -271q-2 -14 -21 -14h-153q-23 0 -23 16q0 8 21 70l362 1190q2 14 21 14h110q18 0 21 -14l364 -1196q19 -56 19 -64zM590 479q0 2 -12 47l-89 346q-2 8 -12 45t-12 46h-8q-12 -49 -25 -93l-88 -335 q-2 -10 -6 -22.5t-6 -21t-2 -12.5q0 -18 22 -18h215q23 0 23 18z" />
<glyph unicode="&#xc5;" horiz-adv-x="921" d="M920 16q0 -16 -23 -16h-154q-18 0 -20 14l-76 271q-2 12 -20 12h-332q-18 0 -21 -12l-75 -271q-2 -14 -21 -14h-153q-23 0 -23 16q0 8 21 70l329 1085q10 35 10 39q0 10 -10 19q-76 49 -76 145v62q0 78 50.5 126t134.5 48t134 -48.5t50 -125.5v-62q0 -94 -72 -143 q-12 -8 -12 -21q0 -14 8 -39l332 -1091q19 -56 19 -64zM553 1374v62q0 37 -27.5 64.5t-64.5 27.5t-64.5 -27.5t-27.5 -64.5v-62q0 -37 27.5 -64.5t64.5 -27.5t64.5 27.5t27.5 64.5zM590 479q0 2 -12 47l-89 346q-2 8 -12 45t-12 46h-8q-12 -49 -25 -93l-88 -335 q-2 -10 -6 -22.5t-6 -21t-2 -12.5q0 -18 22 -18h215q23 0 23 18z" />
<glyph unicode="&#xc6;" horiz-adv-x="1429" d="M1337 20q0 -20 -20 -20h-696q-20 0 -21 20v256q0 20 -20 21h-336q-14 0 -21 -12l-153 -275q-6 -10 -19 -10h-149q-23 0 -23 16q0 8 19 39l723 1225q6 10 18 10h678q20 0 20 -20v-123q0 -20 -20 -21h-512q-20 0 -21 -20v-348q0 -20 21 -21h420q20 0 20 -20v-123 q0 -20 -20 -21h-420q-20 0 -21 -20v-369q0 -20 21 -20h512q20 0 20 -21v-123zM606 946l-8 2q-10 -27 -37 -74l-199 -350q-23 -41 -22 -47q0 -16 22 -16h218q20 0 20 20v158q0 233 6 307z" />
<glyph unicode="&#xc7;" horiz-adv-x="952" d="M895 190q0 -20 -45 -79q-102 -131 -297 -131q-16 0 -31 -25l-18 -37q-8 -18 6 -24q84 -41 84 -148v-16q0 -84 -59.5 -137.5t-147.5 -53.5h-98q-20 0 -21 21v82q0 20 21 20h98q29 0 48.5 19.5t19.5 48.5v16q0 66 -66 76l-37 6q-31 4 -18 29l45 94q10 16 10 26q0 12 -18 19 q-117 33 -182.5 121t-65.5 211v635q0 156 100.5 252t268.5 96h61q190 0 291 -123q49 -63 49 -82q0 -12 -12 -19l-107 -53q-29 -14 -35 -14q-10 0 -16 12q-57 115 -170 115h-61q-76 0 -130.5 -54.5t-54.5 -129.5v-635q0 -76 54.5 -130.5t130.5 -54.5h61q113 0 172 119 q6 12 16 12q4 0 8.5 -2t11.5 -6t13 -6l109 -55q12 -7 12 -15z" />
<glyph unicode="&#xc8;" horiz-adv-x="983" d="M618 1430q14 -23 -10 -23h-100q-16 0 -33 12l-260 207q-6 4 -7 10t4 10.5t11 4.5h211q14 0 27 -15zM891 20q0 -20 -21 -20h-696q-20 0 -20 20v1250q0 20 20 20h696q20 0 21 -20v-123q0 -20 -21 -21h-512q-20 0 -20 -20v-348q0 -20 20 -21h420q20 0 21 -20v-123 q0 -20 -21 -21h-420q-20 0 -20 -20v-369q0 -20 20 -20h512q20 0 21 -21v-123z" />
<glyph unicode="&#xc9;" horiz-adv-x="983" d="M836 1626l-261 -207q-14 -12 -32 -12h-101q-25 0 -10 23l158 206q12 14 26 15h211q10 0 13.5 -9.5t-4.5 -15.5zM891 20q0 -20 -21 -20h-696q-20 0 -20 20v1250q0 20 20 20h696q20 0 21 -20v-123q0 -20 -21 -21h-512q-20 0 -20 -20v-348q0 -20 20 -21h420q20 0 21 -20 v-123q0 -20 -21 -21h-420q-20 0 -20 -20v-369q0 -20 20 -20h512q20 0 21 -21v-123z" />
<glyph unicode="&#xca;" horiz-adv-x="983" d="M756 1425q14 -23 -13 -22h-108q-12 0 -21 12l-73 111q-14 25 -29 0l-74 -111q-8 -12 -20 -12h-109q-27 0 -12 22l166 230q6 10 20 10h86q14 0 21 -10zM891 20q0 -20 -21 -20h-696q-20 0 -20 20v1250q0 20 20 20h696q20 0 21 -20v-123q0 -20 -21 -21h-512q-20 0 -20 -20 v-348q0 -20 20 -21h420q20 0 21 -20v-123q0 -20 -21 -21h-420q-20 0 -20 -20v-369q0 -20 20 -20h512q20 0 21 -21v-123z" />
<glyph unicode="&#xcb;" horiz-adv-x="983" d="M778 1534q0 -41 -29.5 -71.5t-70.5 -30.5q-43 0 -70.5 29.5t-27.5 72.5q0 41 28.5 69.5t69.5 28.5q43 0 71.5 -28.5t28.5 -69.5zM471 1534q0 -41 -28.5 -71.5t-69.5 -30.5q-43 0 -71 29.5t-28 72.5q0 41 28 69.5t71 28.5t70.5 -28.5t27.5 -69.5zM891 20q0 -20 -21 -20 h-696q-20 0 -20 20v1250q0 20 20 20h696q20 0 21 -20v-123q0 -20 -21 -21h-512q-20 0 -20 -20v-348q0 -20 20 -21h420q20 0 21 -20v-123q0 -20 -21 -21h-420q-20 0 -20 -20v-369q0 -20 20 -20h512q20 0 21 -21v-123z" />
<glyph unicode="&#xcc;" horiz-adv-x="491" d="M338 1430q14 -23 -10 -23h-101q-18 0 -32 12l-261 207q-6 4 -7 10t4.5 10.5t11.5 4.5h211q14 0 26 -15zM338 20q0 -20 -21 -20h-143q-20 0 -20 20v1250q0 20 20 20h143q20 0 21 -20v-1250z" />
<glyph unicode="&#xcd;" horiz-adv-x="491" d="M555 1626l-260 -207q-16 -12 -33 -12h-100q-25 0 -10 23l157 206q12 14 27 15h211q10 0 13 -9.5t-5 -15.5zM338 20q0 -20 -21 -20h-143q-20 0 -20 20v1250q0 20 20 20h143q20 0 21 -20v-1250z" />
<glyph unicode="&#xce;" horiz-adv-x="491" d="M475 1425q14 -23 -12 -22h-109q-10 0 -20 12l-74 111q-14 25 -29 0l-73 -111q-10 -12 -21 -12h-108q-27 0 -13 22l166 230q6 10 21 10h86q14 0 20 -10zM338 20q0 -20 -21 -20h-143q-20 0 -20 20v1250q0 20 20 20h143q20 0 21 -20v-1250z" />
<glyph unicode="&#xcf;" horiz-adv-x="491" d="M498 1534q0 -41 -30 -71.5t-71 -30.5q-43 0 -70.5 29.5t-27.5 72.5q0 41 28.5 69.5t69.5 28.5q43 0 72 -28.5t29 -69.5zM190 1534q0 -41 -28.5 -71.5t-69.5 -30.5q-43 0 -70.5 29.5t-27.5 72.5q0 41 27.5 69.5t70.5 28.5t70.5 -28.5t27.5 -69.5zM338 20q0 -20 -21 -20 h-143q-20 0 -20 20v1250q0 20 20 20h143q20 0 21 -20v-1250z" />
<glyph unicode="&#xd0;" horiz-adv-x="1075" d="M952 369q0 -170 -99 -269.5t-269 -99.5h-410q-20 0 -20 20v527q0 16 -17 16h-84q-20 0 -20 21v118q0 20 20 21h84q16 0 17 16v531q0 20 20 20h410q170 0 269 -100t99 -268v-553zM768 348v594q0 76 -54.5 130t-129.5 54h-226q-20 0 -20 -20v-365q0 -18 18 -18h138 q20 0 20 -21v-118q0 -20 -20 -21h-138q-18 0 -18 -16v-363q0 -20 20 -20h226q76 0 130 54t54 130z" />
<glyph unicode="&#xd1;" horiz-adv-x="1136" d="M848 1559q-78 -127 -182 -127q-41 0 -102.5 34.5t-90.5 34.5q-49 0 -92 -53q-14 -16 -27 -6l-53 39q-12 10 -4 24q74 123 176 123q45 0 104.5 -32.5t88.5 -32.5q49 0 96 55q16 18 31 6l51 -39q14 -10 4 -26zM983 20q0 -20 -20 -20h-132q-12 0 -18 10l-436 793 q-27 47 -37 74l-8 -3q6 -74 6 -475v-379q0 -20 -21 -20h-143q-20 0 -20 20v1250q0 20 20 20h131q12 0 19 -10l436 -795q25 -41 37 -73l8 2q-6 74 -6 475v381q0 20 20 20h144q20 0 20 -20v-1250z" />
<glyph unicode="&#xd2;" d="M614 1430q14 -23 -10 -23h-100q-16 0 -33 12l-260 207q-6 4 -7 10t4 10.5t11 4.5h211q14 0 27 -15zM922 328q0 -156 -100.5 -252t-268.5 -96h-61q-168 0 -268.5 96t-100.5 252v635q0 156 100.5 252t268.5 96h61q168 0 268.5 -96.5t100.5 -251.5v-635zM737 328v635 q0 76 -54 130t-130 54h-61q-76 0 -130.5 -54.5t-54.5 -129.5v-635q0 -76 54.5 -130.5t130.5 -54.5h61q76 0 130 54.5t54 130.5z" />
<glyph unicode="&#xd3;" d="M831 1626l-260 -207q-14 -12 -32 -12h-101q-25 0 -10 23l158 206q12 14 26 15h211q10 0 13 -9.5t-5 -15.5zM922 328q0 -156 -100.5 -252t-268.5 -96h-61q-168 0 -268.5 96t-100.5 252v635q0 156 100.5 252t268.5 96h61q168 0 268.5 -96.5t100.5 -251.5v-635zM737 328v635 q0 76 -54 130t-130 54h-61q-76 0 -130.5 -54.5t-54.5 -129.5v-635q0 -76 54.5 -130.5t130.5 -54.5h61q76 0 130 54.5t54 130.5z" />
<glyph unicode="&#xd4;" d="M752 1425q14 -23 -13 -22h-108q-12 0 -21 12l-73 111q-14 25 -29 0l-74 -111q-8 -12 -20 -12h-109q-27 0 -12 22l166 230q6 10 20 10h86q14 0 21 -10zM922 328q0 -156 -100.5 -252t-268.5 -96h-61q-168 0 -268.5 96t-100.5 252v635q0 156 100.5 252t268.5 96h61 q168 0 268.5 -96.5t100.5 -251.5v-635zM737 328v635q0 76 -54 130t-130 54h-61q-76 0 -130.5 -54.5t-54.5 -129.5v-635q0 -76 54.5 -130.5t130.5 -54.5h61q76 0 130 54.5t54 130.5z" />
<glyph unicode="&#xd5;" d="M801 1559q-78 -127 -183 -127q-41 0 -102 34.5t-90 34.5q-49 0 -92 -53q-14 -16 -27 -6l-53 39q-12 10 -4 24q74 123 176 123q45 0 104.5 -32.5t87.5 -32.5q49 0 97 55q14 18 30 6l52 -39q14 -10 4 -26zM922 328q0 -156 -100.5 -252t-268.5 -96h-61q-168 0 -268.5 96 t-100.5 252v635q0 156 100.5 252t268.5 96h61q168 0 268.5 -96.5t100.5 -251.5v-635zM737 328v635q0 76 -54 130t-130 54h-61q-76 0 -130.5 -54.5t-54.5 -129.5v-635q0 -76 54.5 -130.5t130.5 -54.5h61q76 0 130 54.5t54 130.5z" />
<glyph unicode="&#xd6;" d="M774 1534q0 -41 -29.5 -71.5t-70.5 -30.5q-43 0 -71 29.5t-28 72.5q0 41 29 69.5t70 28.5q43 0 71.5 -28.5t28.5 -69.5zM467 1534q0 -41 -28.5 -71.5t-69.5 -30.5q-43 0 -71 29.5t-28 72.5q0 41 28 69.5t71 28.5t70.5 -28.5t27.5 -69.5zM922 328q0 -156 -100.5 -252 t-268.5 -96h-61q-168 0 -268.5 96t-100.5 252v635q0 156 100.5 252t268.5 96h61q168 0 268.5 -96.5t100.5 -251.5v-635zM737 328v635q0 76 -54 130t-130 54h-61q-76 0 -130.5 -54.5t-54.5 -129.5v-635q0 -76 54.5 -130.5t130.5 -54.5h61q76 0 130 54.5t54 130.5z" />
<glyph unicode="&#xd7;" d="M885 188l-60 -59q-12 -16 -28 0l-260 262q-14 12 -29 0l-260 -262q-16 -16 -29 0l-59 59q-16 12 0 29l262 260q12 14 0 29l-262 260q-16 16 0 29l59 59q12 16 29 0l260 -262q14 -12 29 0l260 262q16 16 28 0l60 -59q16 -12 0 -29l-262 -260q-12 -14 0 -29l262 -260 q16 -17 0 -29z" />
<glyph unicode="&#xd8;" d="M922 328q0 -156 -100.5 -252t-268.5 -96h-61q-168 0 -268.5 96t-100.5 252v635q0 156 100.5 252t268.5 96h61q168 0 268.5 -96.5t100.5 -251.5v-635zM668 1096q0 16 -35 33.5t-80 17.5h-61q-76 0 -130.5 -54.5t-54.5 -129.5v-639q0 -18 10 -19q14 0 19 12l317 734 q15 35 15 45zM737 328v612q0 29 -12 29t-20 -23l-304 -708q-18 -41 -18 -50q0 -16 34 -30.5t75 -14.5h61q76 0 130 54.5t54 130.5z" />
<glyph unicode="&#xd9;" d="M614 1430q14 -23 -10 -23h-100q-16 0 -33 12l-260 207q-6 4 -7 10t4 10.5t11 4.5h211q14 0 27 -15zM922 328q0 -156 -100.5 -252t-268.5 -96h-61q-168 0 -268.5 96t-100.5 252v942q0 20 20 20h144q20 0 20 -20v-942q0 -76 54.5 -130.5t130.5 -54.5h61q76 0 130 54.5 t54 130.5v942q0 20 21 20h143q20 0 21 -20v-942z" />
<glyph unicode="&#xda;" d="M831 1626l-260 -207q-14 -12 -32 -12h-101q-25 0 -10 23l158 206q12 14 26 15h211q10 0 13 -9.5t-5 -15.5zM922 328q0 -156 -100.5 -252t-268.5 -96h-61q-168 0 -268.5 96t-100.5 252v942q0 20 20 20h144q20 0 20 -20v-942q0 -76 54.5 -130.5t130.5 -54.5h61 q76 0 130 54.5t54 130.5v942q0 20 21 20h143q20 0 21 -20v-942z" />
<glyph unicode="&#xdb;" d="M752 1425q14 -23 -13 -22h-108q-12 0 -21 12l-73 111q-14 25 -29 0l-74 -111q-8 -12 -20 -12h-109q-27 0 -12 22l166 230q6 10 20 10h86q14 0 21 -10zM922 328q0 -156 -100.5 -252t-268.5 -96h-61q-168 0 -268.5 96t-100.5 252v942q0 20 20 20h144q20 0 20 -20v-942 q0 -76 54.5 -130.5t130.5 -54.5h61q76 0 130 54.5t54 130.5v942q0 20 21 20h143q20 0 21 -20v-942z" />
<glyph unicode="&#xdc;" d="M774 1534q0 -41 -29.5 -71.5t-70.5 -30.5q-43 0 -71 29.5t-28 72.5q0 41 29 69.5t70 28.5q43 0 71.5 -28.5t28.5 -69.5zM467 1534q0 -41 -28.5 -71.5t-69.5 -30.5q-43 0 -71 29.5t-28 72.5q0 41 28 69.5t71 28.5t70.5 -28.5t27.5 -69.5zM922 328q0 -156 -100.5 -252 t-268.5 -96h-61q-168 0 -268.5 96t-100.5 252v942q0 20 20 20h144q20 0 20 -20v-942q0 -76 54.5 -130.5t130.5 -54.5h61q76 0 130 54.5t54 130.5v942q0 20 21 20h143q20 0 21 -20v-942z" />
<glyph unicode="&#xdd;" horiz-adv-x="921" d="M748 1626l-261 -207q-16 -12 -32 -12h-101q-25 0 -10 23l158 206q12 14 26 15h211q10 0 13.5 -9.5t-4.5 -15.5zM913 1274q0 -4 -18 -41l-328 -612q-14 -29 -14 -64v-537q0 -20 -21 -20h-143q-20 0 -20 20v539q0 35 -15 62l-334 622q-12 25 -12 31q0 16 23 16h168 q10 0 18 -12l225 -467q6 -16 18.5 -16t18.5 16l226 467q8 12 18 12h168q22 0 22 -16z" />
<glyph unicode="&#xde;" horiz-adv-x="993" d="M952 676q0 -152 -101 -250t-267 -98h-226q-20 0 -20 -21v-287q0 -20 -21 -20h-143q-20 0 -20 20v1250q0 20 20 20h143q20 0 21 -20v-205q0 -20 24 -21h222q168 0 268 -100t100 -268zM768 676v20q0 76 -54.5 130.5t-129.5 54.5h-226q-20 0 -20 -21v-348q0 -20 20 -20h226 q76 0 130 54t54 130z" />
<glyph unicode="&#xdf;" horiz-adv-x="987" d="M901 344q0 -127 -58.5 -215t-166.5 -125q-63 -23 -123 -22q-20 0 -21 20v123q0 16 17 20q76 12 122 63.5t46 119.5v61q0 68 -46 119t-122 63q-16 4 -17 21v127q0 16 17 20q76 12 122 63.5t46 119.5v41q0 76 -54.5 130t-130.5 54q-82 0 -133 -53.5t-51 -130.5v-943 q0 -20 -20 -20h-144q-20 0 -20 20v625q0 20 -21 21h-51q-20 0 -20 20v123q0 20 20 20h51q20 0 21 21v92q0 154 107.5 261.5t260.5 107.5q168 0 268.5 -100.5t100.5 -268.5v-41q0 -59 -39 -127.5t-90 -103.5q-10 -6 -10 -17q0 -6 10 -16q51 -37 90 -109.5t39 -132.5v-51z" />
<glyph unicode="&#xe0;" horiz-adv-x="972" d="M571 1051q0 -16 -20 -17h-70q-23 0 -49 23l-235 231q-16 12 -17 27q0 16 23 16h153q37 0 54 -24l145 -224q16 -26 16 -32zM840 20q0 -20 -21 -20h-123q-20 0 -20 20v27q0 25 -19 25q-4 0 -16 -9q-78 -63 -162 -63h-80q-117 0 -194.5 71.5t-77.5 184.5v12q0 115 78 184.5 t194 69.5h236q20 0 20 21v57q0 76 -54 128t-132 52q-104 0 -170 -114q-6 -12 -16 -13q-2 0 -35 17l-103 53q-12 6 -12 16q0 16 41 70q98 133 295 133q168 0 269.5 -94t101.5 -248v-580zM655 313v45q0 20 -20 21h-236q-39 0 -64.5 -25.5t-25.5 -64.5v-33q0 -39 25.5 -65.5 t64.5 -26.5h80q59 0 112.5 46t63.5 103z" />
<glyph unicode="&#xe1;" horiz-adv-x="972" d="M801 1315q0 -10 -8 -19l-244 -239q-27 -23 -49 -23h-70q-20 0 -20 17q0 10 18 36l143 220q14 25 54 24h153q23 0 23 -16zM840 20q0 -20 -21 -20h-123q-20 0 -20 20v27q0 25 -19 25q-4 0 -16 -9q-78 -63 -162 -63h-80q-117 0 -194.5 71.5t-77.5 184.5v12q0 115 78 184.5 t194 69.5h236q20 0 20 21v57q0 76 -54 128t-132 52q-104 0 -170 -114q-6 -12 -16 -13q-2 0 -35 17l-103 53q-12 6 -12 16q0 16 41 70q98 133 295 133q168 0 269.5 -94t101.5 -248v-580zM655 313v45q0 20 -20 21h-236q-39 0 -64.5 -25.5t-25.5 -64.5v-33q0 -39 25.5 -65.5 t64.5 -26.5h80q59 0 112.5 46t63.5 103z" />
<glyph unicode="&#xe2;" horiz-adv-x="972" d="M733 1051q0 -16 -22 -17h-99q-10 0 -16 10l-90 140q-6 12 -17 12q-8 0 -14 -12l-88 -140q-6 -10 -16 -10h-99q-23 0 -22 17q0 6 6 16l182 256q8 8 17 8h73q8 0 17 -8l182 -256q6 -10 6 -16zM840 20q0 -20 -21 -20h-123q-20 0 -20 20v27q0 25 -19 25q-4 0 -16 -9 q-78 -63 -162 -63h-80q-117 0 -194.5 71.5t-77.5 184.5v12q0 115 78 184.5t194 69.5h236q20 0 20 21v57q0 76 -54 128t-132 52q-104 0 -170 -114q-6 -12 -16 -13q-2 0 -35 17l-103 53q-12 6 -12 16q0 16 41 70q98 133 295 133q168 0 269.5 -94t101.5 -248v-580zM655 313v45 q0 20 -20 21h-236q-39 0 -64.5 -25.5t-25.5 -64.5v-33q0 -39 25.5 -65.5t64.5 -26.5h80q59 0 112.5 46t63.5 103z" />
<glyph unicode="&#xe3;" horiz-adv-x="972" d="M786 1206q0 -14 -32 -59q-66 -90 -146 -90q-53 0 -129 51l-41 29q-37 27 -73 26q-53 0 -97 -57q-6 -8 -16 -8q-4 0 -21 10l-36 27q-10 6 -10.5 16t26.5 45q70 100 154 100q68 0 129 -49l38 -30q37 -27 64 -27q66 0 113 61q6 8 16 8.5t20 -10.5l33 -26q8 -7 8 -17zM840 20 q0 -20 -21 -20h-123q-20 0 -20 20v27q0 25 -19 25q-4 0 -16 -9q-78 -63 -162 -63h-80q-117 0 -194.5 71.5t-77.5 184.5v12q0 115 78 184.5t194 69.5h236q20 0 20 21v57q0 76 -54 128t-132 52q-104 0 -170 -114q-6 -12 -16 -13q-2 0 -35 17l-103 53q-12 6 -12 16q0 16 41 70 q98 133 295 133q168 0 269.5 -94t101.5 -248v-580zM655 313v45q0 20 -20 21h-236q-39 0 -64.5 -25.5t-25.5 -64.5v-33q0 -39 25.5 -65.5t64.5 -26.5h80q59 0 112.5 46t63.5 103z" />
<glyph unicode="&#xe4;" horiz-adv-x="972" d="M754 1176q0 -41 -31 -72t-72 -31t-71.5 31t-30.5 72t30.5 71.5t71.5 30.5t72 -30.5t31 -71.5zM432 1176q0 -41 -30.5 -72t-71.5 -31t-72 31t-31 72t31 71.5t72 30.5t71.5 -30.5t30.5 -71.5zM840 20q0 -20 -21 -20h-123q-20 0 -20 20v27q0 25 -19 25q-4 0 -16 -9 q-78 -63 -162 -63h-80q-117 0 -194.5 71.5t-77.5 184.5v12q0 115 78 184.5t194 69.5h236q20 0 20 21v57q0 76 -54 128t-132 52q-104 0 -170 -114q-6 -12 -16 -13q-2 0 -35 17l-103 53q-12 6 -12 16q0 16 41 70q98 133 295 133q168 0 269.5 -94t101.5 -248v-580zM655 313v45 q0 20 -20 21h-236q-39 0 -64.5 -25.5t-25.5 -64.5v-33q0 -39 25.5 -65.5t64.5 -26.5h80q59 0 112.5 46t63.5 103z" />
<glyph unicode="&#xe5;" horiz-adv-x="972" d="M676 1208q0 -78 -50.5 -126t-134 -48t-134 48t-50.5 126v62q0 78 50.5 126t134 48t134 -48t50.5 -126v-62zM840 20q0 -20 -21 -20h-123q-20 0 -20 20v27q0 25 -19 25q-4 0 -16 -9q-78 -63 -162 -63h-80q-117 0 -194.5 71.5t-77.5 184.5v12q0 115 78 184.5t194 69.5h236 q20 0 20 21v57q0 76 -54 128t-132 52q-104 0 -170 -114q-6 -12 -16 -13q-2 0 -35 17l-103 53q-12 6 -12 16q0 16 41 70q98 133 295 133q168 0 269.5 -94t101.5 -248v-580zM584 1208v62q0 37 -28 64.5t-64.5 27.5t-64.5 -27.5t-28 -64.5v-62q0 -37 28 -64.5t64.5 -27.5 t64.5 27.5t28 64.5zM655 313v45q0 20 -20 21h-236q-39 0 -64.5 -25.5t-25.5 -64.5v-33q0 -39 25.5 -65.5t64.5 -26.5h80q59 0 112.5 46t63.5 103z" />
<glyph unicode="&#xe6;" horiz-adv-x="1519" d="M1417 451q0 -20 -20 -21h-512q-20 0 -21 -20v-82q0 -76 54.5 -130.5t130.5 -54.5q113 0 172 119q6 12 16 12q8 0 25 -10l116 -59q12 -6 13 -15q0 -14 -37 -69q-98 -141 -305 -141q-190 0 -287 116q-10 10 -17 10q-10 0 -16 -10q-35 -51 -103.5 -83.5t-119.5 -32.5h-103 q-117 0 -196.5 71.5t-79.5 184.5v40q0 111 78 173.5t198 62.5h256q20 0 21 20v58q0 76 -54.5 130t-129.5 54q-115 0 -170 -115q-6 -12 -19 -12q-10 0 -31 12l-108 56q-12 6 -12 16q0 6 26 51q102 160 314 160q150 0 247 -82q31 -27 35 -26q2 0 33 24q98 84 238 84 q160 0 264 -108.5t104 -239.5v-143zM1233 594q0 76 -54.5 130t-130 54t-130 -54t-54.5 -130q0 -20 21 -21h327q21 1 21 21zM680 291v57q0 20 -21 21h-256q-37 0 -64.5 -28t-27.5 -65v-40q0 -37 28 -65t64 -28h103q55 0 103 45.5t71 102.5z" />
<glyph unicode="&#xe7;" horiz-adv-x="876" d="M813 188q0 -25 -59 -94q-84 -94 -217 -110q-18 -2 -29 -21l-14 -29q-10 -20 -11 -26q0 -12 9 -14q84 -41 83 -148v-16q0 -84 -59 -137.5t-147 -53.5h-99q-20 0 -20 21v82q0 20 20 20h99q29 0 48 19.5t19 48.5v16q0 66 -65 76l-37 6q-20 2 -21 16q0 10 19 47l35 72 q10 25 -9 29q-119 31 -187.5 120t-68.5 216v266q0 156 100.5 252t268.5 96q190 0 291 -123q49 -61 49 -82q0 -12 -12 -18l-107 -53q-29 -14 -35 -15q-10 0 -16 13q-57 115 -170 114q-76 0 -130 -54t-54 -130v-266q0 -76 54 -130.5t130 -54.5q113 0 172 119q6 12 16 12 q4 0 25 -10l117 -59q12 -7 12 -17z" />
<glyph unicode="&#xe8;" horiz-adv-x="942" d="M561 1051q0 -16 -20 -17h-70q-23 0 -49 23l-236 231q-16 12 -16 27q0 16 23 16h153q37 0 53 -24l146 -224q16 -26 16 -32zM840 451q0 -20 -21 -21h-512q-20 0 -20 -20v-82q0 -76 54 -130.5t130 -54.5q113 0 172 119q6 12 16 12q4 0 25 -10l117 -59q12 -6 12 -17 q0 -25 -59 -94q-100 -115 -283 -114q-168 0 -268.5 96t-100.5 252v266q0 131 104.5 239.5t264.5 108.5t264.5 -108.5t104.5 -239.5v-143zM655 594q0 76 -54 130t-130 54t-130 -54t-54 -130q0 -20 20 -21h328q20 1 20 21z" />
<glyph unicode="&#xe9;" horiz-adv-x="942" d="M791 1315q0 -10 -9 -19l-243 -239q-27 -23 -50 -23h-69q-20 0 -21 17q0 10 19 36l143 220q16 25 53 24h154q23 0 23 -16zM840 451q0 -20 -21 -21h-512q-20 0 -20 -20v-82q0 -76 54 -130.5t130 -54.5q113 0 172 119q6 12 16 12q4 0 25 -10l117 -59q12 -6 12 -17 q0 -25 -59 -94q-100 -115 -283 -114q-168 0 -268.5 96t-100.5 252v266q0 131 104.5 239.5t264.5 108.5t264.5 -108.5t104.5 -239.5v-143zM655 594q0 76 -54 130t-130 54t-130 -54t-54 -130q0 -20 20 -21h328q20 1 20 21z" />
<glyph unicode="&#xea;" horiz-adv-x="942" d="M723 1051q0 -16 -23 -17h-98q-10 0 -16 10l-90 140q-6 12 -17 12q-8 0 -14 -12l-88 -140q-6 -10 -17 -10h-98q-23 0 -22 17q0 6 6 16l182 256q8 8 16 8h74q8 0 17 -8l182 -256q6 -10 6 -16zM840 451q0 -20 -21 -21h-512q-20 0 -20 -20v-82q0 -76 54 -130.5t130 -54.5 q113 0 172 119q6 12 16 12q4 0 25 -10l117 -59q12 -6 12 -17q0 -25 -59 -94q-100 -115 -283 -114q-168 0 -268.5 96t-100.5 252v266q0 131 104.5 239.5t264.5 108.5t264.5 -108.5t104.5 -239.5v-143zM655 594q0 76 -54 130t-130 54t-130 -54t-54 -130q0 -20 20 -21h328 q20 1 20 21z" />
<glyph unicode="&#xeb;" horiz-adv-x="942" d="M743 1176q0 -41 -30.5 -72t-71.5 -31t-71.5 31t-30.5 72t30.5 71.5t71.5 30.5t71.5 -30.5t30.5 -71.5zM422 1176q0 -41 -31 -72t-71.5 -31t-71.5 31t-31 72t31 71.5t71.5 30.5t71.5 -30.5t31 -71.5zM840 451q0 -20 -21 -21h-512q-20 0 -20 -20v-82q0 -76 54 -130.5 t130 -54.5q113 0 172 119q6 12 16 12q4 0 25 -10l117 -59q12 -6 12 -17q0 -25 -59 -94q-100 -115 -283 -114q-168 0 -268.5 96t-100.5 252v266q0 131 104.5 239.5t264.5 108.5t264.5 -108.5t104.5 -239.5v-143zM655 594q0 76 -54 130t-130 54t-130 -54t-54 -130 q0 -20 20 -21h328q20 1 20 21z" />
<glyph unicode="&#xec;" horiz-adv-x="450" d="M313 1051q0 -16 -20 -17h-70q-23 0 -49 23l-235 231q-16 12 -17 27q0 16 23 16h153q37 0 54 -24l145 -224q16 -26 16 -32zM317 20q0 -20 -20 -20h-143q-20 0 -21 20v881q0 20 21 21h143q20 0 20 -21v-881z" />
<glyph unicode="&#xed;" horiz-adv-x="450" d="M543 1315q0 -10 -8 -19l-244 -239q-27 -23 -49 -23h-70q-20 0 -20 17q0 10 18 36l143 220q14 25 54 24h153q23 0 23 -16zM317 20q0 -20 -20 -20h-143q-20 0 -21 20v881q0 20 21 21h143q20 0 20 -21v-881z" />
<glyph unicode="&#xee;" horiz-adv-x="450" d="M475 1051q0 -16 -22 -17h-99q-10 0 -16 10l-90 140q-6 12 -17 12q-8 0 -14 -12l-88 -140q-6 -10 -16 -10h-99q-23 0 -22 17q0 6 6 16l182 256q8 8 17 8h73q8 0 17 -8l182 -256q6 -10 6 -16zM317 20q0 -20 -20 -20h-143q-20 0 -21 20v881q0 20 21 21h143q20 0 20 -21v-881 z" />
<glyph unicode="&#xef;" horiz-adv-x="450" d="M496 1176q0 -41 -31 -72t-72 -31t-71.5 31t-30.5 72t30.5 71.5t71.5 30.5t72 -30.5t31 -71.5zM174 1176q0 -41 -30.5 -72t-71.5 -31t-72 31t-31 72t31 71.5t72 30.5t71.5 -30.5t30.5 -71.5zM317 20q0 -20 -20 -20h-143q-20 0 -21 20v881q0 20 21 21h143q20 0 20 -21v-881 z" />
<glyph unicode="&#xf0;" horiz-adv-x="942" d="M842 328q0 -156 -100.5 -252t-268.5 -96t-268.5 96t-100.5 252v266q0 145 89.5 239.5t238.5 106.5l-98 96l-197 -82q-10 -4 -19 -1t-9 12v53q0 29 12 33l139 57l-156 156q-10 10 -1.5 18t22.5 8h151q6 0 21 -14l106 -107l211 91q8 4 18.5 -0.5t10.5 -12.5v-59 q0 -20 -16 -27l-150 -63l260 -246q104 -96 105 -258v-266zM657 328v266q0 76 -54 130t-130 54t-130 -54t-54 -130v-266q0 -76 54 -130.5t130 -54.5t130 54.5t54 130.5z" />
<glyph unicode="&#xf1;" horiz-adv-x="1003" d="M817 1206q0 -14 -33 -59q-66 -90 -145 -90q-53 0 -129 51l-41 29q-37 27 -74 26q-53 0 -96 -57q-6 -8 -16 -8q-4 0 -21 10l-37 27q-10 6 -10 16t27 45q70 100 153 100q68 0 129 -49l39 -30q37 -27 64 -27q66 0 112 61q6 8 16.5 8.5t20.5 -10.5l33 -26q8 -7 8 -17zM870 20 q0 -20 -20 -20h-143q-20 0 -21 20v553q0 76 -54 130.5t-130 54.5t-130.5 -54.5t-54.5 -130.5v-553q0 -20 -20 -20h-143q-20 0 -21 20v881q0 20 21 21h122q20 0 21 -21v-24q0 -25 16 -25q4 0 17 8q74 61 172 62q168 0 268 -96.5t100 -252.5v-553z" />
<glyph unicode="&#xf2;" horiz-adv-x="942" d="M561 1051q0 -16 -20 -17h-70q-23 0 -49 23l-236 231q-16 12 -16 27q0 16 23 16h153q37 0 53 -24l146 -224q16 -26 16 -32zM840 328q0 -156 -100.5 -252t-268.5 -96t-268.5 96t-100.5 252v266q0 156 100.5 252t268.5 96t268.5 -96t100.5 -252v-266zM655 328v266 q0 76 -54 130t-130 54t-130 -54t-54 -130v-266q0 -76 54 -130.5t130 -54.5t130 54.5t54 130.5z" />
<glyph unicode="&#xf3;" horiz-adv-x="942" d="M791 1315q0 -10 -9 -19l-243 -239q-27 -23 -50 -23h-69q-20 0 -21 17q0 10 19 36l143 220q16 25 53 24h154q23 0 23 -16zM840 328q0 -156 -100.5 -252t-268.5 -96t-268.5 96t-100.5 252v266q0 156 100.5 252t268.5 96t268.5 -96t100.5 -252v-266zM655 328v266 q0 76 -54 130t-130 54t-130 -54t-54 -130v-266q0 -76 54 -130.5t130 -54.5t130 54.5t54 130.5z" />
<glyph unicode="&#xf4;" horiz-adv-x="942" d="M723 1051q0 -16 -23 -17h-98q-10 0 -16 10l-90 140q-6 12 -17 12q-8 0 -14 -12l-88 -140q-6 -10 -17 -10h-98q-23 0 -22 17q0 6 6 16l182 256q8 8 16 8h74q8 0 17 -8l182 -256q6 -10 6 -16zM840 328q0 -156 -100.5 -252t-268.5 -96t-268.5 96t-100.5 252v266 q0 156 100.5 252t268.5 96t268.5 -96t100.5 -252v-266zM655 328v266q0 76 -54 130t-130 54t-130 -54t-54 -130v-266q0 -76 54 -130.5t130 -54.5t130 54.5t54 130.5z" />
<glyph unicode="&#xf5;" horiz-adv-x="942" d="M776 1206q0 -14 -33 -59q-66 -90 -145 -90q-53 0 -129 51l-41 29q-37 27 -74 26q-53 0 -96 -57q-6 -8 -16 -8q-4 0 -21 10l-37 27q-10 6 -10 16t27 45q70 100 153 100q68 0 129 -49l39 -30q37 -27 64 -27q66 0 112 61q6 8 16.5 8.5t20.5 -10.5l33 -26q8 -7 8 -17z M840 328q0 -156 -100.5 -252t-268.5 -96t-268.5 96t-100.5 252v266q0 156 100.5 252t268.5 96t268.5 -96t100.5 -252v-266zM655 328v266q0 76 -54 130t-130 54t-130 -54t-54 -130v-266q0 -76 54 -130.5t130 -54.5t130 54.5t54 130.5z" />
<glyph unicode="&#xf6;" horiz-adv-x="942" d="M743 1176q0 -41 -30.5 -72t-71.5 -31t-71.5 31t-30.5 72t30.5 71.5t71.5 30.5t71.5 -30.5t30.5 -71.5zM422 1176q0 -41 -31 -72t-71.5 -31t-71.5 31t-31 72t31 71.5t71.5 30.5t71.5 -30.5t31 -71.5zM840 328q0 -156 -100.5 -252t-268.5 -96t-268.5 96t-100.5 252v266 q0 156 100.5 252t268.5 96t268.5 -96t100.5 -252v-266zM655 328v266q0 76 -54 130t-130 54t-130 -54t-54 -130v-266q0 -76 54 -130.5t130 -54.5t130 54.5t54 130.5z" />
<glyph unicode="&#xf7;" d="M635 809q0 -47 -33 -80t-80 -33t-79.5 33t-32.5 80t32.5 80t79.5 33t80 -33t33 -80zM952 451q0 -20 -20 -21h-819q-20 0 -21 21v81q0 20 21 21h819q20 0 20 -21v-81zM635 174q0 -47 -33 -80t-80 -33t-79.5 33t-32.5 80t32.5 80t79.5 33t80 -33t33 -80z" />
<glyph unicode="&#xf8;" horiz-adv-x="942" d="M840 328q0 -156 -100.5 -252t-268.5 -96t-268.5 96t-100.5 252v266q0 156 100.5 252t268.5 96t268.5 -96t100.5 -252v-266zM655 328v266q0 43 -11 69.5t-26 26.5q-12 0 -18 -14l-194 -463q-12 -33 -13 -39q0 -12 23.5 -21.5t54.5 -9.5q76 0 130 54.5t54 130.5zM541 752 q0 27 -70 26q-76 0 -130 -54t-54 -130v-266q0 -74 28 -74q12 0 19 14l194 449q13 33 13 35z" />
<glyph unicode="&#xf9;" horiz-adv-x="983" d="M563 1051q0 -16 -20 -17h-70q-23 0 -49 23l-236 231q-16 12 -16 27q0 16 23 16h153q37 0 53 -24l146 -224q16 -26 16 -32zM850 20q0 -20 -21 -20h-122q-20 0 -21 20v25q0 25 -18 25q-4 0 -17 -9q-74 -61 -170 -61q-168 0 -268 96.5t-100 251.5v553q0 20 20 21h143 q20 0 21 -21v-553q0 -76 54.5 -130t130 -54t130 54t54.5 130v553q0 20 20 21h143q20 0 21 -21v-881z" />
<glyph unicode="&#xfa;" horiz-adv-x="983" d="M793 1315q0 -10 -9 -19l-243 -239q-27 -23 -49 -23h-70q-20 0 -21 17q0 10 19 36l143 220q14 25 53 24h154q23 0 23 -16zM850 20q0 -20 -21 -20h-122q-20 0 -21 20v25q0 25 -18 25q-4 0 -17 -9q-74 -61 -170 -61q-168 0 -268 96.5t-100 251.5v553q0 20 20 21h143 q20 0 21 -21v-553q0 -76 54.5 -130t130 -54t130 54t54.5 130v553q0 20 20 21h143q20 0 21 -21v-881z" />
<glyph unicode="&#xfb;" horiz-adv-x="983" d="M725 1051q0 -16 -23 -17h-98q-10 0 -16 10l-90 140q-6 12 -17 12q-8 0 -14 -12l-88 -140q-6 -10 -17 -10h-98q-23 0 -22 17q0 6 6 16l182 256q8 8 16 8h74q8 0 17 -8l182 -256q6 -10 6 -16zM850 20q0 -20 -21 -20h-122q-20 0 -21 20v25q0 25 -18 25q-4 0 -17 -9 q-74 -61 -170 -61q-168 0 -268 96.5t-100 251.5v553q0 20 20 21h143q20 0 21 -21v-553q0 -76 54.5 -130t130 -54t130 54t54.5 130v553q0 20 20 21h143q20 0 21 -21v-881z" />
<glyph unicode="&#xfc;" horiz-adv-x="983" d="M745 1176q0 -41 -30.5 -72t-71.5 -31t-71.5 31t-30.5 72t30.5 71.5t71.5 30.5t71.5 -30.5t30.5 -71.5zM424 1176q0 -41 -31 -72t-71.5 -31t-71.5 31t-31 72t31 71.5t71.5 30.5t71.5 -30.5t31 -71.5zM850 20q0 -20 -21 -20h-122q-20 0 -21 20v25q0 25 -18 25q-4 0 -17 -9 q-74 -61 -170 -61q-168 0 -268 96.5t-100 251.5v553q0 20 20 21h143q20 0 21 -21v-553q0 -76 54.5 -130t130 -54t130 54t54.5 130v553q0 20 20 21h143q20 0 21 -21v-881z" />
<glyph unicode="&#xfd;" horiz-adv-x="983" d="M809 1315q0 -10 -8 -19l-244 -239q-27 -23 -49 -23h-70q-20 0 -20 17q0 10 18 36l144 220q14 25 53 24h153q23 0 23 -16zM850 -113q0 -166 -95.5 -267t-273.5 -101q-184 0 -284 114q-57 63 -58 93q0 10 13 16l106 53q29 14 33 15q12 0 18 -13q55 -115 172 -114 q76 0 130.5 54t54.5 130v170q0 25 -19 24q-10 0 -18 -8q-59 -53 -148 -53q-168 0 -268 96.5t-100 251.5v553q0 20 20 21h143q20 0 21 -21v-553q0 -76 54.5 -130t130 -54t130 54t54.5 130v553q0 20 20 21h143q20 0 21 -21v-1014z" />
<glyph unicode="&#xfe;" horiz-adv-x="972" d="M870 348q0 -152 -100 -250t-248 -98q-98 0 -172 61q-12 8 -18 9q-14 0 -15 -25v-485q0 -20 -20 -21h-143q-20 0 -21 21v1710q0 20 21 20h122q20 0 21 -20v-393q0 -25 14 -25q6 0 19 8q74 61 172 62q168 0 268 -96.5t100 -252.5v-225zM686 348v225q0 76 -54 130.5 t-130 54.5t-130.5 -54.5t-54.5 -130.5v-225q0 -76 54.5 -130t130.5 -54t130 54t54 130z" />
<glyph unicode="&#xff;" horiz-adv-x="983" d="M745 1176q0 -41 -30.5 -72t-71.5 -31t-71.5 31t-30.5 72t30.5 71.5t71.5 30.5t71.5 -30.5t30.5 -71.5zM424 1176q0 -41 -31 -72t-71.5 -31t-71.5 31t-31 72t31 71.5t71.5 30.5t71.5 -30.5t31 -71.5zM850 -113q0 -166 -95.5 -267t-273.5 -101q-184 0 -284 114 q-57 63 -58 93q0 10 13 16l106 53q29 14 33 15q12 0 18 -13q55 -115 172 -114q76 0 130.5 54t54.5 130v170q0 25 -19 24q-10 0 -18 -8q-59 -53 -148 -53q-168 0 -268 96.5t-100 251.5v553q0 20 20 21h143q20 0 21 -21v-553q0 -76 54.5 -130t130 -54t130 54t54.5 130v553 q0 20 20 21h143q20 0 21 -21v-1014z" />
<glyph unicode="&#x152;" horiz-adv-x="1566" d="M1475 20q0 -20 -21 -20h-764q-68 -20 -137 -20h-61q-168 0 -268.5 96t-100.5 252v635q0 156 100.5 252t268.5 96h61q72 0 133 -21h768q20 0 21 -20v-123q0 -20 -21 -21h-536q-20 0 -21 -16q0 -4 6 -21.5t12.5 -50t6.5 -75.5v-205q0 -20 20 -21h420q20 0 20 -20v-123 q0 -20 -20 -21h-420q-20 0 -20 -20v-225q0 -41 -6.5 -74t-12.5 -51.5t-6 -22.5q0 -16 21 -16h536q20 0 21 -21v-123zM737 328v635q0 76 -54 130t-130 54h-61q-76 0 -130.5 -54.5t-54.5 -129.5v-635q0 -76 54.5 -130.5t130.5 -54.5h61q76 0 130 54.5t54 130.5z" />
<glyph unicode="&#x153;" horiz-adv-x="1495" d="M1393 451q0 -20 -21 -21h-512q-20 0 -20 -20v-82q0 -16 -4 -37q68 -147 188 -148q113 0 172 119q6 12 16 12q4 0 33 -14l109 -55q12 -6 12 -15q0 -25 -53 -90q-100 -121 -289 -120q-152 0 -248 77q-25 20 -31 20.5t-26 -16.5q-98 -82 -248 -81q-168 0 -268.5 96 t-100.5 252v266q0 156 100.5 252t268.5 96q154 0 252 -82q29 -23 31 -22q8 0 30 22q102 82 240 82q160 0 264.5 -108.5t104.5 -239.5v-143zM1208 594q0 76 -54 130t-130 54q-70 0 -118 -43t-70 -100q4 -20 4 -41t20 -21h328q20 1 20 21zM655 328v266q0 76 -54 130t-130 54 t-130 -54t-54 -130v-266q0 -76 54 -130.5t130 -54.5t130 54.5t54 130.5z" />
<glyph unicode="&#x178;" horiz-adv-x="921" d="M715 1534q0 -41 -30 -71.5t-71 -30.5q-43 0 -70.5 29.5t-27.5 72.5q0 41 28.5 69.5t69.5 28.5q43 0 72 -28.5t29 -69.5zM408 1534q0 -41 -29 -71.5t-70 -30.5q-43 0 -70.5 29.5t-27.5 72.5q0 41 27.5 69.5t70.5 28.5t71 -28.5t28 -69.5zM913 1274q0 -4 -18 -41l-328 -612 q-14 -29 -14 -64v-537q0 -20 -21 -20h-143q-20 0 -20 20v539q0 35 -15 62l-334 622q-12 25 -12 31q0 16 23 16h168q10 0 18 -12l225 -467q6 -16 18.5 -16t18.5 16l226 467q8 12 18 12h168q22 0 22 -16z" />
<glyph unicode="&#x2c6;" horiz-adv-x="1024" d="M756 1051q0 -16 -23 -17h-98q-10 0 -17 10l-90 140q-6 12 -16 12q-8 0 -14 -12l-88 -140q-6 -10 -17 -10h-98q-23 0 -23 17q0 6 7 16l182 256q8 8 16 8h74q8 0 16 -8l183 -256q6 -10 6 -16z" />
<glyph unicode="&#x2dc;" horiz-adv-x="1024" d="M813 1206q0 -14 -33 -59q-66 -90 -145 -90q-53 0 -129 51l-41 29q-37 27 -74 26q-53 0 -96 -57q-6 -8 -16 -8q-4 0 -21 10l-37 27q-10 6 -10 16t27 45q70 100 153 100q68 0 129 -49l39 -30q37 -27 64 -27q66 0 112 61q6 8 16.5 8.5t20.5 -10.5l33 -26q8 -7 8 -17z" />
<glyph unicode="&#x2000;" horiz-adv-x="831" />
<glyph unicode="&#x2001;" horiz-adv-x="1665" />
<glyph unicode="&#x2002;" horiz-adv-x="831" />
<glyph unicode="&#x2003;" horiz-adv-x="1665" />
<glyph unicode="&#x2004;" horiz-adv-x="555" />
<glyph unicode="&#x2005;" horiz-adv-x="415" />
<glyph unicode="&#x2006;" horiz-adv-x="276" />
<glyph unicode="&#x2007;" horiz-adv-x="276" />
<glyph unicode="&#x2008;" horiz-adv-x="206" />
<glyph unicode="&#x2009;" horiz-adv-x="331" />
<glyph unicode="&#x200a;" horiz-adv-x="92" />
<glyph unicode="&#x2010;" horiz-adv-x="552" d="M461 389q0 -20 -21 -20h-327q-20 0 -21 20v143q0 20 21 21h327q20 0 21 -21v-143z" />
<glyph unicode="&#x2011;" horiz-adv-x="552" d="M461 389q0 -20 -21 -20h-327q-20 0 -21 20v143q0 20 21 21h327q20 0 21 -21v-143z" />
<glyph unicode="&#x2012;" horiz-adv-x="552" d="M461 389q0 -20 -21 -20h-327q-20 0 -21 20v143q0 20 21 21h327q20 0 21 -21v-143z" />
<glyph unicode="&#x2013;" horiz-adv-x="1146" d="M1055 451q0 -20 -21 -21h-921q-20 0 -21 21v81q0 20 21 21h921q20 0 21 -21v-81z" />
<glyph unicode="&#x2014;" horiz-adv-x="1699" d="M1608 451q0 -20 -21 -21h-1474q-20 0 -21 21v81q0 20 21 21h1474q20 0 21 -21v-81z" />
<glyph unicode="&#x2018;" horiz-adv-x="362" d="M299 1296q0 -10 -10 -16q-76 -43 -76 -170q0 -18 20 -18h23q20 0 20 -21v-137q0 -20 -20 -21h-154q-20 0 -20 21v119q0 180 86 266q55 55 84 55q12 0 18 -12l19 -39q10 -21 10 -27z" />
<glyph unicode="&#x2019;" horiz-adv-x="362" d="M281 1151q0 -180 -86 -266q-55 -55 -84 -56q-12 0 -19 13l-18 39q-10 20 -11 26q0 10 11 17q76 43 76 170q0 18 -21 18h-23q-20 0 -20 21v137q0 20 20 20h154q20 0 21 -20v-119z" />
<glyph unicode="&#x201a;" horiz-adv-x="362" d="M281 86q0 -180 -86 -266q-55 -55 -84 -56q-12 0 -19 13l-18 39q-10 20 -11 26q0 10 11 17q76 43 76 170q0 18 -21 18h-23q-20 0 -20 21v137q0 20 20 20h154q20 0 21 -20v-119z" />
<glyph unicode="&#x201c;" horiz-adv-x="645" d="M582 1296q0 -10 -11 -16q-76 -43 -75 -170q0 -18 20 -18h23q20 0 20 -21v-137q0 -20 -20 -21h-154q-20 0 -20 21v119q0 180 86 266q55 55 84 55q12 0 18 -12l18 -39q11 -21 11 -27zM299 1296q0 -10 -10 -16q-76 -43 -76 -170q0 -18 20 -18h23q20 0 20 -21v-137 q0 -20 -20 -21h-154q-20 0 -20 21v119q0 180 86 266q55 55 84 55q12 0 18 -12l19 -39q10 -21 10 -27z" />
<glyph unicode="&#x201d;" horiz-adv-x="645" d="M563 1151q0 -180 -86 -266q-55 -55 -84 -56q-12 0 -18 13l-19 39q-10 20 -10 26q0 10 10 17q76 43 76 170q0 18 -20 18h-23q-20 0 -20 21v137q0 20 20 20h154q20 0 20 -20v-119zM281 1151q0 -180 -86 -266q-55 -55 -84 -56q-12 0 -19 13l-18 39q-10 20 -11 26q0 10 11 17 q76 43 76 170q0 18 -21 18h-23q-20 0 -20 21v137q0 20 20 20h154q20 0 21 -20v-119z" />
<glyph unicode="&#x201e;" horiz-adv-x="645" d="M563 86q0 -180 -86 -266q-55 -55 -84 -56q-12 0 -18 13l-19 39q-10 20 -10 26q0 10 10 17q76 43 76 170q0 18 -20 18h-23q-20 0 -20 21v137q0 20 20 20h154q20 0 20 -20v-119zM281 86q0 -180 -86 -266q-55 -55 -84 -56q-12 0 -19 13l-18 39q-10 20 -11 26q0 10 11 17 q76 43 76 170q0 18 -21 18h-23q-20 0 -20 21v137q0 20 20 20h154q20 0 21 -20v-119z" />
<glyph unicode="&#x2022;" horiz-adv-x="1024" d="M823 625q0 -129 -84 -208t-223 -79h-8q-139 0 -223 79t-84 208v41q0 129 84 207.5t223 78.5h8q139 0 223 -78.5t84 -207.5v-41z" />
<glyph unicode="&#x2026;" horiz-adv-x="2048" d="M1743 92q0 -47 -33 -79.5t-80 -32.5t-79.5 32.5t-32.5 79.5t32.5 80t79.5 33t80 -33t33 -80zM1135 92q0 -47 -33 -79.5t-80 -32.5t-80 32.5t-33 79.5t33 80t80 33t80 -33t33 -80zM526 92q0 -47 -32.5 -79.5t-79.5 -32.5t-80 32.5t-33 79.5t33 80t80 33t79.5 -33t32.5 -80 z" />
<glyph unicode="&#x202f;" horiz-adv-x="331" />
<glyph unicode="&#x2039;" horiz-adv-x="692" d="M557 223q0 -23 -16 -22q-8 0 -17 6l-403 287q-8 8 -8 16v121q0 8 8 16l403 289q8 6 17 6q16 0 16 -22v-117q0 -8 -8 -17l-277 -198q-10 -10 -10 -16.5t10 -16.5l277 -199q8 -8 8 -16v-117z" />
<glyph unicode="&#x203a;" horiz-adv-x="692" d="M582 510q0 -8 -9 -16l-405 -287q-8 -6 -16 -6q-16 0 -17 22v117q0 8 8 16l277 199q10 10 10 16.5t-10 16.5l-277 198q-8 8 -8 17v117q0 23 17 22q8 0 16 -6l405 -289q8 -8 9 -16v-121z" />
<glyph unicode="&#x205f;" horiz-adv-x="415" />
<glyph unicode="&#x20ac;" d="M977 178q-35 -72 -82 -112q-96 -86 -256 -86h-61q-168 0 -268.5 96t-100.5 252v51q0 20 -21 20h-122q-20 0 -21 21v102q0 20 21 21h122q20 0 21 20v164q0 20 -21 21h-122q-20 0 -21 20v102q0 20 21 21h122q20 0 21 20v52q0 156 100.5 252t268.5 96h61q152 0 244 -76 q53 -41 94 -119q10 -18 -10 -29l-131 -65q-16 -8 -27 10q-57 115 -170 115h-61q-76 0 -130.5 -54.5t-54.5 -129.5v-52q0 -20 21 -20h286q20 0 21 -21v-102q0 -20 -21 -20h-286q-20 0 -21 -21v-164q0 -20 21 -20h286q20 0 21 -21v-102q0 -20 -21 -21h-286q-20 0 -21 -20v-51 q0 -76 54.5 -130.5t130.5 -54.5h61q113 0 172 119q8 18 29 8l129 -65q16 -9 8 -27z" />
<glyph unicode="&#x2122;" horiz-adv-x="835" d="M754 758q0 -20 -21 -21h-24q-20 0 -21 21v147q0 25 -18 25q-10 0 -21 -15l-51 -84q-6 -10 -18 -10h-9q-10 0 -16 10l-55 84q-10 14 -21 15q-16 0 -16 -25v-147q0 -20 -21 -21h-24q-20 0 -21 21v344q0 20 21 20h24q12 0 19 -10l96 -166q10 -14 18.5 -14t18.5 14l96 166 q6 10 19 10h24q20 0 21 -20v-344zM319 1079q0 -20 -20 -20h-55q-20 0 -21 -21v-280q0 -20 -20 -21h-25q-20 0 -20 21v280q0 20 -21 21h-55q-20 0 -21 20v23q0 20 21 20h217q20 0 20 -20v-23z" />
<glyph unicode="&#xe000;" horiz-adv-x="920" d="M0 920h920v-920h-920v920z" />
<glyph unicode="&#xfb01;" horiz-adv-x="1013" d="M901 1198q0 -47 -32.5 -80t-80 -33t-80 33t-32.5 80t32.5 80t80 33t80 -33t32.5 -80zM881 20q0 -20 -21 -20h-143q-20 0 -21 20v881q0 20 21 21h143q20 0 21 -21v-881zM532 686q0 -20 -20 -20h-143q-20 0 -21 -21v-625q0 -20 -20 -20h-144q-20 0 -20 20v625q0 20 -21 21 h-51q-20 0 -20 20v123q0 20 20 20h51q20 0 21 21v92q0 111 58.5 199t158.5 133q78 35 133 35q18 0 18 -21v-123q0 -16 -16 -20q-76 -12 -122 -63.5t-46 -118.5v-113q0 -20 21 -21h143q20 0 20 -20v-123z" />
<glyph unicode="&#xfb02;" horiz-adv-x="1019" d="M887 20q0 -20 -21 -20h-143q-20 0 -21 20v1086q0 20 -20 20h-150q-76 0 -130 -54t-54 -130v-92q0 -20 21 -21h143q20 0 20 -20v-123q0 -20 -20 -20h-143q-20 0 -21 -21v-625q0 -20 -20 -20h-144q-20 0 -20 20v625q0 20 -21 21h-51q-20 0 -20 20v123q0 20 20 20h51 q20 0 21 21v72q0 154 107.5 261t260.5 107h334q20 0 21 -20v-1250z" />
<glyph unicode="&#xfb03;" horiz-adv-x="1538" d="M1440 1198q0 -47 -33 -80t-80 -33t-80 33t-33 80t33 80t80 33t80 -33t33 -80zM1419 20q0 -20 -20 -20h-144q-20 0 -20 20v881q0 20 20 21h144q20 0 20 -21v-881zM1071 686q0 -20 -20 -20h-144q-20 0 -20 -21v-625q0 -20 -21 -20h-143q-20 0 -21 20v625q0 20 -20 21h-313 q-20 0 -21 -21v-625q0 -20 -20 -20h-144q-20 0 -20 20v625q0 20 -21 21h-51q-20 0 -20 20v123q0 20 20 20h51q20 0 21 21v92q0 154 107.5 261.5t260.5 107.5q164 0 263 -90q12 -8 14 -9q8 0 14 7q96 90 228 90q20 0 20 -21v-123q0 -16 -16 -20q-76 -12 -122 -63.5 t-46 -118.5v-113q0 -20 20 -21h144q20 0 20 -20v-123zM713 1038q0 10 -11 25q-66 84 -170 84q-76 0 -130 -54.5t-54 -129.5v-113q0 -20 21 -21h313q20 0 20 21v92q0 37 5.5 65.5t5.5 30.5z" />
<glyph unicode="&#xfb04;" horiz-adv-x="1558" d="M1425 20q0 -20 -20 -20h-143q-20 0 -21 20v1086q0 20 -20 20h-150q-76 0 -130 -54t-54 -130v-92q0 -20 20 -21h144q20 0 20 -20v-123q0 -20 -20 -20h-144q-20 0 -20 -21v-625q0 -20 -21 -20h-143q-20 0 -21 20v625q0 20 -20 21h-313q-20 0 -21 -21v-625q0 -20 -20 -20 h-144q-20 0 -20 20v625q0 20 -21 21h-51q-20 0 -20 20v123q0 20 20 20h51q20 0 21 21v92q0 154 107.5 261.5t260.5 107.5q178 0 277 -103q8 -8 12 -8q8 0 15 6q106 84 235 84h334q20 0 20 -20v-1250zM717 1034q0 10 -12 27q-68 86 -173 86q-76 0 -130 -54.5t-54 -129.5v-113 q0 -20 21 -21h313q20 0 20 21v72q0 41 7 77z" />
</font>
</defs>
</svg>
