<?xml version="1.0" standalone="no"?>
<!DOCTYPE svg PUBLIC "-//W3C//DTD SVG 1.1//EN" "http://www.w3.org/Graphics/SVG/1.1/DTD/svg11.dtd" >
<svg xmlns="http://www.w3.org/2000/svg">
<metadata>
This is a custom SVG webfont generated by Font Squirrel.
Copyright   : Copyright 1997 International Typeface Corporation All rights reserved
Designer    : Mark van Bronkhorst MvB Design
Foundry     : International Typeface Corporation
Foundry URL : httpwwwitcfontscom
</metadata>
<defs>
<font id="webfont6WxmFDDB" horiz-adv-x="1038" >
<font-face units-per-em="2048" ascent="1638" descent="-410" />
<missing-glyph horiz-adv-x="362" />
<glyph unicode=" "  horiz-adv-x="362" />
<glyph unicode="&#x09;" horiz-adv-x="362" />
<glyph unicode="&#xa0;" horiz-adv-x="362" />
<glyph unicode="!" horiz-adv-x="626" d="M430 735l-43 -364q-2 -18 -20 -19h-103q-18 0 -20 19l-47 364v535q0 20 20 20h193q20 0 20 -20v-535zM451 116.5q0 -55.5 -41 -96t-96.5 -40.5t-96.5 40.5t-41 96t41 96.5t96.5 41t96.5 -41t41 -96.5z" />
<glyph unicode="&#x22;" horiz-adv-x="647" d="M580 1272q0 -10 -9 -68l-39 -305q-4 -18 -20 -18h-100q-18 0 -21 18l-41 307q-8 49 -8 66q0 18 20 18h197q21 0 21 -18zM305 1272q0 -10 -8 -68l-39 -305q-4 -18 -20 -18h-101q-18 0 -20 18l-41 307q-8 49 -8 66q0 18 20 18h197q20 0 20 -18z" />
<glyph unicode="#" horiz-adv-x="1138" d="M1085 926l-6 -31l-41 -152q-6 -20 -26 -20h-133q-18 0 -21 -12l-24 -88q-8 -29 -9 -37q0 -18 21 -19h133q16 0 16 -12q0 -6 -6 -31l-41 -151q-6 -20 -26 -21h-148q-18 0 -20 -12l-95 -326q-2 -14 -20 -14h-121q-20 0 -20 18q0 8 4 21.5t4 15.5l67 250l7 31q0 16 -21 16 h-160q-18 0 -20 -12l-92 -326q-2 -14 -21 -14h-123q-20 0 -20 18q0 12 8 37l72 250q6 25 6 31q0 16 -21 16h-116q-14 0 -15 13q0 4 4.5 19t4.5 17l38 146q6 20 25 20h131q16 0 21 17l26 92q0 4 4 15t4 16q0 16 -22 16h-131q-14 0 -15 12q0 8 9 37l39 146q6 20 24 20h150 q16 0 20 16l90 322q2 14 21 14h123q23 0 22 -18q0 -6 -8 -31l-70 -248q-8 -29 -8 -37q0 -18 21 -18h157q16 0 21 16l94 322q2 14 20 14h123q23 0 23 -18q0 -6 -8 -31l-70 -248q-8 -29 -8 -37q0 -18 20 -18h117q16 0 16 -12zM688 707q0 16 -22 16h-158q-18 0 -21 -12l-24 -88 q-10 -31 -10 -37q0 -18 22 -19h158q16 0 20 17l27 92q8 21 8 31z" />
<glyph unicode="$" d="M958 342q0 -152 -90 -249t-241 -111q-16 -2 -17 -21v-57q0 -20 -20 -21h-107q-20 0 -20 21v55q0 20 -21 21q-193 8 -288 141q-53 74 -54 102q0 10 13 17l155 77q25 12 31 13q10 0 16 -13q27 -68 66 -96q33 -25 61 -24q20 0 21 20v322q0 12 -12 18l-101 48q-31 15 -91 54 t-89 74t-53.5 92.5t-24.5 122.5q0 154 94.5 254.5t255.5 108.5q20 0 21 20v55q0 20 20 21h107q20 0 20 -21v-59q0 -18 17 -20q168 -16 262 -148q49 -70 49 -90q0 -10 -12 -16l-146 -72q-33 -18 -43 -18t-16 12q-25 53 -51.5 79.5t-43 26.5t-16.5 -22v-289q0 -12 11 -16 q74 -35 120.5 -63.5t103 -78t85 -117t28.5 -153.5zM463 846v225q0 23 -19 23q-20 0 -59 -27q-59 -43 -59 -119q0 -51 55 -90q49 -35 65.5 -35t16.5 23zM725 342q0 57 -51 102q-31 27 -47.5 27t-16.5 -22v-222q0 -23 16.5 -22.5t51.5 31.5q47 43 47 106z" />
<glyph unicode="%" horiz-adv-x="1120" d="M506 899q0 -86 -56.5 -140t-150.5 -54q-92 0 -148.5 54t-56.5 140v191q0 88 56.5 144t148.5 56q94 0 150.5 -54t56.5 -140v-197zM903 1274q0 -4 -26 -70l-510 -1192q-6 -12 -19 -12h-108q-20 0 -21 16q0 10 27 70l510 1192q6 12 18 12h109q20 0 20 -16zM1026 195 q0 -86 -56.5 -140.5t-148.5 -54.5t-148.5 54.5t-56.5 140.5v196q0 86 56.5 140.5t148.5 54.5t148.5 -54.5t56.5 -140.5v-196zM340 899v197q0 14 -12.5 26.5t-28.5 12.5q-39 0 -39 -39v-197q0 -39 39 -39q16 0 28.5 12.5t12.5 26.5zM860 195v196q0 39 -39 39t-39 -39v-196 q0 -39 39 -39t39 39z" />
<glyph unicode="&#x26;" horiz-adv-x="1253" d="M1223 0q0 -20 -21 -20q-180 0 -315 110q-18 18 -29 19q-4 0 -20 -17q-102 -113 -289 -112h-60q-176 0 -278 102t-102 276v50q0 125 102 223q18 18 18 24.5t-18 24.5q-102 102 -102 244q0 176 102 281.5t278 105.5q174 0 277.5 -103.5t103.5 -279.5v-39q0 -82 -42 -150.5 t-111 -101.5q-12 -6 -12 -16q0 -6 14 -17q20 -16 47 -45q8 -8 16 -8q12 0 19 14q41 92 129 144.5t209 52.5h63q20 0 21 -21v-192q0 -20 -21 -21h-80q-98 0 -147 -141l-8 -25q-6 -14 6 -26q113 -104 231 -119q18 -4 19 -20v-197zM637 909v39q0 59 -44 103.5t-104 44.5 q-61 0 -104 -43t-43 -105q0 -53 32 -92t93 -82q29 -16 33 -16q8 0 35 10q47 18 74.5 56t27.5 85zM690 287q0 8 -20 32q-63 78 -133 134q-4 4 -88 59q-23 14 -29 14q-12 0 -29 -16q-49 -45 -49 -109v-59q0 -66 43 -106.5t104 -40.5h60q74 0 121 59q20 25 20 33z" />
<glyph unicode="'" horiz-adv-x="372" d="M305 1272q0 -10 -8 -68l-39 -305q-4 -18 -20 -18h-101q-18 0 -20 18l-41 307q-8 49 -8 66q0 18 20 18h197q20 0 20 -18z" />
<glyph unicode="(" horiz-adv-x="806" d="M639 -332q0 -20 -21 -20q-74 0 -157 30q-231 84 -232 351v1075q0 256 215 344q90 37 174 37q20 0 21 -21v-176q0 -20 -18 -20q-76 -6 -117 -46t-41 -98v-1114q0 -59 41 -99t117 -46q18 0 18 -21v-176z" />
<glyph unicode=")" horiz-adv-x="806" d="M578 29q0 -266 -232 -351q-84 -31 -158 -30q-20 0 -20 20v176q0 20 18 21q76 6 117 46t41 99v1114q0 57 -41 97.5t-117 46.5q-18 0 -18 20v176q0 20 20 21q84 0 174 -37q215 -88 216 -344v-1075z" />
<glyph unicode="*" horiz-adv-x="798" d="M766 948q0 -4 -4 -12l-82 -139q-6 -12 -16 -13q-8 0 -15 7l-139 100q-10 6 -18 6q-14 0 -14.5 -16.5t3.5 -36.5l15 -101q0 -6 2 -17t3 -18.5t1 -11.5q0 -18 -21 -18h-162q-20 0 -20 18q0 8 6 52l12 94q4 20 5 35q0 20 -15 20q-6 0 -18 -8l-131 -103q-10 -6 -15 -6 q-10 0 -16 13l-82 143q-4 8 -4 12q0 10 14 17l158 63q14 6 14 18.5t-14 18.5l-156 68q-14 6 -14 16q0 4 4 12l82 142q6 12 16 12q6 0 15 -6l129 -107q10 -6 16 -6q16 0 17 23q0 4 -3.5 21t-3.5 28l-12 88q-4 20 -4 35q0 18 20 18h162q20 0 21 -18q0 -14 -4 -35l-13 -90 q0 -6 -2 -17.5t-3 -19.5t-1 -12q0 -23 17 -23q8 0 16 6l137 109q10 6 15 6q10 0 16 -12l80 -140q4 -8 4 -12q0 -10 -14 -16l-162 -70q-14 -6 -14.5 -18.5t14.5 -18.5l164 -63q14 -7 14 -17z" />
<glyph unicode="+" d="M958 430q0 -20 -20 -20h-311q-20 0 -21 -21v-309q0 -20 -20 -21h-135q-20 0 -21 21v309q0 20 -20 21h-310q-20 0 -20 20v135q0 20 20 21h310q20 0 20 20v312q0 20 21 20h135q20 0 20 -20v-312q0 -20 21 -20h311q20 0 20 -21v-135z" />
<glyph unicode="," horiz-adv-x="471" d="M373 100q0 -215 -144 -317q-63 -47 -84 -47q-10 0 -16 12l-47 92q-12 25 -12 29q0 10 12 16q39 20 59.5 58.5t20.5 68.5q0 18 -21 19h-22q-20 0 -21 20v199q0 20 21 20h233q20 0 21 -20v-150z" />
<glyph unicode="-" horiz-adv-x="569" d="M489 373q0 -20 -20 -21h-369q-20 0 -20 21v192q0 20 20 21h369q20 0 20 -21v-192z" />
<glyph unicode="." horiz-adv-x="471" d="M373 116.5q0 -55.5 -41 -96t-96.5 -40.5t-96.5 40.5t-41 96t41 96.5t96.5 41t96.5 -41t41 -96.5z" />
<glyph unicode="/" horiz-adv-x="675" d="M690 1274q0 -12 -10 -33l-526 -1229q-6 -12 -19 -12h-129q-20 0 -20 16q0 4 12 37l524 1225q6 12 19 12h129q20 0 20 -16z" />
<glyph unicode="0" d="M930 342q0 -162 -104.5 -262t-276.5 -100h-60q-174 0 -277 100t-103 262v606q0 162 103 262.5t277 100.5h60q172 0 276.5 -100.5t104.5 -262.5v-606zM694 342v606q0 61 -42 104.5t-103 43.5h-60q-59 0 -103 -44t-44 -104v-606q0 -59 44 -103t103 -44h60q61 0 103 43 t42 104z" />
<glyph unicode="1" d="M905 20q0 -20 -20 -20h-662q-20 0 -20 20v175q0 20 20 20h193q20 0 20 21v600q0 23 -16 22q-10 0 -19 -8l-61 -64q-6 -8 -14 -8q-2 0 -15 8l-127 125q-8 6 -8 15q0 2 8 14l336 338q12 12 25 12h106q20 0 21 -20v-1034q0 -20 20 -21h193q20 0 20 -20v-175z" />
<glyph unicode="2" d="M915 948q0 -86 -25.5 -152.5t-82.5 -122t-97 -84t-122 -77.5q-76 -45 -110 -69.5t-69.5 -76t-35.5 -110.5v-20q0 -20 20 -21h488q20 0 20 -20v-175q0 -20 -20 -20h-723q-20 0 -21 20v236q0 162 82 264.5t223 188.5l50 28l51 31q16 10 42.5 28.5t40 33t29 34t21.5 40 t6 44.5q0 59 -44 103.5t-103 44.5h-74q-94 0 -146 -121q-6 -14 -16 -14q-4 0 -25 10l-163 84q-12 6 -13 14q0 10 39 76q106 166 324 166h74q174 0 277 -100.5t103 -262.5z" />
<glyph unicode="3" d="M901 358q0 -174 -103.5 -276t-279.5 -102h-57q-217 0 -324 165q-39 66 -39 76q0 8 13 15l163 83q20 10 25 11q10 0 16 -15q51 -121 146 -120h57q59 0 103.5 44t44.5 103v70q0 61 -43 103t-105 42h-184q-20 0 -21 21v174q0 20 21 20h184q59 0 103.5 44t44.5 104v28 q0 59 -44 103.5t-104 44.5h-57q-94 0 -146 -121q-6 -14 -16 -14q-4 0 -25 10l-163 84q-12 6 -13 14q0 10 39 76q106 166 324 166h57q174 0 278.5 -104.5t104.5 -278.5v-29q0 -115 -110 -221q-8 -6 -8.5 -14.5t8.5 -14.5q45 -45 77.5 -110.5t32.5 -120.5v-60z" />
<glyph unicode="4" d="M987 303q0 -20 -20 -20h-133q-20 0 -21 -21v-242q0 -20 -20 -20h-195q-20 0 -20 20v242q0 20 -21 21h-483q-20 0 -21 20v174l535 805q8 8 16 8h189q20 0 20 -20v-752q0 -20 21 -20h133q20 0 20 -21v-174zM578 518v318q0 25 -19 24q-10 0 -18 -12l-211 -318q-6 -10 -6 -16 q0 -16 22 -16h211q21 0 21 20z" />
<glyph unicode="5" d="M932 358q0 -174 -103.5 -276t-277.5 -102h-57q-217 0 -324 165q-39 66 -39 76q0 8 12 15l164 83q20 10 25 11q10 0 16 -15q51 -121 146 -120h57q61 0 103 43t42 104v70q0 61 -42 103t-103 42h-342q-20 0 -21 21v692q0 20 21 20h682q20 0 20 -20v-174q0 -20 -20 -21h-447 q-20 0 -20 -20v-262q0 -20 20 -21h107q174 0 277.5 -101.5t103.5 -275.5v-37z" />
<glyph unicode="6" d="M934 342q0 -162 -104.5 -262t-278.5 -100h-62q-172 0 -276 100t-104 262v606q0 162 104 262.5t276 100.5h64q217 0 324 -166q39 -66 38 -76q0 -8 -12 -14l-164 -84q-20 -10 -24 -10q-10 0 -17 14q-51 121 -145 121h-64q-61 0 -103 -43t-42 -105v-186q0 -23 16 -23 q2 0 15 4q74 39 135 39h61q154 0 258.5 -102t104.5 -260v-78zM698 342v78q0 59 -44 103t-103 44h-62q-61 0 -103 -43t-42 -104v-78q0 -61 42 -104t103 -43h62q59 0 103 44t44 103z" />
<glyph unicode="7" d="M920 1034q0 -94 -25 -167.5t-78 -131t-91 -88.5t-112 -80l-95 -67q-28 -20 -58.5 -64.5t-30.5 -93.5v-322q0 -20 -20 -20h-193q-20 0 -20 20v322q0 80 20.5 144.5t65.5 114.5t80.5 81t97.5 74q4 4 40 27.5t43 28.5t35.5 27.5t36.5 32.5l27 32q18 22 24.5 39.5t12.5 42 t6 48.5v21q0 20 -20 20h-488q-20 0 -20 21v174q0 20 20 20h721q20 0 21 -20v-236z" />
<glyph unicode="8" d="M930 358q0 -174 -103.5 -276t-277.5 -102h-60q-176 0 -278 102t-102 276v50q0 55 31.5 120.5t76.5 110.5q8 8 8 14q0 8 -8 15q-45 43 -76.5 104.5t-31.5 116.5v39q0 176 103 279.5t277 103.5h60q174 0 277.5 -104.5t103.5 -278.5v-39q0 -55 -32 -116.5t-77 -104.5 q-8 -6 -8 -15q0 -6 8 -14q45 -45 77 -110.5t32 -120.5v-50zM694 909v39q0 61 -42 104.5t-103 43.5h-60q-59 0 -103 -44t-44 -104v-39q0 -59 44 -103t103 -44h60q61 0 103 43t42 104zM694 342v59q0 61 -42 103.5t-103 42.5h-60q-61 0 -104 -42t-43 -104v-59q0 -59 44 -103 t103 -44h60q61 0 103 43t42 104z" />
<glyph unicode="9" d="M934 342q0 -162 -104.5 -262t-278.5 -100h-57q-217 0 -324 165q-39 66 -39 76q0 8 12 15l164 83q20 10 25 11q10 0 16 -15q51 -121 146 -120h57q59 0 103 44t44 103v117q0 23 -16 22q-2 0 -14 -4q-70 -37 -136 -37h-61q-154 0 -258 101.5t-104 259.5v147q0 162 104 262.5 t276 100.5h62q174 0 278.5 -100.5t104.5 -262.5v-606zM698 801v147q0 59 -44 103.5t-103 44.5h-62q-61 0 -103 -43t-42 -105v-147q0 -61 42 -103.5t103 -42.5h62q61 0 104 42.5t43 103.5z" />
<glyph unicode=":" horiz-adv-x="471" d="M373 645q0 -55 -41 -96t-96.5 -41t-96.5 41t-41 96t41 96t96.5 41t96.5 -41t41 -96zM373 116.5q0 -55.5 -41 -96t-96.5 -40.5t-96.5 40.5t-41 96t41 96.5t96.5 41t96.5 -41t41 -96.5z" />
<glyph unicode=";" horiz-adv-x="471" d="M373 645q0 -55 -41 -96t-96.5 -41t-96.5 41t-41 96t41 96t96.5 41t96.5 -41t41 -96zM373 100q0 -215 -144 -317q-63 -47 -84 -47q-10 0 -16 12l-47 92q-12 25 -12 29q0 10 12 16q39 20 59.5 58.5t20.5 68.5q0 18 -21 19h-22q-20 0 -21 20v199q0 20 21 20h233q20 0 21 -20 v-150z" />
<glyph unicode="&#x3c;" d="M879 831q0 -10 -13 -16l-508 -295q-14 -10 -14 -18t14 -19l506 -290q12 -6 13 -17q0 -2 -13 -26l-59 -107q-6 -12 -17 -12q-4 0 -40 20l-617 361q-10 6 -10 18v141q0 12 10 19l627 366q23 14 30 15q10 0 17 -13l61 -100q13 -21 13 -27z" />
<glyph unicode="=" d="M958 606q0 -20 -20 -20h-838q-20 0 -20 20v135q0 20 20 21h838q20 0 20 -21v-135zM958 256q0 -20 -20 -20h-838q-20 0 -20 20v133q0 20 20 21h838q20 0 20 -21v-133z" />
<glyph unicode="&#x3e;" d="M918 430q0 -12 -11 -18l-616 -361q-37 -20 -41 -20q-10 0 -17 12l-59 107q-12 25 -12 26q0 10 12 17l506 290q14 10 14 18.5t-14 18.5l-508 295q-12 6 -12 16q0 6 12 27l61 100q6 12 17 13q8 0 31 -15l626 -366q10 -6 11 -19v-141z" />
<glyph unicode="?" horiz-adv-x="972" d="M872 948q0 -70 -18 -125t-36.5 -85.5t-64.5 -62.5t-65.5 -42t-73.5 -35q-41 -20 -61.5 -32.5t-38.5 -39t-18 -63.5q0 -29 6 -60.5t6 -33.5q0 -16 -21 -17h-194q-16 0 -21 17q-12 78 -12 123q0 82 39 144t73 83.5t111 60.5l23 13q43 23 66.5 38t44 45.5t20.5 71.5 q0 61 -42 104.5t-103 43.5h-74q-94 0 -146 -121q-6 -14 -16 -14q-4 0 -25 10l-163 84q-12 6 -13 14q0 10 39 76q106 166 324 166h74q172 0 276 -100.5t104 -262.5zM549 116.5q0 -55.5 -41 -96t-96.5 -40.5t-96.5 40.5t-41 96t41 96.5t96.5 41t96.5 -41t41 -96.5z" />
<glyph unicode="@" horiz-adv-x="1447" d="M1282 508q0 -86 -56.5 -140.5t-150.5 -54.5h-24q-82 0 -142 49q-16 10 -20 11q-6 0 -23 -13q-66 -47 -143 -47q-123 0 -196.5 70t-73.5 186v162q0 115 73.5 184.5t196.5 69.5q39 0 82 -16q20 -10 31 -11q14 0 14 15q0 12 16 12h107q20 0 20 -20v-447q0 -27 16.5 -43 t43.5 -16h22q25 0 42.5 17.5t17.5 41.5v410q0 96 -64.5 155.5t-169.5 59.5h-352q-106 0 -171 -59.5t-65 -155.5v-566q0 -96 64.5 -155.5t171.5 -59.5h536q20 0 21 -20v-107q0 -20 -21 -20h-536q-174 0 -277.5 100.5t-103.5 261.5v566q0 162 103.5 262t277.5 100h352 q172 0 276.5 -100t104.5 -262v-420zM850 584v131q0 51 -38 87t-89 36t-87 -36t-36 -87v-131q0 -53 36 -89t87 -36t89 37t38 88z" />
<glyph unicode="A" horiz-adv-x="921" d="M938 16q0 -16 -23 -16h-206q-18 0 -21 14l-61 215q-2 12 -21 13h-293q-18 0 -20 -13l-62 -215q-2 -14 -20 -14h-205q-23 0 -22 16q0 4 2 9.5t4 13.5t4 14l373 1223q2 14 20 14h148q18 0 20 -14l373 -1223q10 -31 10 -37zM557 475q0 8 -10 39l-60 240q-2 8 -11 56t-11 56 h-6q-2 -8 -12.5 -56t-12.5 -56l-61 -238q-10 -37 -11 -41q0 -18 23 -18h150q22 0 22 18z" />
<glyph unicode="B" horiz-adv-x="1097" d="M999 377q0 -174 -102 -275.5t-279 -101.5h-460q-20 0 -21 20v1250q0 20 21 20h460q174 0 277.5 -103.5t103.5 -277.5v-20q0 -117 -108 -221q-8 -6 -8 -14.5t8 -14.5q45 -43 76.5 -109.5t31.5 -121.5v-31zM766 909v19q0 59 -44 103t-104 44h-225q-20 0 -20 -20v-273 q0 -20 20 -20h225q59 0 103.5 44t44.5 103zM766 362v39q0 61 -43 103.5t-105 42.5h-225q-20 0 -20 -21v-290q0 -20 20 -21h225q61 0 104.5 43t43.5 104z" />
<glyph unicode="C" horiz-adv-x="991" d="M952 221q0 -10 -39 -76q-106 -166 -323 -165h-101q-174 0 -277 100t-103 262v606q0 162 103 262.5t277 100.5h101q217 0 323 -166q39 -66 39 -76q0 -8 -12 -14l-164 -84q-20 -10 -24 -10q-10 0 -17 14q-51 121 -145 121h-101q-59 0 -103 -44t-44 -104v-606q0 -59 44 -103 t103 -44h101q94 0 145 120q6 14 17 15q4 0 24 -11l164 -83q12 -7 12 -15z" />
<glyph unicode="D" horiz-adv-x="1107" d="M999 381q0 -176 -102 -278.5t-279 -102.5h-460q-20 0 -21 20v1250q0 20 21 20h460q174 0 277.5 -103.5t103.5 -277.5v-528zM766 362v566q0 59 -44 103t-104 44h-225q-20 0 -20 -20v-819q0 -20 20 -21h225q61 0 104.5 43t43.5 104z" />
<glyph unicode="E" horiz-adv-x="978" d="M901 20q0 -20 -20 -20h-723q-20 0 -21 20v1250q0 20 21 20h723q20 0 20 -20v-174q0 -20 -20 -21h-488q-20 0 -20 -20v-273q0 -20 20 -20h400q20 0 20 -21v-174q0 -20 -20 -20h-400q-20 0 -20 -21v-290q0 -20 20 -21h488q20 0 20 -20v-175z" />
<glyph unicode="F" horiz-adv-x="929" d="M901 1096q0 -20 -20 -21h-488q-20 0 -20 -20v-273q0 -20 20 -20h400q20 0 20 -21v-174q0 -20 -20 -20h-400q-20 0 -20 -21v-506q0 -20 -21 -20h-194q-20 0 -21 20v1250q0 20 21 20h723q20 0 20 -20v-174z" />
<glyph unicode="G" horiz-adv-x="1079" d="M987 1069q0 -8 -12 -14l-164 -84q-20 -10 -25 -10q-10 0 -16 14q-51 121 -145 121h-136q-59 0 -103 -44t-44 -104v-606q0 -59 44 -103t103 -44h101q61 0 103 43t42 104v96q0 20 -20 21h-193q-20 0 -20 20v174q0 20 20 21h428q20 0 21 -21v-311q0 -162 -104.5 -262 t-276.5 -100h-101q-174 0 -277 100t-103 262v606q0 162 103 262.5t277 100.5h136q217 0 323 -166q39 -66 39 -76z" />
<glyph unicode="H" horiz-adv-x="1167" d="M1028 20q0 -20 -20 -20h-193q-20 0 -20 20v506q0 20 -21 21h-381q-20 0 -20 -21v-506q0 -20 -21 -20h-194q-20 0 -21 20v1250q0 20 21 20h194q20 0 21 -20v-488q0 -20 20 -20h381q20 0 21 20v488q0 20 20 20h193q20 0 20 -20v-1250z" />
<glyph unicode="I" horiz-adv-x="509" d="M373 20q0 -20 -21 -20h-194q-20 0 -21 20v1250q0 20 21 20h194q20 0 21 -20v-1250z" />
<glyph unicode="J" horiz-adv-x="878" d="M754 362q0 -160 -112 -271t-269 -111q-86 0 -170 44t-146 117q-53 63 -53 84q0 10 14 17l156 73q33 14 37 15q10 0 16 -13q45 -123 146 -122q61 0 103 43t42 104v928q0 20 21 20h194q20 0 21 -20v-908z" />
<glyph unicode="K" horiz-adv-x="1067" d="M1090 16q0 -16 -23 -16h-240q-10 0 -16 10l-322 514q-10 14 -18 15q-10 0 -16 -11l-66 -88q-16 -23 -16 -49v-371q0 -20 -21 -20h-194q-20 0 -21 20v1250q0 20 21 20h194q20 0 21 -20v-455q0 -25 18 -24q10 0 19 12l364 479q8 8 17 8h235q23 0 23 -16q0 -8 -7 -17 l-385 -477q-14 -18 -14 -26q0 -4 12 -27l420 -680q15 -25 15 -31z" />
<glyph unicode="L" horiz-adv-x="929" d="M901 20q0 -20 -20 -20h-723q-20 0 -21 20v1250q0 20 21 20h194q20 0 21 -20v-1034q0 -20 20 -21h488q20 0 20 -20v-175z" />
<glyph unicode="M" horiz-adv-x="1304" d="M1165 20q0 -20 -20 -20h-193q-20 0 -20 20v216q0 225 22 495l-8 2q-2 -4 -10 -35.5t-20.5 -68.5t-22.5 -60l-170 -381q-6 -12 -18 -12h-105q-12 0 -18 12l-170 381q-10 23 -22.5 60t-21 68.5t-10.5 35.5l-8 -2q23 -270 23 -495v-216q0 -20 -21 -20h-194q-20 0 -21 20 v1250q0 20 21 20h172q12 0 18 -12l273 -651q8 -20 26 -92h6q14 61 29 92l272 651q6 12 19 12h172q20 0 20 -20v-1250z" />
<glyph unicode="N" horiz-adv-x="1126" d="M987 20q0 -20 -20 -20h-170q-12 0 -19 10l-366 668q-10 20 -43 104l-9 -2q12 -147 13 -506v-254q0 -20 -21 -20h-194q-20 0 -21 20v1250q0 20 21 20h172q12 0 18 -10l367 -672q10 -20 43 -104l8 2q-12 147 -12 506v258q0 20 20 20h193q20 0 20 -20v-1250z" />
<glyph unicode="O" horiz-adv-x="1079" d="M971 342q0 -162 -104.5 -262t-276.5 -100h-101q-174 0 -277 100t-103 262v606q0 162 103 262.5t277 100.5h101q172 0 276.5 -100.5t104.5 -262.5v-606zM735 342v606q0 61 -42 104.5t-103 43.5h-101q-59 0 -103 -44t-44 -104v-606q0 -59 44 -103t103 -44h101q61 0 103 43 t42 104z" />
<glyph unicode="P" horiz-adv-x="989" d="M958 909q0 -156 -104 -259t-276 -103h-185q-20 0 -20 -21v-506q0 -20 -21 -20h-194q-20 0 -21 20v1250q0 20 21 20h420q174 0 277 -104.5t103 -276.5zM725 909v19q0 59 -44 103t-103 44h-185q-20 0 -20 -20v-273q0 -20 20 -20h185q59 0 103 44t44 103z" />
<glyph unicode="Q" horiz-adv-x="1079" d="M971 342q0 -141 -83 -238.5t-226 -117.5q-14 -2 -15 -21v-121q0 -20 -20 -20h-174q-20 0 -21 20v121q0 16 -20 21q-141 20 -222 116.5t-81 239.5v606q0 162 103 262.5t277 100.5h101q172 0 276.5 -100.5t104.5 -262.5v-606zM735 342v606q0 61 -42 104.5t-103 43.5h-101 q-59 0 -103 -44t-44 -104v-606q0 -55 35 -94q27 -31 45 -31q12 0 18 16l27 82q6 14 20 15h105q14 0 20 -15l27 -86q6 -16 16 -16q12 0 41 29q39 45 39 100z" />
<glyph unicode="R" horiz-adv-x="1079" d="M1022 16q0 -16 -21 -16h-210q-14 0 -19 14l-180 521q-2 12 -17 12h-182q-20 0 -20 -21v-506q0 -20 -21 -20h-194q-20 0 -21 20v1250q0 20 21 20h460q174 0 277.5 -103.5t103.5 -277.5v-20q0 -74 -51 -155t-114 -124q-8 -6 -9 -16q0 -6 11 -33l176 -512q2 -6 4 -13 t4 -12.5t2 -7.5zM766 909v19q0 59 -44 103t-104 44h-225q-20 0 -20 -20v-273q0 -20 20 -20h225q59 0 103.5 44t44.5 103z" />
<glyph unicode="S" horiz-adv-x="966" d="M895 342q0 -162 -103.5 -262t-277.5 -100h-82q-217 0 -323 165q-39 66 -39 76q0 8 12 15l164 83q20 10 24 11q10 0 17 -15q51 -121 145 -120h82q59 0 103.5 44t44.5 103q0 70 -49.5 110t-145.5 83q-16 6 -25 10q-68 33 -100.5 50t-86.5 55t-82 75t-49.5 95.5t-21.5 127.5 q0 162 103.5 262.5t277.5 100.5h33q217 0 324 -166q39 -66 39 -76q0 -8 -13 -14l-164 -84q-20 -10 -24 -10q-10 0 -16 14q-51 121 -146 121h-33q-59 0 -103 -44t-44 -104q0 -31 11 -53.5t41 -44t48.5 -31.5t69.5 -31.5t67 -29.5q70 -33 118 -62.5t99.5 -78t78 -118 t26.5 -157.5z" />
<glyph unicode="T" horiz-adv-x="823" d="M793 1096q0 -20 -21 -21h-223q-20 0 -21 -20v-1035q0 -20 -20 -20h-193q-20 0 -20 20v1035q0 20 -21 20h-223q-20 0 -20 21v174q0 20 20 20h721q20 0 21 -20v-174z" />
<glyph unicode="U" horiz-adv-x="1079" d="M971 342q0 -162 -104.5 -262t-276.5 -100h-101q-174 0 -277 100t-103 262v928q0 20 20 20h193q20 0 20 -20v-928q0 -59 44 -103t103 -44h101q61 0 103 43t42 104v928q0 20 21 20h194q20 0 21 -20v-928z" />
<glyph unicode="V" horiz-adv-x="921" d="M938 1274q0 -4 -2 -9t-4 -12.5t-2 -9.5l-375 -1229q-2 -14 -20 -14h-148q-18 0 -20 14l-373 1221q-10 35 -10 39q0 16 22 16h205q18 0 20 -14l203 -737q2 -8 10.5 -47l10.5 -48h10q2 6 10 44l10 47l203 741q2 14 21 14h206q23 0 23 -16z" />
<glyph unicode="W" horiz-adv-x="1345" d="M1339 1274q0 -4 -10 -55l-260 -1203q-4 -16 -20 -16h-150q-18 0 -20 14l-179 619q-2 8 -12 57t-12 55h-6q-2 -8 -12.5 -56t-12.5 -56l-178 -619q-2 -14 -21 -14h-149q-16 0 -21 16l-260 1203q-2 8 -4 21t-4 21.5t-2 12.5q0 16 21 16h209q16 0 20 -16l119 -633 q14 -104 20 -127h11q2 8 13 63.5t13 63.5l168 639q2 14 21 14h102q18 0 20 -14l168 -639q2 -8 13.5 -63.5t13.5 -63.5h10q2 8 10.5 63.5t10.5 63.5l121 633q4 16 20 16h209q20 0 20 -16z" />
<glyph unicode="X" horiz-adv-x="937" d="M928 16q0 -16 -23 -16h-223q-12 0 -18 12l-175 371q-6 16 -18 16t-18 -16l-181 -371q-8 -12 -18 -12h-219q-23 0 -23 16q0 2 23 52l276 546q12 25 13 33q0 4 -11 29l-284 559q-16 33 -17 39q0 16 23 16h217q10 0 18 -12l183 -377q6 -16 18 -16t18 16l177 377q6 12 18 12 h221q23 0 23 -16q0 -4 -17 -37l-280 -559q-10 -18 -10 -33q0 -12 10 -31l276 -553q21 -41 21 -45z" />
<glyph unicode="Y" horiz-adv-x="921" d="M940 1274q0 -4 -14 -33l-334 -625q-14 -29 -14 -57v-539q0 -20 -21 -20h-195q-20 0 -20 20v541q0 27 -14 55l-334 625q-14 25 -14 33q0 16 22 16h227q10 0 19 -12l194 -401q6 -16 18.5 -16.5t18.5 16.5l195 401q8 12 18 12h226q22 0 22 -16z" />
<glyph unicode="Z" horiz-adv-x="933" d="M838 1274q0 -4 -15 -39l-436 -969q-12 -25 -12 -35q0 -16 20 -16h416q20 0 20 -20v-175q0 -20 -20 -20h-768q-20 0 -20 16q0 6 14 39l432 965q14 29 14 39q0 16 -20 16h-373q-20 0 -20 21v174q0 20 20 20h727q21 0 21 -16z" />
<glyph unicode="[" horiz-adv-x="806" d="M639 -332q0 -20 -21 -20h-368q-20 0 -21 20v1796q0 20 21 21h368q20 0 21 -21v-174q0 -20 -21 -20h-135q-20 0 -20 -21v-1366q0 -20 20 -20h135q20 0 21 -21v-174z" />
<glyph unicode="\" horiz-adv-x="675" d="M690 16q0 -16 -20 -16h-129q-12 0 -19 12l-526 1229q-10 20 -10 33q0 16 20 16h129q12 0 19 -12l524 -1225q12 -33 12 -37z" />
<glyph unicode="]" horiz-adv-x="806" d="M578 -332q0 -20 -21 -20h-369q-20 0 -20 20v174q0 20 20 21h134q20 0 20 20v1366q0 20 -20 21h-134q-20 0 -20 20v174q0 20 20 21h369q20 0 21 -21v-1796z" />
<glyph unicode="^" d="M997 555h-215l-264 545h-6l-254 -545h-217l399 756h152z" />
<glyph unicode="_" horiz-adv-x="471" d="M496 -420q0 -20 -21 -20h-467q-20 0 -20 20v107q0 20 20 20h467q20 0 21 -20v-107z" />
<glyph unicode="`" horiz-adv-x="1024" d="M647 1067q0 -16 -20 -16h-140q-14 0 -32 14l-291 287q-14 14 -14 24q0 16 22 17h250q18 0 29 -17l184 -282q12 -21 12 -27z" />
<glyph unicode="a" horiz-adv-x="952" d="M836 20q0 -20 -21 -20h-174q-20 0 -20 16q0 27 -15 27q-8 0 -18 -6q-68 -37 -125 -37h-78q-123 0 -206 77t-83 197v11q0 123 82 198.5t207 75.5h197q20 0 20 21v24q0 59 -43 99t-106 40q-82 0 -150 -116q-6 -12 -16 -13q-4 0 -25 11l-156 82q-12 6 -12 14q0 16 43 82 q104 156 316 155q174 0 278.5 -99t104.5 -261v-578zM602 330v32h-217q-23 0 -39 -17t-16 -40v-31q0 -25 15 -42t40 -17h78q49 0 90 35t49 80z" />
<glyph unicode="b" horiz-adv-x="968" d="M881 362q0 -162 -104.5 -262t-276.5 -100q-66 0 -135 37q-12 4 -17 4q-14 0 -14 -23q0 -18 -21 -18h-174q-20 0 -20 20v1250q0 20 20 20h193q20 0 20 -20v-350q0 -23 17 -23q4 0 16 4q70 37 133 37q154 0 258.5 -101.5t104.5 -258.5v-216zM645 362v216q0 61 -42 103 t-103.5 42t-104.5 -42t-43 -103v-216q0 -61 43 -104t104.5 -43t103.5 42t42 105z" />
<glyph unicode="c" horiz-adv-x="878" d="M834 221q0 -12 -31 -61q-109 -180 -332 -180q-174 0 -278.5 100t-104.5 262v254q0 162 104.5 262t278.5 100q223 0 332 -180q31 -49 31 -61q0 -10 -13 -17l-153 -75q-29 -14 -35 -15q-10 0 -17 13q-51 121 -145 120q-61 0 -104 -43t-43 -104v-254q0 -61 43 -104t104 -43 q94 0 145 120q6 12 17 13q6 0 35 -15l153 -75q13 -7 13 -17z" />
<glyph unicode="d" horiz-adv-x="968" d="M852 20q0 -20 -21 -20h-174q-20 0 -20 18q0 23 -16 23q-2 0 -15 -4q-70 -37 -135 -37q-174 0 -278.5 100.5t-104.5 261.5v216q0 158 104.5 259t258.5 101q66 0 135 -37q12 -4 14 -4q16 0 16 23v350q0 20 21 20h194q20 0 21 -20v-1250zM616 362v216q0 61 -42 103t-103 42 q-63 0 -105 -42t-42 -103v-216q0 -63 42 -105t105 -42q61 0 103 42t42 105z" />
<glyph unicode="e" horiz-adv-x="940" d="M852 430q0 -20 -21 -20h-487q-20 0 -20 -21v-47q0 -61 43 -104t104 -43q94 0 145 120q6 12 17 13q6 0 35 -15l153 -75q12 -6 13 -17q0 -12 -31 -61q-109 -180 -332 -180q-174 0 -278.5 100t-104.5 262v254q0 137 108.5 249.5t274.5 112.5t273.5 -112.5t107.5 -249.5v-166 zM614 625q0 31 -37.5 74.5t-105.5 43.5q-66 0 -105.5 -44t-39.5 -74q0 -18 22 -19h244q22 1 22 19z" />
<glyph unicode="f" horiz-adv-x="598" d="M676 1280q0 -10 -8 -31l-56 -151q-4 -16 -16 -17l-23 9q-23 6 -45 6q-63 0 -104 -42t-41 -106v-78q0 -20 20 -20h134q20 0 20 -21v-174q0 -20 -20 -20h-134q-20 0 -20 -21v-594q0 -20 -21 -20h-194q-20 0 -21 20v594q0 20 -20 21h-47q-20 0 -21 20v174q0 20 21 21h47 q20 0 20 20v58q0 158 113 270.5t268 112.5q70 0 131 -15q17 -4 17 -16z" />
<glyph unicode="g" horiz-adv-x="940" d="M940 -207q0 -119 -83 -186.5t-212 -67.5h-262q-129 0 -212 67.5t-83 186.5v60q0 119 105 198q8 8 8 17q0 2 -19.5 35.5t-19.5 78.5q0 37 11 65.5t22.5 42t11.5 17.5q0 8 -6 15q-113 109 -113 247v29q0 156 108.5 248t274.5 92q49 0 113 -27q33 -14 37 -14q16 0 16 23 q0 18 20 18h174q20 0 21 -20v-338q0 -158 -109.5 -256.5t-271.5 -98.5h-49q-16 0 -28.5 -16t-12.5 -41q0 -61 45 -62h219q129 0 212 -66.5t83 -186.5v-60zM616 569v29q0 61 -42 101t-103 40q-63 0 -105 -40t-42 -101v-29q0 -59 42 -96t105.5 -37t104 37t40.5 96zM705 -207 v60q0 27 -16.5 43t-43.5 16h-262q-27 0 -43 -16.5t-16 -42.5v-60q0 -25 17 -42t42 -17h262q25 0 42.5 17t17.5 42z" />
<glyph unicode="h" horiz-adv-x="989" d="M881 20q0 -20 -21 -20h-194q-20 0 -21 20v558q0 61 -42 103t-103.5 42t-104.5 -42t-43 -103v-558q0 -20 -20 -20h-193q-20 0 -20 20v1250q0 20 20 20h193q20 0 20 -20v-350q0 -23 17 -23q2 0 14 4q70 37 135 37q156 0 259.5 -101.5t103.5 -258.5v-558z" />
<glyph unicode="i" horiz-adv-x="471" d="M373 1173.5q0 -55.5 -41 -96.5t-96.5 -41t-96.5 41t-41 96.5t41 96.5t96.5 41t96.5 -41t41 -96.5zM352 20q0 -20 -20 -20h-193q-20 0 -20 20v898q0 20 20 20h193q20 0 20 -20v-898z" />
<glyph unicode="j" horiz-adv-x="471" d="M373 1173.5q0 -55.5 -41 -96.5t-96.5 -41t-96.5 41t-41 96.5t41 96.5t96.5 41t96.5 -41t41 -96.5zM352 -102q0 -115 -62.5 -206t-170.5 -136q-88 -37 -156 -37q-20 0 -20 20v174q0 20 18 21q76 6 117 46t41 99v1039q0 20 20 20h193q20 0 20 -20v-1020z" />
<glyph unicode="k" horiz-adv-x="919" d="M940 16q0 -16 -22 -16h-240q-12 0 -19 10l-235 387q-6 12 -16 13q-8 0 -17 -9l-29 -28q-10 -10 -10 -23v-330q0 -20 -20 -20h-193q-20 0 -20 20v1250q0 20 20 20h193q20 0 20 -20v-561q0 -23 19 -23q8 0 16 8l209 230q14 14 29 14h237q23 0 23 -16q0 -10 -8 -19 l-275 -280q-12 -16 -12 -24.5t12 -29.5l326 -526q12 -21 12 -27z" />
<glyph unicode="l" horiz-adv-x="471" d="M352 20q0 -20 -20 -20h-193q-20 0 -20 20v1250q0 20 20 20h193q20 0 20 -20v-1250z" />
<glyph unicode="m" horiz-adv-x="1447" d="M1331 20q0 -20 -20 -20h-195q-20 0 -20 20v558q0 59 -39 102t-88 43q-47 0 -87 -44t-40 -101v-558q0 -20 -21 -20h-194q-20 0 -21 20v558q0 59 -39 102t-88 43q-45 0 -86 -44t-41 -101v-558q0 -20 -20 -20h-193q-20 0 -20 20v898q0 20 20 20h174q20 0 21 -20v-3 q0 -23 16 -22q2 0 15 4q76 41 135 41q131 0 211 -74q6 -6 14 -6t14 6q76 74 230 74q156 0 259 -101.5t103 -258.5v-558z" />
<glyph unicode="n" horiz-adv-x="999" d="M881 20q0 -20 -21 -20h-194q-20 0 -21 20v558q0 61 -42 103t-103.5 42t-104.5 -42t-43 -103v-558q0 -20 -20 -20h-193q-20 0 -20 20v898q0 20 20 20h174q20 0 21 -18q0 -23 16 -23q2 0 15 4q70 37 135 37q172 0 276.5 -99.5t104.5 -260.5v-558z" />
<glyph unicode="o" horiz-adv-x="940" d="M852 342q0 -162 -104.5 -262t-276.5 -100q-174 0 -278.5 100t-104.5 262v254q0 162 104.5 262t278.5 100q172 0 276.5 -100t104.5 -262v-254zM616 342v254q0 61 -42 104t-103 43t-104 -43t-43 -104v-254q0 -61 43 -104t104 -43t103 43t42 104z" />
<glyph unicode="p" horiz-adv-x="968" d="M881 362q0 -158 -104.5 -260t-258.5 -102q-66 0 -135 37q-12 4 -14 4q-16 0 -17 -23v-458q0 -20 -20 -21h-193q-20 0 -20 21v1358q0 20 20 20h174q20 0 21 -18q0 -23 16 -23q2 0 15 4q70 37 135 37q172 0 276.5 -99.5t104.5 -260.5v-216zM645 362v216q0 61 -42 103 t-103.5 42t-104.5 -42t-43 -103v-216q0 -61 43 -104t104.5 -43t103.5 42t42 105z" />
<glyph unicode="q" horiz-adv-x="968" d="M852 -440q0 -20 -21 -21h-194q-20 0 -21 21v458q0 23 -16 23q-2 0 -14 -4q-70 -37 -135 -37q-154 0 -258.5 102.5t-104.5 259.5v216q0 162 104.5 261t278.5 99q66 0 135 -37q12 -4 15 -4q16 0 16 23q0 18 20 18h174q20 0 21 -20v-1358zM616 362v216q0 61 -42 103t-103 42 q-63 0 -105 -42t-42 -103v-216q0 -63 42 -105t105 -42q61 0 103 42t42 105z" />
<glyph unicode="r" horiz-adv-x="622" d="M594 705q0 -23 -21 -23q-2 0 -25.5 9t-47.5 9q-63 0 -105.5 -41t-42.5 -102v-537q0 -20 -20 -20h-193q-20 0 -20 20v898q0 20 20 20h174q20 0 21 -18v-29q0 -20 16 -21q8 0 15 7q18 20 64 40.5t91 20.5q33 0 58 -6q16 -4 16 -21v-206z" />
<glyph unicode="s" horiz-adv-x="923" d="M836 721q0 -10 -13 -16l-155 -76q-16 -8 -23 -8q-10 0 -16 12q-47 117 -150 117h-59q-113 0 -113 -78q0 -23 11.5 -38.5t37 -23.5t48 -13t62.5 -11t64 -13q139 -29 220 -86t81 -182q0 -137 -93 -231t-259 -94h-59q-215 0 -318 161q-37 59 -36 78q0 10 12 17l147 71 q25 12 31 12q10 0 16 -14q47 -117 148 -117h59q55 0 87 26t32 62q0 23 -11.5 37.5t-37 23.5t-48 13t-63.5 10.5l-65 10.5q-137 27 -217 84t-80 186q0 145 100 231t244 86h59q213 0 314 -151q43 -66 43 -86z" />
<glyph unicode="t" horiz-adv-x="657" d="M567 0q0 -20 -20 -20q-82 0 -174 36q-215 88 -215 326v360q0 20 -21 21h-106q-20 0 -21 18l4 111l236 250q12 12 24 12h97q20 0 20 -20v-136q0 -20 21 -20h135q20 0 20 -20v-175q0 -20 -20 -20h-135q-20 0 -21 -21v-360q0 -59 41 -99t117 -46q18 0 18 -21v-176z" />
<glyph unicode="u" horiz-adv-x="978" d="M860 20q0 -20 -20 -20h-174q-20 0 -21 18q0 23 -16 23q-2 0 -15 -4q-70 -37 -135 -37q-172 0 -276.5 100.5t-104.5 261.5v556q0 20 21 20h194q20 0 21 -20v-556q0 -63 42 -105t103.5 -42t104.5 43t43 104v556q0 20 20 20h193q20 0 20 -20v-898z" />
<glyph unicode="v" horiz-adv-x="880" d="M899 922q0 -8 -10 -33l-357 -877q-6 -12 -18 -12h-147q-12 0 -19 12l-352 873q-12 33 -12 37q0 16 20 16h207q12 0 18 -12l185 -473q18 -55 22 -91h8q4 35 23 91l184 473q6 12 19 12h209q20 0 20 -16z" />
<glyph unicode="w" horiz-adv-x="1226" d="M1225 922q0 -8 -15 -52l-262 -856q-2 -14 -20 -14h-142q-18 0 -20 14l-123 432q-12 43 -25 111h-8q-6 -37 -26 -111l-121 -432q-2 -14 -21 -14h-143q-18 0 -20 14l-261 856q-14 43 -14 52q0 16 23 16h200q18 0 21 -14l100 -389q10 -33 21 -127h8q16 78 29 124l104 392 q2 14 20 14h172q18 0 21 -14l102 -392q14 -49 29 -126h8q8 78 23 129l98 389q2 14 21 14h198q23 0 23 -16z" />
<glyph unicode="x" horiz-adv-x="837" d="M860 922q0 -8 -14 -29l-260 -395q-12 -18 -13 -27q0 -10 13 -29l260 -399q12 -18 12 -27q0 -16 -20 -16h-230q-12 0 -18 10l-154 248q-10 14 -18 14t-19 -14l-153 -248q-6 -10 -19 -10h-196q-23 0 -23 16q0 6 19 39l223 383q12 20 12 33q0 10 -14 33l-256 391 q-12 20 -12 27q0 16 20 16h229q10 0 17 -10l155 -250q6 -12 15 -12q10 0 16 12l158 250q6 10 16 10h232q22 0 22 -16z" />
<glyph unicode="y" horiz-adv-x="978" d="M860 -100q0 -170 -99 -275.5t-282 -105.5q-209 0 -313 149q-47 66 -47 90q0 10 12 17l164 82q14 8 22 8q10 0 17 -12q47 -119 145 -119q59 0 103.5 44t44.5 103v127q0 23 -15 23q-6 0 -14 -4q-55 -27 -119 -27q-172 0 -276.5 100.5t-104.5 261.5v556q0 20 21 20h194 q20 0 21 -20v-556q0 -63 42 -105t103.5 -42t104.5 43t43 104v556q0 20 20 20h193q20 0 20 -20v-1018z" />
<glyph unicode="z" horiz-adv-x="880" d="M829 920q0 -10 -24 -50l-359 -594q-23 -35 -22 -45q0 -16 22 -16h353q20 0 20 -20v-175q0 -20 -20 -20h-762q-23 0 -23 16q0 6 23 45l356 594q25 39 25 50q0 16 -23 16h-315q-20 0 -21 20v174q0 20 21 21h727q22 0 22 -16z" />
<glyph unicode="{" horiz-adv-x="856" d="M705 -332q0 -20 -21 -20q-82 0 -178 39q-211 90 -211 342v284q0 57 -41 97.5t-117 46.5q-18 0 -18 20v178q0 20 18 21q76 6 117 46t41 99v283q0 254 213 344q86 37 176 37q20 0 21 -21v-176q0 -20 -19 -20q-76 -6 -117 -46t-41 -98v-323q0 -55 -31.5 -116.5t-76.5 -104.5 q-8 -6 -8 -15q0 -6 8 -14q45 -45 76.5 -110.5t31.5 -121.5v-309q0 -59 41 -99t117 -46q18 0 19 -21v-176z" />
<glyph unicode="|" horiz-adv-x="512" d="M168 -512v2048h176v-2048h-176z" />
<glyph unicode="}" horiz-adv-x="856" d="M737 477q0 -20 -18 -20q-76 -6 -117 -46t-41 -98v-284q0 -252 -211 -342q-96 -39 -178 -39q-20 0 -20 20v176q0 20 18 21q76 6 117 46t41 99v309q0 55 31.5 121t76.5 111q8 8 8 14q0 8 -8 15q-45 43 -76.5 104t-31.5 117v323q0 57 -41 97.5t-117 46.5q-18 0 -18 20v176 q0 20 20 21q90 0 176 -37q213 -90 213 -344v-283q0 -59 41 -99t117 -46q18 0 18 -21v-178z" />
<glyph unicode="~" d="M985 524q-111 -178 -268 -178q-109 0 -211 64q-98 66 -174 65q-88 0 -162 -133l-115 131q117 176 271 176q106 0 206 -61q106 -66 177 -66q90 0 161 131z" />
<glyph unicode="&#xa0;" />
<glyph unicode="&#xa1;" horiz-adv-x="626" d="M451 821.5q0 -55.5 -41 -96.5t-96.5 -41t-96.5 41t-41 96.5t41 96t96.5 40.5t96.5 -40.5t41 -96zM430 -332q0 -20 -20 -20h-193q-20 0 -20 20v535l43 364q2 18 20 19h102q18 0 21 -19l47 -364v-535z" />
<glyph unicode="&#xa2;" d="M981 274.5q0 -12.5 -39 -73.5q-100 -156 -297 -168q-16 0 -16 -21v-114q0 -20 -21 -21h-106q-20 0 -21 21v116q0 20 -20 21q-158 14 -250 111.5t-92 248.5v254q0 152 92 249t250 112q20 0 20 20v117q0 20 21 20h106q20 0 21 -20v-115q0 -20 16 -20q190 -10 293 -158 q43 -63 43 -80q0 -12 -12 -18l-154 -76q-25 -14 -35 -14t-16 12q-31 63 -70 96q-29 23 -49 23q-16 0 -16 -25v-500q0 -20 14 -20q27 0 64 33q35 31 57 86q6 12 16.5 12t34.5 -14l154 -76q12 -6 12 -18.5zM481 274v496q0 25 -18 25q-20 0 -51 -25q-57 -43 -58 -121v-254 q0 -80 62 -123q27 -20 47 -20q18 -1 18 22z" />
<glyph unicode="&#xa3;" d="M999 1071q0 -12 -12 -18l-147 -74q-37 -16 -41 -16q-10 0 -17 12q-51 121 -145 121q-59 0 -103.5 -44t-44.5 -104v-166q0 -20 21 -20h135q20 0 21 -21v-174q0 -20 -21 -20h-135q-20 0 -21 -21v-184q0 -31 -11 -68.5t-11 -40.5q0 -18 20 -18h422q20 0 21 -20v-175 q0 -20 -21 -20h-897q-20 0 -20 20v175q0 20 20 20h115q55 10 92 51t37 96v164q0 20 -20 21h-48q-20 0 -20 20v174q0 20 20 21h48q20 0 20 20v146q0 158 112.5 270.5t268.5 112.5q199 0 307 -144q55 -71 55 -96z" />
<glyph unicode="&#xa4;" horiz-adv-x="1259" d="M1092 358l-107 -110l-139 139q-106 -76 -238 -76q-137 0 -237 76l-140 -139l-108 110l141 134q-74 111 -74 233q0 131 74 233l-141 136l108 110l140 -139q106 74 237 74q135 0 236 -74l141 139l107 -110l-142 -136q76 -106 76 -233q0 -121 -76 -233zM872 727 q0 111 -79.5 186.5t-184.5 75.5q-113 0 -189.5 -77.5t-76.5 -184.5q0 -109 79 -186.5t187.5 -77.5t186 77.5t77.5 186.5z" />
<glyph unicode="&#xa5;" d="M999 1274q0 -4 -18 -41l-256 -479q-14 -29 -14 -33q0 -16 22 -16h215q20 0 21 -21v-156q0 -20 -21 -20h-291q-20 0 -20 -21v-94q0 -20 20 -20h291q20 0 21 -21v-155q0 -20 -21 -21h-291q-20 0 -20 -20v-136q0 -20 -21 -20h-194q-20 0 -21 20v136q0 20 -20 20h-291 q-20 0 -20 21v155q0 20 20 21h291q20 0 20 20v94q0 20 -20 21h-291q-20 0 -20 20v156q0 20 20 21h215q23 0 23 16q0 6 -13 31l-264 491q-12 23 -12 31q0 16 22 16h226q10 0 18 -12l195 -401q6 -16 18 -16.5t19 16.5l194 401q8 12 19 12h227q22 0 22 -16z" />
<glyph unicode="&#xa6;" horiz-adv-x="512" d="M344 752h-176v733h176v-733zM344 -352h-176v733h176v-733z" />
<glyph unicode="&#xa7;" d="M932 -119q0 -162 -104.5 -262t-276.5 -100h-82q-217 0 -324 166q-39 66 -39 75q0 8 13 15l164 84q20 10 24 10q10 0 17 -14q51 -121 145 -121h82q61 0 103 43t42 104q0 74 -57 126t-139 87t-165 77t-140.5 122t-57.5 194v41q0 100 43 181q12 20 12.5 28t-12.5 29 q-43 74 -43 182q0 162 104.5 262.5t276.5 100.5h33q217 0 323 -166q39 -66 39 -76q0 -8 -12 -14l-164 -84q-20 -10 -24 -10q-10 0 -17 14q-51 121 -145 121h-33q-61 0 -103 -43t-42 -105q0 -66 57 -111.5t139 -80.5t165 -79t140.5 -129t57.5 -206v-41q0 -90 -43 -172 l-15 -31q0 -6 11 -24q47 -89 47 -193zM696 287v55q0 25 -7 46.5t-15 36.5t-28.5 32.5t-33 27t-44 24.5t-45 20.5l-51.5 21.5t-50 20q-25 10 -31 11q-18 0 -18 -31v-64q0 -29 12 -52t26.5 -38.5t47.5 -34t52 -27.5t65.5 -27.5t64.5 -26.5q33 -14 39 -15q16 1 16 21z" />
<glyph unicode="&#xa8;" horiz-adv-x="1024" d="M811 1216.5q0 -53.5 -37 -90t-90 -36.5t-90 36.5t-37 90t37 90t90 36.5t90 -36.5t37 -90zM465 1216.5q0 -53.5 -37 -90t-90 -36.5t-90 36.5t-37 90t37 90t90 36.5t90 -36.5t37 -90z" />
<glyph unicode="&#xa9;" horiz-adv-x="1447" d="M1282 240q0 -162 -104.5 -262.5t-276.5 -100.5h-352q-174 0 -277.5 100.5t-103.5 262.5v565q0 162 103.5 262t277.5 100h352q172 0 276.5 -100t104.5 -262v-565zM1135 240v565q0 96 -64.5 155.5t-169.5 59.5h-352q-106 0 -171 -59.5t-65 -155.5v-565q0 -96 64.5 -155.5 t171.5 -59.5h352q104 0 169 59.5t65 155.5zM983 342q0 -23 -45 -76q-76 -92 -215 -92q-125 0 -202 74t-77 190v193q0 119 76 189.5t203 70.5q137 0 217 -94q43 -49 43 -68q0 -12 -12 -18l-82 -41q-29 -14 -33 -15q-10 0 -16 11q-55 80 -117 79q-49 0 -83 -32.5t-34 -81.5 v-193q0 -49 34 -81.5t83 -32.5q59 0 117 82q6 10 16 10q4 0 29 -13l86 -43q12 -6 12 -18z" />
<glyph unicode="&#xaa;" horiz-adv-x="677" d="M606 643q0 -25 -24 -25h-121q-20 0 -21 27q0 18 -10 18.5t-20 -10.5q-37 -35 -86 -35h-43q-90 0 -151.5 56.5t-61.5 146.5v6q0 92 60 147.5t153 55.5h127q14 0 14 14v9q0 37 -26.5 61.5t-65.5 24.5q-55 0 -99 -76q-6 -14 -18 -14q-4 0 -33 14l-100 51q-14 6 -14 19 q0 16 30 63q74 115 232 115q127 0 202.5 -74t75.5 -190v-404zM422 854v6q0 12 -12 12h-129q-10 0 -19.5 -9t-9.5 -21v-21q0 -12 8 -22.5t21 -10.5h61q31 0 53.5 18.5t26.5 47.5z" />
<glyph unicode="&#xab;" horiz-adv-x="1175" d="M1055 188q0 -23 -17 -22q-6 0 -16 6l-444 313q-8 8 -9 17v145q0 8 9 17l444 315q10 6 16 6q16 0 17 -22v-183q0 -8 -8 -16l-242 -172q-10 -6 -10 -17q0 -6 10 -16l242 -174q8 -8 8 -16v-181zM582 188q0 -23 -17 -22q-8 0 -16 6l-443 313q-8 8 -8 17v145q0 8 8 17l443 315 q8 6 16 6q16 0 17 -22v-183q0 -8 -9 -16l-241 -172q-10 -6 -10 -17q0 -6 10 -16l241 -174q8 -8 9 -16v-181z" />
<glyph unicode="&#xac;" d="M958 256q0 -20 -20 -20h-154q-20 0 -20 20v309q0 20 -21 21h-643q-20 0 -20 20v135q0 20 20 21h838q20 0 20 -21v-485z" />
<glyph unicode="&#xad;" horiz-adv-x="569" d="M489 373q0 -20 -20 -21h-369q-20 0 -20 21v192q0 20 20 21h369q20 0 20 -21v-192z" />
<glyph unicode="&#xae;" horiz-adv-x="942" d="M844 901q0 -156 -100.5 -252t-268.5 -96h-8q-168 0 -268.5 96t-100.5 252v41q0 156 100.5 252t268.5 96h8q168 0 268.5 -96t100.5 -252v-41zM782 901v41q0 129 -84 208t-223 79h-8q-139 0 -223 -79t-84 -208v-41q0 -129 84 -208t223 -79h8q139 0 223 79t84 208zM623 985 q0 -51 -54 -92q-8 -6 -8 -14q0 -6 10 -27l35 -70q12 -20 12 -28q0 -16 -22 -17h-33q-12 0 -18 13l-47 108q-6 12 -19 12h-51q-20 0 -20 -20v-92q0 -20 -21 -21h-22q-20 0 -21 21v344q0 20 21 20h129q59 0 94 -34.5t35 -94.5v-8zM557 993v6q0 29 -18.5 47.5t-44.5 18.5h-66 q-20 0 -20 -21v-96q0 -20 20 -20h66q27 0 45 18t18 47z" />
<glyph unicode="&#xaf;" horiz-adv-x="1024" d="M770 1137q0 -20 -20 -21h-467q-20 0 -21 21v174q0 20 21 20h467q20 0 20 -20v-174z" />
<glyph unicode="&#xb0;" horiz-adv-x="600" d="M506 899q0 -86 -56.5 -140t-150.5 -54q-92 0 -148.5 54t-56.5 140v191q0 88 56.5 144t148.5 56q94 0 150.5 -54t56.5 -140v-197zM340 899v197q0 14 -12.5 26.5t-28.5 12.5q-39 0 -39 -39v-197q0 -39 39 -39q16 0 28.5 12.5t12.5 26.5z" />
<glyph unicode="&#xb1;" d="M958 682q0 -20 -20 -20h-311q-20 0 -21 -21v-309q0 -20 -20 -21h-135q-20 0 -21 21v309q0 20 -20 21h-310q-20 0 -20 20v135q0 20 20 21h310q20 0 20 20v311q0 20 21 21h135q20 0 20 -21v-311q0 -20 21 -20h311q20 0 20 -21v-135zM958 20q0 -20 -20 -20h-838 q-20 0 -20 20v136q0 20 20 20h838q20 0 20 -20v-136z" />
<glyph unicode="&#xb2;" horiz-adv-x="686" d="M623 971q0 -43 -18.5 -78t-37 -53.5t-62.5 -37t-62.5 -22.5t-67.5 -16q-37 -10 -53.5 -15.5t-33 -18.5t-16.5 -30v-12q0 -12 17 -12h311q12 0 12 -12v-138q0 -12 -12 -12h-508q-14 0 -14 12v107q0 74 19.5 125t59.5 78.5t69.5 40t80.5 24.5q41 8 54.5 12.5t38 13.5 t32.5 22.5t8 31.5q0 76 -84 76h-49q-51 0 -98 -76q-10 -16 -21 -8l-137 61q-10 8 -4 23q43 80 102.5 121t153.5 41h53q121 0 194 -68.5t73 -179.5z" />
<glyph unicode="&#xb3;" horiz-adv-x="686" d="M627 686q0 -117 -74 -185.5t-201 -68.5h-37q-94 0 -154.5 37t-103.5 121q-10 16 4 22l136 64q12 6 20 -8q45 -76 107 -76h28q41 0 65.5 23.5t24.5 60.5v43q0 35 -23.5 56.5t-66.5 21.5h-127q-14 0 -14 14v137q0 12 14 13h127q43 0 66.5 21.5t23.5 55.5v23 q0 35 -24.5 57.5t-65.5 22.5h-28q-63 0 -107 -74q-8 -16 -22 -8l-134 61q-14 8 -4 23q45 84 104.5 122t153.5 38h37q125 0 200 -70t75 -184v-23q0 -84 -74 -133q-10 -10 0 -16q74 -49 74 -154v-37z" />
<glyph unicode="&#xb4;" horiz-adv-x="1024" d="M889 1376q0 -10 -15 -24l-290 -287q-18 -14 -33 -14h-139q-20 0 -21 16q0 6 12 27l185 282q10 16 28 17h250q23 -1 23 -17z" />
<glyph unicode="&#xb5;" horiz-adv-x="978" d="M860 20q0 -20 -20 -20h-174q-20 0 -21 18q0 23 -16 23q-2 0 -15 -4q-70 -37 -135 -37q-63 0 -125 16q-20 6 -20 -16v-307q0 -20 -21 -21h-194q-20 0 -21 21v1225q0 20 21 20h194q20 0 21 -20v-556q0 -63 42 -105t103.5 -42t104.5 43t43 104v556q0 20 20 20h193 q20 0 20 -20v-898z" />
<glyph unicode="&#xb6;" horiz-adv-x="1304" d="M1167 -440q0 -20 -20 -21h-195q-20 0 -20 21v1495q0 20 -21 20h-137q-20 0 -20 -20v-1495q0 -20 -21 -21h-194q-20 0 -21 21v596q0 20 -20 20h-9q-172 0 -276 102.5t-104 258.5v372q0 172 103 276.5t277 104.5h658q20 0 20 -20v-1710z" />
<glyph unicode="&#xb7;" d="M657 497.5q0 -55.5 -41 -96.5t-96 -41t-97 41t-42 96.5t41 96.5t96 41t97 -41t42 -96.5z" />
<glyph unicode="&#xb8;" horiz-adv-x="1024" d="M666 -229q0 -94 -65.5 -152.5t-162.5 -58.5h-121q-20 0 -20 20v135q0 20 20 21h121q14 0 25.5 10t11.5 25v16q0 14 -11 25.5t-26 11.5h-82q-20 0 -20 16q0 8 16 41l105 219q6 12 18 13l41 -9l90 -20q18 -2 19 -16q0 -6 -11 -27l-32 -66q-10 -25 -11 -26q0 -8 9 -15 q86 -47 86 -147v-16z" />
<glyph unicode="&#xb9;" horiz-adv-x="686" d="M618 526q0 -12 -12 -12h-479q-12 0 -12 12v138q0 12 12 12h131q16 0 16 14v213q0 16 -16 6l-45 -37q-8 -4 -18 2l-99 91q-10 10 0 18l246 229q12 6 18 7h86q12 0 13 -15v-514q0 -14 18 -14h129q12 0 12 -12v-138z" />
<glyph unicode="&#xba;" horiz-adv-x="657" d="M606 868q0 -117 -75.5 -190.5t-200.5 -73.5q-127 0 -203 74t-76 190v179q0 117 76 190.5t203 73.5q125 0 200.5 -74t75.5 -190v-179zM422 868v179q0 39 -26.5 65.5t-65.5 26.5t-65.5 -28t-26.5 -64v-179q0 -37 26.5 -65.5t65.5 -28.5t65.5 27.5t26.5 66.5z" />
<glyph unicode="&#xbb;" horiz-adv-x="1175" d="M1077 502q0 -8 -8 -17l-442 -313q-8 -6 -17 -6q-16 0 -16 22v181q0 8 8 16l242 174q10 10 10 16q0 10 -10 17l-242 172q-8 8 -8 16v183q0 23 16 22q8 0 17 -6l442 -315q8 -8 8 -17v-145zM604 502q0 -8 -8 -17l-442 -313q-10 -6 -17 -6q-16 0 -16 22v181q0 8 8 16l240 174 q10 10 10 16.5t-10 16.5l-240 172q-8 8 -8 16v183q0 23 16 22q6 0 17 -6l442 -315q8 -8 8 -17v-145z" />
<glyph unicode="&#xbc;" horiz-adv-x="1957" d="M1688 41q0 -12 -13 -12h-92q-12 0 -12 -15v-153q0 -12 -15 -13h-157q-12 0 -13 13v153q0 14 -14 15h-332q-12 0 -12 12v127l369 512q6 6 18 6h141q14 0 15 -12v-469q0 -14 12 -15h92q12 0 13 -12v-137zM1319 1262l-535 -1250q-6 -12 -18 -12h-111q-31 0 -18 29l534 1249 q6 12 19 12h110q31 1 19 -28zM741 526q0 -12 -12 -12h-479q-12 0 -12 12v138q0 12 12 12h131q14 0 14 14v213q0 16 -14 6l-45 -37q-8 -4 -19 2l-98 91q-12 10 0 18l244 229q12 6 18 7h88q12 0 13 -15v-514q0 -14 16 -14h131q12 0 12 -12v-138zM1386 201v243q0 4 -4 4.5 t-6 -2.5l-147 -241q-8 -16 8 -17h135q14 1 14 13z" />
<glyph unicode="&#xbd;" horiz-adv-x="1957" d="M1686 457q0 -43 -18.5 -78t-37 -53.5t-62.5 -37t-62.5 -22.5t-67.5 -16q-37 -10 -53.5 -15.5t-33 -18.5t-16.5 -30v-12q0 -12 15 -12h311q14 0 14 -12v-138q0 -12 -14 -12h-506q-14 0 -14 12v107q0 74 19.5 125t59.5 78.5t69.5 40t80.5 24.5q41 8 54.5 12t38 13.5 t32.5 23t8 31.5q0 76 -84 76h-49q-53 0 -100 -76q-6 -18 -19 -8l-137 61q-10 8 -4 23q43 80 102.5 121t153.5 41h53q121 0 194 -68.5t73 -179.5zM1319 1262l-535 -1250q-6 -12 -18 -12h-111q-31 0 -18 29l534 1249q6 12 19 12h110q31 1 19 -28zM741 526q0 -12 -12 -12h-479 q-12 0 -12 12v138q0 12 12 12h131q14 0 14 14v213q0 16 -14 6l-45 -37q-8 -4 -19 2l-98 91q-12 10 0 18l244 229q12 6 18 7h88q12 0 13 -15v-514q0 -14 16 -14h131q12 0 12 -12v-138z" />
<glyph unicode="&#xbe;" horiz-adv-x="1957" d="M1688 41q0 -12 -13 -12h-92q-12 0 -12 -15v-153q0 -12 -15 -13h-157q-12 0 -13 13v153q0 14 -14 15h-332q-12 0 -12 12v127l369 512q6 6 18 6h141q14 0 15 -12v-469q0 -14 12 -15h92q12 0 13 -12v-137zM1319 1262l-535 -1250q-6 -12 -18 -12h-111q-31 0 -18 29l534 1249 q6 12 19 12h110q31 1 19 -28zM762 686q0 -117 -74 -185.5t-199 -68.5h-38q-94 0 -154.5 37t-103.5 121q-10 16 4 22l135 64q12 6 20 -8q45 -76 107 -76h30q39 0 64 23.5t25 60.5v43q0 35 -24 56.5t-65 21.5h-129q-14 0 -14 14v137q0 12 14 13h129q41 0 65 21.5t24 55.5v23 q0 35 -25 57.5t-64 22.5h-30q-63 0 -107 -74q-8 -16 -22 -8l-133 61q-14 8 -4 23q45 84 104 122t154 38h38q125 0 199 -70t74 -184v-23q0 -86 -74 -133q-10 -10 0 -16q74 -49 74 -154v-37zM1386 201v243q0 4 -4 4.5t-6 -2.5l-147 -241q-8 -16 8 -17h135q14 1 14 13z" />
<glyph unicode="&#xbf;" horiz-adv-x="972" d="M698 821.5q0 -55.5 -41 -96.5t-96 -41t-96 41t-41 96.5t41 96t96 40.5t96 -40.5t41 -96zM918 -131q0 -10 -39 -76q-106 -166 -324 -166h-74q-172 0 -276.5 100.5t-104.5 262.5q0 70 18.5 125t37 85.5t64.5 62.5t65.5 42t72.5 35q41 20 61.5 32.5t39 39t18.5 63.5 q0 29 -6 60.5t-6 33.5q0 16 20 17h195q16 0 20 -17q12 -78 13 -123q0 -82 -39 -144t-73 -83.5t-112 -60.5q-14 -8 -22 -13q-43 -23 -66.5 -38t-44 -45.5t-20.5 -71.5q0 -61 42 -104.5t103 -43.5h74q94 0 145 121q6 14 17 14q4 0 24 -10l164 -84q13 -6 13 -14z" />
<glyph unicode="&#xc0;" horiz-adv-x="921" d="M584 1444q8 -12 4 -20.5t-17 -8.5h-120q-27 0 -43 15l-273 223q-10 8 -7 20.5t17 12.5h232q20 0 37 -21zM938 16q0 -16 -23 -16h-206q-18 0 -21 14l-61 215q-2 12 -21 13h-293q-18 0 -20 -13l-62 -215q-2 -14 -20 -14h-205q-23 0 -22 16q0 4 2 9.5t4 13.5t4 14l373 1223 q2 14 20 14h148q18 0 20 -14l373 -1223q10 -31 10 -37zM557 475q0 8 -10 39l-60 240q-2 8 -11 56t-11 56h-6q-2 -8 -12.5 -56t-12.5 -56l-61 -238q-10 -37 -11 -41q0 -18 23 -18h150q22 0 22 18z" />
<glyph unicode="&#xc1;" horiz-adv-x="921" d="M788 1653l-272 -223q-16 -14 -43 -15h-121q-12 0 -16 8.5t4 20.5l170 221q16 20 37 21h231q14 0 17 -12.5t-7 -20.5zM938 16q0 -16 -23 -16h-206q-18 0 -21 14l-61 215q-2 12 -21 13h-293q-18 0 -20 -13l-62 -215q-2 -14 -20 -14h-205q-23 0 -22 16q0 4 2 9.5t4 13.5 t4 14l373 1223q2 14 20 14h148q18 0 20 -14l373 -1223q10 -31 10 -37zM557 475q0 8 -10 39l-60 240q-2 8 -11 56t-11 56h-6q-2 -8 -12.5 -56t-12.5 -56l-61 -238q-10 -37 -11 -41q0 -18 23 -18h150q22 0 22 18z" />
<glyph unicode="&#xc2;" horiz-adv-x="921" d="M711 1430q8 -10 4 -18.5t-17 -8.5h-135q-16 0 -28 18l-62 103q-10 18 -22 0l-62 -103q-12 -18 -29 -18h-135q-12 0 -16 8t4 19l188 260q8 12 25 12h72q14 0 24 -12zM938 16q0 -16 -23 -16h-206q-18 0 -21 14l-61 215q-2 12 -21 13h-293q-18 0 -20 -13l-62 -215 q-2 -14 -20 -14h-205q-23 0 -22 16q0 4 2 9.5t4 13.5t4 14l373 1223q2 14 20 14h148q18 0 20 -14l373 -1223q10 -31 10 -37zM557 475q0 8 -10 39l-60 240q-2 8 -11 56t-11 56h-6q-2 -8 -12.5 -56t-12.5 -56l-61 -238q-10 -37 -11 -41q0 -18 23 -18h150q22 0 22 18z" />
<glyph unicode="&#xc3;" horiz-adv-x="921" d="M754 1573q-76 -135 -203 -135q-37 0 -98.5 31.5t-87.5 31.5q-59 0 -95 -55q-12 -20 -30 -6l-64 45q-14 12 -6 26q76 135 197 136q43 0 102 -31t84 -31q51 0 98 57q16 18 29 9l68 -49q16 -13 6 -29zM938 16q0 -16 -23 -16h-206q-18 0 -21 14l-61 215q-2 12 -21 13h-293 q-18 0 -20 -13l-62 -215q-2 -14 -20 -14h-205q-23 0 -22 16q0 4 2 9.5t4 13.5t4 14l373 1223q2 14 20 14h148q18 0 20 -14l373 -1223q10 -31 10 -37zM557 475q0 8 -10 39l-60 240q-2 8 -11 56t-11 56h-6q-2 -8 -12.5 -56t-12.5 -56l-61 -238q-10 -37 -11 -41q0 -18 23 -18 h150q22 0 22 18z" />
<glyph unicode="&#xc4;" horiz-adv-x="921" d="M737 1546q0 -47 -32.5 -79.5t-79.5 -32.5t-81 32.5t-34 79.5t34 80t81 33t79.5 -33t32.5 -80zM412 1546q0 -47 -33 -79.5t-80 -32.5t-81 32.5t-34 79.5t34 80t81 33t80 -33t33 -80zM938 16q0 -16 -23 -16h-206q-18 0 -21 14l-61 215q-2 12 -21 13h-293q-18 0 -20 -13 l-62 -215q-2 -14 -20 -14h-205q-23 0 -22 16q0 4 2 9.5t4 13.5t4 14l373 1223q2 14 20 14h148q18 0 20 -14l373 -1223q10 -31 10 -37zM557 475q0 8 -10 39l-60 240q-2 8 -11 56t-11 56h-6q-2 -8 -12.5 -56t-12.5 -56l-61 -238q-10 -37 -11 -41q0 -18 23 -18h150q22 0 22 18z " />
<glyph unicode="&#xc5;" horiz-adv-x="921" d="M938 16q0 -16 -23 -16h-206q-18 0 -21 14l-61 215q-2 12 -21 13h-293q-18 0 -20 -13l-62 -215q-2 -14 -20 -14h-205q-23 0 -22 16q0 4 2 9.5t4 13.5t4 14l330 1080q6 23 6 32q0 14 -15 27q-59 53 -59 143v60q0 86 56.5 140t148.5 54t148.5 -54t56.5 -140v-60 q0 -90 -62 -145q-14 -12 -14 -22.5t8 -34.5l330 -1080q10 -31 10 -37zM520 1335v60q0 23 -18.5 41t-41 18t-41 -18.5t-18.5 -40.5v-60q0 -23 18.5 -40t41 -17t41 17t18.5 40zM557 475q0 8 -10 39l-60 240q-2 8 -11 56t-11 56h-6q-2 -8 -12.5 -56t-12.5 -56l-61 -238 q-10 -37 -11 -41q0 -18 23 -18h150q22 0 22 18z" />
<glyph unicode="&#xc6;" horiz-adv-x="1404" d="M1327 20q0 -20 -20 -20h-723q-20 0 -21 20v242q0 20 -20 21h-273q-14 0 -20 -9l-148 -264q-6 -10 -18 -10h-209q-23 0 -22 16q0 8 22 45l719 1219q6 10 18 10h695q20 0 20 -20v-174q0 -20 -20 -21h-488q-20 0 -20 -20v-273q0 -20 20 -20h400q20 0 20 -21v-174 q0 -20 -20 -20h-400q-20 0 -20 -21v-290q0 -20 20 -21h488q20 0 20 -20v-175zM575 852l-8 2q-25 -63 -47 -104l-112 -207q-12 -25 -13 -29q0 -16 23 -16h125q20 0 20 20v82q0 105 12 252z" />
<glyph unicode="&#xc7;" horiz-adv-x="991" d="M952 221q0 -10 -39 -76q-98 -156 -292 -165q-33 -2 -33 -31q0 -8 8 -15q86 -47 86 -147v-16q0 -94 -65.5 -152.5t-161.5 -58.5h-121q-20 0 -21 20v135q0 20 21 21h121q14 0 25.5 10t11.5 25v16q0 14 -11.5 25.5t-25.5 11.5h-82q-20 0 -21 16q0 8 17 41l30 66q8 16 9 24 q0 14 -21 19q-129 27 -203.5 122t-74.5 230v606q0 162 103 262.5t277 100.5h101q217 0 323 -166q39 -66 39 -76q0 -8 -12 -14l-164 -84q-20 -10 -24 -10q-10 0 -17 14q-51 121 -145 121h-101q-59 0 -103 -44t-44 -104v-606q0 -59 44 -103t103 -44h101q94 0 145 120 q6 14 17 15q4 0 24 -11l164 -83q12 -7 12 -15z" />
<glyph unicode="&#xc8;" horiz-adv-x="978" d="M643 1444q8 -12 4 -20.5t-16 -8.5h-121q-27 0 -43 15l-272 223q-10 8 -7.5 20.5t17.5 12.5h231q20 0 37 -21zM901 20q0 -20 -20 -20h-723q-20 0 -21 20v1250q0 20 21 20h723q20 0 20 -20v-174q0 -20 -20 -21h-488q-20 0 -20 -20v-273q0 -20 20 -20h400q20 0 20 -21v-174 q0 -20 -20 -20h-400q-20 0 -20 -21v-290q0 -20 20 -21h488q20 0 20 -20v-175z" />
<glyph unicode="&#xc9;" horiz-adv-x="978" d="M848 1653l-273 -223q-16 -14 -43 -15h-120q-12 0 -16.5 8.5t3.5 20.5l170 221q16 20 37 21h232q14 0 17 -12.5t-7 -20.5zM901 20q0 -20 -20 -20h-723q-20 0 -21 20v1250q0 20 21 20h723q20 0 20 -20v-174q0 -20 -20 -21h-488q-20 0 -20 -20v-273q0 -20 20 -20h400 q20 0 20 -21v-174q0 -20 -20 -20h-400q-20 0 -20 -21v-290q0 -20 20 -21h488q20 0 20 -20v-175z" />
<glyph unicode="&#xca;" horiz-adv-x="978" d="M770 1430q8 -10 4 -18.5t-16 -8.5h-135q-16 0 -29 18l-62 103q-12 18 -22 0l-61 -103q-12 -18 -29 -18h-135q-12 0 -16.5 8t3.5 19l189 260q10 12 24 12h72q16 0 25 -12zM901 20q0 -20 -20 -20h-723q-20 0 -21 20v1250q0 20 21 20h723q20 0 20 -20v-174q0 -20 -20 -21 h-488q-20 0 -20 -20v-273q0 -20 20 -20h400q20 0 20 -21v-174q0 -20 -20 -20h-400q-20 0 -20 -21v-290q0 -20 20 -21h488q20 0 20 -20v-175z" />
<glyph unicode="&#xcb;" horiz-adv-x="978" d="M799 1546q0 -47 -33 -79.5t-80 -32.5t-81 32.5t-34 79.5t34 80t81 33t80 -33t33 -80zM473 1546q0 -47 -32.5 -79.5t-80 -32.5t-81 32.5t-33.5 79.5t33.5 80t81 33t80 -33t32.5 -80zM901 20q0 -20 -20 -20h-723q-20 0 -21 20v1250q0 20 21 20h723q20 0 20 -20v-174 q0 -20 -20 -21h-488q-20 0 -20 -20v-273q0 -20 20 -20h400q20 0 20 -21v-174q0 -20 -20 -20h-400q-20 0 -20 -21v-290q0 -20 20 -21h488q20 0 20 -20v-175z" />
<glyph unicode="&#xcc;" horiz-adv-x="509" d="M377 1444q8 -12 4 -20.5t-16 -8.5h-121q-27 0 -43 15l-273 223q-10 8 -7 20.5t18 12.5h231q20 0 37 -21zM373 20q0 -20 -21 -20h-194q-20 0 -21 20v1250q0 20 21 20h194q20 0 21 -20v-1250z" />
<glyph unicode="&#xcd;" horiz-adv-x="509" d="M582 1653l-273 -223q-16 -14 -43 -15h-121q-12 0 -16 8.5t4 20.5l170 221q16 20 37 21h231q14 0 17.5 -12.5t-6.5 -20.5zM373 20q0 -20 -21 -20h-194q-20 0 -21 20v1250q0 20 21 20h194q20 0 21 -20v-1250z" />
<glyph unicode="&#xce;" horiz-adv-x="509" d="M504 1430q8 -10 4 -18.5t-16 -8.5h-136q-16 0 -28 18l-62 103q-12 18 -22 0l-62 -103q-12 -18 -28 -18h-136q-12 0 -16 8t4 19l189 260q10 12 24 12h72q16 0 24 -12zM373 20q0 -20 -21 -20h-194q-20 0 -21 20v1250q0 20 21 20h194q20 0 21 -20v-1250z" />
<glyph unicode="&#xcf;" horiz-adv-x="509" d="M532 1546q0 -47 -32.5 -79.5t-79.5 -32.5t-81 32.5t-34 79.5t34 80t81 33t79.5 -33t32.5 -80zM207 1546q0 -47 -33 -79.5t-80 -32.5t-80.5 32.5t-33.5 79.5t33.5 80t80.5 33t80 -33t33 -80zM373 20q0 -20 -21 -20h-194q-20 0 -21 20v1250q0 20 21 20h194q20 0 21 -20 v-1250z" />
<glyph unicode="&#xd0;" horiz-adv-x="1107" d="M999 381q0 -176 -102 -278.5t-279 -102.5h-460q-20 0 -21 20v488q0 20 -22 20h-64q-20 0 -20 21v192q0 20 20 21h64q23 0 22 22v486q0 20 21 20h460q174 0 277.5 -103.5t103.5 -277.5v-528zM766 362v566q0 59 -44 103t-104 44h-225q-20 0 -20 -20v-273q0 -20 22 -20h156 q20 0 20 -21v-192q0 -20 -20 -21h-156q-23 0 -22 -22v-270q0 -20 20 -21h225q61 0 104.5 43t43.5 104z" />
<glyph unicode="&#xd1;" horiz-adv-x="1126" d="M850 1573q-76 -135 -203 -135q-37 0 -98.5 31.5t-87.5 31.5q-59 0 -94 -55q-12 -20 -31 -6l-64 45q-14 12 -6 26q76 135 197 136q45 0 102.5 -31t83.5 -31q51 0 99 57q16 18 28 9l68 -49q16 -13 6 -29zM987 20q0 -20 -20 -20h-170q-12 0 -19 10l-366 668q-10 20 -43 104 l-9 -2q12 -147 13 -506v-254q0 -20 -21 -20h-194q-20 0 -21 20v1250q0 20 21 20h172q12 0 18 -10l367 -672q10 -20 43 -104l8 2q-12 147 -12 506v258q0 20 20 20h193q20 0 20 -20v-1250z" />
<glyph unicode="&#xd2;" horiz-adv-x="1079" d="M662 1444q8 -12 4 -20.5t-17 -8.5h-121q-27 0 -43 15l-272 223q-10 8 -7 20.5t17 12.5h232q20 0 37 -21zM971 342q0 -162 -104.5 -262t-276.5 -100h-101q-174 0 -277 100t-103 262v606q0 162 103 262.5t277 100.5h101q172 0 276.5 -100.5t104.5 -262.5v-606zM735 342v606 q0 61 -42 104.5t-103 43.5h-101q-59 0 -103 -44t-44 -104v-606q0 -59 44 -103t103 -44h101q61 0 103 43t42 104z" />
<glyph unicode="&#xd3;" horiz-adv-x="1079" d="M866 1653l-272 -223q-16 -14 -43 -15h-121q-12 0 -16 8.5t4 20.5l170 221q16 20 37 21h231q14 0 17 -12.5t-7 -20.5zM971 342q0 -162 -104.5 -262t-276.5 -100h-101q-174 0 -277 100t-103 262v606q0 162 103 262.5t277 100.5h101q172 0 276.5 -100.5t104.5 -262.5v-606z M735 342v606q0 61 -42 104.5t-103 43.5h-101q-59 0 -103 -44t-44 -104v-606q0 -59 44 -103t103 -44h101q61 0 103 43t42 104z" />
<glyph unicode="&#xd4;" horiz-adv-x="1079" d="M788 1430q8 -10 4 -18.5t-16 -8.5h-135q-16 0 -29 18l-61 103q-10 18 -23 0l-61 -103q-12 -18 -29 -18h-135q-12 0 -16 8t4 19l188 260q8 12 25 12h71q14 0 25 -12zM971 342q0 -162 -104.5 -262t-276.5 -100h-101q-174 0 -277 100t-103 262v606q0 162 103 262.5 t277 100.5h101q172 0 276.5 -100.5t104.5 -262.5v-606zM735 342v606q0 61 -42 104.5t-103 43.5h-101q-59 0 -103 -44t-44 -104v-606q0 -59 44 -103t103 -44h101q61 0 103 43t42 104z" />
<glyph unicode="&#xd5;" horiz-adv-x="1079" d="M831 1573q-76 -135 -202 -135q-37 0 -98.5 31.5t-88.5 31.5q-59 0 -94 -55q-12 -20 -31 -6l-63 45q-14 12 -6 26q76 135 196 136q43 0 102.5 -31t84.5 -31q51 0 98 57q16 18 29 9l67 -49q16 -13 6 -29zM971 342q0 -162 -104.5 -262t-276.5 -100h-101q-174 0 -277 100 t-103 262v606q0 162 103 262.5t277 100.5h101q172 0 276.5 -100.5t104.5 -262.5v-606zM735 342v606q0 61 -42 104.5t-103 43.5h-101q-59 0 -103 -44t-44 -104v-606q0 -59 44 -103t103 -44h101q61 0 103 43t42 104z" />
<glyph unicode="&#xd6;" horiz-adv-x="1079" d="M817 1546q0 -47 -32.5 -79.5t-80 -32.5t-81 32.5t-33.5 79.5t33.5 80t81 33t80 -33t32.5 -80zM492 1546q0 -47 -33 -79.5t-80 -32.5t-81 32.5t-34 79.5t34 80t81 33t80 -33t33 -80zM971 342q0 -162 -104.5 -262t-276.5 -100h-101q-174 0 -277 100t-103 262v606 q0 162 103 262.5t277 100.5h101q172 0 276.5 -100.5t104.5 -262.5v-606zM735 342v606q0 61 -42 104.5t-103 43.5h-101q-59 0 -103 -44t-44 -104v-606q0 -59 44 -103t103 -44h101q61 0 103 43t42 104z" />
<glyph unicode="&#xd7;" d="M907 207l-96 -94q-14 -14 -29 0l-247 247q-14 14 -29 0l-248 -249q-16 -16 -31 0l-94 96q-14 14 0 29l248 247q16 16 0 31l-248 248q-14 14 0 29l94 96q14 14 31 0l248 -250q14 -14 29 0l247 248q14 14 29 0l96 -94q14 -16 0 -31l-248 -246q-16 -14 0 -31l248 -245 q14 -17 0 -31z" />
<glyph unicode="&#xd8;" horiz-adv-x="1079" d="M971 342q0 -162 -104.5 -262t-276.5 -100h-101q-174 0 -277 100t-103 262v606q0 162 103 262.5t277 100.5h101q172 0 276.5 -100.5t104.5 -262.5v-606zM647 1067q0 16 -14 20q-29 8 -43 9h-101q-59 0 -103 -44t-44 -104v-434q0 -18 14 -18q8 0 15 10l272 547q4 12 4 14z M735 342v535q0 16 -12 16q-10 0 -14 -10l-306 -613q-8 -20 -8 -26q0 -14 13 -23q39 -27 81 -26h101q61 0 103 43t42 104z" />
<glyph unicode="&#xd9;" horiz-adv-x="1079" d="M662 1444q8 -12 4 -20.5t-17 -8.5h-121q-27 0 -43 15l-272 223q-10 8 -7 20.5t17 12.5h232q20 0 37 -21zM971 342q0 -162 -104.5 -262t-276.5 -100h-101q-174 0 -277 100t-103 262v928q0 20 20 20h193q20 0 20 -20v-928q0 -59 44 -103t103 -44h101q61 0 103 43t42 104 v928q0 20 21 20h194q20 0 21 -20v-928z" />
<glyph unicode="&#xda;" horiz-adv-x="1079" d="M866 1653l-272 -223q-16 -14 -43 -15h-121q-12 0 -16 8.5t4 20.5l170 221q16 20 37 21h231q14 0 17 -12.5t-7 -20.5zM971 342q0 -162 -104.5 -262t-276.5 -100h-101q-174 0 -277 100t-103 262v928q0 20 20 20h193q20 0 20 -20v-928q0 -59 44 -103t103 -44h101 q61 0 103 43t42 104v928q0 20 21 20h194q20 0 21 -20v-928z" />
<glyph unicode="&#xdb;" horiz-adv-x="1079" d="M788 1430q8 -10 4 -18.5t-16 -8.5h-135q-16 0 -29 18l-61 103q-10 18 -23 0l-61 -103q-12 -18 -29 -18h-135q-12 0 -16 8t4 19l188 260q8 12 25 12h71q14 0 25 -12zM971 342q0 -162 -104.5 -262t-276.5 -100h-101q-174 0 -277 100t-103 262v928q0 20 20 20h193 q20 0 20 -20v-928q0 -59 44 -103t103 -44h101q61 0 103 43t42 104v928q0 20 21 20h194q20 0 21 -20v-928z" />
<glyph unicode="&#xdc;" horiz-adv-x="1079" d="M817 1546q0 -47 -32.5 -79.5t-80 -32.5t-81 32.5t-33.5 79.5t33.5 80t81 33t80 -33t32.5 -80zM492 1546q0 -47 -33 -79.5t-80 -32.5t-81 32.5t-34 79.5t34 80t81 33t80 -33t33 -80zM971 342q0 -162 -104.5 -262t-276.5 -100h-101q-174 0 -277 100t-103 262v928 q0 20 20 20h193q20 0 20 -20v-928q0 -59 44 -103t103 -44h101q61 0 103 43t42 104v928q0 20 21 20h194q20 0 21 -20v-928z" />
<glyph unicode="&#xdd;" horiz-adv-x="921" d="M860 1653l-272 -223q-16 -14 -43 -15h-121q-12 0 -16.5 8.5t4.5 20.5l170 221q16 20 36 21h232q14 0 17 -12.5t-7 -20.5zM940 1274q0 -4 -14 -33l-334 -625q-14 -29 -14 -57v-539q0 -20 -21 -20h-195q-20 0 -20 20v541q0 27 -14 55l-334 625q-14 25 -14 33q0 16 22 16 h227q10 0 19 -12l194 -401q6 -16 18.5 -16.5t18.5 16.5l195 401q8 12 18 12h226q22 0 22 -16z" />
<glyph unicode="&#xde;" horiz-adv-x="989" d="M958 664q0 -156 -104 -259.5t-276 -103.5h-185q-20 0 -20 -20v-261q0 -20 -21 -20h-194q-20 0 -21 20v1250q0 20 21 20h194q20 0 21 -20v-203q0 -23 22 -23h183q174 0 277 -104t103 -276zM725 664v18q0 59 -44 103t-103 44h-185q-20 0 -20 -20v-272q0 -20 20 -21h185 q59 0 103 44.5t44 103.5z" />
<glyph unicode="&#xdf;" horiz-adv-x="1005" d="M909 358q0 -270 -243 -352q-80 -27 -148 -26q-20 0 -20 20v176q0 20 18 21q78 6 118 46t40 99v59q0 59 -40 98.5t-118 45.5q-18 0 -18 20v178q0 20 18 21q78 6 118 46t40 99v39q0 61 -42 104.5t-104 43.5q-66 0 -106.5 -43t-40.5 -105v-928q0 -20 -21 -20h-192 q-20 0 -21 20v594q0 20 -20 21h-47q-20 0 -21 20v174q0 20 21 21h47q20 0 20 20v58q0 158 113 270.5t268 112.5q174 0 277.5 -104.5t103.5 -278.5v-39q0 -55 -31.5 -116.5t-76.5 -104.5q-8 -6 -8 -15q0 -6 8 -14q45 -45 76.5 -110.5t31.5 -120.5v-50z" />
<glyph unicode="&#xe0;" horiz-adv-x="952" d="M623 1067q0 -16 -21 -16h-139q-14 0 -33 14l-291 287q-14 14 -14 24q0 16 22 17h250q18 0 29 -17l184 -282q13 -21 13 -27zM836 20q0 -20 -21 -20h-174q-20 0 -20 16q0 27 -15 27q-8 0 -18 -6q-68 -37 -125 -37h-78q-123 0 -206 77t-83 197v11q0 123 82 198.5t207 75.5 h197q20 0 20 21v24q0 59 -43 99t-106 40q-82 0 -150 -116q-6 -12 -16 -13q-4 0 -25 11l-156 82q-12 6 -12 14q0 16 43 82q104 156 316 155q174 0 278.5 -99t104.5 -261v-578zM602 330v32h-217q-23 0 -39 -17t-16 -40v-31q0 -25 15 -42t40 -17h78q49 0 90 35t49 80z" />
<glyph unicode="&#xe1;" horiz-adv-x="952" d="M825 1376q0 -10 -14 -24l-291 -287q-18 -14 -33 -14h-139q-20 0 -20 16q0 6 12 27l184 282q10 16 29 17h250q22 -1 22 -17zM836 20q0 -20 -21 -20h-174q-20 0 -20 16q0 27 -15 27q-8 0 -18 -6q-68 -37 -125 -37h-78q-123 0 -206 77t-83 197v11q0 123 82 198.5t207 75.5 h197q20 0 20 21v24q0 59 -43 99t-106 40q-82 0 -150 -116q-6 -12 -16 -13q-4 0 -25 11l-156 82q-12 6 -12 14q0 16 43 82q104 156 316 155q174 0 278.5 -99t104.5 -261v-578zM602 330v32h-217q-23 0 -39 -17t-16 -40v-31q0 -25 15 -42t40 -17h78q49 0 90 35t49 80z" />
<glyph unicode="&#xe2;" horiz-adv-x="952" d="M764 1067q0 -16 -23 -16h-166q-10 0 -16 10l-67 104q-6 12 -17 13q-8 0 -14 -13l-66 -104q-6 -10 -16 -10h-166q-23 0 -23 16q0 6 7 16l213 301q8 8 16 9h100q8 0 17 -9l215 -301q6 -10 6 -16zM836 20q0 -20 -21 -20h-174q-20 0 -20 16q0 27 -15 27q-8 0 -18 -6 q-68 -37 -125 -37h-78q-123 0 -206 77t-83 197v11q0 123 82 198.5t207 75.5h197q20 0 20 21v24q0 59 -43 99t-106 40q-82 0 -150 -116q-6 -12 -16 -13q-4 0 -25 11l-156 82q-12 6 -12 14q0 16 43 82q104 156 316 155q174 0 278.5 -99t104.5 -261v-578zM602 330v32h-217 q-23 0 -39 -17t-16 -40v-31q0 -25 15 -42t40 -17h78q49 0 90 35t49 80z" />
<glyph unicode="&#xe3;" horiz-adv-x="952" d="M788 1257q0 -12 -36 -69q-78 -113 -172 -113q-45 0 -142 60l-37 22q-33 20 -53 21q-41 0 -84 -64q-6 -12 -16 -12q-6 0 -29 18l-69 51q-8 6 -9 17q0 12 29 57q76 119 178 119q63 0 139 -53l35 -25q31 -23 58 -22q45 0 88 69q6 12 16 13q6 0 23 -13l73 -59q8 -7 8 -17z M836 20q0 -20 -21 -20h-174q-20 0 -20 16q0 27 -15 27q-8 0 -18 -6q-68 -37 -125 -37h-78q-123 0 -206 77t-83 197v11q0 123 82 198.5t207 75.5h197q20 0 20 21v24q0 59 -43 99t-106 40q-82 0 -150 -116q-6 -12 -16 -13q-4 0 -25 11l-156 82q-12 6 -12 14q0 16 43 82 q104 156 316 155q174 0 278.5 -99t104.5 -261v-578zM602 330v32h-217q-23 0 -39 -17t-16 -40v-31q0 -25 15 -42t40 -17h78q49 0 90 35t49 80z" />
<glyph unicode="&#xe4;" horiz-adv-x="952" d="M776 1216.5q0 -53.5 -37 -90t-90 -36.5t-90 36.5t-37 90t37 90t90 36.5t90 -36.5t37 -90zM430 1216.5q0 -53.5 -37 -90t-90 -36.5t-90 36.5t-37 90t37 90t90 36.5t90 -36.5t37 -90zM836 20q0 -20 -21 -20h-174q-20 0 -20 16q0 27 -15 27q-8 0 -18 -6q-68 -37 -125 -37 h-78q-123 0 -206 77t-83 197v11q0 123 82 198.5t207 75.5h197q20 0 20 21v24q0 59 -43 99t-106 40q-82 0 -150 -116q-6 -12 -16 -13q-4 0 -25 11l-156 82q-12 6 -12 14q0 16 43 82q104 156 316 155q174 0 278.5 -99t104.5 -261v-578zM602 330v32h-217q-23 0 -39 -17t-16 -40 v-31q0 -25 15 -42t40 -17h78q49 0 90 35t49 80z" />
<glyph unicode="&#xe5;" horiz-adv-x="952" d="M680 1245q0 -86 -56.5 -140t-148.5 -54t-148.5 54t-56.5 140v60q0 86 56.5 140t148.5 54t148.5 -54t56.5 -140v-60zM836 20q0 -20 -21 -20h-174q-20 0 -20 16q0 27 -15 27q-8 0 -18 -6q-68 -37 -125 -37h-78q-123 0 -206 77t-83 197v11q0 123 82 198.5t207 75.5h197 q20 0 20 21v24q0 59 -43 99t-106 40q-82 0 -150 -116q-6 -12 -16 -13q-4 0 -25 11l-156 82q-12 6 -12 14q0 16 43 82q104 156 316 155q174 0 278.5 -99t104.5 -261v-578zM535 1245v60q0 23 -18.5 41t-41 18t-41 -18.5t-18.5 -40.5v-60q0 -23 18.5 -40t41 -17t41 17t18.5 40z M602 330v32h-217q-23 0 -39 -17t-16 -40v-31q0 -25 15 -42t40 -17h78q49 0 90 35t49 80z" />
<glyph unicode="&#xe6;" horiz-adv-x="1472" d="M1384 430q0 -20 -20 -20h-487q-20 0 -21 -21v-47q0 -61 43 -104t105 -43q94 0 145 120q6 12 16 13q6 0 35 -15l154 -75q12 -6 12 -17q0 -12 -31 -61q-109 -180 -331 -180q-174 0 -275 100q-8 8 -14 8q-8 0 -15 -8q-43 -45 -105.5 -72.5t-109.5 -27.5h-96 q-127 0 -211 76.5t-84 197.5v39q0 121 84 197.5t211 76.5h213q20 0 21 21v4q0 61 -42 104t-104 43q-98 0 -145 -118q-6 -12 -16.5 -12.5t-26.5 9.5l-160 80q-12 6 -12 17q0 14 33 67q109 172 327 172q143 0 244 -73q20 -14 24 -15q10 0 25 15q100 78 234 77 q166 0 273 -112.5t107 -249.5v-166zM1147 625q0 31 -38 74.5t-105 43.5q-66 0 -106 -44t-40 -74q0 -18 23 -19h243q23 1 23 19zM623 309v47q0 16 -21 17h-213q-25 0 -42 -17.5t-17 -42.5v-59q0 -25 17.5 -42t41.5 -17h96q43 0 81.5 34.5t56.5 79.5z" />
<glyph unicode="&#xe7;" horiz-adv-x="878" d="M834 221q0 -12 -31 -61q-98 -160 -281 -178q0 -2 -2 -7q-10 -25 -10 -26q0 -8 8 -15q86 -47 86 -147v-16q0 -94 -65.5 -152.5t-161.5 -58.5h-121q-20 0 -20 20v135q0 20 20 21h121q14 0 25.5 10t11.5 25v16q0 14 -11.5 25.5t-25.5 11.5h-82q-20 0 -21 16q0 8 17 41 l55 115q-121 33 -189.5 125t-68.5 221v254q0 162 104.5 262t278.5 100q223 0 332 -180q31 -49 31 -61q0 -10 -13 -17l-153 -75q-29 -14 -35 -15q-10 0 -17 13q-51 121 -145 120q-61 0 -104 -43t-43 -104v-254q0 -61 43 -104t104 -43q94 0 145 120q6 12 17 13q6 0 35 -15 l153 -75q13 -7 13 -17z" />
<glyph unicode="&#xe8;" horiz-adv-x="940" d="M618 1067q0 -16 -20 -16h-139q-14 0 -33 14l-291 287q-14 14 -14 24q0 16 22 17h250q18 0 29 -17l184 -282q12 -21 12 -27zM852 430q0 -20 -21 -20h-487q-20 0 -20 -21v-47q0 -61 43 -104t104 -43q94 0 145 120q6 12 17 13q6 0 35 -15l153 -75q12 -6 13 -17 q0 -12 -31 -61q-109 -180 -332 -180q-174 0 -278.5 100t-104.5 262v254q0 137 108.5 249.5t274.5 112.5t273.5 -112.5t107.5 -249.5v-166zM614 625q0 31 -37.5 74.5t-105.5 43.5q-66 0 -105.5 -44t-39.5 -74q0 -18 22 -19h244q22 1 22 19z" />
<glyph unicode="&#xe9;" horiz-adv-x="940" d="M821 1376q0 -10 -14 -24l-291 -287q-18 -14 -33 -14h-139q-20 0 -20 16q0 6 12 27l184 282q10 16 29 17h250q22 -1 22 -17zM852 430q0 -20 -21 -20h-487q-20 0 -20 -21v-47q0 -61 43 -104t104 -43q94 0 145 120q6 12 17 13q6 0 35 -15l153 -75q12 -6 13 -17 q0 -12 -31 -61q-109 -180 -332 -180q-174 0 -278.5 100t-104.5 262v254q0 137 108.5 249.5t274.5 112.5t273.5 -112.5t107.5 -249.5v-166zM614 625q0 31 -37.5 74.5t-105.5 43.5q-66 0 -105.5 -44t-39.5 -74q0 -18 22 -19h244q22 1 22 19z" />
<glyph unicode="&#xea;" horiz-adv-x="940" d="M760 1067q0 -16 -23 -16h-166q-10 0 -16 10l-68 104q-6 12 -16 13q-8 0 -14 -13l-66 -104q-6 -10 -16 -10h-166q-23 0 -23 16q0 6 7 16l213 301q8 8 16 9h100q8 0 17 -9l215 -301q6 -10 6 -16zM852 430q0 -20 -21 -20h-487q-20 0 -20 -21v-47q0 -61 43 -104t104 -43 q94 0 145 120q6 12 17 13q6 0 35 -15l153 -75q12 -6 13 -17q0 -12 -31 -61q-109 -180 -332 -180q-174 0 -278.5 100t-104.5 262v254q0 137 108.5 249.5t274.5 112.5t273.5 -112.5t107.5 -249.5v-166zM614 625q0 31 -37.5 74.5t-105.5 43.5q-66 0 -105.5 -44t-39.5 -74 q0 -18 22 -19h244q22 1 22 19z" />
<glyph unicode="&#xeb;" horiz-adv-x="940" d="M772 1216.5q0 -53.5 -37 -90t-90 -36.5t-90 36.5t-37 90t37 90t90 36.5t90 -36.5t37 -90zM426 1216.5q0 -53.5 -37 -90t-90 -36.5t-90 36.5t-37 90t37 90t90 36.5t90 -36.5t37 -90zM852 430q0 -20 -21 -20h-487q-20 0 -20 -21v-47q0 -61 43 -104t104 -43q94 0 145 120 q6 12 17 13q6 0 35 -15l153 -75q12 -6 13 -17q0 -12 -31 -61q-109 -180 -332 -180q-174 0 -278.5 100t-104.5 262v254q0 137 108.5 249.5t274.5 112.5t273.5 -112.5t107.5 -249.5v-166zM614 625q0 31 -37.5 74.5t-105.5 43.5q-66 0 -105.5 -44t-39.5 -74q0 -18 22 -19h244 q22 1 22 19z" />
<glyph unicode="&#xec;" horiz-adv-x="471" d="M381 1067q0 -16 -21 -16h-139q-14 0 -33 14l-290 287q-14 14 -15 24q0 16 23 17h250q18 0 28 -17l185 -282q12 -21 12 -27zM352 20q0 -20 -20 -20h-193q-20 0 -20 20v898q0 20 20 20h193q20 0 20 -20v-898z" />
<glyph unicode="&#xed;" horiz-adv-x="471" d="M584 1376q0 -10 -15 -24l-290 -287q-18 -14 -33 -14h-140q-20 0 -20 16q0 6 12 27l185 282q10 16 28 17h250q23 -1 23 -17zM352 20q0 -20 -20 -20h-193q-20 0 -20 20v898q0 20 20 20h193q20 0 20 -20v-898z" />
<glyph unicode="&#xee;" horiz-adv-x="471" d="M522 1067q0 -16 -22 -16h-166q-10 0 -17 10l-67 104q-6 12 -17 13q-8 0 -14 -13l-65 -104q-6 -10 -17 -10h-166q-23 0 -22 16q0 6 6 16l213 301q8 8 16 9h101q8 0 16 -9l215 -301q6 -10 6 -16zM352 20q0 -20 -20 -20h-193q-20 0 -20 20v898q0 20 20 20h193q20 0 20 -20 v-898z" />
<glyph unicode="&#xef;" horiz-adv-x="471" d="M535 1216.5q0 -53.5 -37 -90t-90.5 -36.5t-90 36.5t-36.5 90t36.5 90t90 36.5t90.5 -36.5t37 -90zM188 1216.5q0 -53.5 -36.5 -90t-90 -36.5t-90.5 36.5t-37 90t37 90t90.5 36.5t90 -36.5t36.5 -90zM352 20q0 -20 -20 -20h-193q-20 0 -20 20v898q0 20 20 20h193 q20 0 20 -20v-898z" />
<glyph unicode="&#xf0;" horiz-adv-x="940" d="M852 342q0 -162 -104.5 -262t-276.5 -100q-174 0 -278.5 100t-104.5 262v254q0 141 82 237.5t223 118.5l-78 78l-198 -78q-10 -4 -19.5 -1t-9.5 12v69q0 29 12 33l129 51l-145 148q-8 10 -1 18t21 8h207q6 0 21 -14l86 -86l219 86q8 4 18.5 0t10.5 -12v-76q0 -20 -17 -27 l-147 -57l280 -277q70 -92 70 -231v-254zM616 342v254q0 61 -42 104t-103 43t-104 -43t-43 -104v-254q0 -61 43 -104t104 -43t103 43t42 104z" />
<glyph unicode="&#xf1;" horiz-adv-x="999" d="M827 1257q0 -12 -36 -69q-78 -113 -173 -113q-45 0 -141 60l-37 22q-33 20 -53 21q-41 0 -84 -64q-6 -12 -16 -12q-6 0 -29 18l-70 51q-8 6 -8 17q0 12 29 57q76 119 178 119q63 0 139 -53l35 -25q31 -23 57 -22q45 0 89 69q6 12 16 13q6 0 22 -13l74 -59q8 -7 8 -17z M881 20q0 -20 -21 -20h-194q-20 0 -21 20v558q0 61 -42 103t-103.5 42t-104.5 -42t-43 -103v-558q0 -20 -20 -20h-193q-20 0 -20 20v898q0 20 20 20h174q20 0 21 -18q0 -23 16 -23q2 0 15 4q70 37 135 37q172 0 276.5 -99.5t104.5 -260.5v-558z" />
<glyph unicode="&#xf2;" horiz-adv-x="940" d="M623 1067q0 -16 -21 -16h-139q-14 0 -33 14l-291 287q-14 14 -14 24q0 16 22 17h250q18 0 29 -17l184 -282q13 -21 13 -27zM852 342q0 -162 -104.5 -262t-276.5 -100q-174 0 -278.5 100t-104.5 262v254q0 162 104.5 262t278.5 100q172 0 276.5 -100t104.5 -262v-254z M616 342v254q0 61 -42 104t-103 43t-104 -43t-43 -104v-254q0 -61 43 -104t104 -43t103 43t42 104z" />
<glyph unicode="&#xf3;" horiz-adv-x="940" d="M825 1376q0 -10 -14 -24l-291 -287q-18 -14 -33 -14h-139q-20 0 -20 16q0 6 12 27l184 282q10 16 29 17h250q22 -1 22 -17zM852 342q0 -162 -104.5 -262t-276.5 -100q-174 0 -278.5 100t-104.5 262v254q0 162 104.5 262t278.5 100q172 0 276.5 -100t104.5 -262v-254z M616 342v254q0 61 -42 104t-103 43t-104 -43t-43 -104v-254q0 -61 43 -104t104 -43t103 43t42 104z" />
<glyph unicode="&#xf4;" horiz-adv-x="940" d="M764 1067q0 -16 -23 -16h-166q-10 0 -16 10l-67 104q-6 12 -17 13q-8 0 -14 -13l-66 -104q-6 -10 -16 -10h-166q-23 0 -23 16q0 6 7 16l213 301q8 8 16 9h100q8 0 17 -9l215 -301q6 -10 6 -16zM852 342q0 -162 -104.5 -262t-276.5 -100q-174 0 -278.5 100t-104.5 262v254 q0 162 104.5 262t278.5 100q172 0 276.5 -100t104.5 -262v-254zM616 342v254q0 61 -42 104t-103 43t-104 -43t-43 -104v-254q0 -61 43 -104t104 -43t103 43t42 104z" />
<glyph unicode="&#xf5;" horiz-adv-x="940" d="M788 1257q0 -12 -36 -69q-78 -113 -172 -113q-45 0 -142 60l-37 22q-33 20 -53 21q-41 0 -84 -64q-6 -12 -16 -12q-6 0 -29 18l-69 51q-8 6 -9 17q0 12 29 57q76 119 178 119q63 0 139 -53l35 -25q31 -23 58 -22q45 0 88 69q6 12 16 13q6 0 23 -13l73 -59q8 -7 8 -17z M852 342q0 -162 -104.5 -262t-276.5 -100q-174 0 -278.5 100t-104.5 262v254q0 162 104.5 262t278.5 100q172 0 276.5 -100t104.5 -262v-254zM616 342v254q0 61 -42 104t-103 43t-104 -43t-43 -104v-254q0 -61 43 -104t104 -43t103 43t42 104z" />
<glyph unicode="&#xf6;" horiz-adv-x="940" d="M776 1216.5q0 -53.5 -37 -90t-90 -36.5t-90 36.5t-37 90t37 90t90 36.5t90 -36.5t37 -90zM430 1216.5q0 -53.5 -37 -90t-90 -36.5t-90 36.5t-37 90t37 90t90 36.5t90 -36.5t37 -90zM852 342q0 -162 -104.5 -262t-276.5 -100q-174 0 -278.5 100t-104.5 262v254 q0 162 104.5 262t278.5 100q172 0 276.5 -100t104.5 -262v-254zM616 342v254q0 61 -42 104t-103 43t-104 -43t-43 -104v-254q0 -61 43 -104t104 -43t103 43t42 104z" />
<glyph unicode="&#xf7;" d="M657 823.5q0 -55.5 -41 -96.5t-96 -41t-97 41t-42 96.5t41 96.5t96 41t97 -41t42 -96.5zM958 430q0 -20 -20 -20h-838q-20 0 -20 20v135q0 20 20 21h838q20 0 20 -21v-135zM657 170q0 -55 -41 -96t-96 -41t-97 41t-42 96t41 96t96 41t96 -41t41 -96h2z" />
<glyph unicode="&#xf8;" horiz-adv-x="940" d="M852 342q0 -162 -104.5 -262t-276.5 -100q-174 0 -278.5 100t-104.5 262v254q0 162 104.5 262t278.5 100q172 0 276.5 -100t104.5 -262v-254zM489 725q0 18 -18 18q-61 0 -104 -43t-43 -104v-199q0 -16 8 -16q6 0 12 12l141 316q4 12 4 16zM616 342v246q0 18 -12 18 q-8 0 -14 -14l-160 -356q-4 -6 -4 -19q0 -16 18 -20q8 -2 27 -2q61 0 103 43t42 104z" />
<glyph unicode="&#xf9;" horiz-adv-x="978" d="M625 1067q0 -16 -21 -16h-139q-14 0 -33 14l-291 287q-14 14 -14 24q0 16 23 17h249q18 0 29 -17l184 -282q13 -21 13 -27zM860 20q0 -20 -20 -20h-174q-20 0 -21 18q0 23 -16 23q-2 0 -15 -4q-70 -37 -135 -37q-172 0 -276.5 100.5t-104.5 261.5v556q0 20 21 20h194 q20 0 21 -20v-556q0 -63 42 -105t103.5 -42t104.5 43t43 104v556q0 20 20 20h193q20 0 20 -20v-898z" />
<glyph unicode="&#xfa;" horiz-adv-x="978" d="M827 1376q0 -10 -14 -24l-291 -287q-18 -14 -33 -14h-139q-20 0 -20 16q0 6 12 27l184 282q10 16 29 17h250q22 -1 22 -17zM860 20q0 -20 -20 -20h-174q-20 0 -21 18q0 23 -16 23q-2 0 -15 -4q-70 -37 -135 -37q-172 0 -276.5 100.5t-104.5 261.5v556q0 20 21 20h194 q20 0 21 -20v-556q0 -63 42 -105t103.5 -42t104.5 43t43 104v556q0 20 20 20h193q20 0 20 -20v-898z" />
<glyph unicode="&#xfb;" horiz-adv-x="978" d="M766 1067q0 -16 -23 -16h-165q-10 0 -17 10l-67 104q-6 12 -17 13q-8 0 -14 -13l-66 -104q-6 -10 -16 -10h-166q-23 0 -22 16q0 6 6 16l213 301q8 8 16 9h100q8 0 17 -9l215 -301q6 -10 6 -16zM860 20q0 -20 -20 -20h-174q-20 0 -21 18q0 23 -16 23q-2 0 -15 -4 q-70 -37 -135 -37q-172 0 -276.5 100.5t-104.5 261.5v556q0 20 21 20h194q20 0 21 -20v-556q0 -63 42 -105t103.5 -42t104.5 43t43 104v556q0 20 20 20h193q20 0 20 -20v-898z" />
<glyph unicode="&#xfc;" horiz-adv-x="978" d="M778 1216.5q0 -53.5 -36.5 -90t-90 -36.5t-90.5 36.5t-37 90t37 90t90.5 36.5t90 -36.5t36.5 -90zM432 1216.5q0 -53.5 -37 -90t-90 -36.5t-90 36.5t-37 90t37 90t90 36.5t90 -36.5t37 -90zM860 20q0 -20 -20 -20h-174q-20 0 -21 18q0 23 -16 23q-2 0 -15 -4 q-70 -37 -135 -37q-172 0 -276.5 100.5t-104.5 261.5v556q0 20 21 20h194q20 0 21 -20v-556q0 -63 42 -105t103.5 -42t104.5 43t43 104v556q0 20 20 20h193q20 0 20 -20v-898z" />
<glyph unicode="&#xfd;" horiz-adv-x="978" d="M827 1376q0 -10 -14 -24l-291 -287q-18 -14 -33 -14h-139q-20 0 -20 16q0 6 12 27l184 282q10 16 29 17h250q22 -1 22 -17zM860 -100q0 -170 -99 -275.5t-282 -105.5q-209 0 -313 149q-47 66 -47 90q0 10 12 17l164 82q14 8 22 8q10 0 17 -12q47 -119 145 -119 q59 0 103.5 44t44.5 103v127q0 23 -15 23q-6 0 -14 -4q-55 -27 -119 -27q-172 0 -276.5 100.5t-104.5 261.5v556q0 20 21 20h194q20 0 21 -20v-556q0 -63 42 -105t103.5 -42t104.5 43t43 104v556q0 20 20 20h193q20 0 20 -20v-1018z" />
<glyph unicode="&#xfe;" horiz-adv-x="968" d="M881 362q0 -158 -104.5 -260t-258.5 -102q-66 0 -135 37q-12 4 -14 4q-16 0 -17 -23v-458q0 -20 -20 -21h-193q-20 0 -20 21v1710q0 20 20 20h174q20 0 21 -18v-352q0 -23 16 -23q2 0 15 4q70 37 135 37q172 0 276.5 -99.5t104.5 -260.5v-216zM645 362v216q0 61 -42 103 t-103.5 42t-104.5 -42t-43 -103v-216q0 -61 43 -104t104.5 -43t103.5 42t42 105z" />
<glyph unicode="&#xff;" horiz-adv-x="978" d="M778 1216.5q0 -53.5 -36.5 -90t-90 -36.5t-90.5 36.5t-37 90t37 90t90.5 36.5t90 -36.5t36.5 -90zM432 1216.5q0 -53.5 -37 -90t-90 -36.5t-90 36.5t-37 90t37 90t90 36.5t90 -36.5t37 -90zM860 -100q0 -170 -99 -275.5t-282 -105.5q-209 0 -313 149q-47 66 -47 90 q0 10 12 17l164 82q14 8 22 8q10 0 17 -12q47 -119 145 -119q59 0 103.5 44t44.5 103v127q0 23 -15 23q-6 0 -14 -4q-55 -27 -119 -27q-172 0 -276.5 100.5t-104.5 261.5v556q0 20 21 20h194q20 0 21 -20v-556q0 -63 42 -105t103.5 -42t104.5 43t43 104v556q0 20 20 20h193 q20 0 20 -20v-1018z" />
<glyph unicode="&#x152;" horiz-adv-x="1536" d="M1458 20q0 -20 -20 -20h-762q-61 -20 -127 -20h-60q-174 0 -277 100t-103 262v606q0 162 103 262.5t277 100.5h60q70 0 131 -21h758q20 0 20 -20v-174q0 -20 -20 -21h-500q-23 0 -23 -16q0 -4 3.5 -16.5t7.5 -37t4 -57.5v-166q0 -20 20 -20h400q20 0 20 -21v-174 q0 -20 -20 -20h-400q-20 0 -20 -21v-184q0 -31 -4 -55.5t-7.5 -37.5t-3.5 -18q0 -16 23 -16h500q20 0 20 -20v-175zM694 342v606q0 61 -42 104.5t-103 43.5h-60q-59 0 -103 -44t-44 -104v-606q0 -59 44 -103t103 -44h60q61 0 103 43t42 104z" />
<glyph unicode="&#x153;" horiz-adv-x="1466" d="M1378 430q0 -20 -20 -20h-488q-20 0 -20 -21v-47q0 -61 43 -104t104 -43q94 0 146 120q6 12 16 13q6 0 35 -15l154 -75q12 -6 12 -17q0 -12 -31 -61q-109 -180 -332 -180q-141 0 -235 65q-23 16 -29 16t-28 -16q-94 -66 -234 -65q-174 0 -278.5 100t-104.5 262v254 q0 162 104.5 262t278.5 100q145 0 246 -75q18 -14 24 -15q4 0 27 15q106 76 229 75q166 0 273.5 -112.5t107.5 -249.5v-166zM1141 625q0 31 -38 74.5t-106 43.5q-66 0 -105.5 -44t-39.5 -74q0 -18 22 -19h244q23 1 23 19zM616 342v254q0 61 -42 104t-103 43t-104 -43 t-43 -104v-254q0 -61 43 -104t104 -43t103 43t42 104z" />
<glyph unicode="&#x178;" horiz-adv-x="921" d="M733 1546q0 -47 -32.5 -79.5t-80 -32.5t-81 32.5t-33.5 79.5t33.5 80t81 33t80 -33t32.5 -80zM408 1546q0 -47 -33 -79.5t-80 -32.5t-81 32.5t-34 79.5t34 80t81 33t80 -33t33 -80zM940 1274q0 -4 -14 -33l-334 -625q-14 -29 -14 -57v-539q0 -20 -21 -20h-195 q-20 0 -20 20v541q0 27 -14 55l-334 625q-14 25 -14 33q0 16 22 16h227q10 0 19 -12l194 -401q6 -16 18.5 -16.5t18.5 16.5l195 401q8 12 18 12h226q22 0 22 -16z" />
<glyph unicode="&#x2c6;" horiz-adv-x="1024" d="M801 1067q0 -16 -23 -16h-166q-10 0 -16 10l-68 104q-6 12 -16 13q-8 0 -14 -13l-66 -104q-6 -10 -16 -10h-166q-23 0 -23 16q0 6 6 16l213 301q8 8 17 9h100q8 0 17 -9l215 -301q6 -10 6 -16z" />
<glyph unicode="&#x2dc;" horiz-adv-x="1024" d="M834 1257q0 -12 -37 -69q-78 -113 -172 -113q-45 0 -142 60l-37 22q-33 20 -53 21q-41 0 -84 -64q-6 -12 -16 -12q-6 0 -29 18l-69 51q-8 6 -9 17q0 12 29 57q76 119 178 119q63 0 139 -53l35 -25q31 -23 58 -22q45 0 88 69q6 12 16 13q6 0 23 -13l73 -59q9 -7 9 -17z " />
<glyph unicode="&#x2000;" horiz-adv-x="849" />
<glyph unicode="&#x2001;" horiz-adv-x="1701" />
<glyph unicode="&#x2002;" horiz-adv-x="849" />
<glyph unicode="&#x2003;" horiz-adv-x="1701" />
<glyph unicode="&#x2004;" horiz-adv-x="567" />
<glyph unicode="&#x2005;" horiz-adv-x="423" />
<glyph unicode="&#x2006;" horiz-adv-x="282" />
<glyph unicode="&#x2007;" horiz-adv-x="282" />
<glyph unicode="&#x2008;" horiz-adv-x="210" />
<glyph unicode="&#x2009;" horiz-adv-x="339" />
<glyph unicode="&#x200a;" horiz-adv-x="94" />
<glyph unicode="&#x2010;" horiz-adv-x="569" d="M489 373q0 -20 -20 -21h-369q-20 0 -20 21v192q0 20 20 21h369q20 0 20 -21v-192z" />
<glyph unicode="&#x2011;" horiz-adv-x="569" d="M489 373q0 -20 -20 -21h-369q-20 0 -20 21v192q0 20 20 21h369q20 0 20 -21v-192z" />
<glyph unicode="&#x2012;" horiz-adv-x="569" d="M489 373q0 -20 -20 -21h-369q-20 0 -20 21v192q0 20 20 21h369q20 0 20 -21v-192z" />
<glyph unicode="&#x2013;" horiz-adv-x="1136" d="M1057 430q0 -20 -21 -20h-936q-20 0 -20 20v135q0 20 20 21h936q20 0 21 -21v-135z" />
<glyph unicode="&#x2014;" horiz-adv-x="1665" d="M1585 430q0 -20 -20 -20h-1465q-20 0 -20 20v135q0 20 20 21h1465q20 0 20 -21v-135z" />
<glyph unicode="&#x2018;" horiz-adv-x="387" d="M348 1253q0 -10 -12 -16q-37 -16 -58.5 -50t-21.5 -67q0 -20 20 -20h17q20 0 20 -21v-186q0 -20 -20 -21h-203q-20 0 -20 21v141q0 211 127 305q59 43 77 43q10 0 17 -12l45 -88q12 -21 12 -29z" />
<glyph unicode="&#x2019;" horiz-adv-x="387" d="M317 1128q0 -211 -127 -305q-59 -43 -77 -43q-10 0 -17 13l-45 88q-12 20 -12 28q0 10 12 17q37 16 58.5 50t21.5 66q0 20 -20 21h-17q-20 0 -20 20v187q0 20 20 20h203q20 0 20 -20v-142z" />
<glyph unicode="&#x201a;" horiz-adv-x="387" d="M317 113q0 -211 -127 -306q-59 -43 -77 -43q-10 0 -17 13l-45 88q-12 20 -12 29q0 10 12 16q37 16 58.5 50t21.5 67q0 20 -20 20h-17q-20 0 -20 21v186q0 20 20 20h203q20 0 20 -20v-141z" />
<glyph unicode="&#x201c;" horiz-adv-x="708" d="M670 1253q0 -10 -13 -16q-37 -16 -58 -50t-21 -67q0 -20 20 -20h16q20 0 21 -21v-186q0 -20 -21 -21h-202q-20 0 -21 21v141q0 211 127 305q59 43 78 43q10 0 16 -12l45 -88q13 -21 13 -29zM348 1253q0 -10 -12 -16q-37 -16 -58.5 -50t-21.5 -67q0 -20 20 -20h17 q20 0 20 -21v-186q0 -20 -20 -21h-203q-20 0 -20 21v141q0 211 127 305q59 43 77 43q10 0 17 -12l45 -88q12 -21 12 -29z" />
<glyph unicode="&#x201d;" horiz-adv-x="708" d="M639 1128q0 -211 -127 -305q-59 -43 -78 -43q-10 0 -16 13l-45 88q-12 20 -13 28q0 10 13 17q37 16 58.5 50t21.5 66q0 20 -21 21h-16q-20 0 -21 20v187q0 20 21 20h202q20 0 21 -20v-142zM317 1128q0 -211 -127 -305q-59 -43 -77 -43q-10 0 -17 13l-45 88q-12 20 -12 28 q0 10 12 17q37 16 58.5 50t21.5 66q0 20 -20 21h-17q-20 0 -20 20v187q0 20 20 20h203q20 0 20 -20v-142z" />
<glyph unicode="&#x201e;" horiz-adv-x="708" d="M639 113q0 -211 -127 -306q-59 -43 -78 -43q-10 0 -16 13l-45 88q-12 20 -13 29q0 10 13 16q37 16 58.5 50t21.5 67q0 20 -21 20h-16q-20 0 -21 21v186q0 20 21 20h202q20 0 21 -20v-141zM317 113q0 -211 -127 -306q-59 -43 -77 -43q-10 0 -17 13l-45 88q-12 20 -12 29 q0 10 12 16q37 16 58.5 50t21.5 67q0 20 -20 20h-17q-20 0 -20 21v186q0 20 20 20h203q20 0 20 -20v-141z" />
<glyph unicode="&#x2022;" horiz-adv-x="1024" d="M838 625q0 -135 -88 -219t-234 -84h-8q-145 0 -233.5 83.5t-88.5 219.5v41q0 135 88 218t234 83h8q145 0 233.5 -83t88.5 -218v-41z" />
<glyph unicode="&#x2026;" horiz-adv-x="2048" d="M1769 116.5q0 -55.5 -40.5 -96t-96 -40.5t-96.5 40.5t-41 96t41 96.5t96.5 41t96 -41t40.5 -96.5zM1159 116.5q0 -55.5 -41 -96t-96 -40.5t-96 40.5t-41 96t41 96.5t96 41t96 -41t41 -96.5zM549 116.5q0 -55.5 -41 -96t-96.5 -40.5t-96.5 40.5t-41 96t41 96.5t96.5 41 t96.5 -41t41 -96.5z" />
<glyph unicode="&#x202f;" horiz-adv-x="339" />
<glyph unicode="&#x2039;" horiz-adv-x="702" d="M582 188q0 -23 -17 -22q-8 0 -16 6l-443 313q-8 8 -8 17v145q0 8 8 17l443 315q8 6 16 6q16 0 17 -22v-183q0 -8 -9 -16l-241 -172q-10 -6 -10 -17q0 -6 10 -16l241 -174q8 -8 9 -16v-181z" />
<glyph unicode="&#x203a;" horiz-adv-x="702" d="M604 502q0 -8 -8 -17l-442 -313q-10 -6 -17 -6q-16 0 -16 22v181q0 8 8 16l240 174q10 10 10 16.5t-10 16.5l-240 172q-8 8 -8 16v183q0 23 16 22q6 0 17 -6l442 -315q8 -8 8 -17v-145z" />
<glyph unicode="&#x205f;" horiz-adv-x="423" />
<glyph unicode="&#x20ac;" d="M1001 215q-37 -76 -79 -125q-100 -111 -281 -110h-100q-174 0 -277.5 100t-103.5 262v20q0 20 -21 21h-119q-20 0 -20 20v156q0 20 20 21h119q20 0 21 20v94q0 20 -21 21h-119q-20 0 -20 20v156q0 20 20 20h119q20 0 21 21v16q0 162 103.5 262.5t277.5 100.5h100 q170 0 266 -97q45 -43 94 -133q10 -18 -10 -28l-178 -88q-16 -8 -27 10q-51 121 -145 121h-100q-59 0 -103.5 -44t-44.5 -104v-16q0 -20 21 -21h239q20 0 21 -20v-156q0 -20 -21 -20h-239q-20 0 -21 -21v-94q0 -20 21 -20h239q20 0 21 -21v-156q0 -20 -21 -20h-239 q-20 0 -21 -21v-20q0 -59 44 -103t104 -44h100q94 0 145 124q10 18 27 11l178 -88q18 -11 10 -27z" />
<glyph unicode="&#x2122;" horiz-adv-x="876" d="M774 758q0 -20 -20 -21h-25q-20 0 -20 21v147q0 25 -19 25q-10 0 -20 -15l-52 -84q-6 -10 -18 -10h-8q-10 0 -17 10l-55 84q-10 14 -20 15q-16 0 -17 -25v-147q0 -20 -20 -21h-25q-20 0 -20 21v344q0 20 20 20h25q12 0 18 -10l97 -166q10 -14 18 -14t18 14l97 166 q6 10 18 10h25q20 0 20 -20v-344zM340 1079q0 -20 -21 -20h-55q-20 0 -20 -21v-280q0 -20 -21 -21h-24q-20 0 -21 21v280q0 20 -20 21h-56q-20 0 -20 20v23q0 20 20 20h217q20 0 21 -20v-23z" />
<glyph unicode="&#xe000;" horiz-adv-x="940" d="M0 940h940v-940h-940v940z" />
<glyph unicode="&#xfb01;" horiz-adv-x="1028" d="M930 1173.5q0 -55.5 -41 -96.5t-96.5 -41t-95.5 41t-40 96.5t40 96.5t95.5 41t96.5 -41t41 -96.5zM911 20q0 -20 -20 -20h-195q-20 0 -20 20v898q0 20 20 20h195q20 0 20 -20v-898zM557 655q0 -20 -20 -20h-134q-20 0 -20 -21v-594q0 -20 -21 -20h-194q-20 0 -21 20v594 q0 20 -20 21h-47q-20 0 -21 20v174q0 20 21 21h47q20 0 20 20v58q0 125 74 223t201 137q63 20 115 21q20 0 20 -21v-174q0 -20 -18 -20q-76 -6 -116 -46t-40 -100v-78q0 -20 20 -20h134q20 0 20 -21v-174z" />
<glyph unicode="&#xfb02;" horiz-adv-x="1036" d="M918 20q0 -20 -21 -20h-195q-20 0 -20 20v1035q0 20 -20 20h-134q-61 0 -103 -43t-42 -104v-58q0 -20 20 -20h134q20 0 20 -21v-174q0 -20 -20 -20h-134q-20 0 -20 -21v-594q0 -20 -21 -20h-194q-20 0 -21 20v594q0 20 -20 21h-47q-20 0 -21 20v174q0 20 21 21h47 q20 0 20 20v39q0 158 112 269.5t269 111.5h369q20 0 21 -20v-1250z" />
<glyph unicode="&#xfb03;" horiz-adv-x="1550" d="M1464 1173.5q0 -55.5 -40 -96.5t-95 -41t-96 41t-41 96.5t41 96.5t96 41t95 -41t40 -96.5zM1446 20q0 -20 -21 -20h-194q-20 0 -21 20v898q0 20 21 20h194q20 0 21 -20v-898zM1094 655q0 -20 -21 -20h-135q-20 0 -20 -21v-594q0 -20 -21 -20h-195q-20 0 -20 20v594 q0 20 -20 21h-259q-20 0 -20 -21v-594q0 -20 -21 -20h-194q-20 0 -21 20v594q0 20 -20 21h-47q-20 0 -21 20v174q0 20 21 21h47q20 0 20 20v58q0 158 113 270.5t268 112.5q162 0 263 -72q20 -14 24 -14t8 3t10.5 6t8.5 5q53 37 121.5 54.5t109.5 17.5q20 0 21 -21v-176 q0 -20 -19 -20q-78 -6 -117.5 -46t-39.5 -100v-78q0 -20 20 -20h135q20 0 21 -21v-174zM692 1012q0 16 -18 32q-57 51 -146 52q-61 0 -103 -42t-42 -106v-78q0 -20 20 -20h259q20 0 20 20v58q0 25 3 43t5 28.5t2 12.5z" />
<glyph unicode="&#xfb04;" horiz-adv-x="1568" d="M1452 20q0 -20 -20 -20h-195q-20 0 -20 20v1035q0 20 -21 20h-133q-61 0 -103 -42t-42 -105v-58q0 -20 20 -20h135q20 0 21 -21v-174q0 -20 -21 -20h-135q-20 0 -20 -21v-594q0 -20 -21 -20h-195q-20 0 -20 20v594q0 20 -20 21h-259q-20 0 -20 -21v-594q0 -20 -21 -20 h-194q-20 0 -21 20v594q0 20 -20 21h-47q-20 0 -21 20v174q0 20 21 21h47q20 0 20 20v58q0 158 113 270.5t268 112.5q176 0 277 -82l22 -15q2 0 27 17q86 59 209 59h369q20 0 20 -20v-1250zM694 1010q0 16 -18 32q-59 53 -148 54q-61 0 -103 -42t-42 -106v-78q0 -20 20 -20 h259q20 0 20 20v58q0 27 6 55z" />
</font>
</defs>
</svg>
