<?xml version="1.0" standalone="no"?>
<!DOCTYPE svg PUBLIC "-//W3C//DTD SVG 20010904//EN"
 "http://www.w3.org/TR/2001/REC-SVG-20010904/DTD/svg10.dtd">
<svg version="1.0" xmlns="http://www.w3.org/2000/svg"
 width="16.000000pt" height="16.000000pt" viewBox="0 0 16.000000 16.000000"
 preserveAspectRatio="xMidYMid meet">
<metadata>
Created by potrace 1.11, written by Peter Selinger 2001-2013
</metadata>
<g transform="translate(0.000000,16.000000) scale(0.003077,-0.003077)"
fill="#000000" stroke="none">
<path d="M0 2600 l0 -2600 2600 0 2600 0 0 2600 0 2600 -2600 0 -2600 0 0
-2600z m1645 1531 c350 -90 566 -391 591 -826 5 -90 3 -103 -15 -133 -33 -51
-72 -62 -217 -62 -195 0 -223 22 -244 193 -23 194 -91 321 -200 377 -128 65
-311 41 -396 -52 -43 -48 -66 -100 -90 -204 -18 -73 -19 -134 -19 -829 0 -680
2 -758 18 -840 46 -231 151 -325 352 -313 214 14 317 159 346 482 5 66 15 128
20 138 6 11 25 28 42 38 28 17 51 20 182 20 130 0 154 -3 181 -19 47 -28 58
-74 50 -196 -27 -418 -158 -675 -416 -813 -114 -62 -201 -83 -367 -89 -166 -7
-260 5 -379 49 -270 97 -435 319 -490 658 -14 89 -17 206 -21 758 -7 902 7
1091 92 1268 105 218 305 364 558 409 112 20 316 13 422 -14z m2348 -5 c303
-89 480 -294 552 -638 24 -110 31 -283 14 -314 -27 -51 -74 -64 -225 -64 -146
0 -187 10 -213 52 -7 12 -19 71 -27 131 -31 255 -108 370 -276 413 -108 28
-238 0 -305 -65 -112 -107 -133 -265 -132 -991 0 -769 22 -970 124 -1103 50
-66 125 -100 230 -105 250 -13 350 123 370 505 5 112 4 132 -12 163 -28 54
-71 70 -186 70 -115 0 -151 14 -173 65 -19 47 -19 214 1 261 25 61 42 64 417
64 374 0 387 -2 420 -70 17 -32 18 -87 18 -700 0 -649 -1 -666 -20 -698 -31
-51 -70 -62 -223 -62 -154 0 -186 8 -222 56 l-27 35 -31 -21 c-136 -89 -231
-114 -417 -108 -113 4 -148 9 -215 32 -233 80 -382 241 -458 496 -61 204 -70
370 -64 1204 6 782 12 847 95 1014 105 211 296 348 555 398 114 22 320 12 430
-20z"/>
</g>
</svg>
