<?xml version="1.0" standalone="no"?>
<!DOCTYPE svg PUBLIC "-//W3C//DTD SVG 1.1//EN" "http://www.w3.org/Graphics/SVG/1.1/DTD/svg11.dtd" >
<svg xmlns="http://www.w3.org/2000/svg">
<metadata>
This is a custom SVG webfont generated by Font Squirrel.
Copyright   : Copyright 1997 International Typeface Corporation All rights reserved
Designer    : Mark van Bronkhorst MvB Design
Foundry     : International Typeface Corporation
Foundry URL : httpwwwitcfontscom
</metadata>
<defs>
<font id="webfontsD3OZPKN" horiz-adv-x="1044" >
<font-face units-per-em="2048" ascent="1638" descent="-410" />
<missing-glyph horiz-adv-x="356" />
<glyph unicode=" "  horiz-adv-x="356" />
<glyph unicode="&#x09;" horiz-adv-x="356" />
<glyph unicode="&#xa0;" horiz-adv-x="356" />
<glyph unicode="!" horiz-adv-x="587" d="M475 1274q0 -4 -1 -10.5t-3 -15.5t-2 -15l-84 -483l-104 -349q-6 -18 -25 -18h-10q-16 0 -17 16q0 18 4 88l11 261l92 520q2 20 24 20h99q16 0 16 -14zM299 88q0 -49 -37 -84t-86 -35q-35 0 -59.5 24.5t-24.5 59.5q0 45 38 81t83 36q39 0 62.5 -23.5t23.5 -58.5z" />
<glyph unicode="&#x22;" horiz-adv-x="577" d="M604 1284q0 -8 -8 -29l-88 -288q-6 -18 -23 -19h-30q-18 0 -19 17q0 25 4 94l9 217q0 23 24 22h113q18 0 18 -14zM348 1284q0 -8 -8 -29l-88 -288q-6 -18 -23 -19h-30q-18 0 -19 17q0 25 4 94l9 217q0 23 24 22h113q18 0 18 -14z" />
<glyph unicode="#" horiz-adv-x="1153" d="M1063 893l-23 -84q-6 -20 -26 -21h-121q-18 0 -21 -12l-71 -258q0 -18 22 -18h127q16 0 17 -13l-23 -84q-6 -20 -26 -20h-142q-18 0 -20 -12l-101 -357q-2 -14 -20 -14h-68q-23 0 -22 18l98 349q0 16 -22 16h-250q-18 0 -21 -12l-102 -357q-2 -14 -21 -14h-67 q-23 0 -23 18l96 349q0 16 -22 16h-105q-16 0 -16 12l23 84q6 20 26 21h117q16 0 20 16l74 256q0 16 -22 16h-123q-16 0 -17 13l23 84q6 20 27 20h135q16 0 20 17l103 354q2 14 20 14h68q23 0 22 -18l-98 -348q0 -18 22 -19h250q16 0 21 17l102 354q2 14 21 14h67 q23 0 23 -18l-99 -348q0 -18 23 -19h109q16 0 16 -12zM758 772q0 16 -23 16h-250q-18 0 -20 -12l-72 -258q0 -18 23 -18h250q16 0 20 16z" />
<glyph unicode="$" d="M956 1137q0 -14 -16 -21l-76 -35q-25 -10 -26 -10q-12 0 -15 8q-33 57 -75 82q-37 25 -58 25q-16 0 -20 -23l-68 -385q0 -6 -4 -24.5t-4 -24.5q0 -8 10 -14q123 -61 190.5 -131t67.5 -191q0 -168 -107.5 -278.5t-277.5 -132.5q-16 -2 -18 -21l-13 -67q-2 -20 -24 -21h-55 q-16 0 -17 14l12 78q0 14 -16 15q-170 0 -246 96q-39 51 -39 80q0 14 17 20l80 37q16 8 24 8q6 0 13 -10q27 -53 72.5 -84t99.5 -31q20 0 22 21l76 428q6 37 6 43q0 8 -8 14q-121 61 -183.5 126t-62.5 175q0 160 102.5 269.5t264.5 136.5q14 2 18 20l12 68q2 20 25 20h55 q18 0 19 -14l-15 -78q0 -12 15 -14q131 -16 200 -97q43 -50 43 -77zM573 1165q0 16 -14 17q-27 0 -82 -35q-53 -33 -86 -88t-33 -115q0 -78 84 -141q41 -27 47 -27q16 0 21 23l55 315q0 6 2 18.5t4 21.5t2 11zM719 352q0 88 -101 162q-33 25 -43 25q-16 0 -20 -23l-59 -342 q-8 -37 -9 -55q0 -14 11 -15q31 0 80 31q63 33 102 91t39 126z" />
<glyph unicode="%" horiz-adv-x="1003" d="M541 1151q0 -10 -4 -35l-37 -205q-14 -78 -72.5 -126t-142.5 -48q-74 0 -115 38t-41 102q0 23 2 34l37 205q14 78 72.5 126t142.5 48q74 0 116 -38t42 -101zM924 1278q0 -10 -4 -16l-756 -1250q-6 -12 -21 -12h-49q-18 0 -18 12q0 10 4 17l756 1249q6 12 20 12h49 q19 0 19 -12zM870 414q0 -23 -2 -35l-37 -205q-14 -78 -72.5 -126t-142.5 -48q-74 0 -115.5 38t-41.5 101q0 10 4 35l37 205q14 78 72.5 126t142.5 48q74 0 114.5 -38t40.5 -101zM436 1128q0 29 -20.5 49.5t-48.5 20.5q-33 0 -62 -24.5t-35 -57.5l-30 -174l-7 -43 q0 -29 19.5 -49.5t48.5 -20.5q33 0 61.5 25t34.5 57l35 191q4 12 4 26zM766 391q0 29 -19.5 49.5t-48.5 20.5q-33 0 -61.5 -24.5t-34.5 -57.5l-31 -174q0 -2 -4 -18.5t-4 -24.5q0 -29 20.5 -49.5t49.5 -20.5q33 0 61.5 24.5t34.5 57.5l35 191q2 6 2 26z" />
<glyph unicode="&#x26;" horiz-adv-x="1280" d="M1239 696q0 -2 -6 -39l-12 -61q-2 -20 -23 -21h-31q-147 0 -258 -217l-18 -36q-12 -20 4 -41q102 -121 229 -158q12 -4 13 -19q0 -4 -1 -9t-3.5 -13t-2.5 -12l-14 -68q-4 -20 -22 -20q-43 0 -124 35.5t-149 111.5q-16 23 -26 23q-8 0 -19 -11q-135 -162 -342 -161h-63 q-141 0 -221 72.5t-80 201.5q0 43 16 131q12 66 69.5 138.5t135.5 105.5q18 6 18 20q0 6 -16 23q-115 111 -115 223q0 154 112.5 285t315.5 131q141 0 221 -74t80 -203q0 -37 -16 -123q-12 -70 -77.5 -142.5t-180.5 -111.5q-23 -6 -23 -22q0 -8 8 -14q66 -53 164 -179 q6 -10 17 -10q12 0 20 19q125 262 387 262h15q18 -1 18 -17zM770 1014q0 78 -52 128t-132 50q-111 0 -185.5 -80t-74.5 -174q0 -106 145 -221q10 -8 23 -8q68 0 156.5 62.5t107.5 162.5q12 62 12 80zM709 266q0 4 -19 31q-94 143 -143 186q-16 14 -117 86q-18 14 -26.5 14.5 t-28.5 -12.5q-127 -70 -150 -192q-16 -88 -16 -103q0 -76 51 -128t131 -52h64q57 0 122.5 37t112.5 100q19 29 19 33z" />
<glyph unicode="'" horiz-adv-x="321" d="M348 1284q0 -8 -8 -29l-88 -288q-6 -18 -23 -19h-30q-18 0 -19 17q0 25 4 94l9 217q0 23 24 22h113q18 0 18 -14z" />
<glyph unicode="(" horiz-adv-x="770" d="M735 1483l-16 -84q-4 -18 -19 -21q-84 -16 -140 -74.5t-71 -136.5l-215 -1214q-4 -29 -4 -41q0 -63 37 -110.5t105 -61.5q12 -2 12 -16l-14 -84q-2 -20 -21 -21q-68 0 -135 45q-121 74 -121 236q0 35 6 75l207 1172q39 223 238 313q84 39 137 39q14 0 14 -16z" />
<glyph unicode=")" horiz-adv-x="770" d="M604 1223q0 -35 -6 -76l-207 -1172q-37 -211 -217 -307q-94 -49 -158 -49q-14 0 -14 14l14 86q4 16 21 21q84 18 141.5 76.5t71.5 136.5l215 1214q2 12 2 39q0 63 -37 110.5t-104 61.5q-14 4 -15 17l15 84q2 20 22 20q66 0 141 -49q115 -73 115 -227z" />
<glyph unicode="*" horiz-adv-x="786" d="M821 1221q0 -18 -16 -25l-236 -96q-18 -6 -18 -21q0 -10 12 -16l203 -92q10 -4 10 -15q0 -6 -6 -14l-51 -65q-8 -10 -19 -11q-8 0 -12 4l-170 134q-6 6 -14 6q-20 0 -21 -25l-12 -233q0 -23 -25 -23h-79q-18 0 -19 19l64 210q10 25 10 37q0 14 -14 15q-10 0 -19 -6 l-209 -134q-8 -6 -16 -6t-14 13l-29 71q0 18 18 25l228 90q18 6 18 20q0 10 -12 17l-195 96q-12 6 -12 14q0 6 6 15l51 65q10 12 19 13q8 0 14 -7l158 -137q6 -6 14 -6q16 0 21 25l16 229q0 23 24 23h78q18 0 19 -17l-60 -203q-10 -37 -10 -43q0 -14 12 -14q8 0 19 6 l217 137q10 6 14 7q8 0 15 -13z" />
<glyph unicode="+" d="M928 516l-10 -59q-2 -20 -23 -21h-342q-23 0 -25 -20l-61 -342q-2 -20 -23 -21h-53q-18 0 -18 15q0 10 8 47l45 256q8 41 8 51q0 14 -16 14h-344q-18 0 -19 17l11 59q2 20 24 20h344q23 0 25 21l59 342q2 20 25 20h53q16 0 16 -14q0 -4 -3 -19.5t-3 -21.5l-47 -266 q-8 -37 -8 -47q0 -14 18 -15h342q17 0 17 -16z" />
<glyph unicode="," horiz-adv-x="428" d="M229 172q0 -2 -6 -33l-16 -88q-33 -184 -152 -278q-59 -49 -84 -49q-8 0 -14 10l-18 41q0 12 10 18q41 29 70.5 81t40 87t10.5 49.5t-19 14.5h-28q-16 0 -17 14q0 2 1 9t3 16.5t2 15.5l15 86q2 20 24 20h160q18 0 18 -14z" />
<glyph unicode="-" horiz-adv-x="534" d="M406 508q0 -14 -5 -31l-12 -74q-2 -20 -24 -20h-289q-18 0 -19 14q0 10 4 35l13 70q2 20 24 20h289q19 0 19 -14z" />
<glyph unicode="." horiz-adv-x="428" d="M213 88q0 -49 -37 -84t-86 -35q-35 0 -58.5 24.5t-23.5 59.5q0 45 37 81t82 36q39 0 62.5 -23.5t23.5 -58.5z" />
<glyph unicode="/" horiz-adv-x="624" d="M743 1278q0 -10 -4 -16l-755 -1250q-6 -12 -21 -12h-69q-18 0 -19 12q0 10 4 17l756 1249q6 12 20 12h70q18 0 18 -12z" />
<glyph unicode="0" d="M975 1042q0 -35 -6 -67l-117 -660q-27 -150 -141.5 -242.5t-276.5 -92.5h-63q-141 0 -222 72.5t-81 195.5q0 31 6 67l116 660q27 150 140.5 243t275.5 93h64q143 0 224 -73t81 -196zM834 1014q0 78 -52.5 128t-132.5 50h-63q-92 0 -166 -62.5t-90 -154.5l-117 -660 q-4 -25 -4 -39q0 -76 51 -128t131 -52h64q90 0 166.5 65.5t91.5 153.5l116 660q5 25 5 39z" />
<glyph unicode="1" d="M788 100l-14 -80q-2 -20 -24 -20h-609q-18 0 -18 18l14 78q2 20 25 21h215q23 0 24 20l144 815q10 55 10 58q0 16 -14 16q-10 0 -19 -8l-160 -135q-8 -8 -16 -9q-6 0 -16 15l-33 45q-8 12 -8 18q0 8 8 17l354 301q18 18 31 18h39q16 0 16 -14q0 -8 -10 -66l-180 -1024 q0 -6 -4 -27.5t-4 -25.5q0 -14 16 -14h215q18 -1 18 -17z" />
<glyph unicode="2" d="M961 1042q0 -96 -36 -175t-102.5 -137t-121 -93t-132.5 -76q-14 -6 -20 -10q-143 -78 -222 -149.5t-98 -180.5l-14 -86q0 -18 16 -18h533q18 0 18 -17l-14 -80q-2 -20 -25 -20h-671q-18 0 -19 14l6 31l31 176q18 113 85 203t130.5 135t167.5 105q4 2 58.5 31.5t69.5 39.5 l62 40q46 30 63 50l45 53q28 32 38 65.5t10 70.5q0 78 -52 128t-132 50h-82q-117 0 -211 -111q-10 -10 -18 -10q-4 0 -29 14l-57 31q-10 6 -11 14q0 12 35 52q119 129 311 129h82q143 0 224.5 -73t81.5 -196z" />
<glyph unicode="3" d="M940 1032q0 -29 -14 -110q-16 -90 -89 -161t-149 -91l-2 -8q53 -18 102.5 -80t49.5 -144q0 -20 -15 -106q-29 -162 -143.5 -257t-278.5 -95h-63q-178 0 -250 102q-35 53 -35 74q0 14 17 20l75 35q27 10 29 10q6 0 12 -10q53 -115 172 -115h64q88 0 165 64.5t93 154.5 q16 86 16 111q0 78 -52 129t-132 51h-143q-16 0 -17 15l13 81q2 20 24 21h143q92 0 167 64.5t92 156.5q10 55 10 70q0 78 -52.5 128t-132.5 50h-63q-119 0 -213 -113q-10 -10 -18.5 -10t-20.5 8l-68 39q-8 6 -8 14q0 4 6 15q123 166 342 166h64q141 0 222 -75t81 -204z" />
<glyph unicode="4" d="M932 410l-14 -80q-2 -20 -23 -21h-152q-23 0 -24 -20l-47 -269q-2 -20 -25 -20h-96q-18 0 -19 14q0 4 4.5 19.5t4.5 21.5l32 187q8 37 9 53q0 14 -17 14h-534q-18 0 -19 17l25 120l696 834q8 8 19 8h122q16 0 17 -14q0 -16 -10 -64l-125 -712q-2 -10 -4 -23.5t-4.5 -22 t-2.5 -12.5q0 -14 19 -14h151q17 0 17 -16zM717 1057q0 18 -15 18q-10 0 -20 -12l-510 -604q-8 -10 -8 -19q0 -14 20 -14h402q20 0 22 20l99 553q10 46 10 58z" />
<glyph unicode="5" d="M999 1272l-12 -78q-2 -20 -24 -20h-492q-23 0 -25 -21l-57 -330q-14 -72 -14 -86q0 -12 16 -12h176q143 0 224 -73.5t81 -200.5q0 -35 -14 -117q-27 -162 -142.5 -257t-279.5 -95h-63q-170 0 -246 96q-39 53 -39 78q0 14 14 20l74 35q29 12 31 12q8 0 14 -10 q27 -53 73 -84t99 -31h64q88 0 164.5 64.5t93.5 154.5q16 88 16 109q0 78 -52 130t-132 52h-314q-16 0 -16 13q0 4 2 17t5 28.5t3 21.5l103 582q2 20 24 20h629q16 0 16 -18z" />
<glyph unicode="6" d="M954 1137q0 -14 -16 -21l-72 -33q-25 -12 -30 -12q-8 0 -15 10q-55 111 -174 111h-61q-90 0 -165 -62.5t-91 -154.5l-51 -291q0 -6 -5.5 -29.5t-5.5 -27.5q0 -16 15 -17q12 0 20 11q113 115 223 114h62q125 0 203.5 -74.5t78.5 -195.5q0 -43 -20 -150 q-27 -150 -141.5 -242.5t-276.5 -92.5h-61q-141 0 -221 72.5t-80 193.5q0 33 6 69l117 660q27 150 139 243t274 93h62q170 0 245 -97q41 -50 41 -77zM729 438q0 78 -52 129t-132 51h-62q-90 0 -163.5 -63t-90.5 -154q-18 -102 -18 -122q0 -78 50 -130.5t130 -52.5h62 q90 0 166.5 65.5t91.5 153.5q18 96 18 123z" />
<glyph unicode="7" d="M1010 1274q0 -4 -2 -14.5t-4.5 -22.5t-2.5 -16l-26 -152q-16 -92 -54 -165t-104.5 -132t-107.5 -87t-127 -79q-123 -74 -190.5 -137t-82.5 -154l-51 -295q-2 -20 -25 -20h-98q-18 0 -18 14l8 41l45 260q14 78 46 141.5t82 112.5t92 79t110 71q86 51 117.5 72.5t91 68.5 t88 97.5t39.5 111.5q14 82 14 88q0 14 -16 14h-535q-16 0 -16 17l12 80q2 20 24 20h674q17 0 17 -14z" />
<glyph unicode="8" d="M973 1032q0 -27 -17 -121q-16 -90 -88.5 -160.5t-148.5 -91.5l-2 -8q53 -18 102 -79.5t49 -143.5q0 -10 -12 -96q-27 -162 -142.5 -257t-279.5 -95h-63q-141 0 -221 72.5t-80 201.5q0 41 16 131q16 92 87 161.5t161 100.5l2 10q-57 16 -108.5 73.5t-51.5 139.5 q0 29 10 84q29 164 143.5 260.5t276.5 96.5h64q141 0 222 -75t81 -204zM834 1014q0 78 -52.5 128t-132.5 50h-63q-92 0 -166 -62.5t-90 -154.5q-10 -55 -11 -82q0 -78 50.5 -129t130.5 -51h63q92 0 167 64.5t91 156.5q13 57 13 80zM727 416q0 78 -52 129t-132 51h-64 q-92 0 -165.5 -62.5t-90.5 -154.5q-14 -82 -14 -103q0 -76 51 -128t131 -52h64q88 0 164.5 64.5t93.5 154.5q14 76 14 101z" />
<glyph unicode="9" d="M973 1042q0 -35 -6 -67l-117 -660q-27 -150 -141.5 -242.5t-276.5 -92.5h-61q-172 0 -246 98q-39 53 -39 78q0 14 16 20l76 35q27 10 29 10q10 0 14 -10q51 -115 170 -115h62q90 0 166.5 65.5t91.5 153.5l39 220q0 6 5 28.5t5 28.5q0 16 -14.5 16t-22.5 -10 q-113 -119 -223 -119h-62q-125 0 -202.5 75t-77.5 196q0 33 6 65l29 160q27 150 139 243t274 93h62q143 0 224 -73t81 -196zM831 1014q0 78 -52 128t-132 50h-61q-90 0 -165 -62.5t-91 -154.5l-29 -160q-2 -12 -2 -37q0 -78 50 -130t130 -52h62q90 0 166.5 65.5t91.5 153.5 l28 160q4 25 4 39z" />
<glyph unicode=":" horiz-adv-x="428" d="M313 664q0 -47 -36.5 -84t-83.5 -37q-35 0 -58.5 25.5t-23.5 60.5q0 45 35.5 80.5t80.5 35.5q39 0 62.5 -23t23.5 -58zM213 88q0 -49 -37 -84t-86 -35q-35 0 -58.5 24.5t-23.5 59.5q0 45 37 81t82 36q39 0 62.5 -23.5t23.5 -58.5z" />
<glyph unicode=";" horiz-adv-x="428" d="M313 664q0 -47 -36.5 -84t-83.5 -37q-35 0 -58.5 25.5t-23.5 60.5q0 45 35.5 80.5t80.5 35.5q39 0 62.5 -23t23.5 -58zM229 172q0 -2 -6 -33l-16 -88q-33 -184 -152 -278q-59 -49 -84 -49q-8 0 -14 10l-18 41q0 12 10 18q41 29 70.5 81t40 87t10.5 49.5t-19 14.5h-28 q-16 0 -17 14q0 2 1 9t3 16.5t2 15.5l15 86q2 20 24 20h160q18 0 18 -14z" />
<glyph unicode="&#x3c;" d="M885 870q0 -14 -17 -20l-649 -340q-16 -8 -16 -21q0 -10 10 -16l528 -342q8 -6 9 -14q0 -10 -7 -17l-36 -43q-10 -10 -17 -10q-2 0 -37 21l-549 350q-8 6 -8 16l21 107q4 12 12 18l690 363q25 12 29 12q8 0 14 -12z" />
<glyph unicode="=" d="M963 707l-11 -58q-2 -20 -24 -20h-822q-18 0 -18 16l12 57q2 20 23 21h821q19 0 19 -16zM895 324l-10 -58q-2 -20 -25 -20h-821q-18 0 -19 16l13 57q2 20 22 21h822q18 0 18 -16z" />
<glyph unicode="&#x3e;" d="M889 541l-19 -101q-4 -12 -12 -18l-690 -363q-25 -12 -29 -12q-8 0 -14 12l-23 52q0 14 17 20l649 342q16 8 16 21q0 10 -10 16l-528 340q-8 6 -8 14q0 10 6 17l37 43q10 10 16 10q8 0 37 -21l547 -356q8 -6 8 -16z" />
<glyph unicode="?" horiz-adv-x="1011" d="M932 1042q0 -135 -76 -239q-29 -39 -75 -73t-69.5 -44t-84.5 -39q-47 -20 -73 -34.5t-57.5 -38t-49 -55.5t-25.5 -73q-4 -20 -4 -40q0 -23 -25 -23h-98q-18 0 -19 14l13 80q6 33 17 61.5t21.5 49t35 42t35 32t44 29t42 22.5l47 21.5t42.5 19.5q123 57 168 114 q51 66 52 146q0 78 -52.5 128t-132.5 50h-82q-119 0 -213 -113q-10 -10 -18 -10t-25 10l-63 37q-8 6 -8 14q0 4 6 15q123 166 342 166h82q141 0 222 -73t81 -196zM426 88q0 -49 -37 -84t-86 -35q-35 0 -59.5 24.5t-24.5 59.5q0 45 38 81t83 36q39 0 62.5 -23.5t23.5 -58.5z " />
<glyph unicode="@" horiz-adv-x="1441" d="M1331 938l-78 -434q-14 -80 -74.5 -130t-146.5 -50h-24q-94 0 -140 61q-12 18 -34 2q-82 -63 -166 -63q-117 0 -175.5 67.5t-39.5 175.5l28 168q18 109 101.5 174.5t199.5 65.5q55 0 115 -41q29 -20 33 8l2 14q2 18 24 19h64q18 0 16 -21l-78 -440q-6 -37 13.5 -60.5 t56.5 -23.5h23q33 0 62.5 24.5t35.5 59.5l76 424q20 111 -40.5 178.5t-180.5 67.5h-365q-121 0 -205 -67.5t-104 -178.5l-105 -586q-20 -109 41.5 -177.5t182.5 -68.5h532q18 0 16 -20l-10 -66q-2 -20 -24 -20h-533q-170 0 -255 98.5t-56 253.5l104 586q29 158 147.5 255 t286.5 97h365q168 0 253 -98t56 -254zM891 719q10 63 -27 106t-100 43q-61 0 -114.5 -44t-63.5 -105l-25 -137q-10 -63 26 -107.5t99 -44.5q61 0 115.5 45t64.5 107z" />
<glyph unicode="A" horiz-adv-x="917" d="M784 23q0 -23 -24 -23h-105q-18 0 -18 14l-29 283q0 12 -18 12h-385q-18 0 -23 -12l-131 -283q-6 -14 -22 -14h-105q-18 0 -18 14q0 8 20 49l582 1211q6 14 22 14h78q16 0 19 -14l151 -1194q0 -10 2 -23.5t3 -22.5t1 -11zM588 451q0 6 -1 19t-3 30.5t-2 29.5l-39 449 q0 14 -8 80h-9q-10 -25 -37 -80l-227 -504q-12 -29 -12 -35q0 -14 18 -14h295q25 0 25 25z" />
<glyph unicode="B" horiz-adv-x="1067" d="M999 1012q0 -39 -12 -100.5t-67.5 -134t-124.5 -103.5q-20 -8 -21 -23q0 -8 10 -14q47 -27 81 -83t34 -124q0 -35 -8 -76q-27 -162 -142.5 -258t-279.5 -96h-397q-18 0 -19 14q0 8 13 64l208 1190q2 20 25 20h397q143 0 223 -73.5t80 -202.5zM862 991q0 78 -52 129 t-134 51h-260q-23 0 -25 -20l-65 -371q-8 -49 -9 -53q0 -14 17 -14h260q92 0 168 64.5t92 156.5q8 37 8 57zM760 416q0 78 -52.5 129t-134.5 51h-260q-20 0 -22 -21l-70 -393q0 -6 -4 -26.5t-4 -24.5q0 -14 16 -14h260q92 0 168 63.5t93 155.5q10 57 10 80z" />
<glyph unicode="C" horiz-adv-x="950" d="M956 1137q0 -14 -16 -21l-76 -35q-25 -10 -26 -10q-8 0 -15 8q-63 113 -174 113h-63q-92 0 -166 -62.5t-90 -154.5l-117 -660q-4 -25 -4 -39q0 -76 51 -128t131 -52h64q115 0 215 117q8 8 16 8t29 -12l59 -33q10 -6 10 -14q0 -10 -4 -15q-127 -168 -346 -167h-63 q-141 0 -222 72.5t-81 195.5q0 31 6 67l116 660q27 150 140.5 243t275.5 93h64q168 0 245 -99q41 -50 41 -75z" />
<glyph unicode="D" horiz-adv-x="1077" d="M999 1012q0 -25 -8 -78l-100 -576q-29 -164 -143.5 -261t-278.5 -97h-397q-18 0 -19 14q0 2 13 64l208 1190q2 20 25 20h397q143 0 223 -73.5t80 -202.5zM862 991q0 78 -52 129t-134 51h-260q-23 0 -25 -20l-168 -956q-10 -55 -10 -64q0 -14 16 -14h260q92 0 168 63.5 t93 155.5l108 618q4 25 4 37z" />
<glyph unicode="E" horiz-adv-x="907" d="M944 1137q0 -14 -14 -21l-78 -37q-16 -10 -27 -10q-8 0 -14 10q-53 113 -172 113h-64q-90 0 -165.5 -62.5t-92.5 -154.5q-10 -72 -10 -80q0 -80 51.5 -131t130.5 -51h144q18 0 18 -17l-14 -80q-2 -20 -25 -20h-143q-88 0 -164 -63.5t-92 -153.5q-14 -76 -14 -100 q0 -78 51 -130.5t131 -52.5h63q117 0 213 115q10 10 18.5 10t20.5 -8l66 -37q10 -6 10 -14q0 -10 -4 -15q-121 -168 -344 -167h-64q-143 0 -223 72.5t-80 201.5q0 37 17 131q16 96 94 171t147 95l2 8q-61 18 -107 77t-46 134q0 33 10 84q29 162 143.5 259.5t278.5 97.5h63 q166 0 240 -88q16 -18 30.5 -48t14.5 -38z" />
<glyph unicode="F" horiz-adv-x="927" d="M987 1270l-12 -78q-2 -20 -25 -21h-534q-23 0 -25 -20l-63 -360q-10 -51 -11 -64q0 -14 17 -14h438q18 0 19 -19l-15 -78q-2 -20 -24 -20h-439q-20 0 -22 -21l-98 -555q-2 -20 -25 -20h-96q-18 0 -19 14q0 4 15 76l206 1178q2 20 25 20h672q16 0 16 -18z" />
<glyph unicode="G" d="M993 1137q0 -14 -16 -21l-76 -35q-25 -10 -29 -10q-10 0 -12 8q-25 53 -72 83t-100 30h-102q-92 0 -166 -62.5t-90 -154.5l-117 -660q-4 -25 -4 -39q0 -76 51 -128t131 -52h64q90 0 166.5 65.5t91.5 153.5l22 127q2 8 5 24.5t3 18.5q0 14 -18 15h-215q-16 0 -16 18l12 80 q2 20 24 20h355q16 0 16 -16q0 -4 -1 -11t-3 -17.5t-2 -16.5l-43 -242q-27 -150 -141.5 -242.5t-276.5 -92.5h-63q-141 0 -222 72.5t-81 195.5q0 31 6 67l116 660q27 150 140.5 243t275.5 93h103q164 0 239 -92q45 -55 45 -82z" />
<glyph unicode="H" horiz-adv-x="1140" d="M1083 1274q0 -2 -12 -76l-207 -1178q-2 -20 -24 -20h-99q-18 0 -18 14q0 4 2 12.5t5 27t7 36.5l78 445q8 45 8 47q0 14 -18 14h-492q-20 0 -22 -21l-98 -555q-2 -20 -25 -20h-96q-18 0 -19 14q0 2 19 99l202 1155q2 20 25 20h96q16 0 17 -14q0 -4 -2 -17l-6 -30 q-3 -18 -5 -29l-71 -407q-10 -51 -11 -64q0 -14 17 -14h491q23 0 25 20l94 535q2 20 25 20h98q16 0 16 -14z" />
<glyph unicode="I" horiz-adv-x="471" d="M412 1274q0 -4 -2 -17l-7 -36q-4 -25 -8 -45l-202 -1156q-2 -20 -25 -20h-96q-18 0 -19 14q0 4 2 15.5t7.5 35t9.5 50.5l202 1153q2 20 25 20h96q17 0 17 -14z" />
<glyph unicode="J" horiz-adv-x="854" d="M827 1274q0 -6 -10 -64l-153 -874q-27 -147 -151 -251.5t-271 -104.5q-133 0 -234 104q-53 53 -53 74q0 10 16 20l76 35q27 10 29 10q6 0 12 -10q27 -53 74 -85t100 -32q90 0 167 65.5t91 153.5l168 953q2 20 25 20h98q16 0 16 -14z" />
<glyph unicode="K" horiz-adv-x="1060" d="M1085 1274q0 -8 -10 -19l-442 -448q-33 -35 -33 -41l21 -49l270 -615q35 -80 35 -82q0 -20 -27 -20h-123q-12 0 -16 10l-266 613q-6 14 -17 14q-8 0 -18 -10l-195 -201l-71 -406q-2 -20 -25 -20h-96q-18 0 -19 14q0 4 3 20l7 36q4 20 7 32l204 1166q2 20 25 20h96 q16 0 17 -14q0 -8 -15 -86l-82 -465q-12 -74 -12 -76q0 -18 14 -18q8 0 21 12l600 639q8 8 18 8h109q20 0 20 -14z" />
<glyph unicode="L" horiz-adv-x="911" d="M780 98l-12 -78q-2 -20 -25 -20h-671q-18 0 -19 14q0 6 6.5 34t8.5 42l206 1178q2 20 25 20h96q16 0 17 -14q0 -4 -1 -10.5t-4.5 -22.5t-5.5 -31l-178 -1013q-2 -12 -4 -27.5t-4 -25t-2 -13.5q0 -14 16 -14h535q16 -1 16 -19z" />
<glyph unicode="M" horiz-adv-x="1335" d="M1276 1274q0 -12 -14 -88l-205 -1166q-2 -20 -25 -20h-96q-18 0 -18 14q0 4 3 16.5t6 29.5l5 30l74 418q39 225 102 475l-8 2q-43 -88 -80 -145l-393 -635q-8 -12 -21 -12h-41q-12 0 -16 12l-170 635q-2 8 -13.5 72.5t-13.5 72.5l-8 -2q-16 -199 -65 -475l-86 -488 q-2 -20 -25 -20h-96q-18 0 -19 14q0 4 2 15.5t7.5 36t9.5 49.5l202 1153q2 20 25 20h94q12 0 17 -12l198 -778q8 -25 15 -82h6q2 2 45 80l469 780q6 12 20 12h97q16 0 16 -14z" />
<glyph unicode="N" horiz-adv-x="1140" d="M1083 1274q0 -12 -20 -123l-199 -1131q-2 -20 -24 -20h-97q-12 0 -16 10l-340 901q-10 23 -22 74l-9 -2q-6 -68 -77 -475l-86 -488q-2 -20 -25 -20h-96q-18 0 -19 14q0 4 2 15.5t7.5 35t9.5 48.5l202 1155q2 20 25 20h94q12 0 17 -10l338 -911q10 -27 22 -74l8 2 q6 68 78 475l88 498q2 20 25 20h98q16 0 16 -14z" />
<glyph unicode="O" d="M975 1042q0 -35 -6 -67l-117 -660q-27 -150 -141.5 -242.5t-276.5 -92.5h-63q-141 0 -222 72.5t-81 195.5q0 31 6 67l116 660q27 150 140.5 243t275.5 93h64q143 0 224 -73t81 -196zM834 1014q0 78 -52.5 128t-132.5 50h-63q-92 0 -166 -62.5t-90 -154.5l-117 -660 q-4 -25 -4 -39q0 -76 51 -128t131 -52h64q90 0 166.5 65.5t91.5 153.5l116 660q5 25 5 39z" />
<glyph unicode="P" horiz-adv-x="991" d="M999 1012q0 -25 -8 -78q-25 -145 -141.5 -241.5t-276.5 -96.5h-260q-20 0 -22 -21l-98 -555q-2 -20 -25 -20h-96q-18 0 -19 14q0 4 3 18.5l9 42.5l9 50l200 1143q2 20 25 20h397q141 0 222 -73.5t81 -202.5zM862 991q0 78 -52 129t-134 51h-260q-23 0 -25 -20l-65 -371 q-8 -37 -9 -53q0 -14 17 -14h260q92 0 168 64.5t92 156.5q8 37 8 57z" />
<glyph unicode="Q" d="M975 1042q0 -35 -6 -67l-117 -660q-23 -131 -123 -222t-252 -111q-16 -2 -18 -21l-25 -133q-2 -20 -24 -21h-76q-16 0 -17 19l25 135q0 18 -18 21q-125 18 -190.5 88.5t-65.5 177.5q0 35 6 67l116 660q27 150 140.5 243t275.5 93h64q143 0 224 -73t81 -196zM834 1014 q0 78 -52.5 128t-132.5 50h-63q-92 0 -166 -62.5t-90 -154.5l-117 -660q-4 -25 -4 -39q0 -80 61 -133q49 -41 80 -41q18 0 21 21l16 100q2 20 25 21h75q16 0 17 -17l-19 -108q0 -12 13 -13q39 0 106 46q88 59 109 163l116 660q5 25 5 39z" />
<glyph unicode="R" d="M999 1012q0 -43 -12 -101q-14 -78 -87 -158.5t-155 -111.5q-14 -6 -14 -18q0 -4 2 -16l5 -27l5 -27l74 -438q2 -16 6 -39t7.5 -37t3.5 -19q0 -20 -25 -20h-111q-12 0 -16 14l-96 570q-4 12 -15 12h-258q-20 0 -22 -21l-98 -555q-2 -20 -25 -20h-96q-18 0 -19 14 q0 4 3 18.5l9 42.5l9 50l200 1143q2 20 25 20h397q143 0 223 -73.5t80 -202.5zM862 991q0 78 -52 129t-134 51h-260q-23 0 -25 -20l-74 -422q0 -16 17 -16h260q92 0 168 64.5t92 156.5q8 37 8 57z" />
<glyph unicode="S" horiz-adv-x="946" d="M899 1137q0 -14 -16 -21l-76 -35q-20 -10 -29 -10q-10 0 -12 8q-53 113 -174 113h-33q-106 0 -182 -78t-76 -168q0 -51 40 -96t82 -69.5t126 -65.5q55 -29 93 -52.5t79 -61.5t61.5 -90t20.5 -118q0 -168 -116 -290.5t-310 -122.5h-88q-182 0 -254 108q-31 41 -31 66 q0 14 14 20l84 41q12 6 20.5 6t18.5 -18q57 -106 168 -107h88q104 0 184.5 78t80.5 180q0 43 -17.5 78t-55.5 63.5t-70 47t-89 47.5q-68 33 -100.5 52.5t-80.5 58t-69.5 88t-21.5 114.5q0 170 117.5 289t304.5 119h32q176 0 252 -105q35 -46 35 -69z" />
<glyph unicode="T" horiz-adv-x="811" d="M870 1272l-12 -80q-2 -20 -24 -21h-248q-23 0 -25 -20l-199 -1131q-2 -20 -24 -20h-96q-16 0 -17 18l187 1063q12 70 12 76q0 14 -16 14h-248q-16 0 -17 17l13 80q2 20 24 20h674q16 0 16 -16z" />
<glyph unicode="U" d="M1020 1274q0 -14 -14 -88l-154 -871q-27 -150 -141.5 -242.5t-276.5 -92.5h-63q-141 0 -222 72.5t-81 195.5q0 31 6 67l168 953q2 20 24 20h99q16 0 16 -14q0 -12 -19 -109l-149 -850q-4 -25 -4 -39q0 -76 51 -128t131 -52h64q90 0 166.5 65.5t91.5 153.5l168 953 q2 20 24 20h99q16 0 16 -14z" />
<glyph unicode="V" horiz-adv-x="917" d="M1006 1274q0 -2 -37 -82l-568 -1178q-6 -14 -22 -14h-74q-16 0 -18 14l-148 1145q-2 20 -6 46t-6 41.5t-2 19.5q0 23 27 22h104q16 0 18 -14l103 -961q2 -8 4 -40.5t2 -41.5h10q2 6 35 82l432 961q6 14 23 14h104q19 0 19 -14z" />
<glyph unicode="W" horiz-adv-x="1380" d="M1454 1274q0 -4 -27 -74l-469 -1184q-6 -16 -22 -16h-74q-16 0 -18 14l-96 826q-2 6 -3.5 44t-1.5 46h-8q-2 -8 -10 -27l-17 -39q-9 -20 -12 -24l-391 -826q-6 -14 -22 -14h-74q-18 0 -19 16l-49 1250q0 23 25 22h106q18 0 19 -16l16 -877q0 -59 4 -92h11q2 8 10 27 l17 39q9 20 11 24l406 885q6 14 22 14h29q18 0 19 -14l88 -887q2 -8 4 -46t2 -46h10q2 4 17 44l20 50l330 879q6 16 22 16h107q18 0 18 -14z" />
<glyph unicode="X" horiz-adv-x="935" d="M979 1274q0 -4 -6 -14l-389 -574q-25 -35 -25 -43q0 -4 14 -43l162 -500q25 -74 25 -80q0 -20 -25 -20h-114q-14 0 -17 12l-139 488q-4 16 -16 16q-10 0 -21 -16l-326 -488q-8 -12 -20 -12h-115q-20 0 -20 12q0 6 8 19l399 585q18 27 18.5 33t-14.5 45l-178 541 q-10 31 -10 33q0 20 27 20h112q12 0 17 -12l153 -490q6 -16 15 -16q12 0 22 16l311 490q8 12 21 12h113q18 0 18 -14z" />
<glyph unicode="Y" horiz-adv-x="917" d="M993 1274q0 -6 -20 -35l-457 -643l-100 -576q-2 -20 -25 -20h-98q-18 0 -19 14q0 6 11 64l90 518l-217 618q-2 8 -7.5 20.5t-8.5 21t-3 12.5q0 20 27 20h117q12 0 16 -12l160 -516q6 -16 16 -16.5t21 16.5l340 516q8 12 20 12h117q20 0 20 -14z" />
<glyph unicode="Z" horiz-adv-x="897" d="M887 1274q0 -6 -25 -45l-676 -1084q-6 -10 -6 -14q0 -14 19 -14h491q18 0 19 -17l-15 -80q-2 -20 -24 -20h-693q-18 0 -18 14q0 4 14 29l682 1100q6 8 7 14q0 14 -19 14h-440q-18 0 -19 17l15 80q2 20 24 20h645q19 0 19 -14z" />
<glyph unicode="[" horiz-adv-x="753" d="M737 1485l-14 -80q-2 -20 -25 -21h-149q-23 0 -25 -20l-272 -1552q-10 -51 -10 -64q0 -14 16 -14h150q16 0 16 -17l-12 -79q-2 -20 -25 -21h-289q-18 0 -18 14q0 2 3 15.5t7 35t6 37.5l310 1762q2 20 24 20h289q18 0 18 -16z" />
<glyph unicode="\" horiz-adv-x="624" d="M522 20q0 -20 -24 -20h-70q-14 0 -16 12l-299 1188l-17 70q0 20 25 20h69q14 0 17 -12l297 -1180z" />
<glyph unicode="]" horiz-adv-x="737" d="M627 1487l-13 -70l-313 -1779q-2 -20 -25 -21h-288q-16 0 -17 16l13 80q2 20 24 21h152q23 0 24 20l275 1559q2 10 4 23.5t4 21.5t2 12q0 14 -18 14h-152q-16 0 -16 17l12 80q2 20 24 20h289q19 0 19 -14z" />
<glyph unicode="^" d="M930 639h-113l-293 537h-4l-293 -537h-112l383 672h49z" />
<glyph unicode="_" horiz-adv-x="409" d="M291 -385l-10 -55q-2 -20 -25 -21h-430q-16 0 -16 17l8 55q2 20 24 20h430q19 0 19 -16z" />
<glyph unicode="`" horiz-adv-x="1024" d="M649 1036q0 -18 -26 -18h-41q-14 0 -23 10l-194 209q-6 6 -7 14q0 20 27 21h135q12 0 21 -12l96 -191q12 -25 12 -33z" />
<glyph unicode="a" horiz-adv-x="970" d="M866 891q0 -14 -12 -76l-139 -795q-2 -20 -25 -20h-76q-16 0 -16 16l16 99q0 16 -14 16t-22 -10q-115 -121 -226 -121q-141 0 -221 73.5t-80 194.5q0 35 6 68l41 235q27 150 139.5 242t274.5 92q111 0 184 -119q4 -10 17 -10q18 0 22 23l15 86q2 20 24 20h76q16 0 16 -14 zM676 608q0 78 -52.5 129t-131.5 51q-90 0 -166 -63t-90 -154l-41 -235q-4 -25 -5 -37q0 -78 51.5 -130t131.5 -52q90 0 166.5 65.5t91.5 153.5l41 235q4 25 4 37z" />
<glyph unicode="b" horiz-adv-x="970" d="M850 635q0 -29 -6 -64l-41 -235q-27 -150 -141.5 -243t-276.5 -93q-111 0 -182 117q-6 10 -17 10q-18 0 -22 -23l-14 -84q-2 -20 -25 -20h-76q-18 0 -18 14q0 4 3 16.5t6 31t5 28.5l207 1178q2 20 24 20h99q16 0 16 -14q0 -4 -8 -53l-64 -365q-2 -10 -4 -24.5t-4 -23.5 t-2 -11q0 -14 15 -15q8 0 18 11q113 113 223 112q127 0 206 -74.5t79 -195.5zM709 608q0 78 -52.5 129t-132.5 51q-90 0 -165.5 -63t-90.5 -154l-41 -235q-4 -25 -4 -37q0 -78 51.5 -130t131.5 -52q90 0 166.5 65.5t91.5 153.5l41 235q4 25 4 37z" />
<glyph unicode="c" horiz-adv-x="870" d="M803 754q0 -14 -17 -21l-69 -33q-25 -12 -33 -12q-12 0 -14 8q-27 51 -74 82t-100 31q-90 0 -166 -63.5t-90 -153.5l-50 -277q-2 -12 -2 -36q0 -78 50.5 -130.5t130.5 -52.5q115 0 215 117q8 8 16 8q6 0 27 -10l61 -35q10 -6 10 -14q0 -20 -51 -68q-115 -115 -299 -114 q-141 0 -221 72.5t-80 193.5q0 33 6 69l49 277q27 150 139.5 242t274.5 92q170 0 246 -97q41 -50 41 -75z" />
<glyph unicode="d" horiz-adv-x="970" d="M934 1274q0 -4 -2 -14.5t-5 -29t-5 -32.5l-207 -1178q-2 -20 -25 -20h-76q-16 0 -16 16l16 99q0 16 -14 16t-22 -10q-115 -121 -226 -121q-141 0 -221 73.5t-80 194.5q0 35 6 68l41 235q27 145 138.5 239.5t255.5 94.5q113 0 182 -117q6 -10 16 -10q18 0 23 23l82 467 q2 20 24 20h99q16 0 16 -14zM676 608q0 78 -52.5 129t-131.5 51q-90 0 -166 -63t-90 -154l-41 -235q-4 -25 -5 -37q0 -78 51.5 -130t131.5 -52q90 0 166.5 65.5t91.5 153.5l41 235q4 25 4 37z" />
<glyph unicode="e" horiz-adv-x="937" d="M819 641q0 -16 -4 -49l-22 -125q-2 -20 -25 -21h-535q-20 0 -22 -20l-18 -100q-4 -25 -5 -47q0 -78 50.5 -130.5t130.5 -52.5q115 0 215 117q8 8 16 8q6 0 23 -8l65 -37q10 -6 10 -14q0 -16 -45 -62q-117 -121 -305 -120q-141 0 -221 72.5t-80 193.5q0 33 6 69l49 277 q23 127 141.5 230.5t272.5 103.5q139 0 221 -85t82 -200zM680 629q0 78 -52.5 129t-131.5 51q-90 0 -166 -63.5t-90 -153.5q-6 -31 -7 -33q0 -16 19 -16h395q20 0 23 20q10 56 10 66z" />
<glyph unicode="f" horiz-adv-x="548" d="M729 1294q0 -6 -8 -22l-35 -68q-6 -14 -22 -14q-8 0 -19.5 1t-15.5 1q-90 0 -165 -62.5t-91 -154.5l-21 -117q0 -4 -2 -12t-3 -14.5t-1 -8.5q0 -14 19 -14h151q16 0 16 -16l-14 -80q-2 -20 -22 -21h-152q-23 0 -25 -20l-141 -797q-27 -150 -147.5 -253t-268.5 -103 q-27 0 -63 4q-18 2 -18 12q0 4 12 29l33 61q8 14 20 15q8 0 20.5 -1t16.5 -1q90 0 163.5 62t90.5 155l135 759q10 51 10 64q0 14 -16 14h-55q-18 0 -19 17l14 79q2 20 25 21h55q20 0 23 20l22 125q27 150 149 253.5t269 103.5q25 0 62 -4q18 -5 18 -13z" />
<glyph unicode="g" horiz-adv-x="970" d="M866 891q0 -2 -14 -88l-164 -926q-29 -162 -138.5 -260t-281.5 -98q-174 0 -250 104q-37 51 -36 72q0 14 16 20l80 37q16 8 24 8q6 0 13 -10q27 -53 74 -84t100 -31q92 0 166.5 63.5t91.5 156.5l39 217q6 37 6 41q0 16 -14 16q-12 0 -21 -10q-113 -119 -225 -119 q-125 0 -203 75t-78 195q0 33 6 66l41 235q27 150 139.5 242t274.5 92q111 0 184 -119q4 -10 17 -10q18 0 22 23l15 86q2 20 24 20h76q16 0 16 -14zM676 608q0 78 -52.5 129t-131.5 51q-90 0 -166 -63t-90 -154l-41 -235q-4 -25 -5 -37q0 -78 51.5 -130t131.5 -52 q90 0 166.5 65.5t91.5 153.5l41 235q4 25 4 37z" />
<glyph unicode="h" horiz-adv-x="991" d="M850 635q0 -29 -6 -64l-96 -551q-2 -20 -25 -20h-98q-18 0 -19 14q0 4 2 12.5t5 24t5 29.5l87 491q4 25 4 37q0 78 -52.5 129t-132.5 51q-90 0 -165.5 -63t-90.5 -154l-96 -551q-2 -20 -25 -20h-98q-18 0 -18 14q0 2 16 88l205 1166q2 20 24 20h99q16 0 16 -14t-10 -66 l-59 -340q-2 -14 -5.5 -31.5t-5.5 -25.5t-2 -12q0 -16 15 -17q8 0 18 11q113 113 223 112q127 0 206 -74.5t79 -195.5z" />
<glyph unicode="i" horiz-adv-x="428" d="M406 1237q0 -41 -35 -75t-76 -34q-33 0 -53.5 20.5t-20.5 53.5q0 41 33 75t74 34q35 0 56.5 -20.5t21.5 -53.5zM324 891q0 -6 -13 -76l-139 -795q-2 -20 -25 -20h-98q-18 0 -18 14q0 4 2 15.5t6 29t6 31.5l139 795q2 20 25 20h98q17 0 17 -14z" />
<glyph unicode="j" horiz-adv-x="428" d="M406 1237q0 -4 -1.5 -8t-1.5 -8q-6 -37 -38.5 -65t-69.5 -28q-33 0 -53.5 20.5t-20.5 53.5q0 12 2 19q6 35 38 62.5t66.5 27.5t56.5 -20.5t22 -53.5zM324 891q0 -8 -13 -76l-166 -942q-16 -96 -78.5 -177t-154.5 -130q-88 -47 -141 -47q-14 0 -15 14l15 84q4 16 20 21 q84 18 140.5 76.5t70.5 135.5l182 1035q2 20 25 20h98q17 0 17 -14z" />
<glyph unicode="k" horiz-adv-x="899" d="M823 891q0 -10 -12 -21l-285 -243q-23 -18 -22 -29q0 -2 18 -43l207 -467q6 -14 14.5 -31.5t11.5 -24.5t3 -12q0 -20 -27 -20h-117q-12 0 -16 10l-201 467q-6 12 -14 12q-10 0 -18 -8l-132 -114l-61 -347q-2 -20 -25 -20h-98q-18 0 -18 14q0 4 3 19l7 35q4 20 6 32 l205 1168q2 20 24 20h99q16 0 16 -14q0 -4 -2 -13.5t-4 -23.5l-4 -27l-100 -571q-14 -82 -15 -86q0 -16 15 -16q10 0 18 8l383 354q6 6 16 6h105q20 0 20 -14z" />
<glyph unicode="l" horiz-adv-x="428" d="M391 1274q0 -16 -14 -88l-205 -1166q-2 -20 -25 -20h-98q-18 0 -18 14q0 4 3 17.5t8 40t9 53.5l201 1143q2 20 24 20h99q16 0 16 -14z" />
<glyph unicode="m" horiz-adv-x="1492" d="M1339 637q0 -31 -6 -66l-96 -551q-2 -20 -25 -20h-98q-18 0 -18 14q0 4 2 16l6 32q4 22 8 40l82 469q4 25 4 35q0 76 -50 129t-114 53q-68 0 -143.5 -65.5t-89.5 -151.5l-96 -551q-2 -20 -25 -20h-98q-18 0 -19 14q0 6 17 88l82 469q4 25 4 35q0 76 -50.5 129t-113.5 53 q-70 0 -144.5 -65.5t-89.5 -151.5l-96 -551q-2 -20 -25 -20h-98q-18 0 -18 14q0 6 18 99l135 772q2 20 25 20h76q16 0 16 -16l-14 -92q0 -18 12 -19q10 0 20 10q61 61 124 89t102 28q145 0 209 -121q6 -10 14 -10t18 10q113 121 269 121q127 0 205.5 -73.5t78.5 -194.5z" />
<glyph unicode="n" horiz-adv-x="1003" d="M850 637q0 -31 -6 -66l-96 -551q-2 -20 -25 -20h-98q-18 0 -19 14q0 2 17 88l82 469q4 25 4 37q0 78 -52.5 129t-132.5 51q-90 0 -165.5 -63t-90.5 -154l-96 -551q-2 -20 -25 -20h-98q-18 0 -18 14q0 2 16 88l137 783q2 20 25 20h76q16 0 16 -16l-14 -92q0 -16 14 -17 q12 0 21 11q113 115 223 114q143 0 224 -73.5t81 -194.5z" />
<glyph unicode="o" horiz-adv-x="937" d="M821 659q0 -33 -6 -67l-49 -277q-27 -150 -141.5 -242.5t-276.5 -92.5q-141 0 -221 72.5t-80 193.5q0 33 6 69l49 277q27 150 139.5 242t274.5 92q143 0 224 -72t81 -195zM680 629q0 78 -52.5 129t-131.5 51q-90 0 -166 -63.5t-90 -153.5l-50 -277q-2 -12 -2 -36 q0 -78 50.5 -130.5t130.5 -52.5q90 0 166.5 65.5t91.5 153.5l49 277q4 25 4 37z" />
<glyph unicode="p" horiz-adv-x="970" d="M850 637q0 -31 -6 -66l-41 -235q-27 -145 -140.5 -240.5t-256.5 -95.5q-106 0 -183 117q-6 10 -16 10q-18 0 -21 -25l-96 -542q-2 -20 -24 -21h-99q-16 0 -16 15q0 2 18 110l215 1221q2 20 25 20h76q16 0 16 -16l-14 -92q0 -16 14 -17q12 0 21 11q113 115 223 114 q143 0 224 -73.5t81 -194.5zM709 608q0 78 -52.5 129t-132.5 51q-90 0 -165.5 -63t-90.5 -154l-41 -235q-4 -25 -4 -37q0 -78 51.5 -130t131.5 -52q90 0 166.5 65.5t91.5 153.5l41 235q4 25 4 37z" />
<glyph unicode="q" horiz-adv-x="970" d="M866 891l-14 -86l-219 -1245q-2 -20 -25 -21h-98q-16 0 -16 15q0 6 16 98l68 385q2 10 5 29l5 30q2 12 2 17q0 16 -15 16q-12 0 -20 -10q-113 -119 -223 -119q-125 0 -203 75t-78 195q0 33 6 66l41 235q27 150 139.5 242t274.5 92q111 0 184 -119q4 -10 17 -10 q18 0 22 23l15 86q2 20 24 20h76q16 0 16 -14zM676 608q0 78 -52.5 129t-131.5 51q-90 0 -166 -63t-90 -154l-41 -235q-4 -25 -5 -37q0 -78 51.5 -130t131.5 -52q90 0 166.5 65.5t91.5 153.5l41 235q4 25 4 37z" />
<glyph unicode="r" horiz-adv-x="593" d="M596 889l-16 -105q-2 -20 -29 -20h-31q-92 0 -166.5 -61.5t-89.5 -151.5l-92 -531q-2 -20 -25 -20h-98q-18 0 -18 14q0 4 3 17.5t7 35t6 35.5l137 783q2 20 25 20h76q16 0 16 -16l-18 -113q0 -16 14 -16q12 0 20 10q133 135 228 135h35q16 0 16 -16z" />
<glyph unicode="s" horiz-adv-x="897" d="M803 758q0 -12 -19 -21l-65 -30q-20 -10 -27 -11q-8 0 -14 11q-25 49 -74 79.5t-104 30.5h-64q-109 0 -159 -48t-50 -114q0 -33 18.5 -56.5t65.5 -40.5t77 -25.5t101 -22.5q53 -12 89 -22.5t76 -32t60.5 -56t20.5 -82.5q0 -125 -103.5 -231t-279.5 -106h-63 q-166 0 -242 94q-43 51 -43 78q0 12 19 20l71 33q20 8 27 8q8 0 12 -10q23 -51 70 -83t106 -32h64q102 0 159.5 56.5t57.5 117.5q0 57 -66.5 87t-199.5 57q-53 10 -88 20t-73 30.5t-57.5 55.5t-19.5 82q0 127 101.5 229.5t269.5 102.5h63q170 0 246 -101q37 -51 37 -67z" />
<glyph unicode="t" horiz-adv-x="630" d="M557 889l-12 -80q-2 -20 -25 -21h-149q-23 0 -25 -20l-80 -453q-4 -29 -4 -41q0 -63 37 -110t104 -62q12 -4 13 -16l-15 -84q-4 -20 -22 -20q-35 0 -82 18q-176 63 -176 248q0 31 6 67l68 383q12 66 12 76q0 14 -17 14h-118q-16 0 -17 17l6 43l275 244q6 6 16 6h33 q16 0 16 -17l-26 -159q0 -16 16 -17h150q16 0 16 -16z" />
<glyph unicode="u" horiz-adv-x="980" d="M877 891q0 -10 -13 -76l-139 -795q-2 -20 -25 -20h-75q-16 0 -17 16l17 99q0 16 -14.5 16t-22.5 -10q-115 -121 -226 -121q-141 0 -221 73.5t-80 194.5q0 35 7 68l96 549q2 20 24 20h97q16 0 16 -14q0 -8 -16 -98l-80 -457q-4 -25 -4 -37q0 -78 51 -130t131 -52 q92 0 168 63.5t92 155.5l96 549q2 20 25 20h96q17 0 17 -14z" />
<glyph unicode="v" horiz-adv-x="874" d="M891 893q0 -8 -6 -16l-502 -865q-6 -12 -21 -12h-81q-14 0 -17 12l-178 781l-20 92q0 20 24 20h100q14 0 17 -12l135 -621q10 -55 10 -79h8q16 49 35 79l355 621q6 12 20 12h102q19 0 19 -12z" />
<glyph unicode="w" horiz-adv-x="1251" d="M1251 891q0 -4 -34 -78l-386 -799q-6 -14 -22 -14h-74q-16 0 -18 14l-72 611q-2 8 -6 80h-8q-12 -37 -35 -80l-291 -611q-6 -14 -22 -14h-74q-16 0 -19 14l-100 779l-12 90q0 23 26 22h107q18 0 18 -14l47 -580q0 -8 2.5 -24.5t3.5 -29.5t1 -26h8q0 2 35 80l264 580 q6 14 22 14h115q18 0 18 -14l58 -580q0 -14 2 -39.5t4 -40.5h8q0 2 35 80l252 580q6 14 22 14h107q18 0 18 -14z" />
<glyph unicode="x" horiz-adv-x="827" d="M825 893q0 -10 -8 -19l-309 -372q-33 -39 -33 -49q0 -6 27 -62l141 -301q31 -68 31 -70q0 -20 -25 -20h-112q-12 0 -17 10l-147 332q-4 10 -14.5 10t-18.5 -10l-264 -332q-6 -10 -19 -10h-114q-18 0 -19 12q0 10 8 19l328 397q20 23 21 35q0 2 -17 39l-158 327 q-25 49 -24 56q0 20 24 20h111q10 0 14 -10l150 -330q4 -10 14 -10q12 0 21 10l262 330q6 10 18 10h111q18 0 18 -12z" />
<glyph unicode="y" horiz-adv-x="980" d="M877 891q0 -14 -15 -86l-164 -928q-29 -162 -138 -260t-281.5 -98t-247.5 100q-39 51 -39 76q0 14 16 20l82 37l8 4q10 4 15 4q6 0 12 -10q27 -53 74 -84t100 -31q92 0 167 63.5t91 156.5l37 202q8 37 8 47q0 16 -14 17q-12 0 -21 -10q-104 -111 -205 -111 q-141 0 -221 73.5t-80 194.5q0 39 9 80l94 537q2 20 24 20h97q16 0 16 -14q0 -4 -4 -25.5t-4 -27.5l-82 -467q-10 -61 -10 -72q0 -78 51 -130t131 -52q104 0 175 69.5t85 149.5l96 549q2 20 25 20h96q17 0 17 -14z" />
<glyph unicode="z" horiz-adv-x="858" d="M786 889q0 -4 -8 -17l-551 -725q-8 -12 -8 -16q0 -14 21 -14h436q18 0 18 -17l-14 -80q-2 -20 -25 -20h-659q-20 0 -21 14q0 4 9 17l546 725q8 12 9 16q0 14 -21 14h-393q-18 0 -19 17l15 80q2 20 24 20h621q20 0 20 -14z" />
<glyph unicode="{" horiz-adv-x="860" d="M823 1485l-14 -86q-4 -18 -18 -21q-84 -16 -140.5 -74.5t-70.5 -136.5l-64 -352q-12 -66 -74.5 -142.5t-136.5 -105.5l-2 -8q55 -25 89 -95.5t34 -139.5q0 -25 -2 -35l-59 -336q-4 -29 -5 -41q0 -63 37 -110.5t105 -61.5q12 -2 12 -16l-14 -84q-2 -20 -21 -21 q-66 0 -135 45q-121 74 -121 236q0 35 6 75l54 308q4 29 4 39q0 63 -37 110t-105 62q-12 2 -12 18l17 92q4 16 20 21q84 18 140.5 76.5t70.5 136.5l55 309q39 217 226 309q86 43 149 43q12 0 12 -14z" />
<glyph unicode="|" horiz-adv-x="491" d="M199 -512v2048h94v-2048h-94z" />
<glyph unicode="}" horiz-adv-x="860" d="M694 608l-16 -94q-4 -16 -21 -20q-84 -18 -140 -76t-71 -135l-53 -308q-37 -215 -225 -311q-90 -45 -150 -45q-16 0 -16 14l16 86q4 16 21 21q84 18 140.5 76.5t70.5 136.5l59 336q12 68 78 155.5t139 114.5l2 8q-57 23 -93 87.5t-36 129.5q0 20 2 31l64 352q2 14 2 41 q0 63 -36 109.5t-103 60.5q-14 4 -15 19l15 82q2 20 22 20q16 0 61.5 -14.5t77.5 -34.5q117 -76 117 -229q0 -33 -6 -74l-55 -309q-4 -29 -4 -41q0 -63 36.5 -110.5t104.5 -61.5q12 -3 12 -17z" />
<glyph unicode="~" d="M883 528q-96 -154 -230 -153q-98 0 -196.5 63.5t-165.5 63.5q-96 0 -168 -127l-62 65q96 154 232 154q98 0 194 -64q98 -63 164 -63q98 0 170 127z" />
<glyph unicode="&#xa0;" />
<glyph unicode="&#xa1;" horiz-adv-x="587" d="M422 852q0 -45 -38 -81t-83 -36q-39 0 -62.5 23.5t-23.5 58.5q0 49 37 84t86 35q35 0 59.5 -24.5t24.5 -59.5zM285 506q0 -18 -4 -88l-11 -260l-92 -520q-2 -20 -24 -21h-99q-16 0 -16 14q0 4 1 10.5t3 15.5t2 15l84 484l104 348q6 18 25 18h10q17 0 17 -16z" />
<glyph unicode="&#xa2;" d="M872 788q-4 -12 -16 -16l-78 -39q-20 -10 -24 -10q-8 0 -15 10q-23 43 -61 76q-31 25 -53 25q-18 0 -21 -25l-115 -641q-2 -18 13 -18q18 0 53 20q51 29 98 82q6 10 19 10q4 0 20 -10l66 -39q14 -6 10 -16q-4 -23 -68 -78q-90 -80 -221 -99q-16 -4 -18 -20l-23 -133 q-6 -20 -24 -21h-52q-23 0 -16 21l23 135q4 16 -13 21q-135 27 -195.5 113.5t-37.5 217.5l47 277q23 129 115 217t237 115q16 4 21 20l22 133q2 20 25 21h51q18 0 16 -21l-22 -133q-2 -18 10 -20q137 -20 201 -117q28 -48 26 -58zM512 813q2 20 -14 21q-23 0 -72 -31 q-98 -63 -117 -172l-47 -277q-18 -117 68 -182q31 -25 49 -25q16 0 18 21z" />
<glyph unicode="&#xa3;" d="M1051 1137q0 -14 -17 -21l-73 -35q-20 -10 -30.5 -10t-12.5 8q-25 53 -72 83t-101 30q-92 0 -165.5 -62.5t-90.5 -154.5l-34 -195q-8 -49 -9 -53q0 -14 17 -14h149q18 0 19 -17l-15 -80q-2 -20 -24 -20h-150q-20 0 -22 -21l-47 -260q-6 -37 -33 -77.5t-49.5 -68.5 t-22.5 -36q0 -16 21 -16h508q16 0 16 -17l-12 -80q-2 -20 -25 -20h-864q-16 0 -16 16l12 80q2 20 24 21h76q84 14 149.5 75.5t80.5 143.5l30 176q12 68 13 70q0 14 -19 14h-55q-16 0 -17 16l15 80q2 20 22 21h56q23 0 24 20l39 221q27 150 148.5 253.5t271.5 103.5 q172 0 246 -99q39 -52 39 -75z" />
<glyph unicode="&#xa4;" horiz-adv-x="1261" d="M1075 356l-74 -77l-137 137q-102 -84 -239 -84q-139 0 -240 84l-137 -137l-74 77l137 131q-80 111 -80 238q0 141 80 238l-137 133q49 53 74 78l137 -138q109 82 240 82q141 0 237 -82l139 138l74 -78l-137 -133q80 -104 80 -238q0 -129 -80 -238zM913 727q0 123 -88 205 t-198 82q-123 0 -207 -85t-84 -202t85 -203t203.5 -86t203.5 85t85 204z" />
<glyph unicode="&#xa5;" d="M1057 1276q0 -6 -8 -19l-408 -577q-8 -12 -8 -18q0 -12 20 -13h279q16 0 16 -16l-12 -80q-2 -20 -25 -21h-319q-23 0 -25 -20l-24 -137l-8 -53q0 -14 16 -15h319q18 0 19 -16l-15 -78q-2 -20 -22 -20h-320q-23 0 -24 -21l-27 -152q-2 -20 -24 -20h-99q-16 0 -16 14 l27 164q0 14 -17 15h-321q-18 0 -19 16l15 78q2 20 22 20h322q23 0 24 21l25 137q8 39 8 53t-16 14h-322q-16 0 -16 17l12 80q2 20 25 20h276q27 0 27 21q0 4 -3 11t-9.5 23.5t-10.5 30.5l-186 522q-2 4 -2 11q0 20 26 20h117q12 0 16 -12l160 -516q6 -16 16.5 -16.5 t20.5 16.5l340 516q8 12 21 12h116q21 0 21 -12z" />
<glyph unicode="&#xa6;" horiz-adv-x="491" d="M293 748h-94v753h94v-753zM293 -383h-94v754h94v-754z" />
<glyph unicode="&#xa7;" d="M958 1137q0 -14 -16 -21l-68 -31q-29 -14 -34 -14q-8 0 -15 8q-63 113 -174 113h-35q-111 0 -184.5 -81t-73.5 -163q0 -59 52.5 -103t126 -79t147.5 -76t126 -114.5t52 -176.5q0 -158 -102 -278q-18 -25 -19 -27q0 -6 6.5 -17t8.5 -20q25 -70 24 -125 q0 -170 -118.5 -290.5t-305.5 -120.5h-90q-164 0 -239 90q-47 57 -47 86q0 12 18 20l78 37q20 8 24 8q8 0 15 -10q27 -53 72.5 -83.5t99.5 -30.5h90q102 0 181 79.5t79 173.5q0 66 -51 115t-126 84t-148.5 75t-125 109.5t-51.5 167.5q0 162 111 285q14 14 14 22.5t-14 28.5 q-29 55 -29 125q0 164 113.5 286t306.5 122h35q172 0 248 -101q38 -53 38 -73zM719 352q0 41 -15.5 75t-56.5 64.5t-66.5 47t-95.5 52.5l-92 48l-33 16q-8 0 -26 -22q-57 -72 -58 -146q0 -37 17.5 -68.5t54.5 -58t71 -47t92 -50.5t93 -52q29 -18 37 -18q14 0 29 22 q49 74 49 137z" />
<glyph unicode="&#xa8;" horiz-adv-x="1024" d="M850 1161q0 -41 -35 -74.5t-76 -33.5q-33 0 -53 20.5t-20 52.5q0 43 30.5 75t73.5 32q35 0 57.5 -19.5t22.5 -52.5zM516 1161q0 -43 -32.5 -75.5t-75.5 -32.5q-33 0 -54.5 21.5t-21.5 53.5q0 43 31.5 74t74.5 31q35 0 56.5 -19.5t21.5 -52.5z" />
<glyph unicode="&#xa9;" horiz-adv-x="1433" d="M1292 788l-104 -593q-29 -156 -145.5 -252.5t-284.5 -96.5h-369q-168 0 -252 96.5t-55 252.5l104 593q29 156 146 252.5t284 96.5h369q168 0 252 -96.5t55 -252.5zM1200 788q20 115 -43 185.5t-188 70.5h-369q-125 0 -213 -70.5t-108 -185.5l-105 -593 q-20 -115 43.5 -185.5t188.5 -70.5h368q125 0 213 70.5t109 185.5zM954 719q-4 -10 -12 -14l-51 -25q-20 -8 -25 -8q-12 0 -14 8q-43 76 -121 76q-63 0 -115.5 -43t-62.5 -107l-35 -203q-10 -61 27 -106t98 -45q78 0 148 80q6 10 16 10q2 0 22 -10l43 -27q10 -6 11 -16 q-4 -16 -41 -51q-80 -80 -215 -80q-117 0 -176.5 67.5t-40.5 177.5l34 203q18 109 101.5 175.5t202.5 66.5q123 0 178 -70q32 -43 28 -59z" />
<glyph unicode="&#xaa;" horiz-adv-x="679" d="M694 1300q0 -16 -8 -53l-100 -573q-2 -14 -17 -15h-75q-12 0 -13 13l13 63q0 8 -8.5 12.5t-16.5 -6.5q-80 -82 -158 -82q-102 0 -160.5 52.5t-58.5 140.5q0 4 6 53l29 166q18 109 99 174.5t198 65.5q86 0 135 -78q8 -10 15.5 -7t9.5 15l10 57q4 12 16 13h74q12 -1 10 -11 zM532 1096q2 47 -31.5 79.5t-86.5 32.5q-57 0 -104.5 -39t-57.5 -96l-31 -170q0 -2 -1 -11t-1 -13q-2 -49 31 -83t86 -34q57 0 107.5 41t58.5 96l28 170q2 7 2 27z" />
<glyph unicode="&#xab;" horiz-adv-x="1138" d="M1049 909l-19 -92q-4 -12 -20 -24l-326 -207q-12 -8 -12 -19q0 -8 14 -20l242 -201q16 -12 16 -24l-16 -86q-4 -23 -19 -23q-12 0 -26 14l-320 260q-14 10 -14 23l18 108q4 18 19 27l407 258q33 20 41 21q15 -1 15 -15zM588 909l-19 -92q-4 -12 -20 -24l-326 -207 q-12 -8 -12 -19q0 -8 14 -20l242 -201q16 -12 16 -24l-16 -86q-4 -23 -18 -23q-12 0 -27 14l-320 260q-14 10 -14 23l18 108q4 18 19 27l407 258q33 20 41 21q15 -1 15 -15z" />
<glyph unicode="&#xac;" d="M963 702l-78 -436q-2 -20 -25 -20h-61q-18 0 -17 20l62 342q2 20 -19 21h-719q-18 0 -16 20l10 53q2 20 25 21h821q19 -1 17 -21z" />
<glyph unicode="&#xad;" horiz-adv-x="534" d="M406 508q0 -14 -5 -31l-12 -74q-2 -20 -24 -20h-289q-18 0 -19 14q0 10 4 35l13 70q2 20 24 20h289q19 0 19 -14z" />
<glyph unicode="&#xae;" horiz-adv-x="860" d="M858 1012q0 -37 -12 -111q-27 -156 -144.5 -252t-285.5 -96h-8q-147 0 -231.5 76t-84.5 202q0 35 14 111q27 156 145 252t286 96h8q147 0 230 -75.5t83 -202.5zM797 999q0 104 -71 167t-191 63h-9q-139 0 -237.5 -80t-120.5 -207q-12 -61 -12 -98q0 -104 70.5 -167 t191.5 -63h8q139 0 237.5 80t120.5 207q13 73 13 98zM643 1022q0 -78 -74 -129q-12 -8 -12 -21l35 -110q0 -25 -25 -25h-32q-10 0 -15 13l-28 108q-4 12 -17 12h-51q-23 0 -25 -20l-16 -92q-2 -20 -25 -21h-22q-16 0 -17 15q0 2 11 63l51 287q2 20 25 20h129 q51 0 79.5 -26.5t28.5 -73.5zM578 1012q0 23 -14.5 38t-39.5 15h-65q-23 0 -25 -21l-18 -102q0 -14 18 -14h66q33 0 55.5 25.5t22.5 58.5z" />
<glyph unicode="&#xaf;" horiz-adv-x="1024" d="M821 1196l-14 -80q-2 -20 -25 -20h-397q-16 0 -16 16l14 80q2 20 23 20h397q18 0 18 -16z" />
<glyph unicode="&#xb0;" horiz-adv-x="546" d="M541 1171q0 -10 -4 -34l-37 -205q-14 -78 -72.5 -126t-142.5 -48q-74 0 -115 38t-41 101q0 23 2 35l37 205q14 78 72.5 126t142.5 48q74 0 116 -38.5t42 -101.5zM436 1149q0 29 -20.5 49.5t-48.5 20.5q-33 0 -62 -25t-35 -57l-30 -174l-7 -43q0 -29 19.5 -49.5 t48.5 -20.5q33 0 61.5 24.5t34.5 57.5l35 190q4 13 4 27z" />
<glyph unicode="&#xb1;" d="M977 651l-10 -55q-2 -20 -25 -21h-342q-18 0 -25 -20l-59 -342q-2 -20 -24 -20h-54q-18 0 -16 20l59 342q6 20 -16 20h-344q-18 0 -17 21l11 55q2 20 22 21h344q23 0 25 20l61 342q2 20 23 21h53q20 0 19 -21l-62 -342q-2 -20 16 -20h342q21 -1 19 -21zM874 76l-10 -56 q-2 -20 -22 -20h-822q-20 0 -18 20l10 56q2 20 25 20h821q18 0 16 -20z" />
<glyph unicode="&#xb2;" horiz-adv-x="690" d="M641 956q-6 -35 -22.5 -62.5t-30 -43.5t-48 -33.5t-47 -23t-58.5 -20.5l-52 -17q-119 -43 -145 -70q-20 -20 -25 -49l-2 -14q-2 -6 1 -8.5t11 -2.5h340q12 0 10 -10l-14 -78q-2 -10 -14 -10h-459q-12 0 -10 10l14 84q10 55 33.5 95t63.5 67t71 40t82 30q16 6 44 14t40 12 t31.5 12.5t28.5 15.5l21 16q11 9 17 21.5t8 29.5q8 49 -18.5 79.5t-87.5 30.5h-53q-70 0 -131 -74q-12 -12 -17 -4l-71 35q-12 6 -7 19q96 125 244 124h53q111 0 163 -59.5t36 -155.5z" />
<glyph unicode="&#xb3;" horiz-adv-x="690" d="M666 1063l-4 -23q-10 -53 -52.5 -97t-89.5 -58v-6q37 -16 64.5 -63.5t17.5 -106.5l-6 -39q-16 -109 -94 -172.5t-191 -63.5h-41q-154 0 -196 121q-6 14 10 20l84 37q10 6 14 -6q35 -76 109 -76h39q51 0 95 38t54 91l8 46q8 51 -22.5 87.5t-83.5 36.5h-105q-10 0 -8 15 l13 71q2 12 14 13h104q53 0 96.5 36.5t53.5 90.5l4 20q10 53 -20.5 90t-83.5 37h-39q-78 0 -136 -74q-10 -14 -18 -6l-70 37q-10 8 -2 21q88 121 240 120h41q111 0 166 -65.5t35 -171.5z" />
<glyph unicode="&#xb4;" horiz-adv-x="1024" d="M881 1257q0 -12 -13 -20l-270 -209q-12 -10 -25 -10h-41q-20 0 -20 12q0 6 10 21l178 209q12 12 25 12h135q21 -1 21 -15z" />
<glyph unicode="&#xb5;" horiz-adv-x="980" d="M877 885l-152 -865q-2 -20 -25 -20h-75q-18 0 -17 20l15 89q4 23 -15 22q-10 0 -20 -10q-115 -121 -225.5 -121t-184.5 45q-23 12 -26 -12l-60 -340q-2 -20 -24 -21h-97q-18 0 -16 21l209 1192q2 20 24 20h97q18 0 16 -20l-96 -549q-16 -90 37 -154.5t141 -64.5 q92 0 168 63.5t92 155.5l96 549q2 20 25 20h96q19 0 17 -20z" />
<glyph unicode="&#xb6;" horiz-adv-x="1269" d="M1208 1274q0 -2 -14 -88l-287 -1626q-2 -20 -24 -21h-97q-16 0 -16 14.5t12 75.5l258 1465q10 61 11 63q0 14 -17 14h-205q-23 0 -24 -20l-281 -1591q-2 -20 -24 -21h-99q-16 0 -16 15q0 10 14 86l82 462q12 66 13 76q0 14 -17 15h-69q-141 0 -222.5 74.5t-81.5 195.5 q0 43 5 65l71 406q29 162 143.5 258t276.5 96h592q16 0 16 -14z" />
<glyph unicode="&#xb7;" d="M596 508q0 -47 -38 -84t-85 -37q-35 0 -58.5 25.5t-23.5 60.5q0 45 36 81t81 36q39 0 63.5 -23.5t24.5 -58.5z" />
<glyph unicode="&#xb8;" horiz-adv-x="1024" d="M457 23q0 -8 -11 -23l-77 -119q-6 -8 -7 -16q0 -12 9 -15q72 -35 71 -102q0 -27 -6 -55q-14 -76 -77.5 -124t-143.5 -48h-74q-16 0 -16 16l4 37q2 20 25 20h73q41 0 75 29t42 70q4 16 4 35q0 57 -88 82q-12 2 -12 12t8 20l123 191q10 12 20 12l43 -8q15 -2 15 -14z" />
<glyph unicode="&#xb9;" horiz-adv-x="690" d="M582 600l-15 -74q0 -12 -14 -12h-418q-10 0 -10 12l14 74q0 12 15 12h137q16 0 18 15l58 325q2 10 -5.5 13.5t-15.5 -4.5l-90 -74q-10 -8 -18 0l-41 51q-8 8 2 18l254 211q8 4 10 4h43q12 0 10 -14l-94 -530q-2 -14 12 -15h137q11 0 11 -12z" />
<glyph unicode="&#xba;" horiz-adv-x="657" d="M666 1137q0 -16 -4 -50l-35 -192q-20 -111 -104.5 -178.5t-200.5 -67.5q-102 0 -161 53.5t-59 141.5q0 33 4 51l35 192q20 111 102.5 177.5t198.5 66.5q104 0 164 -52t60 -142zM545 1112q0 49 -35 83t-86 34q-59 0 -107.5 -41t-58.5 -101l-35 -192q-2 -8 -2 -25 q0 -51 34 -84.5t85 -33.5q57 0 107.5 42t60.5 101l35 192q2 9 2 25z" />
<glyph unicode="&#xbb;" horiz-adv-x="1138" d="M1020 627l-19 -109q-4 -18 -18 -26l-408 -259q-33 -20 -40 -20q-14 0 -15 14l19 92q4 12 20 25l326 207q12 10 12 18t-14 21l-242 201q-16 12 -16 24l16 86q4 23 18 23q12 0 27 -15l320 -260q14 -10 14 -22zM559 627l-18 -109q-4 -18 -19 -26l-407 -259q-33 -20 -41 -20 q-14 0 -15 14l19 92q4 12 20 25l326 207q12 10 12 18t-14 21l-242 201q-16 12 -16 24l16 86q4 23 19 23q12 0 26 -15l320 -260q14 -10 14 -22z" />
<glyph unicode="&#xbc;" horiz-adv-x="1912" d="M1372 1262l-756 -1250q-6 -12 -20 -12h-49q-31 0 -15 29l756 1249q10 12 21 12h49q30 1 14 -28zM1522 92l-13 -72q-2 -12 -16 -12h-96q-14 0 -17 -14l-30 -178q-2 -12 -17 -13h-88q-12 0 -10 13l31 178q4 14 -11 14h-342q-16 0 -12 12l17 91l454 524q4 6 12 6h97 q14 0 12 -12l-90 -510q0 -14 10 -15h96q15 0 13 -12zM668 600l-15 -74q0 -12 -14 -12h-416q-12 0 -12 12l14 74q0 12 17 12h137q14 0 16 15l58 325q2 10 -4.5 13.5t-14.5 -4.5l-92 -74q-10 -8 -18 0l-41 51q-6 10 2 18l254 211q2 0 6 2l4 2h43q12 0 10 -14l-94 -530 q-2 -14 12 -15h137q11 0 11 -12zM1354 467q2 8 -6.5 11t-14.5 -3l-295 -350q-16 -20 6 -21h230q16 0 18 15z" />
<glyph unicode="&#xbd;" horiz-adv-x="1912" d="M1569 442q-6 -35 -22.5 -62.5t-30 -44t-48 -33.5t-47 -22.5t-58.5 -20.5l-52 -17q-119 -43 -146 -70q-20 -20 -24 -49l-4 -14q0 -10 14 -11h338q12 0 12 -10l-14 -78q-2 -10 -14 -10h-457q-6 0 -10.5 2t-1.5 8l14 84q10 55 33.5 95t64.5 66t71 39t83 32q10 4 36.5 12 l36 11t29 10.5t26.5 12.5t20.5 13t18.5 16.5l11 19.5t8 25q8 49 -17.5 80t-84.5 31h-56q-70 0 -131 -74q-10 -10 -18 -4l-72 35q-10 10 -2 18q94 125 242 125h55q111 0 162 -59.5t35 -155.5zM1372 1262l-756 -1250q-6 -12 -20 -12h-49q-31 0 -15 29l756 1249q10 12 21 12h49 q30 1 14 -28zM668 600l-15 -74q0 -12 -14 -12h-416q-12 0 -12 12l14 74q0 12 17 12h137q14 0 16 15l58 325q2 10 -4.5 13.5t-14.5 -4.5l-92 -74q-10 -8 -18 0l-41 51q-6 10 2 18l254 211q2 0 6 2l4 2h43q12 0 10 -14l-94 -530q-2 -14 12 -15h137q11 0 11 -12z" />
<glyph unicode="&#xbe;" horiz-adv-x="1912" d="M1372 1262l-756 -1250q-6 -12 -20 -12h-49q-31 0 -15 29l756 1249q10 12 21 12h49q30 1 14 -28zM1522 92l-13 -72q-2 -12 -16 -12h-96q-14 0 -17 -14l-30 -178q-2 -12 -17 -13h-88q-12 0 -10 13l31 178q4 14 -11 14h-342q-16 0 -12 12l17 91l454 524q4 6 12 6h97 q14 0 12 -12l-90 -510q0 -14 10 -15h96q15 0 13 -12zM805 1063l-4 -23q-10 -53 -52 -97t-90 -58q-2 -2 -2 -4t2 -2q37 -16 65 -63.5t17 -106.5l-6 -39q-16 -109 -95 -172.5t-191 -63.5h-39q-154 0 -197 121q-8 14 10 20l82 37q14 6 14 -6q37 -76 111 -76h37q53 0 97 38 t54 91l9 46q8 51 -24 87.5t-85 36.5h-102q-10 0 -8 15l12 71q2 12 14 13h103q55 0 98 36.5t53 90.5l4 20q10 53 -21.5 90t-84.5 37h-37q-76 0 -137 -74q-8 -14 -17 -6l-69 37q-12 8 -2 21q88 121 239 120h39q111 0 167 -65.5t36 -171.5zM1354 467q2 8 -6.5 11t-14.5 -3 l-295 -350q-16 -20 6 -21h230q16 0 18 15z" />
<glyph unicode="&#xbf;" horiz-adv-x="1011" d="M721 852q0 -45 -38 -81t-83 -36q-39 0 -62.5 23.5t-23.5 58.5q0 49 37 84t86 35q35 0 59.5 -24.5t24.5 -59.5zM741 -225q0 -4 -6 -15q-123 -166 -342 -166h-82q-141 0 -222 73t-81 196q0 135 76 239q29 39 75 73t69.5 44t84.5 39q47 20 73 34.5t57.5 38t49 55.5t25.5 73 q4 20 4 41q0 23 25 22h98q18 0 19 -14l-13 -80q-6 -33 -17 -61.5t-21.5 -49t-35 -42t-35 -32t-44 -28.5l-41.5 -22.5t-47 -21.5t-43 -19q-123 -57 -168 -115q-51 -66 -52 -146q0 -78 52.5 -128t132.5 -50h82q119 0 213 113q10 10 18 10q10 0 25 -10l63 -37q8 -6 8 -14z" />
<glyph unicode="&#xc0;" horiz-adv-x="917" d="M674 1419q0 -12 -17 -12h-55q-12 0 -27 10l-194 164q-14 14 -14 21q0 14 16 14h162q18 0 24 -12l97 -166q8 -17 8 -19zM784 23q0 -23 -24 -23h-105q-18 0 -18 14l-29 283q0 12 -18 12h-385q-18 0 -23 -12l-131 -283q-6 -14 -22 -14h-105q-18 0 -18 14q0 8 20 49l582 1211 q6 14 22 14h78q16 0 19 -14l151 -1194q0 -10 2 -23.5t3 -22.5t1 -11zM588 451q0 6 -1 19t-3 30.5t-2 29.5l-39 449q0 14 -8 80h-9q-10 -25 -37 -80l-227 -504q-12 -29 -12 -35q0 -14 18 -14h295q25 0 25 25z" />
<glyph unicode="&#xc1;" horiz-adv-x="917" d="M877 1604q0 -8 -21 -21l-256 -166q-16 -10 -31 -10h-51q-12 0 -12 12q0 2 18 25l148 160q12 12 28 12h162q15 0 15 -12zM784 23q0 -23 -24 -23h-105q-18 0 -18 14l-29 283q0 12 -18 12h-385q-18 0 -23 -12l-131 -283q-6 -14 -22 -14h-105q-18 0 -18 14q0 8 20 49 l582 1211q6 14 22 14h78q16 0 19 -14l151 -1194q0 -10 2 -23.5t3 -22.5t1 -11zM588 451q0 6 -1 19t-3 30.5t-2 29.5l-39 449q0 14 -8 80h-9q-10 -25 -37 -80l-227 -504q-12 -29 -12 -35q0 -14 18 -14h295q25 0 25 25z" />
<glyph unicode="&#xc2;" horiz-adv-x="917" d="M803 1413q0 -10 -17 -10h-88q-12 0 -18 12l-53 113q-2 8 -11 8q-6 0 -14 -8l-94 -113q-12 -12 -25 -12h-84q-12 0 -12 8q0 4 14 23l156 172q8 10 25 10h98q16 0 20 -10l93 -170q10 -21 10 -23zM784 23q0 -23 -24 -23h-105q-18 0 -18 14l-29 283q0 12 -18 12h-385 q-18 0 -23 -12l-131 -283q-6 -14 -22 -14h-105q-18 0 -18 14q0 8 20 49l582 1211q6 14 22 14h78q16 0 19 -14l151 -1194q0 -10 2 -23.5t3 -22.5t1 -11zM588 451q0 6 -1 19t-3 30.5t-2 29.5l-39 449q0 14 -8 80h-9q-10 -25 -37 -80l-227 -504q-12 -29 -12 -35q0 -14 18 -14 h295q25 0 25 25z" />
<glyph unicode="&#xc3;" horiz-adv-x="917" d="M868 1548q0 -6 -8 -14q-98 -115 -174 -115q-45 0 -99.5 38t-86.5 38q-41 0 -97 -47q-10 -10 -20 -10t-14 6l-21 22q-8 8 -8 13l10 16q90 104 164 104q45 0 100.5 -35.5t87.5 -35.5q45 0 107 55q14 10 16 10q4 0 13 -8l22 -20q8 -9 8 -17zM784 23q0 -23 -24 -23h-105 q-18 0 -18 14l-29 283q0 12 -18 12h-385q-18 0 -23 -12l-131 -283q-6 -14 -22 -14h-105q-18 0 -18 14q0 8 20 49l582 1211q6 14 22 14h78q16 0 19 -14l151 -1194q0 -10 2 -23.5t3 -22.5t1 -11zM588 451q0 6 -1 19t-3 30.5t-2 29.5l-39 449q0 14 -8 80h-9q-10 -25 -37 -80 l-227 -504q-12 -29 -12 -35q0 -14 18 -14h295q25 0 25 25z" />
<glyph unicode="&#xc4;" horiz-adv-x="917" d="M848 1526q0 -39 -32 -71t-71 -32q-31 0 -48 19.5t-17 50.5q0 39 28.5 70.5t67.5 31.5q31 0 51.5 -19t20.5 -50zM539 1526q0 -39 -32 -71t-71 -32q-31 0 -48 19.5t-17 50.5q0 41 27.5 71.5t68.5 30.5q33 0 52.5 -19t19.5 -50zM784 23q0 -23 -24 -23h-105q-18 0 -18 14 l-29 283q0 12 -18 12h-385q-18 0 -23 -12l-131 -283q-6 -14 -22 -14h-105q-18 0 -18 14q0 8 20 49l582 1211q6 14 22 14h78q16 0 19 -14l151 -1194q0 -10 2 -23.5t3 -22.5t1 -11zM588 451q0 6 -1 19t-3 30.5t-2 29.5l-39 449q0 14 -8 80h-9q-10 -25 -37 -80l-227 -504 q-12 -29 -12 -35q0 -14 18 -14h295q25 0 25 25z" />
<glyph unicode="&#xc5;" horiz-adv-x="917" d="M784 23q0 -23 -24 -23h-105q-18 0 -18 14l-29 283q0 12 -18 12h-385q-18 0 -23 -12l-131 -283q-6 -14 -22 -14h-105q-18 0 -18 14q0 8 20 49l537 1119q12 25 12 32q0 10 -12 21q-45 33 -45 96q0 14 14 96q14 70 65.5 112t125.5 42q66 0 103.5 -32.5t37.5 -90.5 q0 -8 -14 -94q-16 -88 -95 -131q-18 -10 -18 -27q0 -8 4 -41l137 -1085q0 -10 2 -23.5t3 -22.5t1 -11zM702 1446q0 74 -92 74q-47 0 -77.5 -25t-38.5 -68q-14 -72 -15 -81q0 -76 88 -76q47 0 80 25.5t41 68.5q14 72 14 82zM588 451q0 6 -1 19t-3 30.5t-2 29.5l-39 449 q0 14 -8 80h-9q-10 -25 -37 -80l-227 -504q-12 -29 -12 -35q0 -14 18 -14h295q25 0 25 25z" />
<glyph unicode="&#xc6;" horiz-adv-x="1445" d="M1450 1268l-12 -76q-6 -20 -25 -21h-534q-23 0 -25 -20l-74 -418q-2 -20 17 -20h438q20 0 18 -21l-14 -76q-2 -20 -25 -20h-438q-20 0 -22 -21l-78 -438q-2 -20 16 -20h535q23 0 16 -21l-12 -76q-2 -20 -25 -20h-674q-18 0 -16 20l47 269q2 20 -16 20h-393q-18 0 -31 -18 l-205 -281q-10 -10 -20 -10h-95q-20 0 -20 16q4 8 8 15l957 1247q10 10 20 10h666q18 0 16 -20zM705 1057l-9 2q-8 -18 -49 -72l-397 -530q0 -2 -2 -6l-4 -9q-2 -8 4 -12t16 -4h303q20 0 23 20l24 136q71 393 91 475z" />
<glyph unicode="&#xc7;" horiz-adv-x="950" d="M956 1137q0 -14 -16 -21l-76 -35q-25 -10 -26 -10q-8 0 -15 8q-63 113 -174 113h-63q-92 0 -166 -62.5t-90 -154.5l-117 -660q-4 -25 -4 -39q0 -76 51 -128t131 -52h64q115 0 215 117q8 8 16 8t29 -12l59 -33q10 -6 10 -14q0 -10 -4 -15q-127 -168 -346 -167 q-27 0 -39 -23l-49 -76q-6 -8 -6 -16q0 -12 8 -15q72 -35 72 -102q0 -27 -6 -55q-14 -76 -78 -124t-143 -48h-74q-16 0 -17 16l4 37q2 20 25 20h74q41 0 74.5 29t42.5 70q4 16 4 35q0 57 -88 82q-12 2 -13 12q0 10 8 20l70 109q8 10 8 20.5t-16 14.5q-109 18 -168 87.5 t-59 174.5q0 31 6 67l116 660q27 150 140.5 243t275.5 93h64q168 0 245 -99q41 -50 41 -75z" />
<glyph unicode="&#xc8;" horiz-adv-x="907" d="M721 1419q0 -12 -16 -12h-56q-12 0 -26 10l-195 164q-14 14 -14 21q0 14 16 14h162q18 0 24 -12l97 -166q8 -17 8 -19zM944 1137q0 -14 -14 -21l-78 -37q-16 -10 -27 -10q-8 0 -14 10q-53 113 -172 113h-64q-90 0 -165.5 -62.5t-92.5 -154.5q-10 -72 -10 -80 q0 -80 51.5 -131t130.5 -51h144q18 0 18 -17l-14 -80q-2 -20 -25 -20h-143q-88 0 -164 -63.5t-92 -153.5q-14 -76 -14 -100q0 -78 51 -130.5t131 -52.5h63q117 0 213 115q10 10 18.5 10t20.5 -8l66 -37q10 -6 10 -14q0 -10 -4 -15q-121 -168 -344 -167h-64q-143 0 -223 72.5 t-80 201.5q0 37 17 131q16 96 94 171t147 95l2 8q-61 18 -107 77t-46 134q0 33 10 84q29 162 143.5 259.5t278.5 97.5h63q166 0 240 -88q16 -18 30.5 -48t14.5 -38z" />
<glyph unicode="&#xc9;" horiz-adv-x="907" d="M938 1604q0 -8 -20 -21l-256 -166q-16 -10 -31 -10h-51q-12 0 -13 12q0 2 19 25l147 160q12 12 29 12h162q14 0 14 -12zM944 1137q0 -14 -14 -21l-78 -37q-16 -10 -27 -10q-8 0 -14 10q-53 113 -172 113h-64q-90 0 -165.5 -62.5t-92.5 -154.5q-10 -72 -10 -80 q0 -80 51.5 -131t130.5 -51h144q18 0 18 -17l-14 -80q-2 -20 -25 -20h-143q-88 0 -164 -63.5t-92 -153.5q-14 -76 -14 -100q0 -78 51 -130.5t131 -52.5h63q117 0 213 115q10 10 18.5 10t20.5 -8l66 -37q10 -6 10 -14q0 -10 -4 -15q-121 -168 -344 -167h-64q-143 0 -223 72.5 t-80 201.5q0 37 17 131q16 96 94 171t147 95l2 8q-61 18 -107 77t-46 134q0 33 10 84q29 162 143.5 259.5t278.5 97.5h63q166 0 240 -88q16 -18 30.5 -48t14.5 -38z" />
<glyph unicode="&#xca;" horiz-adv-x="907" d="M858 1413q0 -10 -16 -10h-88q-12 0 -19 12l-53 113q-2 8 -10 8q-6 0 -15 -8l-94 -113q-12 -12 -24 -12h-84q-12 0 -13 8q0 4 15 23l155 172q8 10 25 10h98q14 0 21 -10l92 -170q10 -21 10 -23zM944 1137q0 -14 -14 -21l-78 -37q-16 -10 -27 -10q-8 0 -14 10 q-53 113 -172 113h-64q-90 0 -165.5 -62.5t-92.5 -154.5q-10 -72 -10 -80q0 -80 51.5 -131t130.5 -51h144q18 0 18 -17l-14 -80q-2 -20 -25 -20h-143q-88 0 -164 -63.5t-92 -153.5q-14 -76 -14 -100q0 -78 51 -130.5t131 -52.5h63q117 0 213 115q10 10 18.5 10t20.5 -8 l66 -37q10 -6 10 -14q0 -10 -4 -15q-121 -168 -344 -167h-64q-143 0 -223 72.5t-80 201.5q0 37 17 131q16 96 94 171t147 95l2 8q-61 18 -107 77t-46 134q0 33 10 84q29 162 143.5 259.5t278.5 97.5h63q166 0 240 -88q16 -18 30.5 -48t14.5 -38z" />
<glyph unicode="&#xcb;" horiz-adv-x="907" d="M901 1526q0 -39 -31.5 -71t-70.5 -32q-31 0 -48.5 19.5t-17.5 50.5q0 39 29 70.5t67 31.5q31 0 51.5 -19t20.5 -50zM592 1526q0 -39 -32 -71t-71 -32q-31 0 -48 19.5t-17 50.5q0 41 27.5 71.5t68.5 30.5q33 0 52.5 -19t19.5 -50zM944 1137q0 -14 -14 -21l-78 -37 q-16 -10 -27 -10q-8 0 -14 10q-53 113 -172 113h-64q-90 0 -165.5 -62.5t-92.5 -154.5q-10 -72 -10 -80q0 -80 51.5 -131t130.5 -51h144q18 0 18 -17l-14 -80q-2 -20 -25 -20h-143q-88 0 -164 -63.5t-92 -153.5q-14 -76 -14 -100q0 -78 51 -130.5t131 -52.5h63 q117 0 213 115q10 10 18.5 10t20.5 -8l66 -37q10 -6 10 -14q0 -10 -4 -15q-121 -168 -344 -167h-64q-143 0 -223 72.5t-80 201.5q0 37 17 131q16 96 94 171t147 95l2 8q-61 18 -107 77t-46 134q0 33 10 84q29 162 143.5 259.5t278.5 97.5h63q166 0 240 -88q16 -18 30.5 -48 t14.5 -38z" />
<glyph unicode="&#xcc;" horiz-adv-x="471" d="M449 1419q0 -12 -17 -12h-55q-12 0 -27 10l-194 164q-14 14 -15 21q0 14 17 14h161q18 0 25 -12l96 -166q9 -17 9 -19zM412 1274q0 -4 -2 -17l-7 -36q-4 -25 -8 -45l-202 -1156q-2 -20 -25 -20h-96q-18 0 -19 14q0 4 2 15.5t7.5 35t9.5 50.5l202 1153q2 20 25 20h96 q17 0 17 -14z" />
<glyph unicode="&#xcd;" horiz-adv-x="471" d="M668 1604q0 -8 -21 -21l-256 -166q-16 -10 -31 -10h-51q-12 0 -12 12q0 2 18 25l148 160q12 12 29 12h161q15 0 15 -12zM412 1274q0 -4 -2 -17l-7 -36q-4 -25 -8 -45l-202 -1156q-2 -20 -25 -20h-96q-18 0 -19 14q0 4 2 15.5t7.5 35t9.5 50.5l202 1153q2 20 25 20h96 q17 0 17 -14z" />
<glyph unicode="&#xce;" horiz-adv-x="471" d="M578 1413q0 -10 -17 -10h-88q-12 0 -18 12l-54 113q-2 8 -10 8q-6 0 -14 -8l-94 -113q-12 -12 -25 -12h-84q-12 0 -12 8q0 4 14 23l156 172q8 10 24 10h99q16 0 20 -10l92 -170q11 -21 11 -23zM412 1274q0 -4 -2 -17l-7 -36q-4 -25 -8 -45l-202 -1156q-2 -20 -25 -20h-96 q-18 0 -19 14q0 4 2 15.5t7.5 35t9.5 50.5l202 1153q2 20 25 20h96q17 0 17 -14z" />
<glyph unicode="&#xcf;" horiz-adv-x="471" d="M621 1526q0 -39 -32 -71t-71 -32q-31 0 -48 19.5t-17 50.5q0 39 28.5 70.5t67.5 31.5q33 0 52.5 -19t19.5 -50zM311 1526q0 -39 -31.5 -71t-70.5 -32q-31 0 -48.5 19.5t-17.5 50.5q0 41 28 71.5t69 30.5q31 0 51 -19t20 -50zM412 1274q0 -4 -2 -17l-7 -36q-4 -25 -8 -45 l-202 -1156q-2 -20 -25 -20h-96q-18 0 -19 14q0 4 2 15.5t7.5 35t9.5 50.5l202 1153q2 20 25 20h96q17 0 17 -14z" />
<glyph unicode="&#xd0;" horiz-adv-x="1077" d="M999 1012q0 -43 -10 -94l-98 -560q-29 -164 -143.5 -261t-278.5 -97h-397q-18 0 -19 16l99 553q0 14 -13 15h-90q-14 0 -14 16l12 82q2 20 23 20h88q16 0 20 19l96 547q2 20 25 20h397q143 0 223 -73.5t80 -202.5zM862 991q0 78 -52 129t-134 51h-260q-23 0 -25 -20 l-76 -434q0 -14 15 -15h159q18 0 19 -16l-14 -82q-2 -20 -25 -20h-160q-16 0 -20 -17l-76 -436q0 -14 16 -14h260q92 0 168 63.5t93 155.5l104 596q8 41 8 59z" />
<glyph unicode="&#xd1;" horiz-adv-x="1140" d="M981 1548q0 -6 -8 -14q-98 -115 -174 -115q-45 0 -99.5 38t-87.5 38q-41 0 -96 -47q-10 -10 -20.5 -10t-14.5 6l-20 22q-8 8 -8 13l10 16q90 104 164 104q45 0 100 -35.5t88 -35.5q45 0 107 55l16 10q4 0 12 -8l23 -20q8 -9 8 -17zM1083 1274q0 -12 -20 -123l-199 -1131 q-2 -20 -24 -20h-97q-12 0 -16 10l-340 901q-10 23 -22 74l-9 -2q-6 -68 -77 -475l-86 -488q-2 -20 -25 -20h-96q-18 0 -19 14q0 4 2 15.5t7.5 35t9.5 48.5l202 1155q2 20 25 20h94q12 0 17 -10l338 -911q10 -27 22 -74l8 2q6 68 78 475l88 498q2 20 25 20h98q16 0 16 -14z " />
<glyph unicode="&#xd2;" d="M733 1419q0 -12 -16 -12h-55q-12 0 -27 10l-195 164q-14 14 -14 21q0 14 16 14h162q18 0 25 -12l96 -166q8 -17 8 -19zM975 1042q0 -35 -6 -67l-117 -660q-27 -150 -141.5 -242.5t-276.5 -92.5h-63q-141 0 -222 72.5t-81 195.5q0 31 6 67l116 660q27 150 140.5 243 t275.5 93h64q143 0 224 -73t81 -196zM834 1014q0 78 -52.5 128t-132.5 50h-63q-92 0 -166 -62.5t-90 -154.5l-117 -660q-4 -25 -4 -39q0 -76 51 -128t131 -52h64q90 0 166.5 65.5t91.5 153.5l116 660q5 25 5 39z" />
<glyph unicode="&#xd3;" d="M952 1604q0 -8 -20 -21l-256 -166q-16 -10 -31 -10h-51q-12 0 -12 12q0 2 18 25l148 160q12 12 28 12h162q14 0 14 -12zM975 1042q0 -35 -6 -67l-117 -660q-27 -150 -141.5 -242.5t-276.5 -92.5h-63q-141 0 -222 72.5t-81 195.5q0 31 6 67l116 660q27 150 140.5 243 t275.5 93h64q143 0 224 -73t81 -196zM834 1014q0 78 -52.5 128t-132.5 50h-63q-92 0 -166 -62.5t-90 -154.5l-117 -660q-4 -25 -4 -39q0 -76 51 -128t131 -52h64q90 0 166.5 65.5t91.5 153.5l116 660q5 25 5 39z" />
<glyph unicode="&#xd4;" d="M862 1413q0 -10 -16 -10h-88q-12 0 -19 12l-53 113q-2 8 -10 8q-6 0 -14 -8l-95 -113q-12 -12 -24 -12h-84q-12 0 -13 8q0 4 15 23l155 172q8 10 25 10h98q14 0 21 -10l92 -170q10 -21 10 -23zM975 1042q0 -35 -6 -67l-117 -660q-27 -150 -141.5 -242.5t-276.5 -92.5h-63 q-141 0 -222 72.5t-81 195.5q0 31 6 67l116 660q27 150 140.5 243t275.5 93h64q143 0 224 -73t81 -196zM834 1014q0 78 -52.5 128t-132.5 50h-63q-92 0 -166 -62.5t-90 -154.5l-117 -660q-4 -25 -4 -39q0 -76 51 -128t131 -52h64q90 0 166.5 65.5t91.5 153.5l116 660 q5 25 5 39z" />
<glyph unicode="&#xd5;" d="M928 1548q0 -6 -8 -14q-98 -115 -175 -115q-45 0 -99 38t-87 38q-41 0 -96 -47q-10 -10 -20.5 -10t-14.5 6l-20 22q-8 8 -9 13l11 16q90 104 163 104q45 0 100.5 -35.5t88.5 -35.5q45 0 106 55l17 10q4 0 12 -8l23 -20q8 -9 8 -17zM975 1042q0 -35 -6 -67l-117 -660 q-27 -150 -141.5 -242.5t-276.5 -92.5h-63q-141 0 -222 72.5t-81 195.5q0 31 6 67l116 660q27 150 140.5 243t275.5 93h64q143 0 224 -73t81 -196zM834 1014q0 78 -52.5 128t-132.5 50h-63q-92 0 -166 -62.5t-90 -154.5l-117 -660q-4 -25 -4 -39q0 -76 51 -128t131 -52h64 q90 0 166.5 65.5t91.5 153.5l116 660q5 25 5 39z" />
<glyph unicode="&#xd6;" d="M907 1526q0 -39 -31.5 -71t-70.5 -32q-31 0 -48.5 19.5t-17.5 50.5q0 39 29 70.5t68 31.5q33 0 52 -19t19 -50zM598 1526q0 -39 -31.5 -71t-70.5 -32q-31 0 -48.5 19.5t-17.5 50.5q0 41 27.5 71.5t68.5 30.5q31 0 51.5 -19t20.5 -50zM975 1042q0 -35 -6 -67l-117 -660 q-27 -150 -141.5 -242.5t-276.5 -92.5h-63q-141 0 -222 72.5t-81 195.5q0 31 6 67l116 660q27 150 140.5 243t275.5 93h64q143 0 224 -73t81 -196zM834 1014q0 78 -52.5 128t-132.5 50h-63q-92 0 -166 -62.5t-90 -154.5l-117 -660q-4 -25 -4 -39q0 -76 51 -128t131 -52h64 q90 0 166.5 65.5t91.5 153.5l116 660q5 25 5 39z" />
<glyph unicode="&#xd7;" d="M932 799q10 -14 -4 -29l-320 -270q-18 -16 -4 -31l221 -270q14 -14 -4 -29l-33 -29q-18 -14 -30 0l-223 271q-12 14 -29 0l-330 -281q-16 -14 -29 0l-32 39q-10 14 4 29l334 280q18 16 4 31l-221 270q-14 14 4 29l30 29q18 14 31 0l223 -271q12 -14 29 0l317 271 q16 14 29 0z" />
<glyph unicode="&#xd8;" d="M975 1042q0 -35 -6 -67l-117 -660q-27 -150 -141.5 -242.5t-276.5 -92.5h-63q-141 0 -222 72.5t-81 195.5q0 31 6 67l116 660q27 150 140.5 243t275.5 93h64q143 0 224 -73t81 -196zM770 1143q0 8 -6 14q-45 35 -115 35h-63q-92 0 -166 -62.5t-90 -154.5l-117 -660 q-4 -20 -4 -32q0 -20 16 -21q12 0 23 17l502 825q20 33 20 39zM834 1020q0 20 -17 20q-12 0 -22 -16l-510 -842q-16 -27 -17 -35q0 -8 6 -12q45 -39 117 -39h64q90 0 166.5 65.5t91.5 153.5l116 660q5 29 5 45z" />
<glyph unicode="&#xd9;" d="M707 1419q0 -12 -17 -12h-55q-12 0 -27 10l-194 164q-14 14 -15 21q0 14 17 14h162q18 0 24 -12l96 -166q9 -17 9 -19zM1020 1274q0 -14 -14 -88l-154 -871q-27 -150 -141.5 -242.5t-276.5 -92.5h-63q-141 0 -222 72.5t-81 195.5q0 31 6 67l168 953q2 20 24 20h99 q16 0 16 -14q0 -12 -19 -109l-149 -850q-4 -25 -4 -39q0 -76 51 -128t131 -52h64q90 0 166.5 65.5t91.5 153.5l168 953q2 20 24 20h99q16 0 16 -14z" />
<glyph unicode="&#xda;" d="M926 1604q0 -8 -21 -21l-256 -166q-16 -10 -31 -10h-51q-12 0 -12 12q0 2 18 25l148 160q12 12 29 12h161q15 0 15 -12zM1020 1274q0 -14 -14 -88l-154 -871q-27 -150 -141.5 -242.5t-276.5 -92.5h-63q-141 0 -222 72.5t-81 195.5q0 31 6 67l168 953q2 20 24 20h99 q16 0 16 -14q0 -12 -19 -109l-149 -850q-4 -25 -4 -39q0 -76 51 -128t131 -52h64q90 0 166.5 65.5t91.5 153.5l168 953q2 20 24 20h99q16 0 16 -14z" />
<glyph unicode="&#xdb;" d="M836 1413q0 -10 -17 -10h-88q-12 0 -18 12l-54 113q-2 8 -10 8q-6 0 -14 -8l-94 -113q-12 -12 -25 -12h-84q-12 0 -12 8q0 4 14 23l156 172q8 10 24 10h99q16 0 20 -10l92 -170q11 -21 11 -23zM1020 1274q0 -14 -14 -88l-154 -871q-27 -150 -141.5 -242.5t-276.5 -92.5 h-63q-141 0 -222 72.5t-81 195.5q0 31 6 67l168 953q2 20 24 20h99q16 0 16 -14q0 -12 -19 -109l-149 -850q-4 -25 -4 -39q0 -76 51 -128t131 -52h64q90 0 166.5 65.5t91.5 153.5l168 953q2 20 24 20h99q16 0 16 -14z" />
<glyph unicode="&#xdc;" d="M881 1526q0 -39 -32 -71t-71 -32q-31 0 -48 19.5t-17 50.5q0 39 28.5 70.5t67.5 31.5q31 0 51.5 -19t20.5 -50zM571 1526q0 -39 -31.5 -71t-70.5 -32q-31 0 -48.5 19.5t-17.5 50.5q0 41 28 71.5t69 30.5q33 0 52 -19t19 -50zM1020 1274q0 -14 -14 -88l-154 -871 q-27 -150 -141.5 -242.5t-276.5 -92.5h-63q-141 0 -222 72.5t-81 195.5q0 31 6 67l168 953q2 20 24 20h99q16 0 16 -14q0 -12 -19 -109l-149 -850q-4 -25 -4 -39q0 -76 51 -128t131 -52h64q90 0 166.5 65.5t91.5 153.5l168 953q2 20 24 20h99q16 0 16 -14z" />
<glyph unicode="&#xdd;" horiz-adv-x="917" d="M889 1604q0 -8 -21 -21l-256 -166q-16 -10 -30 -10h-52q-12 0 -12 12q0 2 19 25l147 160q12 12 29 12h161q15 0 15 -12zM993 1274q0 -6 -20 -35l-457 -643l-100 -576q-2 -20 -25 -20h-98q-18 0 -19 14q0 6 11 64l90 518l-217 618q-2 8 -7.5 20.5t-8.5 21t-3 12.5 q0 20 27 20h117q12 0 16 -12l160 -516q6 -16 16 -16.5t21 16.5l340 516q8 12 20 12h117q20 0 20 -14z" />
<glyph unicode="&#xde;" horiz-adv-x="991" d="M956 766q0 -176 -123.5 -296t-302.5 -120h-260q-23 0 -24 -20l-53 -310q-2 -20 -25 -20h-96q-18 0 -19 14q0 6 10 52l211 1202q2 20 25 20h96q16 0 17 -14q0 -4 -4 -29l-25 -141q-8 -37 -8 -45q0 -16 20 -17h258q141 0 222 -73.5t81 -202.5zM819 745q0 78 -52 129.5 t-134 51.5h-260q-23 0 -25 -21l-67 -383q0 -6 -2.5 -15t-3.5 -16.5t-1 -9.5q0 -14 17 -14h260q109 0 188.5 84.5t79.5 193.5z" />
<glyph unicode="&#xdf;" horiz-adv-x="976" d="M924 954l-9 -43q-14 -70 -69 -137t-127 -100q-39 -18 -6 -37q59 -33 90 -105.5t20 -146.5l-8 -53q-20 -143 -120.5 -235.5t-252.5 -114.5q-10 -2 -15 4t-3 16l14 80q4 16 21 20q84 18 140 77t73 136l12 64q16 78 -22.5 135t-116.5 76q-16 4 -13 20l15 88q4 16 20 21 q84 20 140.5 77.5t72.5 137.5l8 41q18 90 -36 153.5t-144 63.5q-96 0 -167.5 -61.5t-88.5 -155.5l-194 -1096q-27 -156 -148 -257t-272 -101q-18 0 -64 4q-23 2 -10 29l41 75q8 14 25 13q20 -4 28 -4q90 0 167 64.5t91 154.5l193 1097q27 150 148.5 253.5t271.5 103.5 q164 0 245 -97.5t50 -259.5z" />
<glyph unicode="&#xe0;" horiz-adv-x="970" d="M602 1038q0 -18 -27 -18h-40q-14 0 -23 10l-195 209q-6 6 -6 14q0 20 27 21h135q12 0 21 -12l96 -191q12 -25 12 -33zM866 891q0 -14 -12 -76l-139 -795q-2 -20 -25 -20h-76q-16 0 -16 16l16 99q0 16 -14 16t-22 -10q-115 -121 -226 -121q-141 0 -221 73.5t-80 194.5 q0 31 6 68l41 235q27 150 139.5 242t274.5 92q111 0 184 -119q4 -10 17 -10q18 0 22 23l15 86q2 20 24 20h76q16 0 16 -14zM676 608q0 78 -52.5 129t-131.5 51q-90 0 -166 -63t-90 -154l-41 -235q-4 -25 -5 -37q0 -78 51.5 -130t131.5 -52q90 0 166.5 65.5t91.5 153.5 l41 235q4 25 4 37z" />
<glyph unicode="&#xe1;" horiz-adv-x="970" d="M848 1260q0 -10 -12 -21l-271 -209q-12 -10 -24 -10h-41q-20 0 -21 12q0 6 10 21l179 209q12 12 24 12h135q21 0 21 -14zM866 891q0 -14 -12 -76l-139 -795q-2 -20 -25 -20h-76q-16 0 -16 16l16 99q0 16 -14 16t-22 -10q-115 -121 -226 -121q-141 0 -221 73.5t-80 194.5 q0 31 6 68l41 235q27 150 139.5 242t274.5 92q111 0 184 -119q4 -10 17 -10q18 0 22 23l15 86q2 20 24 20h76q16 0 16 -14zM676 608q0 78 -52.5 129t-131.5 51q-90 0 -166 -63t-90 -154l-41 -235q-4 -25 -5 -37q0 -78 51.5 -130t131.5 -52q90 0 166.5 65.5t91.5 153.5 l41 235q4 25 4 37z" />
<glyph unicode="&#xe2;" horiz-adv-x="970" d="M758 1038q0 -20 -27 -20h-72q-10 0 -14 8l-67 127q-6 10 -14.5 10t-18.5 -10l-119 -127q-8 -8 -18 -8h-70q-18 0 -19 14q0 10 9 19l202 215q8 8 17 8h63q12 0 17 -8l127 -215q4 -9 4 -13zM866 891q0 -14 -12 -76l-139 -795q-2 -20 -25 -20h-76q-16 0 -16 16l16 99 q0 16 -14 16t-22 -10q-115 -121 -226 -121q-141 0 -221 73.5t-80 194.5q0 31 6 68l41 235q27 150 139.5 242t274.5 92q111 0 184 -119q4 -10 17 -10q18 0 22 23l15 86q2 20 24 20h76q16 0 16 -14zM676 608q0 78 -52.5 129t-131.5 51q-90 0 -166 -63t-90 -154l-41 -235 q-4 -25 -5 -37q0 -78 51.5 -130t131.5 -52q90 0 166.5 65.5t91.5 153.5l41 235q4 25 4 37z" />
<glyph unicode="&#xe3;" horiz-adv-x="970" d="M848 1174q0 -8 -6 -15q-96 -123 -185 -123q-43 0 -116 54l-37 26q-41 31 -80 31q-53 0 -117 -53q-8 -6 -14 -7q-4 0 -12 5l-19 14q-6 6 -6 12q0 8 6 15q92 121 180 120q59 0 113 -47l37 -32q35 -31 86 -31q53 0 119 55q12 8 16 8q6 0 12 -6l15 -14q8 -8 8 -12zM866 891 q0 -14 -12 -76l-139 -795q-2 -20 -25 -20h-76q-16 0 -16 16l16 99q0 16 -14 16t-22 -10q-115 -121 -226 -121q-141 0 -221 73.5t-80 194.5q0 31 6 68l41 235q27 150 139.5 242t274.5 92q111 0 184 -119q4 -10 17 -10q18 0 22 23l15 86q2 20 24 20h76q16 0 16 -14zM676 608 q0 78 -52.5 129t-131.5 51q-90 0 -166 -63t-90 -154l-41 -235q-4 -25 -5 -37q0 -78 51.5 -130t131.5 -52q90 0 166.5 65.5t91.5 153.5l41 235q4 25 4 37z" />
<glyph unicode="&#xe4;" horiz-adv-x="970" d="M815 1161q0 -41 -35 -74.5t-75 -33.5q-33 0 -53.5 20.5t-20.5 52.5q0 43 30.5 75t73.5 32q35 0 57.5 -19.5t22.5 -52.5zM481 1161q0 -43 -32.5 -75.5t-75.5 -32.5q-33 0 -54.5 21.5t-21.5 53.5q0 43 31.5 74t74.5 31q35 0 56.5 -19.5t21.5 -52.5zM866 891q0 -14 -12 -76 l-139 -795q-2 -20 -25 -20h-76q-16 0 -16 16l16 99q0 16 -14 16t-22 -10q-115 -121 -226 -121q-141 0 -221 73.5t-80 194.5q0 31 6 68l41 235q27 150 139.5 242t274.5 92q111 0 184 -119q4 -10 17 -10q18 0 22 23l15 86q2 20 24 20h76q16 0 16 -14zM676 608q0 78 -52.5 129 t-131.5 51q-90 0 -166 -63t-90 -154l-41 -235q-4 -25 -5 -37q0 -78 51.5 -130t131.5 -52q90 0 166.5 65.5t91.5 153.5l41 235q4 25 4 37z" />
<glyph unicode="&#xe5;" horiz-adv-x="970" d="M737 1268q0 -27 -14 -94q-14 -70 -66.5 -113t-126.5 -43q-66 0 -102.5 33.5t-36.5 89.5q0 25 15 96q14 70 65 112t125 42q66 0 103.5 -33t37.5 -90zM866 891q0 -14 -12 -76l-139 -795q-2 -20 -25 -20h-76q-16 0 -16 16l16 99q0 16 -14 16t-22 -10q-115 -121 -226 -121 q-141 0 -221 73.5t-80 194.5q0 31 6 68l41 235q27 150 139.5 242t274.5 92q111 0 184 -119q4 -10 17 -10q18 0 22 23l15 86q2 20 24 20h76q16 0 16 -14zM676 1255q0 74 -92 74q-47 0 -78 -24.5t-39 -67.5q-14 -76 -14 -82q0 -76 88 -76q47 0 79.5 25.5t41.5 69.5 q14 71 14 81zM676 608q0 78 -52.5 129t-131.5 51q-90 0 -166 -63t-90 -154l-41 -235q-4 -25 -5 -37q0 -78 51.5 -130t131.5 -52q90 0 166.5 65.5t91.5 153.5l41 235q4 25 4 37z" />
<glyph unicode="&#xe6;" horiz-adv-x="1513" d="M1395 641q0 -16 -4 -49l-23 -125q-2 -20 -25 -21h-534q-20 0 -23 -20l-18 -100q-4 -25 -4 -47q0 -78 50 -130.5t130 -52.5q115 0 215 117q8 8 17 8q6 0 22 -8l66 -37q10 -6 10 -14q0 -16 -45 -62q-117 -121 -305 -120q-190 0 -275 149q-6 10 -14 10q-12 0 -21 -12 q-55 -72 -128.5 -109.5t-127.5 -37.5h-106q-96 0 -157.5 53t-61.5 141q0 18 14 109q18 104 101 160.5t196 56.5h295q23 0 25 20l12 68q2 12 2 37q0 78 -52.5 129t-131.5 51q-117 0 -211 -113q-10 -10 -21 -10q-6 0 -26 12l-60 35q-10 6 -10 14q0 14 51 66q113 113 297 113 q172 0 264 -111q8 -8 13 -8q8 0 16 8q133 115 285 115q139 0 221 -85t82 -200zM1255 629q0 78 -52 129t-132 51q-90 0 -166 -63.5t-90 -153.5q-6 -31 -6 -33q0 -16 18 -16h396q20 0 22 20q10 56 10 66zM639 385q0 18 -16 18h-295q-51 0 -93 -34.5t-51 -85.5q-12 -80 -12 -84 q0 -43 28.5 -73t71.5 -30h107q66 0 133.5 54.5t105.5 123.5z" />
<glyph unicode="&#xe7;" horiz-adv-x="870" d="M803 754q0 -14 -17 -21l-69 -33q-25 -12 -33 -12q-12 0 -14 8q-27 51 -74 82t-100 31q-90 0 -166 -63.5t-90 -153.5l-50 -277q-2 -12 -2 -36q0 -78 50.5 -130.5t130.5 -52.5q115 0 215 117q8 8 16 8q6 0 27 -10l61 -35q10 -6 10 -14q0 -20 -51 -68q-98 -98 -252 -112 q-29 -4 -47 -31l-45 -70q-6 -8 -6 -16q0 -12 8 -15q72 -35 72 -102q0 -27 -6 -55q-14 -76 -78 -124t-143 -48h-74q-16 0 -17 16l4 37q2 20 25 20h74q41 0 74.5 29t42.5 70q4 16 4 35q0 57 -88 82q-12 2 -13 12q0 10 8 20l70 107q12 20 12 26q0 10 -18 15q-98 20 -152.5 88.5 t-54.5 167.5q0 33 6 69l49 277q27 150 139.5 242t274.5 92q170 0 246 -97q41 -50 41 -75z" />
<glyph unicode="&#xe8;" horiz-adv-x="937" d="M596 1038q0 -18 -27 -18h-41q-14 0 -22 10l-195 209q-6 6 -6 14q0 20 27 21h135q12 0 20 -12l97 -191q12 -25 12 -33zM819 641q0 -16 -4 -49l-22 -125q-2 -20 -25 -21h-535q-20 0 -22 -20l-18 -100q-4 -25 -5 -47q0 -78 50.5 -130.5t130.5 -52.5q115 0 215 117q8 8 16 8 q6 0 23 -8l65 -37q10 -6 10 -14q0 -16 -45 -62q-117 -121 -305 -120q-141 0 -221 72.5t-80 193.5q0 33 6 69l49 277q23 127 141.5 230.5t272.5 103.5q139 0 221 -85t82 -200zM680 629q0 78 -52.5 129t-131.5 51q-90 0 -166 -63.5t-90 -153.5q-6 -31 -7 -33q0 -16 19 -16h395 q20 0 23 20q10 56 10 66z" />
<glyph unicode="&#xe9;" horiz-adv-x="937" d="M842 1260q0 -10 -13 -21l-270 -209q-12 -10 -24 -10h-41q-20 0 -21 12q0 6 10 21l179 209q12 12 24 12h135q21 0 21 -14zM819 641q0 -16 -4 -49l-22 -125q-2 -20 -25 -21h-535q-20 0 -22 -20l-18 -100q-4 -25 -5 -47q0 -78 50.5 -130.5t130.5 -52.5q115 0 215 117 q8 8 16 8q6 0 23 -8l65 -37q10 -6 10 -14q0 -16 -45 -62q-117 -121 -305 -120q-141 0 -221 72.5t-80 193.5q0 33 6 69l49 277q23 127 141.5 230.5t272.5 103.5q139 0 221 -85t82 -200zM680 629q0 78 -52.5 129t-131.5 51q-90 0 -166 -63.5t-90 -153.5q-6 -31 -7 -33 q0 -16 19 -16h395q20 0 23 20q10 56 10 66z" />
<glyph unicode="&#xea;" horiz-adv-x="937" d="M752 1038q0 -20 -27 -20h-72q-10 0 -14 8l-68 127q-6 10 -14 10t-18 -10l-119 -127q-8 -8 -19 -8h-69q-18 0 -19 14q0 10 9 19l202 215q8 8 17 8h63q12 0 17 -8l127 -215q4 -9 4 -13zM819 641q0 -16 -4 -49l-22 -125q-2 -20 -25 -21h-535q-20 0 -22 -20l-18 -100 q-4 -25 -5 -47q0 -78 50.5 -130.5t130.5 -52.5q115 0 215 117q8 8 16 8q6 0 23 -8l65 -37q10 -6 10 -14q0 -16 -45 -62q-117 -121 -305 -120q-141 0 -221 72.5t-80 193.5q0 33 6 69l49 277q23 127 141.5 230.5t272.5 103.5q139 0 221 -85t82 -200zM680 629q0 78 -52.5 129 t-131.5 51q-90 0 -166 -63.5t-90 -153.5q-6 -31 -7 -33q0 -16 19 -16h395q20 0 23 20q10 56 10 66z" />
<glyph unicode="&#xeb;" horiz-adv-x="937" d="M809 1161q0 -41 -35 -74.5t-76 -33.5q-33 0 -53 20.5t-20 52.5q0 43 30.5 75t73.5 32q35 0 57.5 -19.5t22.5 -52.5zM475 1161q0 -43 -32.5 -75.5t-75.5 -32.5q-33 0 -54.5 21.5t-21.5 53.5q0 43 31.5 74t74.5 31q35 0 56.5 -19.5t21.5 -52.5zM819 641q0 -16 -4 -49 l-22 -125q-2 -20 -25 -21h-535q-20 0 -22 -20l-18 -100q-4 -25 -5 -47q0 -78 50.5 -130.5t130.5 -52.5q115 0 215 117q8 8 16 8q6 0 23 -8l65 -37q10 -6 10 -14q0 -16 -45 -62q-117 -121 -305 -120q-141 0 -221 72.5t-80 193.5q0 33 6 69l49 277q23 127 141.5 230.5 t272.5 103.5q139 0 221 -85t82 -200zM680 629q0 78 -52.5 129t-131.5 51q-90 0 -166 -63.5t-90 -153.5q-6 -31 -7 -33q0 -16 19 -16h395q20 0 23 20q10 56 10 66z" />
<glyph unicode="&#xec;" horiz-adv-x="428" d="M342 1038q0 -18 -27 -18h-41q-14 0 -22 10l-195 209q-6 6 -6 14q0 20 27 21h135q12 0 20 -12l97 -191q12 -25 12 -33zM324 891q0 -6 -13 -76l-139 -795q-2 -20 -25 -20h-98q-18 0 -18 14q0 4 2 15.5t6 29t6 31.5l139 795q2 20 25 20h98q17 0 17 -14z" />
<glyph unicode="&#xed;" horiz-adv-x="428" d="M588 1260q0 -10 -13 -21l-270 -209q-12 -10 -24 -10h-41q-20 0 -21 12q0 6 10 21l179 209q12 12 24 12h135q21 0 21 -14zM324 891q0 -6 -13 -76l-139 -795q-2 -20 -25 -20h-98q-18 0 -18 14q0 4 2 15.5t6 29t6 31.5l139 795q2 20 25 20h98q17 0 17 -14z" />
<glyph unicode="&#xee;" horiz-adv-x="428" d="M498 1038q0 -20 -27 -20h-72q-10 0 -14 8l-68 127q-6 10 -14 10t-18 -10l-119 -127q-8 -8 -19 -8h-69q-18 0 -19 14q0 10 9 19l202 215q8 8 17 8h63q12 0 17 -8l127 -215q4 -9 4 -13zM324 891q0 -6 -13 -76l-139 -795q-2 -20 -25 -20h-98q-18 0 -18 14q0 4 2 15.5t6 29 t6 31.5l139 795q2 20 25 20h98q17 0 17 -14z" />
<glyph unicode="&#xef;" horiz-adv-x="428" d="M555 1161q0 -41 -35 -74.5t-76 -33.5q-33 0 -53 20.5t-20 52.5q0 43 30.5 75t73.5 32q35 0 57.5 -19.5t22.5 -52.5zM221 1161q0 -43 -32.5 -75.5t-75.5 -32.5q-33 0 -54.5 21.5t-21.5 53.5q0 43 31.5 74t74.5 31q35 0 56.5 -19.5t21.5 -52.5zM324 891q0 -6 -13 -76 l-139 -795q-2 -20 -25 -20h-98q-18 0 -18 14q0 4 2 15.5t6 29t6 31.5l139 795q2 20 25 20h98q17 0 17 -14z" />
<glyph unicode="&#xf0;" horiz-adv-x="937" d="M815 592l-49 -277q-27 -150 -141.5 -242.5t-276.5 -92.5t-241.5 93t-53.5 242l49 277q27 150 139.5 242t274.5 92h2l-96 116l-203 -84q-29 -10 -29 11l9 39q4 29 18 32l154 64l-129 158q-8 8 1 17t23 9h107q4 0 18 -14l98 -121l224 92q10 4 19 0t7 -12l-8 -45 q-4 -20 -20 -27l-170 -69l245 -297q52 -82 29 -203zM676 592q14 88 -38 152.5t-142 64.5t-166 -63.5t-90 -153.5l-50 -277q-16 -90 37.5 -154.5t141.5 -64.5q90 0 166.5 65.5t91.5 153.5z" />
<glyph unicode="&#xf1;" horiz-adv-x="1003" d="M862 1174q0 -8 -6 -15q-94 -123 -184 -123q-43 0 -117 54l-37 26q-41 31 -80 31q-53 0 -116 -53q-10 -6 -14.5 -6.5t-12.5 4.5l-19 14q-6 6 -6 12q0 8 6 15q92 121 181 120q59 0 112 -47l37 -32q35 -31 86 -31q53 0 119 55q12 8 16 8q6 0 13 -6l14 -14q8 -8 8 -12z M850 637q0 -31 -6 -66l-96 -551q-2 -20 -25 -20h-98q-18 0 -19 14q0 2 17 88l82 469q4 25 4 37q0 78 -52.5 129t-132.5 51q-90 0 -165.5 -63t-90.5 -154l-96 -551q-2 -20 -25 -20h-98q-18 0 -18 14q0 2 16 88l137 783q2 20 25 20h76q16 0 16 -16l-14 -92q0 -16 14 -17 q12 0 21 11q113 115 223 114q143 0 224 -73.5t81 -194.5z" />
<glyph unicode="&#xf2;" horiz-adv-x="937" d="M596 1038q0 -18 -27 -18h-41q-14 0 -22 10l-195 209q-6 6 -6 14q0 20 27 21h135q12 0 20 -12l97 -191q12 -25 12 -33zM821 659q0 -33 -6 -67l-49 -277q-27 -150 -141.5 -242.5t-276.5 -92.5q-141 0 -221 72.5t-80 193.5q0 33 6 69l49 277q27 150 139.5 242t274.5 92 q143 0 224 -72t81 -195zM680 629q0 78 -52.5 129t-131.5 51q-90 0 -166 -63.5t-90 -153.5l-50 -277q-2 -12 -2 -36q0 -78 50.5 -130.5t130.5 -52.5q90 0 166.5 65.5t91.5 153.5l49 277q4 25 4 37z" />
<glyph unicode="&#xf3;" horiz-adv-x="937" d="M842 1260q0 -10 -13 -21l-270 -209q-12 -10 -24 -10h-41q-20 0 -21 12q0 6 10 21l179 209q12 12 24 12h135q21 0 21 -14zM821 659q0 -33 -6 -67l-49 -277q-27 -150 -141.5 -242.5t-276.5 -92.5q-141 0 -221 72.5t-80 193.5q0 33 6 69l49 277q27 150 139.5 242t274.5 92 q143 0 224 -72t81 -195zM680 629q0 78 -52.5 129t-131.5 51q-90 0 -166 -63.5t-90 -153.5l-50 -277q-2 -12 -2 -36q0 -78 50.5 -130.5t130.5 -52.5q90 0 166.5 65.5t91.5 153.5l49 277q4 25 4 37z" />
<glyph unicode="&#xf4;" horiz-adv-x="937" d="M752 1038q0 -20 -27 -20h-72q-10 0 -14 8l-68 127q-6 10 -14 10t-18 -10l-119 -127q-8 -8 -19 -8h-69q-18 0 -19 14q0 10 9 19l202 215q8 8 17 8h63q12 0 17 -8l127 -215q4 -9 4 -13zM821 659q0 -33 -6 -67l-49 -277q-27 -150 -141.5 -242.5t-276.5 -92.5 q-141 0 -221 72.5t-80 193.5q0 33 6 69l49 277q27 150 139.5 242t274.5 92q143 0 224 -72t81 -195zM680 629q0 78 -52.5 129t-131.5 51q-90 0 -166 -63.5t-90 -153.5l-50 -277q-2 -12 -2 -36q0 -78 50.5 -130.5t130.5 -52.5q90 0 166.5 65.5t91.5 153.5l49 277q4 25 4 37z " />
<glyph unicode="&#xf5;" horiz-adv-x="937" d="M842 1174q0 -8 -6 -15q-94 -123 -185 -123q-43 0 -116 54l-37 26q-41 31 -80 31q-53 0 -117 -53q-10 -6 -14 -6.5t-13 4.5l-18 14q-6 6 -6 12q0 8 6 15q92 121 180 120q59 0 113 -47l37 -32q35 -31 86 -31q53 0 119 55q12 8 16 8q6 0 12 -6l15 -14q8 -8 8 -12zM821 659 q0 -33 -6 -67l-49 -277q-27 -150 -141.5 -242.5t-276.5 -92.5q-141 0 -221 72.5t-80 193.5q0 33 6 69l49 277q27 150 139.5 242t274.5 92q143 0 224 -72t81 -195zM680 629q0 78 -52.5 129t-131.5 51q-90 0 -166 -63.5t-90 -153.5l-50 -277q-2 -12 -2 -36q0 -78 50.5 -130.5 t130.5 -52.5q90 0 166.5 65.5t91.5 153.5l49 277q4 25 4 37z" />
<glyph unicode="&#xf6;" horiz-adv-x="937" d="M809 1161q0 -41 -35 -74.5t-76 -33.5q-33 0 -53 20.5t-20 52.5q0 43 30.5 75t73.5 32q35 0 57.5 -19.5t22.5 -52.5zM475 1161q0 -43 -32.5 -75.5t-75.5 -32.5q-33 0 -54.5 21.5t-21.5 53.5q0 43 31.5 74t74.5 31q35 0 56.5 -19.5t21.5 -52.5zM821 659q0 -33 -6 -67 l-49 -277q-27 -150 -141.5 -242.5t-276.5 -92.5q-141 0 -221 72.5t-80 193.5q0 33 6 69l49 277q27 150 139.5 242t274.5 92q143 0 224 -72t81 -195zM680 629q0 78 -52.5 129t-131.5 51q-90 0 -166 -63.5t-90 -153.5l-50 -277q-2 -12 -2 -36q0 -78 50.5 -130.5t130.5 -52.5 q90 0 166.5 65.5t91.5 153.5l49 277q4 25 4 37z" />
<glyph unicode="&#xf7;" d="M682 815q-6 -41 -42 -71.5t-77 -30.5q-39 0 -63.5 30.5t-18.5 71.5q8 41 43 70.5t74 29.5q43 0 67.5 -28.5t16.5 -71.5zM958 512l-8 -55q-6 -20 -24 -21h-822q-23 0 -16 21l8 55q6 20 25 20h821q22 0 16 -20zM567 156q-8 -41 -44 -72t-77 -31q-39 0 -63.5 31t-15.5 72 q6 41 40.5 70.5t73.5 29.5q43 0 68.5 -28.5t17.5 -71.5z" />
<glyph unicode="&#xf8;" horiz-adv-x="937" d="M821 659q0 -33 -6 -67l-49 -277q-27 -150 -141.5 -242.5t-276.5 -92.5q-141 0 -221 72.5t-80 193.5q0 33 6 69l49 277q27 150 139.5 242t274.5 92q143 0 224 -72t81 -195zM678 627q0 41 -16 82q-6 14 -16.5 14t-20.5 -16l-322 -535q-20 -35 -20 -41q0 -10 10 -16 q37 -18 76 -19q90 0 166.5 65.5t91.5 153.5l49 277q2 12 2 35zM569 786q0 10 -14 15q-31 8 -59 8q-90 0 -166 -63.5t-90 -153.5l-50 -277q-2 -10 -2 -34q0 -33 7 -56q2 -14 16 -14q12 0 20 14l310 508q28 45 28 53z" />
<glyph unicode="&#xf9;" horiz-adv-x="980" d="M610 1038q0 -18 -26 -18h-41q-14 0 -23 10l-194 209q-6 6 -7 14q0 20 27 21h135q12 0 21 -12l96 -191q12 -25 12 -33zM877 891q0 -10 -13 -76l-139 -795q-2 -20 -25 -20h-75q-16 0 -17 16l17 99q0 16 -14.5 16t-22.5 -10q-115 -121 -226 -121q-141 0 -221 73.5t-80 194.5 q0 35 7 68l96 549q2 20 24 20h97q16 0 16 -14q0 -8 -16 -98l-80 -457q-4 -25 -4 -37q0 -78 51 -130t131 -52q92 0 168 63.5t92 155.5l96 549q2 20 25 20h96q17 0 17 -14z" />
<glyph unicode="&#xfa;" horiz-adv-x="980" d="M856 1260q0 -10 -12 -21l-271 -209q-12 -10 -24 -10h-41q-20 0 -21 12q0 6 11 21l178 209q12 12 24 12h136q20 0 20 -14zM877 891q0 -10 -13 -76l-139 -795q-2 -20 -25 -20h-75q-16 0 -17 16l17 99q0 16 -14.5 16t-22.5 -10q-115 -121 -226 -121q-141 0 -221 73.5 t-80 194.5q0 35 7 68l96 549q2 20 24 20h97q16 0 16 -14q0 -8 -16 -98l-80 -457q-4 -25 -4 -37q0 -78 51 -130t131 -52q92 0 168 63.5t92 155.5l96 549q2 20 25 20h96q17 0 17 -14z" />
<glyph unicode="&#xfb;" horiz-adv-x="980" d="M766 1038q0 -20 -27 -20h-71q-10 0 -15 8l-67 127q-6 10 -14.5 10t-18.5 -10l-119 -127q-8 -8 -18 -8h-70q-18 0 -18 14q0 10 8 19l203 215q8 8 16 8h63q12 0 17 -8l127 -215q4 -9 4 -13zM877 891q0 -10 -13 -76l-139 -795q-2 -20 -25 -20h-75q-16 0 -17 16l17 99 q0 16 -14.5 16t-22.5 -10q-115 -121 -226 -121q-141 0 -221 73.5t-80 194.5q0 35 7 68l96 549q2 20 24 20h97q16 0 16 -14q0 -8 -16 -98l-80 -457q-4 -25 -4 -37q0 -78 51 -130t131 -52q92 0 168 63.5t92 155.5l96 549q2 20 25 20h96q17 0 17 -14z" />
<glyph unicode="&#xfc;" horiz-adv-x="980" d="M823 1161q0 -41 -34.5 -74.5t-75.5 -33.5q-33 0 -53.5 20.5t-20.5 52.5q0 43 30.5 75t73.5 32q35 0 57.5 -19.5t22.5 -52.5zM489 1161q0 -43 -32.5 -75.5t-75.5 -32.5q-33 0 -54.5 21.5t-21.5 53.5q0 43 32 74t75 31q35 0 56 -19.5t21 -52.5zM877 891q0 -10 -13 -76 l-139 -795q-2 -20 -25 -20h-75q-16 0 -17 16l17 99q0 16 -14.5 16t-22.5 -10q-115 -121 -226 -121q-141 0 -221 73.5t-80 194.5q0 35 7 68l96 549q2 20 24 20h97q16 0 16 -14q0 -8 -16 -98l-80 -457q-4 -25 -4 -37q0 -78 51 -130t131 -52q92 0 168 63.5t92 155.5l96 549 q2 20 25 20h96q17 0 17 -14z" />
<glyph unicode="&#xfd;" horiz-adv-x="980" d="M856 1260q0 -10 -12 -21l-271 -209q-12 -10 -24 -10h-41q-20 0 -21 12q0 6 11 21l178 209q12 12 24 12h136q20 0 20 -14zM877 891q0 -14 -15 -86l-164 -928q-29 -162 -138 -260t-281.5 -98t-247.5 100q-39 47 -39 76q0 14 16 20l82 37l8 4q10 4 15 4q6 0 12 -10 q27 -53 74 -84t100 -31q92 0 167 63.5t91 156.5l37 202q8 37 8 47q0 16 -14 17q-12 0 -21 -10q-104 -111 -205 -111q-141 0 -221 73.5t-80 194.5q0 39 9 80l94 537q2 20 24 20h97q16 0 16 -14q0 -4 -4 -25.5t-4 -27.5l-82 -467q-10 -61 -10 -72q0 -78 51 -130t131 -52 q104 0 175 69.5t85 149.5l96 549q2 20 25 20h96q17 0 17 -14z" />
<glyph unicode="&#xfe;" horiz-adv-x="970" d="M850 637q0 -35 -10 -90l-37 -211q-27 -145 -140.5 -240.5t-256.5 -95.5q-106 0 -183 117q-6 10 -16 10q-18 0 -21 -25l-96 -542q-2 -20 -24 -21h-99q-16 0 -16 15q0 4 2 13t4 24.5t4 25.5l291 1651q2 20 24 20h76q16 0 17 -14q0 -4 -1 -10.5t-3.5 -15.5t-2.5 -15 l-69 -395q-6 -37 -6 -41q0 -16 14 -17q12 0 21 11q113 115 223 114q143 0 224 -73.5t81 -194.5zM709 608q0 78 -52.5 129t-132.5 51q-90 0 -165.5 -63t-90.5 -154l-37 -211q-8 -57 -8 -61q0 -78 51.5 -130t131.5 -52q90 0 166.5 65.5t91.5 153.5l36 211l5 26q4 25 4 35z" />
<glyph unicode="&#xff;" horiz-adv-x="980" d="M823 1161q0 -41 -34.5 -74.5t-75.5 -33.5q-33 0 -53.5 20.5t-20.5 52.5q0 43 30.5 75t73.5 32q35 0 57.5 -19.5t22.5 -52.5zM489 1161q0 -43 -32.5 -75.5t-75.5 -32.5q-33 0 -54.5 21.5t-21.5 53.5q0 43 32 74t75 31q35 0 56 -19.5t21 -52.5zM877 891q0 -14 -15 -86 l-164 -928q-29 -162 -138 -260t-281.5 -98t-247.5 100q-39 47 -39 76q0 14 16 20l82 37l8 4q10 4 15 4q6 0 12 -10q27 -53 74 -84t100 -31q92 0 167 63.5t91 156.5l37 202q8 37 8 47q0 16 -14 17q-12 0 -21 -10q-104 -111 -205 -111q-141 0 -221 73.5t-80 194.5q0 39 9 80 l94 537q2 20 24 20h97q16 0 16 -14q0 -4 -4 -25.5t-4 -27.5l-82 -467q-10 -61 -10 -72q0 -78 51 -130t131 -52q104 0 175 69.5t85 149.5l96 549q2 20 25 20h96q17 0 17 -14z" />
<glyph unicode="&#x152;" horiz-adv-x="1589" d="M1593 1268l-12 -76q-6 -20 -25 -21h-577q-20 0 -25 -16q0 -2 7 -33q20 -76 8 -147l-43 -242q-2 -20 16 -20h438q20 0 19 -21l-15 -76q-2 -20 -24 -20h-438q-20 0 -23 -21l-47 -260q-8 -57 -47 -125q-29 -51 -31 -57q0 -16 19 -16h577q23 0 16 -21l-12 -76q-2 -20 -24 -20 h-781q-66 -20 -135 -20h-63q-162 0 -243 93t-54 242l116 660q27 150 140.5 243t275.5 93h64q66 0 133 -23h774q18 0 16 -20zM829 975q16 92 -37 154.5t-143 62.5h-63q-92 0 -166 -62.5t-90 -154.5l-117 -660q-16 -90 35 -154.5t143 -64.5h64q90 0 166.5 65.5t91.5 153.5z " />
<glyph unicode="&#x153;" horiz-adv-x="1513" d="M1395 641q0 -16 -4 -49l-23 -125q-2 -20 -25 -21h-534q-20 0 -23 -20l-20 -111l-4 -16l-6 -27q18 -72 66 -124t122 -52q115 0 215 117q8 8 17 8q6 0 22 -8l66 -37q10 -6 10 -14q0 -16 -45 -62q-117 -121 -305 -120q-162 0 -252 108q-8 8 -15 8q-2 0 -14 -8 q-129 -109 -295 -108q-141 0 -221 72.5t-80 193.5q0 33 6 69l49 277q27 150 139.5 242t274.5 92q166 0 262 -109q8 -8 17 -8q4 0 14 6q133 111 283 111q139 0 221 -85t82 -200zM1255 629q0 78 -52 129t-132 51q-82 0 -146.5 -52t-103.5 -122q0 -10 -12 -78q0 -14 18 -14h396 q20 0 22 20q10 52 10 66zM680 629q0 78 -52.5 129t-131.5 51q-90 0 -166 -63.5t-90 -153.5l-50 -277q-2 -12 -2 -36q0 -78 50.5 -130.5t130.5 -52.5q90 0 166.5 65.5t91.5 153.5l49 277q4 25 4 37z" />
<glyph unicode="&#x178;" horiz-adv-x="917" d="M844 1526q0 -39 -32 -71t-71 -32q-31 0 -48 19.5t-17 50.5q0 39 28.5 70.5t67.5 31.5q31 0 51.5 -19t20.5 -50zM535 1526q0 -39 -32 -71t-71 -32q-31 0 -48 19.5t-17 50.5q0 41 27.5 71.5t68.5 30.5q33 0 52.5 -19t19.5 -50zM993 1274q0 -6 -20 -35l-457 -643l-100 -576 q-2 -20 -25 -20h-98q-18 0 -19 14q0 6 11 64l90 518l-217 618q-2 8 -7.5 20.5t-8.5 21t-3 12.5q0 20 27 20h117q12 0 16 -12l160 -516q6 -16 16 -16.5t21 16.5l340 516q8 12 20 12h117q20 0 20 -14z" />
<glyph unicode="&#x2c6;" horiz-adv-x="1024" d="M803 1038q0 -20 -27 -20h-71q-10 0 -15 8l-67 127q-6 10 -14.5 10t-18.5 -10l-119 -127q-8 -8 -18 -8h-70q-18 0 -18 14q0 10 8 19l202 215q8 8 17 8h63q12 0 17 -8l127 -215q4 -9 4 -13z" />
<glyph unicode="&#x2dc;" horiz-adv-x="1024" d="M893 1174q0 -8 -6 -15q-96 -123 -185 -123q-43 0 -116 54l-37 26q-41 31 -80 31q-53 0 -117 -53q-8 -6 -14 -7q-4 0 -12 5l-19 14q-6 6 -6 12q0 8 6 15q92 121 180 120q59 0 113 -47l37 -32q35 -31 86 -31q53 0 119 55q12 8 16 8q6 0 12 -6l15 -14q8 -8 8 -12z" />
<glyph unicode="&#x2000;" horiz-adv-x="806" />
<glyph unicode="&#x2001;" horiz-adv-x="1615" />
<glyph unicode="&#x2002;" horiz-adv-x="806" />
<glyph unicode="&#x2003;" horiz-adv-x="1615" />
<glyph unicode="&#x2004;" horiz-adv-x="538" />
<glyph unicode="&#x2005;" horiz-adv-x="403" />
<glyph unicode="&#x2006;" horiz-adv-x="268" />
<glyph unicode="&#x2007;" horiz-adv-x="268" />
<glyph unicode="&#x2008;" horiz-adv-x="200" />
<glyph unicode="&#x2009;" horiz-adv-x="321" />
<glyph unicode="&#x200a;" horiz-adv-x="88" />
<glyph unicode="&#x2010;" horiz-adv-x="534" d="M406 508q0 -14 -5 -31l-12 -74q-2 -20 -24 -20h-289q-18 0 -19 14q0 10 4 35l13 70q2 20 24 20h289q19 0 19 -14z" />
<glyph unicode="&#x2011;" horiz-adv-x="534" d="M406 508q0 -14 -5 -31l-12 -74q-2 -20 -24 -20h-289q-18 0 -19 14q0 10 4 35l13 70q2 20 24 20h289q19 0 19 -14z" />
<glyph unicode="&#x2012;" horiz-adv-x="534" d="M406 508q0 -14 -5 -31l-12 -74q-2 -20 -24 -20h-289q-18 0 -19 14q0 10 4 35l13 70q2 20 24 20h289q19 0 19 -14z" />
<glyph unicode="&#x2013;" horiz-adv-x="1165" d="M1036 516l-10 -59q-2 -20 -25 -21h-925q-18 0 -19 17l13 59q2 20 22 20h926q18 0 18 -16z" />
<glyph unicode="&#x2014;" horiz-adv-x="1740" d="M1612 516l-10 -59q-2 -20 -25 -21h-1501q-18 0 -19 17l13 59q2 20 22 20h1501q19 0 19 -16z" />
<glyph unicode="&#x2018;" horiz-adv-x="335" d="M389 1337q0 -14 -12 -22q-51 -33 -81 -103.5t-30 -105.5q0 -14 17 -14h24q16 0 17 -15l-19 -116q-2 -20 -24 -21h-129q-16 0 -17 18l19 109q35 195 151 281q47 35 59.5 34.5t14.5 -12.5z" />
<glyph unicode="&#x2019;" horiz-adv-x="335" d="M367 1280l-19 -109q-35 -195 -151 -280q-47 -35 -60 -35q-10 0 -14 12l-10 33q0 12 12 23q51 33 81 103.5t30 105.5q0 14 -17 14h-24q-16 0 -17 14l19 117q2 20 24 20h129q17 0 17 -18z" />
<glyph unicode="&#x201a;" horiz-adv-x="335" d="M170 172l-18 -109q-35 -195 -152 -280q-47 -35 -59 -35q-10 0 -15 12l-10 33q0 14 12 23q51 33 81 103.5t30 105.5q0 14 -16 14h-25q-16 0 -16 14l18 117q2 20 25 20h129q16 0 16 -18z" />
<glyph unicode="&#x201c;" horiz-adv-x="600" d="M651 1337q0 -14 -12 -22q-51 -33 -81 -103.5t-30 -105.5q0 -14 17 -14h24q16 0 17 -15l-19 -116q-2 -20 -24 -21h-129q-16 0 -17 18l19 109q35 195 151 281q47 35 59.5 34.5t14.5 -12.5zM389 1337q0 -14 -12 -22q-51 -33 -81 -103.5t-30 -105.5q0 -14 17 -14h24 q16 0 17 -15l-19 -116q-2 -20 -24 -21h-129q-16 0 -17 18l19 109q35 195 151 281q47 35 59.5 34.5t14.5 -12.5z" />
<glyph unicode="&#x201d;" horiz-adv-x="600" d="M629 1280l-19 -109q-35 -195 -151 -280q-47 -35 -60 -35q-10 0 -14 12l-10 33q0 12 12 23q51 33 81 103.5t30 105.5q0 14 -17 14h-24q-16 0 -17 14l19 117q2 20 24 20h129q17 0 17 -18zM367 1280l-19 -109q-35 -195 -151 -280q-47 -35 -60 -35q-10 0 -14 12l-10 33 q0 12 12 23q51 33 81 103.5t30 105.5q0 14 -17 14h-24q-16 0 -17 14l19 117q2 20 24 20h129q17 0 17 -18z" />
<glyph unicode="&#x201e;" horiz-adv-x="600" d="M432 172l-18 -109q-35 -195 -152 -280q-47 -35 -59 -35q-10 0 -15 12l-10 33q0 14 12 23q51 33 81 103.5t30 105.5q0 14 -16 14h-25q-16 0 -16 14l18 117q2 20 25 20h129q16 0 16 -18zM170 172l-18 -109q-35 -195 -152 -280q-47 -35 -59 -35q-10 0 -15 12l-10 33 q0 14 12 23q51 33 81 103.5t30 105.5q0 14 -16 14h-25q-16 0 -16 14l18 117q2 20 25 20h129q16 0 16 -18z" />
<glyph unicode="&#x2022;" horiz-adv-x="1024" d="M819 721q0 -16 -12 -96q-23 -121 -117 -197t-225 -76h-8q-117 0 -184.5 59.5t-67.5 157.5q0 20 12 99q23 121 116 195.5t226 74.5h8q117 0 184.5 -59.5t67.5 -157.5z" />
<glyph unicode="&#x2026;" horiz-adv-x="2048" d="M504 88q0 -49 -37 -84t-86 -35q-35 0 -58.5 24.5t-23.5 59.5q0 45 37 81t82 36q39 0 62.5 -23.5t23.5 -58.5zM1124 88q0 -49 -36.5 -84t-86.5 -35q-35 0 -58 24.5t-23 59.5q0 45 36.5 81t81.5 36q39 0 62.5 -23.5t23.5 -58.5zM1747 88q0 -49 -37 -84t-86 -35 q-35 0 -58.5 24.5t-23.5 59.5q0 45 37 81t82 36q39 0 62.5 -23.5t23.5 -58.5z" />
<glyph unicode="&#x202f;" horiz-adv-x="321" />
<glyph unicode="&#x2039;" horiz-adv-x="665" d="M588 909l-19 -92q-4 -12 -20 -24l-326 -207q-12 -8 -12 -19q0 -8 14 -20l242 -201q16 -12 16 -24l-16 -86q-4 -23 -18 -23q-12 0 -27 14l-320 260q-14 10 -14 23l18 108q4 18 19 27l407 258q33 20 41 21q15 -1 15 -15z" />
<glyph unicode="&#x203a;" horiz-adv-x="665" d="M559 627l-18 -109q-4 -18 -19 -26l-407 -259q-33 -20 -41 -20q-14 0 -15 14l19 92q4 12 20 25l326 207q12 10 12 18t-14 21l-242 201q-16 12 -16 24l16 86q4 23 19 23q12 0 26 -15l320 -260q14 -10 14 -22z" />
<glyph unicode="&#x205f;" horiz-adv-x="403" />
<glyph unicode="&#x20ac;" d="M1077 1145q6 -18 -16 -29l-94 -43q-16 -6 -23 6q-63 113 -174 113h-63q-92 0 -166 -62.5t-90 -154.5l-15 -80q-4 -20 17 -21h323q20 0 19 -20l-15 -76q-2 -20 -24 -20h-324q-20 0 -24 -21l-31 -184q-4 -20 16 -21h324q18 0 16 -20l-12 -74q-2 -20 -25 -20h-323 q-20 0 -25 -21l-14 -82q-16 -90 35 -154.5t143 -64.5h63q115 0 216 117q10 12 26 6l78 -43q18 -10 6 -29q-49 -63 -108 -102q-100 -66 -238 -65h-63q-162 0 -243 93t-54 242l14 82q4 20 -16 21h-127q-18 0 -17 20l12 74q2 20 25 20h127q20 0 25 21l30 184q4 20 -16 21h-127 q-18 0 -16 20l14 76q2 20 22 20h127q20 0 25 21l14 80q27 150 140.5 243t275.5 93h64q139 0 217 -68q42 -37 69 -98z" />
<glyph unicode="&#x2122;" horiz-adv-x="794" d="M811 1108q0 -14 -8 -51l-53 -299q-2 -20 -25 -21h-25q-16 0 -16 15q0 2 6 39l23 122q0 16 -17 17q-8 0 -22 -15l-66 -84q-6 -10 -20 -10h-8q-10 0 -15 10l-41 84q-8 14 -18 15q-18 0 -21 -25l-26 -147q-2 -20 -25 -21h-24q-16 0 -17 15l13 73l49 277q2 20 24 20h25 q12 0 16 -10l66 -166q8 -14 16 -14q10 0 21 14l127 166q6 10 20 10h25q16 0 16 -14zM377 1108l-4 -29q-2 -20 -25 -20h-55q-23 0 -25 -21l-49 -280q-2 -20 -24 -21h-25q-16 0 -16 14.5t8 51.5l37 205q0 6 3 19t3 17q0 14 -19 15h-55q-16 0 -16 14l4 29q2 20 24 20h217 q17 0 17 -14z" />
<glyph unicode="&#xe000;" horiz-adv-x="905" d="M0 905h905v-905h-905v905z" />
<glyph unicode="&#xfb01;" horiz-adv-x="995" d="M973 1237q0 -41 -35 -75t-76 -34q-33 0 -53.5 20.5t-20.5 53.5q0 41 33 75t74 34q35 0 56.5 -20.5t21.5 -53.5zM891 891q0 -6 -12 -76l-140 -795q-2 -20 -24 -20h-99q-18 0 -18 14q0 4 2 15.5t6 29t6 31.5l140 795q2 20 24 20h98q17 0 17 -14zM621 1286l-15 -78 q-4 -16 -20 -20q-84 -18 -141.5 -76.5t-71.5 -136.5l-23 -123q-4 -16 -4 -29q0 -14 19 -14h151q16 0 16 -14.5t-4 -26.5l-10 -55q-2 -20 -22 -21h-152q-23 0 -25 -20l-141 -797q-27 -150 -147.5 -253t-268.5 -103q-27 0 -63 4q-18 2 -18 12q0 8 12 29l33 61q8 14 20 15 q8 0 20.5 -1t16.5 -1q90 0 163.5 62t90.5 155l135 759q10 61 10 64q0 14 -16 14h-55q-18 0 -19 15q0 6 4 26l10 55q2 20 25 21h55q20 0 23 20l22 125q23 133 124.5 230.5t242.5 122.5h8q14 0 15 -15v-6z" />
<glyph unicode="&#xfb02;" horiz-adv-x="1001" d="M965 1274q0 -4 -7 -41l-213 -1213q-2 -20 -24 -20h-98q-18 0 -19 14q0 2 12 64l181 1026q8 49 8 53q0 14 -17 14h-163q-90 0 -165 -63.5t-91 -153.5l-19 -102q-4 -16 -4 -29q0 -14 19 -14h151q16 0 16 -14.5t-4 -26.5l-10 -55q-2 -20 -22 -21h-152q-23 0 -25 -20 l-141 -797q-27 -150 -147.5 -253t-268.5 -103q-27 0 -63 4q-18 2 -18 12q0 8 12 29l33 61q8 14 20 15q8 0 20.5 -1t16.5 -1q90 0 163.5 62t90.5 155l135 759q10 61 10 64q0 14 -16 14h-55q-18 0 -19 15q0 6 4 26l10 55q2 20 25 21h55q20 0 23 20l18 105q27 147 149 250.5 t269 103.5h303q17 0 17 -14z" />
<glyph unicode="&#xfb03;" horiz-adv-x="1517" d="M1495 1237q0 -41 -35 -75t-76 -34q-33 0 -53 20.5t-20 53.5q0 41 32.5 75t73.5 34q35 0 56.5 -20.5t21.5 -53.5zM1413 891q0 -6 -12 -76l-139 -795q-2 -20 -25 -20h-98q-18 0 -19 14q0 4 2 15.5t6.5 29t6.5 31.5l139 795q2 20 24 20h99q16 0 16 -14zM1157 1286l-14 -80 q-4 -16 -21 -20q-84 -16 -141 -74.5t-72 -136.5l-22 -123q-4 -16 -4 -29q0 -14 18 -14h152q16 0 16 -14.5t-4 -26.5l-10 -55q-2 -20 -23 -21h-151q-23 0 -25 -20l-125 -705q-27 -150 -147.5 -253t-268.5 -103q-27 0 -63 4q-18 4 -19 12q0 8 13 29l33 61q8 14 20 15 q8 0 20.5 -1t16.5 -1q90 0 163.5 62.5t90.5 154.5l119 667q10 61 10 64q0 14 -17 14h-360q-23 0 -25 -20l-141 -797q-27 -150 -147.5 -253t-268.5 -103q-27 0 -63 4q-18 2 -19 12q0 8 13 29l33 61q6 14 20 15q8 0 20.5 -1t16.5 -1q90 0 163.5 62t90.5 155l135 759 q10 61 10 64q0 14 -16 14h-55q-18 0 -19 15q0 6 4 26l10 55q2 20 25 21h55q20 0 23 20l22 125q27 150 149 253.5t269 103.5q141 0 225 -90q23 -23 25 -23q4 0 16 8q90 74 222 101h8q14 0 14 -15v-6zM803 1067q0 12 -21 43q-57 82 -155 82q-90 0 -165 -62.5t-91 -154.5 l-23 -123q-4 -16 -4 -29q0 -14 18 -14h361q20 0 22 20l23 125q8 49 20 80q15 29 15 33z" />
<glyph unicode="&#xfb04;" horiz-adv-x="1538" d="M1501 1274q0 -2 -10 -64l-209 -1190q-2 -20 -25 -20h-96q-18 0 -18 14q0 4 2 12.5t4 19.5t4 20l186 1062q4 20 4 29q0 14 -16 14h-164q-90 0 -165.5 -63.5t-92.5 -153.5l-18 -102q-4 -16 -4 -29q0 -14 18 -14h152q16 0 16 -14.5t-4 -26.5l-10 -55q-2 -20 -23 -21h-151 q-23 0 -25 -20l-125 -705q-27 -150 -147.5 -253t-268.5 -103q-27 0 -63 4q-18 4 -19 12q0 8 13 29l33 61q8 14 20 15q8 0 20.5 -1t16.5 -1q90 0 163.5 62.5t90.5 154.5l119 667q10 61 10 64q0 14 -17 14h-360q-23 0 -25 -20l-141 -797q-27 -150 -147.5 -253t-268.5 -103 q-27 0 -63 4q-18 2 -19 12q0 8 13 29l33 61q6 14 20 15q8 0 20.5 -1t16.5 -1q90 0 163.5 62t90.5 155l135 759q10 61 10 64q0 14 -16 14h-55q-18 0 -19 15q0 6 4 26l10 55q2 20 25 21h55q20 0 23 20l22 125q27 150 149 253.5t269 103.5q150 0 232 -97q25 -29 26 -28 q4 0 35 22q115 80 244 80h301q16 0 16 -14zM805 1061q0 10 -14 35q-57 96 -164 96q-90 0 -165 -62.5t-91 -154.5l-23 -123q-4 -16 -4 -29q0 -14 18 -14h361q20 0 22 20l19 105q12 57 27 92q14 33 14 35z" />
</font>
</defs>
</svg>
